<?xml version="1.0" standalone="no"?>
<!DOCTYPE svg PUBLIC "-//W3C//DTD SVG 1.1//EN" "http://www.w3.org/Graphics/SVG/1.1/DTD/svg11.dtd" >
<svg>
<metadata>
Created by FontForge 20090914 at Thu Jul  8 02:32:16 2010
 By apache
Digitized data copyright The Monotype Corporation 1991-1994. All rights reserved.
</metadata>
<defs>
<font id="Rockwell-Light" horiz-adv-x="1130" >
  <font-face 
    font-family="Rockwell Light"
    font-weight="400"
    font-stretch="normal"
    units-per-em="2048"
    panose-1="2 6 4 3 2 2 5 2 2 4"
    ascent="1638"
    descent="-410"
    x-height="969"
    cap-height="1391"
    bbox="-172 -459 2060 1878"
    underline-thickness="102"
    underline-position="-154"
    unicode-range="U+0020-U+F002"
  />
<missing-glyph horiz-adv-x="1024" 
d="M0 1365h860v-1365h-860v1365zM41 1324v-1283h778v1283h-778z" />
    <glyph glyph-name=".notdef" horiz-adv-x="1024" 
d="M0 1365h860v-1365h-860v1365zM41 1324v-1283h778v1283h-778z" />
    <glyph glyph-name="glyph1" horiz-adv-x="0" 
 />
    <glyph glyph-name="Lslash" unicode="&#x141;" horiz-adv-x="1044" 
d="M336 1298v-481l280 234v-90l-280 -234v-635h573v461h109v-553h-985v92h188v549l-221 -184v90l221 184v567h-188v93h489v-93h-186z" />
    <glyph glyph-name="lslash" unicode="&#x142;" horiz-adv-x="492" 
d="M18 0v92h175v529l-224 -185v80l224 184v598h-179v93h285v-609l225 187v-80l-225 -187v-610h174v-92h-455z" />
    <glyph glyph-name="threequarters" unicode="&#xbe;" horiz-adv-x="1729" 
d="M1300 0v55h91v154h-314q-8 32 -33 45l347 473h79v-465h134v-53h-134v-154h72v-55h-242zM410 0l979 1391h71l-979 -1391h-71zM1391 262v350h-5l-256 -350h261zM129 911h80q25 -182 201 -182q83 0 134.5 43t51.5 111q0 74 -66 117.5t-184 25.5v59q61 -7 107.5 10.5t71 52
t24.5 77.5q0 59 -41.5 95t-106.5 36q-68 0 -105 -40t-36 -108h-84q1 61 29 107.5t78 72t116 25.5t120 -25t84 -68.5t30 -98.5q0 -110 -109 -158q156 -50 156 -182q0 -59 -35.5 -107.5t-97.5 -76t-139 -27.5q-78 0 -141.5 30t-99 85t-38.5 126z" />
    <glyph glyph-name="onequarter" unicode="&#xbc;" horiz-adv-x="1729" 
d="M1147 0v55h90v154h-313q-8 31 -33 45l346 473h80v-465h133v-53h-133v-154h72v-55h-242zM256 0l979 1391h72l-979 -1391h-72zM1237 262v350h-4l-256 -350h260zM174 680v59h115v602h-115v60h203v-662h115v-59h-318z" />
    <glyph glyph-name="onesuperior" unicode="&#xb9;" horiz-adv-x="662" 
d="M172 680v59h115v602h-115v60h203v-662h114v-59h-317z" />
    <glyph glyph-name="multiply" unicode="&#xd7;" horiz-adv-x="1368" 
d="M684 592l-424 -422l-65 66l421 421l-421 422l65 66l422 -424l424 424l65 -66l-421 -422l421 -421l-65 -66z" />
    <glyph glyph-name="Thorn" unicode="&#xde;" 
d="M33 0v92h184v1206h-184v93h487v-93h-188v-194h303q229 0 343 -115t114 -293q0 -83 -26.5 -155.5t-80 -129t-141.5 -90.5t-201 -34h-311v-195h188v-92h-487zM332 1012v-633h262q383 0 383 307q0 166 -89.5 246t-281.5 80h-274z" />
    <glyph glyph-name="brokenbar" unicode="&#xa6;" horiz-adv-x="1016" 
d="M455 -459v748h106v-748h-106zM455 645v746h106v-746h-106z" />
    <glyph glyph-name="Eth" unicode="&#xd0;" horiz-adv-x="1450" 
d="M18 0v92h193v559h-193v92h193v555h-193v93h553q132 0 236 -15.5t192 -54.5t158 -109q93 -92 144 -224.5t51 -278.5q0 -103 -21.5 -201t-68 -186.5t-115.5 -157.5q-87 -87 -221 -125.5t-342 -38.5h-566zM326 92h262q165 0 285 34t200 114q164 162 164 465
q0 125 -40.5 241.5t-117.5 192.5q-88 90 -206.5 124.5t-288.5 34.5h-258v-555h426v-92h-426v-559z" />
    <glyph glyph-name="onehalf" unicode="&#xbd;" horiz-adv-x="1729" 
d="M172 680v59h115v602h-115v60h203v-662h114v-59h-317zM256 0l979 1391h72l-979 -1391h-72zM1534 233l-8 -233h-506q0 143 119 262q49 49 140.5 101.5t126 84.5t34.5 93q0 62 -42 98.5t-112 36.5q-80 0 -126 -51t-40 -144h-80q-9 76 22.5 134t91 88t132.5 30t125.5 -23.5
t81.5 -67.5t29 -103q0 -83 -40.5 -122t-136.5 -93t-145 -103q-78 -78 -94 -160h344l6 172h78z" />
    <glyph glyph-name="minus" unicode="&#x2212;" horiz-adv-x="1366" 
d="M145 702h1076v-92h-1076v92z" />
    <glyph glyph-name="eth" unicode="&#xf0;" horiz-adv-x="1153" 
d="M203 483q0 -119 48.5 -213.5t133 -148t190.5 -53.5q81 0 150 32t118.5 89.5t78 141t28.5 181.5q0 75 -25 144t-75 125.5t-119.5 87t-155.5 30.5q-78 0 -146 -30t-119.5 -87t-79 -134t-27.5 -165zM1010 1366l-258 -121q97 -81 167.5 -188.5t105 -230.5t34.5 -248
q0 -194 -62 -331t-170.5 -206.5t-242.5 -69.5q-140 0 -251.5 65t-175 182.5t-63.5 264.5q0 144 64 261.5t173.5 184t243.5 66.5q101 0 186.5 -42t143.5 -115l4 4q-36 95 -92 180.5t-172 171.5l-266 -127l-76 53l266 127q-118 75 -225 117l113 55q131 -55 223 -121l254 121z
" />
    <glyph glyph-name="thorn" unicode="&#xfe;" horiz-adv-x="1217" 
d="M172 -342v1640h-168v93h275v-627h4q36 67 93.5 116.5t129.5 76t153 26.5q102 0 187 -37.5t149 -105.5t99.5 -159.5t35.5 -201.5q0 -111 -34.5 -204t-99 -161.5t-151 -105.5t-192.5 -37q-125 0 -220.5 57t-149.5 165h-4v-535h176v-92h-459v92h176zM274 481
q0 -120 48.5 -214t135.5 -146.5t197 -52.5q108 0 194 52t133.5 146t47.5 215q0 117 -49 211t-137.5 146.5t-198.5 52.5q-106 0 -191.5 -52.5t-132.5 -145.5t-47 -212z" />
    <glyph glyph-name="twosuperior" unicode="&#xb2;" horiz-adv-x="662" 
d="M565 913l-8 -233h-506q0 143 119 262q49 49 140.5 101.5t126 84.5t34.5 93q0 62 -42 98.5t-112 36.5q-80 0 -125.5 -50.5t-39.5 -144.5h-80q-13 114 59 183t186 69q73 0 125.5 -23.5t81.5 -67.5t29 -103q0 -83 -40.5 -122.5t-138 -94.5t-143.5 -101q-76 -76 -94 -160h344
l6 172h78z" />
    <glyph glyph-name="threesuperior" unicode="&#xb3;" horiz-adv-x="662" 
d="M55 911h80q14 -89 65 -135.5t136 -46.5q83 0 134.5 43t51.5 111q0 74 -66 117.5t-184 25.5v59q61 -7 107.5 10.5t71 52t24.5 77.5q0 59 -41 95t-106 36q-68 0 -105.5 -39.5t-36.5 -108.5h-84q1 61 29.5 107.5t78.5 72t116 25.5q67 0 120 -25t83 -68.5t30 -98.5
q0 -109 -108 -158q155 -50 155 -182q0 -59 -35.5 -107.5t-97.5 -76t-139 -27.5q-78 0 -141.5 30t-99 85t-38.5 126z" />
    <glyph glyph-name="Scaron" unicode="&#x160;" horiz-adv-x="1110" 
d="M88 0v477h94v-47q0 -92 53 -173t145 -129t195 -48q91 0 167 37t119.5 104.5t43.5 153.5q0 138 -97 194.5t-303 114.5t-309.5 135t-103.5 250q0 96 51.5 174.5t144.5 124t210 45.5q69 0 138.5 -19.5t125 -56t94.5 -86.5h4v140h92v-375h-92v28q0 51 -29.5 100.5t-80 87.5
t-118 59.5t-138.5 21.5q-82 0 -150 -31.5t-106.5 -88t-38.5 -124.5q0 -134 94.5 -186t303 -109t316 -139.5t107.5 -265.5q0 -108 -58 -197.5t-158.5 -140.5t-225.5 -51q-83 0 -158.5 24.5t-136 70t-97.5 107.5h-4v-182h-94zM254 1821h72l221 -207l235 207h76l-260 -297h-102
z" />
    <glyph glyph-name="Yacute" unicode="&#xdd;" horiz-adv-x="1237" 
d="M375 0v92h192v535l-426 671h-180v93h496v-93h-183l361 -571l362 571h-180v93h459v-93h-168l-426 -671v-535h199v-92h-506zM547 1514h-78l205 317h117z" />
    <glyph glyph-name="Zcaron" unicode="&#x17d;" 
d="M55 0v92l852 1206h-714v-245h-93v338h944v-93l-851 -1206h780v266h94v-358h-1012zM264 1821h72l221 -207l235 207h76l-260 -297h-102z" />
    <glyph glyph-name="scaron" unicode="&#x161;" horiz-adv-x="918" 
d="M78 0v336h94q0 -120 83 -194t218 -74q119 0 194.5 54t75.5 138q0 96 -71.5 129.5t-227.5 65t-234.5 83.5t-78.5 181q0 75 40 135.5t108 94.5t155 34q173 0 266 -127h5v113h90v-318h-90q-3 70 -38 126t-94.5 87t-134.5 31q-105 0 -158 -54.5t-53 -123.5q0 -88 65 -115.5
t226 -60t241.5 -88t80.5 -185.5q0 -85 -45.5 -148.5t-128.5 -98.5t-195 -35q-204 0 -295 135h-4v-121h-94zM158 1405h72l221 -207l235 207h76l-260 -297h-102z" />
    <glyph glyph-name="yacute" unicode="&#xfd;" horiz-adv-x="1087" 
d="M377 -342l135 369l-348 850h-160v92h422v-92h-158l295 -721l273 721h-154v92h403v-92h-147l-496 -1311h-270v92h205zM471 1098h-78l205 317h117z" />
    <glyph glyph-name="zcaron" unicode="&#x17e;" horiz-adv-x="981" 
d="M92 0v92l682 785h-549v-252h-84v344h750v-92l-682 -785h596v262h86v-354h-799zM189 1405h72l221 -207l235 207h76l-260 -297h-102z" />
    <glyph glyph-name="space" unicode=" " horiz-adv-x="544" 
 />
    <glyph glyph-name="exclam" unicode="!" horiz-adv-x="512" 
d="M313 190v-190h-114v190h114zM203 1391h106v-435l-24 -587h-58l-24 587v435z" />
    <glyph glyph-name="quotedbl" unicode="&#x22;" horiz-adv-x="575" 
d="M100 942l-28 258v213h114v-213l-28 -258h-58zM420 942l-29 258v213h115v-213l-29 -258h-57z" />
    <glyph glyph-name="numbersign" unicode="#" horiz-adv-x="1368" 
d="M543 1430h96l-86 -418h389l86 418h96l-86 -418h164v-92h-184l-80 -398h264v-92h-284l-91 -416h-96l90 416h-385l-90 -416h-96l90 416h-172v92h188l82 398h-270v92h289zM535 920l-82 -398h389l80 398h-387z" />
    <glyph glyph-name="dollar" unicode="$" horiz-adv-x="1044" 
d="M492 70v596q-112 15 -196 62t-128.5 119.5t-44.5 162.5q0 97 46 172.5t129.5 120.5t193.5 51v59h94v-59q330 -48 342 -404h-99q-1 86 -30 151.5t-82.5 106.5t-130.5 56v-519q399 -61 399 -376q0 -166 -105 -268.5t-294 -120.5v-154h-94v154q-374 18 -416 430h102
q12 -106 50.5 -179.5t104.5 -113.5t159 -47zM586 72q72 9 125.5 31.5t93.5 59.5t62 88t22 114q0 54 -17 98t-53 80.5t-94.5 62t-138.5 37.5v-571zM492 770v498q-77 -6 -136.5 -37.5t-92 -85.5t-32.5 -123q0 -97 63 -157.5t198 -94.5z" />
    <glyph glyph-name="percent" unicode="%" horiz-adv-x="1729" 
d="M1659 360q0 -123 -31 -204.5t-92.5 -123.5t-153.5 -42q-136 0 -206 95t-70 277t71 276.5t207 94.5t205.5 -94.5t69.5 -278.5zM1575 360q0 154 -49.5 235t-141.5 81q-94 0 -144 -80.5t-50 -235.5q0 -153 49 -233t143 -80q95 0 144 80t49 233zM621 1040q0 -182 -70.5 -276
t-206.5 -94t-206 95t-70 277t71 276.5t207 94.5t205.5 -95.5t69.5 -277.5zM537 1040q0 154 -49.5 235t-141.5 81q-64 0 -107 -36t-65 -105.5t-22 -174.5q0 -152 49.5 -232.5t142.5 -80.5q95 0 144 80t49 233zM338 0l979 1391h69l-978 -1391h-70z" />
    <glyph glyph-name="ampersand" unicode="&#x26;" horiz-adv-x="1430" 
d="M1073 0l-115 158q-179 -178 -399 -178q-125 0 -230 56.5t-164 154.5t-59 221q0 154 94 256t271 166q-78 103 -113.5 166t-35.5 126q0 80 44 145t119.5 103.5t165.5 38.5q65 0 123 -21.5t100 -58.5t66.5 -87.5t24.5 -110.5q0 -71 -36.5 -131t-110 -109t-200.5 -98
l340 -482q59 86 95.5 175.5t58.5 207.5h236v-92h-156q-36 -134 -73 -213t-97 -155l106 -146h220v-92h-275zM899 238l-373 520q-150 -54 -227.5 -137.5t-77.5 -192.5q0 -81 41 -162t120 -133.5t189 -52.5q94 0 172 37.5t156 120.5zM565 872q151 52 228 115.5t77 149.5
q0 51 -29 93.5t-80.5 67.5t-113.5 25q-96 0 -159.5 -53t-63.5 -133q0 -25 10 -54t28 -60t45 -68.5z" />
    <glyph glyph-name="quotesingle" unicode="'" horiz-adv-x="449" 
d="M197 942l-29 258v213h115v-213l-29 -258h-57z" />
    <glyph glyph-name="parenleft" unicode="(" horiz-adv-x="725" 
d="M289 489q0 -153 23.5 -282t72 -234.5t120 -183t167.5 -133.5v-90q-182 80 -292 229.5t-155 326.5t-45 367q0 191 45 368t155 326.5t292 229.5v-90q-96 -56 -168 -134t-120 -182.5t-71.5 -234t-23.5 -283.5z" />
    <glyph glyph-name="parenright" unicode=")" horiz-adv-x="725" 
d="M436 489q0 313 -93.5 516t-289.5 318v90q182 -80 292 -229.5t155 -326.5t45 -368q0 -190 -45 -367t-155 -326.5t-292 -229.5v90q196 115 289.5 318t93.5 515z" />
    <glyph glyph-name="asterisk" unicode="*" horiz-adv-x="1004" 
d="M385 700l-92 -122l-88 67l88 125q40 17 68.5 50t99.5 132q-102 34 -151 44t-89 1l-149 50l37 108l145 -47q20 -22 48 -38.5t65 -32t110 -40.5q-3 50 -6 85t-8 67q-9 58 -23 90v152h123v-152q-19 -39 -24 -90q-10 -53 -13 -152q105 37 151 60.5t73 50.5l145 47l37 -108
l-152 -50q-35 11 -90.5 -1.5t-144.5 -43.5q40 -61 64 -93t49 -56t51 -33l90 -125l-90 -67l-91 122q-4 45 -26.5 86.5t-89.5 131.5q-72 -99 -92 -131.5t-25 -86.5z" />
    <glyph glyph-name="plus" unicode="+" horiz-adv-x="1366" 
d="M729 702h492v-92h-492v-491h-92v491h-492v92h492v492h92v-492z" />
    <glyph glyph-name="comma" unicode="," horiz-adv-x="512" 
d="M199 0v190h114v-223q0 -102 -32.5 -162t-100.5 -63v74q43 0 55 37t15 147h-51z" />
    <glyph glyph-name="hyphen" unicode="-" horiz-adv-x="705" 
d="M70 438v92h563v-92h-563z" />
    <glyph glyph-name="hyphen" unicode="&#xad;" horiz-adv-x="705" 
d="M70 438v92h563v-92h-563z" />
    <glyph glyph-name="period" unicode="." horiz-adv-x="512" 
d="M199 0v190h114v-190h-114z" />
    <glyph glyph-name="slash" unicode="/" horiz-adv-x="575" 
d="M479 1391h96l-479 -1420h-96z" />
    <glyph glyph-name="zero" unicode="0" horiz-adv-x="1087" 
d="M545 -18q-221 0 -335 182t-114 532q0 352 113.5 534.5t335.5 182.5q221 0 334.5 -182.5t113.5 -534.5q0 -350 -114 -532t-334 -182zM545 68q173 0 258.5 167t85.5 463q0 200 -39.5 342.5t-116.5 214.5t-188 72q-167 0 -255.5 -161.5t-88.5 -467.5q0 -198 35.5 -338.5
t113 -216t195.5 -75.5z" />
    <glyph glyph-name="one" unicode="1" horiz-adv-x="1087" 
d="M303 0v92h197v1206h-197v93h303v-1299h197v-92h-500z" />
    <glyph glyph-name="two" unicode="2" horiz-adv-x="1087" 
d="M950 432l-12 -432h-817q-9 123 55.5 272t175.5 260q47 47 101.5 88.5t115 80.5t100.5 67.5t70 58.5q88 90 88 224q0 80 -34.5 143t-96 98t-139.5 35q-158 0 -235 -101.5t-74 -281.5h-95q-9 218 103.5 343.5t298.5 125.5q86 0 156.5 -26t119.5 -74t75 -114.5t26 -151.5
q0 -170 -107 -277q-28 -28 -88.5 -69.5l-109.5 -73.5t-106.5 -75.5t-102.5 -88.5q-99 -99 -146 -208t-47 -163h625l10 340h90z" />
    <glyph glyph-name="three" unicode="3" horiz-adv-x="1087" 
d="M80 428h96q20 -181 121 -270.5t235 -89.5q80 0 156 33t127 104.5t51 179.5q0 121 -64.5 193t-161.5 95t-196 5v92q99 -8 176 25t120.5 101.5t43.5 162.5q0 76 -33.5 137t-93.5 96t-137 35q-129 0 -194.5 -80.5t-67.5 -208.5h-98q1 119 48.5 203.5t129 128t186.5 43.5
q101 0 186 -46t132 -127.5t47 -182.5q0 -232 -225 -318v-4q126 -17 216.5 -104.5t90.5 -247.5q0 -116 -56.5 -206.5t-158 -142.5t-226.5 -52q-126 0 -226.5 56t-159 158t-64.5 232z" />
    <glyph glyph-name="four" unicode="4" horiz-adv-x="1087" 
d="M522 0v84h156v324h-537q-14 52 -51 81l588 914h92v-914h225v-81h-225v-324h123v-84h-371zM678 489v777h-4l-490 -777h494z" />
    <glyph glyph-name="five" unicode="5" horiz-adv-x="1087" 
d="M100 391h103q21 -148 103 -235.5t226 -87.5q95 0 174.5 45t127 131t47.5 202q0 103 -41 185.5t-115.5 127t-171.5 44.5t-170.5 -42.5t-138.5 -129.5q-32 31 -82 49l63 711h676v-295h-94v192h-498l-49 -528l4 -4q60 63 142.5 98t168.5 35q85 0 163 -33.5t132.5 -92.5
t84.5 -141.5t30 -175.5q0 -160 -70 -264.5t-173 -152t-207 -47.5q-117 0 -212 51t-154 144.5t-69 213.5z" />
    <glyph glyph-name="six" unicode="6" horiz-adv-x="1087" 
d="M954 1028h-102q-4 146 -71 222.5t-189 76.5q-95 0 -161.5 -44t-107.5 -126t-61.5 -195.5t-25.5 -250.5l4 -4q71 83 165 129.5t189 46.5q110 0 198.5 -56.5t137.5 -157.5t49 -225q0 -132 -52 -239t-146.5 -165t-213.5 -58q-139 0 -236 71t-147.5 217t-50.5 369
q0 193 38.5 367t138.5 290.5t270 116.5t267.5 -102.5t106.5 -282.5zM236 602q0 -251 83 -392.5t248 -141.5q89 0 159.5 43.5t109 128.5t38.5 202q0 71 -17 132t-53 112.5t-92 81t-132 29.5q-88 0 -181 -53t-163 -142z" />
    <glyph glyph-name="seven" unicode="7" horiz-adv-x="1087" 
d="M281 0v92h174q-14 161 22.5 374.5t128.5 431t232 390.5h-613v-207h-94v310h811v-93q-103 -138 -179.5 -291t-123.5 -308t-66.5 -306t-11.5 -301h164v-92h-444z" />
    <glyph glyph-name="eight" unicode="8" horiz-adv-x="1087" 
d="M375 735v-2v4q-71 14 -127.5 58.5t-86.5 109.5t-30 144q0 110 53.5 192t149 127t211.5 45q115 0 210.5 -47t148 -130t52.5 -187q0 -79 -29 -143.5t-85.5 -109t-128.5 -59.5v-4q91 -21 155 -69t98.5 -120.5t34.5 -158.5q0 -116 -58.5 -208t-163.5 -143.5t-234 -51.5
q-131 0 -236.5 51.5t-164 143.5t-58.5 208q0 87 34.5 158.5t99.5 121t155 70.5zM545 68q73 0 137.5 21.5t113 63.5t75 101.5t26.5 136.5q0 123 -87 212t-265 89q-164 0 -259.5 -81t-95.5 -220q0 -142 93 -232.5t262 -90.5zM545 774q70 0 127.5 18t100 54.5t64 86t21.5 114.5
q0 103 -50 165.5t-122.5 88.5t-140.5 26q-90 0 -162.5 -35.5t-113 -98.5t-40.5 -146q0 -84 38.5 -145.5t111 -94.5t166.5 -33z" />
    <glyph glyph-name="nine" unicode="9" horiz-adv-x="1087" 
d="M133 367h103q4 -146 72 -222.5t188 -76.5q95 0 162 44.5t107.5 124.5t61 191t25.5 256l-4 4q-71 -83 -165 -129.5t-189 -46.5q-111 0 -199 56t-137 157t-49 225q0 137 51.5 242t145.5 163t214 58q140 0 237 -71.5t147 -217t50 -368.5q0 -140 -19.5 -272.5t-70 -248
t-139 -184.5t-217.5 -69q-114 0 -196.5 47t-127.5 133t-51 205zM852 793q0 251 -83 392.5t-249 141.5q-139 0 -223 -98.5t-84 -276.5q0 -144 75 -249t220 -105q87 0 179.5 52.5t164.5 142.5z" />
    <glyph glyph-name="colon" unicode=":" horiz-adv-x="512" 
d="M199 778v191h114v-191h-114zM199 0v190h114v-190h-114z" />
    <glyph glyph-name="semicolon" unicode=";" horiz-adv-x="512" 
d="M199 0v190h114v-223q0 -102 -32.5 -162t-100.5 -63v74q43 0 55 37t15 147h-51zM199 778v191h114v-191h-114z" />
    <glyph glyph-name="less" unicode="&#x3c;" horiz-adv-x="1366" 
d="M270 657l949 -395v-102l-1074 456v82l1074 457v-102z" />
    <glyph glyph-name="equal" unicode="=" horiz-adv-x="1366" 
d="M145 938h1076v-92h-1076v92zM145 473h1076v-92h-1076v92z" />
    <glyph glyph-name="greater" unicode="&#x3e;" horiz-adv-x="1366" 
d="M1096 657l-949 396v102l1074 -457v-82l-1074 -456v102z" />
    <glyph glyph-name="question" unicode="?" horiz-adv-x="918" 
d="M387 377l-37 393l15 6q92 -14 174 4.5t136 81.5t54 176q0 79 -37.5 143.5t-104.5 102t-149 37.5q-81 0 -145.5 -36t-99.5 -100.5t-35 -150.5h-97q0 108 47 194.5t133.5 135.5t198.5 49q110 0 201 -49t140.5 -136t49.5 -196q0 -90 -40 -174t-124.5 -136t-205.5 -48
l-25 -297h-49zM465 190v-190h-115v190h115z" />
    <glyph glyph-name="at" unicode="@" horiz-adv-x="1642" 
d="M1145 1014h125l-170 -803q-14 -67 -5.5 -94t44.5 -27q75 0 168 74.5t158 206t65 291.5q0 110 -32 221.5t-107.5 209t-206.5 159t-324 61.5q-168 0 -312 -59t-247.5 -164.5t-161 -254.5t-57.5 -323q0 -172 56.5 -316.5t162 -247.5t251.5 -158.5t318 -55.5q210 0 378 72.5
t294 240.5h103q-114 -185 -313 -289t-464 -104q-191 0 -352.5 61.5t-277 176.5t-177 274.5t-61.5 347.5q0 178 56.5 338t167 282.5t274 192.5t368.5 70q190 0 334 -63t235 -168t134 -233t43 -265q0 -151 -48.5 -276t-127.5 -212.5t-170.5 -133.5t-169.5 -46q-73 0 -104 42
t-7 142l-4 4q-71 -92 -158 -140t-182 -48q-149 0 -247.5 120t-98.5 302q0 94 33 202.5t97.5 203t160.5 152.5t219 58q199 0 305 -192zM1063 668q0 79 -33 144t-91.5 101.5t-131.5 36.5q-125 0 -212 -90t-130 -215.5t-43 -228.5q0 -90 33 -163.5t91.5 -115t131.5 -41.5
q111 0 198.5 93.5t137 231t49.5 247.5z" />
    <glyph glyph-name="A" unicode="A" horiz-adv-x="1343" 
d="M129 92l418 1206h-174v93h598v-93h-174l424 -1206h172v-92h-461v92h174l-154 436h-561l-149 -436h182v-92h-471v92h176zM424 621h498l-242 704h-14z" />
    <glyph glyph-name="B" unicode="B" horiz-adv-x="1153" 
d="M35 0v92h178v1206h-178v93h555q149 0 242.5 -51t132.5 -130t39 -172q0 -218 -205 -299v-4q89 -25 151 -72.5t93.5 -115t31.5 -150.5q0 -65 -22.5 -134t-75.5 -128.5t-146.5 -97t-230.5 -37.5h-565zM328 92h266q181 0 274 83.5t93 213.5q0 127 -90 209t-287 82h-256v-588z
M328 772h233q105 0 179 34.5t111.5 94.5t37.5 135q0 103 -72.5 182.5t-238.5 79.5h-250v-526z" />
    <glyph glyph-name="C" unicode="C" horiz-adv-x="1536" 
d="M1378 508l90 -51q-34 -113 -94.5 -202.5t-144.5 -151t-187.5 -92.5t-222.5 -31q-203 0 -360.5 89t-244.5 251.5t-87 371.5q0 171 54.5 307t150.5 228t218 139t257 47q160 0 295.5 -65t220.5 -179h4v222h94v-445h-96q-21 117 -99 199.5t-189 125t-222 42.5
q-124 0 -229.5 -44t-182.5 -127t-119 -196.5t-42 -245.5q0 -133 42.5 -247t122 -198.5t184.5 -129.5t232 -45q136 0 241.5 46.5t183 141t130.5 240.5z" />
    <glyph glyph-name="D" unicode="D" horiz-adv-x="1450" 
d="M18 0v92h193v1206h-193v93h553q132 0 236 -15.5t192 -54.5t158 -109q93 -92 144 -224.5t51 -278.5q0 -103 -21.5 -201t-68 -186.5t-115.5 -157.5q-87 -87 -221 -125.5t-342 -38.5h-566zM326 92h262q165 0 285 34t200 114q164 162 164 465q0 125 -40.5 241.5t-117.5 192.5
q-88 90 -206.5 124.5t-288.5 34.5h-258v-1206z" />
    <glyph glyph-name="E" unicode="E" horiz-adv-x="1237" 
d="M31 0v92h178v1206h-178v93h1114v-338h-94v245h-727v-540h577v-92h-577v-574h727v250h94v-342h-1114z" />
    <glyph glyph-name="F" unicode="F" horiz-adv-x="1087" 
d="M31 0v92h180v1206h-180v93h1056v-340h-92v247h-669v-536h512v-92h-512v-578h184v-92h-479z" />
    <glyph glyph-name="G" unicode="G" horiz-adv-x="1622" 
d="M1024 535v92h487q0 -157 -55 -279.5t-151 -204t-220 -122.5t-264 -41q-153 0 -286 51.5t-230.5 149.5t-150 229.5t-52.5 283.5q0 150 51 283t145.5 231t223 151.5t275.5 53.5q163 0 304 -67.5t232 -190.5h4v236h93v-455h-93q-27 107 -105.5 193t-192.5 135t-238 49
q-167 0 -300.5 -78.5t-208.5 -219t-75 -315.5q0 -132 44 -246.5t126.5 -198.5t193.5 -129.5t242 -45.5q92 0 186.5 26t177 80t138.5 142.5t68 206.5h-369z" />
    <glyph glyph-name="H" unicode="H" horiz-adv-x="1409" 
d="M41 0v92h168v1206h-168v93h459v-93h-176v-524h759v524h-178v93h463v-93h-170v-1206h170v-92h-463v92h178v590h-759v-590h176v-92h-459z" />
    <glyph glyph-name="I" unicode="I" horiz-adv-x="575" 
d="M55 0v92h174v1206h-174v93h465v-93h-176v-1206h176v-92h-465z" />
    <glyph glyph-name="J" unicode="J" horiz-adv-x="555" 
d="M-139 -412v101q100 -23 143 -23q127 0 174 55.5t47 167.5v1409h-209v93h523v-93h-199v-1394q0 -180 -87 -259t-255 -79q-48 0 -76 5.5t-61 16.5z" />
    <glyph glyph-name="K" unicode="K" horiz-adv-x="1194" 
d="M29 0v92h182v1206h-182v93h489v-93h-192v-1206h192v-92h-489zM731 0v92h187l-578 639l578 567h-160v93h442v-93h-149l-564 -557l592 -649h148v-92h-496z" />
    <glyph glyph-name="L" unicode="L" horiz-adv-x="1044" 
d="M33 0v92h188v1206h-188v93h489v-93h-186v-1206h573v461h109v-553h-985z" />
    <glyph glyph-name="M" unicode="M" horiz-adv-x="1749" 
d="M39 0v92h180v1206h-180v93h356l430 -1041q24 -52 52 -147h4q14 68 41 131l432 1057h358v-93h-172v-1206h172v-92h-463v92h176v1235h-4l-542 -1327h-23l-537 1327h-4v-1235h166v-92h-442z" />
    <glyph glyph-name="N" unicode="N" horiz-adv-x="1450" 
d="M20 0v92h187v1206h-187v93h328l799 -1227h4v1134h-195v93h474v-93h-183v-1316h-106l-834 1278h-4v-1168h197v-92h-480z" />
    <glyph glyph-name="O" unicode="O" horiz-adv-x="1599" 
d="M102 696q0 155 51.5 286.5t145.5 228.5t222.5 149.5t279.5 52.5q150 0 277.5 -52t222 -149t146.5 -229t52 -287q0 -152 -50.5 -283t-144 -229t-219 -151t-270.5 -53q-154 0 -286 52t-228 148t-147.5 227.5t-51.5 288.5zM217 696q0 -176 75.5 -317t209.5 -220t299 -79
q125 0 233 46t186.5 129.5t121 195t42.5 245.5q0 174 -75 316t-209 221.5t-299 79.5t-299 -79t-209.5 -221t-75.5 -317z" />
    <glyph glyph-name="P" unicode="P" 
d="M33 0v92h184v1206h-184v93h602q229 0 343 -115t114 -293q0 -83 -26.5 -155.5t-81 -130t-141.5 -91t-200 -33.5h-311v-481h188v-92h-487zM332 1298v-632h262q194 0 288.5 76.5t94.5 230.5q0 162 -84 243.5t-287 81.5h-274z" />
    <glyph glyph-name="Q" unicode="Q" horiz-adv-x="1599" 
d="M670 -6v4q-173 34 -302.5 131t-197.5 242.5t-68 324.5q0 155 51.5 286.5t145.5 228.5t222.5 149.5t279.5 52.5q150 0 277.5 -52t222 -149t146.5 -229t52 -287q0 -149 -49 -276t-138 -224.5t-209 -152.5t-257 -59v-4q41 -11 128.5 -56.5t143.5 -63.5t127 -5l-37 -97
q-80 -8 -140.5 11.5t-136.5 64.5t-127 66.5t-120 21.5q-49 0 -97 -16t-85 -43l-43 61q40 33 98 51.5t113 18.5zM217 702q0 -173 74 -314.5t207 -223.5t303 -82q163 0 297 80t210 221.5t76 316.5q0 134 -43 245.5t-121 194t-185.5 128t-233.5 45.5q-165 0 -298.5 -80
t-209.5 -220.5t-76 -310.5z" />
    <glyph glyph-name="R" unicode="R" horiz-adv-x="1174" 
d="M6 0v92h205v1206h-205v93h682q122 0 207.5 -45.5t128.5 -123.5t43 -173q0 -137 -83 -227t-236 -117l278 -613h178v-92h-258l-313 694h-307v-602h194v-92h-514zM326 786h288q116 0 192.5 32t111 90.5t34.5 138.5q0 116 -78.5 183.5t-216.5 67.5h-331v-512z" />
    <glyph glyph-name="S" unicode="S" horiz-adv-x="1110" 
d="M88 0v477h94v-47q0 -92 53 -173t145 -129t195 -48q91 0 167 37t119.5 104.5t43.5 153.5q0 138 -97 194.5t-303 114.5t-309.5 135t-103.5 250q0 96 51.5 174.5t144.5 124t210 45.5q69 0 138.5 -19.5t125 -56t94.5 -86.5h4v140h92v-375h-92v28q0 51 -29.5 100.5t-80 87.5
t-118 59.5t-138.5 21.5q-82 0 -150 -31.5t-106.5 -88t-38.5 -124.5q0 -134 94.5 -186t303 -109t316 -139.5t107.5 -265.5q0 -108 -58 -197.5t-158.5 -140.5t-225.5 -51q-83 0 -158.5 24.5t-136 70t-97.5 107.5h-4v-182h-94z" />
    <glyph glyph-name="T" unicode="T" horiz-adv-x="1174" 
d="M340 0v92h190v1206h-401v-346h-94v439h1106v-439h-94v346h-402v-1206h191v-92h-496z" />
    <glyph glyph-name="U" unicode="U" horiz-adv-x="1323" 
d="M184 1298h-178v93h469v-93h-176v-892q0 -161 94.5 -243.5t261.5 -82.5q177 0 272 76.5t95 244.5v897h-176v93h469v-93h-178v-892q0 -171 -78.5 -265.5t-182.5 -127.5t-204 -33q-133 0 -242.5 39.5t-177.5 135t-68 251.5v892z" />
    <glyph glyph-name="V" unicode="V" horiz-adv-x="1343" 
d="M633 -14l-498 1312h-180v93h471v-93h-174l438 -1146l422 1146h-170v93h449v-93h-181l-481 -1312h-96z" />
    <glyph glyph-name="W" unicode="W" horiz-adv-x="1942" 
d="M526 -14l-393 1312h-174v93h463v-93h-172l330 -1151h4l295 1151h-164v93h524v-93h-168l313 -1151h5l319 1151h-178v93h450v-93h-176l-379 -1312h-90l-366 1335h-4l-344 -1335h-95z" />
    <glyph glyph-name="X" unicode="X" horiz-adv-x="1343" 
d="M29 0v92h192l383 608l-383 598h-192v93h489v-93h-166l310 -491l313 491h-172v93h467v-93h-185l-364 -579l399 -627h197v-92h-514v92h186l-327 520l-326 -520h182v-92h-489z" />
    <glyph glyph-name="Y" unicode="Y" horiz-adv-x="1237" 
d="M375 0v92h192v535l-426 671h-180v93h496v-93h-183l361 -571l362 571h-180v93h459v-93h-168l-426 -671v-535h199v-92h-506z" />
    <glyph glyph-name="Z" unicode="Z" 
d="M55 0v92l852 1206h-714v-245h-93v338h944v-93l-851 -1206h780v266h94v-358h-1012z" />
    <glyph glyph-name="bracketleft" unicode="[" horiz-adv-x="705" 
d="M346 1298v-1617h326v-93h-432v1803h432v-93h-326z" />
    <glyph glyph-name="backslash" unicode="\" horiz-adv-x="575" 
d="M96 1391l479 -1420h-96l-479 1420h96z" />
    <glyph glyph-name="bracketright" unicode="]" horiz-adv-x="705" 
d="M358 1298h-325v93h432v-1803h-432v93h325v1617z" />
    <glyph glyph-name="asciicircum" unicode="^" horiz-adv-x="1343" 
d="M672 1413l448 -536l-65 -56l-383 461l-385 -461l-62 56z" />
    <glyph glyph-name="underscore" unicode="_" horiz-adv-x="1024" 
d="M-12 -154h1048v-102h-1048v102z" />
    <glyph glyph-name="grave" unicode="`" horiz-adv-x="682" 
d="M414 1098l-244 317h117l205 -317h-78z" />
    <glyph glyph-name="a" unicode="a" horiz-adv-x="1044" 
d="M758 0v139q-181 -153 -359 -153q-121 0 -208 83.5t-87 202.5q0 84 46 153.5t128.5 107.5t184.5 38q73 0 146.5 -19.5t148.5 -59.5v225q0 203 -258 203q-220 0 -299 -166l-80 20q56 116 147.5 168.5t239.5 52.5q181 0 268.5 -72.5t87.5 -201.5v-629h160v-92h-266zM758 229
v177q-79 46 -143.5 66t-133.5 20q-118 0 -193 -63t-75 -163q0 -84 60.5 -141t152.5 -57q58 0 118.5 20.5t117.5 58t96 82.5z" />
    <glyph glyph-name="b" unicode="b" horiz-adv-x="1260" 
d="M29 0v92h176v1206h-176v93h282v-617h4q61 108 159.5 164.5t223.5 56.5q135 0 243 -63t169 -177t61 -255q0 -113 -35.5 -207t-100 -163t-153.5 -106.5t-190 -37.5q-241 0 -377 202h-4v-188h-282zM309 494q0 -122 48 -217.5t134.5 -149t196.5 -53.5q109 0 194 53.5t133 151
t48 221.5q0 118 -47.5 211t-132.5 144.5t-189 51.5q-82 0 -152 -30t-123 -87t-81.5 -132t-28.5 -164z" />
    <glyph glyph-name="c" unicode="c" horiz-adv-x="1044" 
d="M897 299l86 -37q-37 -92 -98.5 -157t-143.5 -99.5t-178 -34.5q-138 0 -247.5 64.5t-170.5 179.5t-61 258q0 142 61 260t167.5 184t236.5 66q99 0 178 -36.5t129 -104.5h4v127h88v-369h-88q0 85 -42 150.5t-111.5 101t-153.5 35.5q-106 0 -187.5 -51.5t-127 -143.5
t-45.5 -211q0 -123 46.5 -216.5t129.5 -145t192 -51.5q234 0 336 231z" />
    <glyph glyph-name="d" unicode="d" horiz-adv-x="1217" 
d="M1210 0h-282v188h-4q-66 -100 -160.5 -151t-212.5 -51q-206 0 -341.5 143.5t-135.5 357.5q0 144 62 260t169.5 182t239.5 66q122 0 220.5 -57t158.5 -164h4v524h-189v93h295v-1299h176v-92zM930 489q0 117 -50.5 212.5t-138.5 150.5t-194 55q-103 0 -188.5 -55.5
t-135 -151t-49.5 -211.5q0 -117 49 -211.5t136 -149t192 -54.5q110 0 196.5 53t134.5 147t48 215z" />
    <glyph glyph-name="e" unicode="e" 
d="M1059 461h-871q0 -109 54.5 -202t148.5 -147.5t205 -54.5q112 0 209.5 54.5t169.5 156.5l84 -39q-71 -119 -199 -188.5t-276 -69.5q-109 0 -200.5 37.5t-160.5 108.5t-105 163.5t-36 202.5q0 145 63 263t175 183.5t255 65.5q107 0 195.5 -38t152.5 -108.5t99.5 -170.5
t36.5 -217zM190 553h758q-18 110 -69.5 189.5t-131 121t-180.5 41.5q-149 0 -248.5 -93t-128.5 -259z" />
    <glyph glyph-name="f" unicode="f" horiz-adv-x="512" 
d="M47 0v92h150v785h-150v92h150v178q0 134 72.5 200t166.5 66q56 0 103.5 -23t79 -66.5t45.5 -104.5l-97 -15q-20 62 -51.5 89.5t-83.5 27.5q-63 0 -96 -41.5t-33 -114.5v-196h191v-92h-191v-785h191v-92h-447z" />
    <glyph glyph-name="g" unicode="g" horiz-adv-x="1217" 
d="M944 -35v238h-4q-39 -70 -96 -118t-130.5 -73.5t-156.5 -25.5q-134 0 -243 64t-171.5 176.5t-62.5 248.5q0 141 64.5 257t175 183.5t241.5 67.5q121 0 218 -57t161 -164h4v207h287v-92h-180v-902q0 -154 -76.5 -252t-189.5 -140t-220 -42q-116 0 -212 34.5t-165 102.5
l70 70q128 -110 317 -110q140 0 254.5 75.5t114.5 251.5zM188 479q0 -86 27.5 -160.5t79.5 -130t121 -84t147 -28.5q81 0 151.5 30.5t122 86t80.5 130.5t29 162q0 110 -51 203.5t-139 148t-193 54.5q-104 0 -190.5 -53.5t-135.5 -148.5t-49 -210z" />
    <glyph glyph-name="h" unicode="h" horiz-adv-x="1110" 
d="M27 0v92h176v1206h-176v93h282v-553q183 157 367 157q75 0 135 -28t94.5 -85.5t34.5 -142.5v-647h158v-92h-436v92h172v625q0 182 -170 182q-52 0 -113 -20t-124 -58.5t-118 -89.5v-639h160v-92h-442z" />
    <glyph glyph-name="i" unicode="i" horiz-adv-x="512" 
d="M49 0v92h170v785h-170v92h277v-877h166v-92h-443zM160 1331q0 34 24 58t58 24q35 0 59.5 -24.5t24.5 -57.5q0 -32 -25 -58t-59 -26q-33 0 -57.5 25.5t-24.5 58.5z" />
    <glyph glyph-name="j" unicode="j" horiz-adv-x="492" 
d="M223 877h-178v92h285v-1086q0 -179 -111 -249t-301 -48v92q105 -12 171.5 4t100 71t33.5 161v963zM246 1413q35 0 59.5 -24.5t24.5 -57.5q0 -32 -25 -58t-59 -26q-33 0 -57.5 25.5t-24.5 58.5q0 34 24 58t58 24z" />
    <glyph glyph-name="k" unicode="k" horiz-adv-x="1067" 
d="M27 0v92h178v1206h-178v93h284v-877l510 358v5h-147v92h403v-92h-125l-510 -363l484 -422h170v-92h-211l-574 500v-408h178v-92h-462z" />
    <glyph glyph-name="l" unicode="l" horiz-adv-x="492" 
d="M18 0v92h175v1206h-177v93h283v-1299h174v-92h-455z" />
    <glyph glyph-name="m" unicode="m" horiz-adv-x="1729" 
d="M31 0v92h170v785h-170v92h276v-150q87 81 180 122.5t183 41.5q93 0 157 -44.5t88 -127.5q91 83 190.5 127.5t186.5 44.5q119 0 185.5 -65.5t66.5 -196.5v-629h156v-92h-428v92h166v619q0 176 -160 176q-56 0 -115.5 -20.5t-120 -60t-116.5 -95.5v-619h159v-92h-432v92
h166v619q0 176 -155 176q-87 0 -168.5 -40.5t-188.5 -135.5v-619h160v-92h-436z" />
    <glyph glyph-name="n" unicode="n" horiz-adv-x="1087" 
d="M14 0v92h179v785h-179v92h285v-150q95 80 189.5 122t175.5 42q77 0 136 -30t92.5 -87t33.5 -135v-639h155v-92h-434v92h172v610q0 93 -42.5 139t-119.5 46q-79 0 -175 -46.5t-183 -127.5v-621h158v-92h-443z" />
    <glyph glyph-name="o" unicode="o" 
d="M84 483q0 143 63.5 261t172.5 184.5t245 66.5t246.5 -66.5t174 -184t63.5 -261.5q0 -142 -63.5 -259.5t-174 -185t-246.5 -67.5t-245.5 67t-172.5 185.5t-63 259.5zM193 483q0 -119 48.5 -213.5t133 -148t190.5 -53.5q107 0 192.5 53.5t134 149t48.5 212.5
q0 116 -48.5 212.5t-134 150t-192.5 53.5q-78 0 -146 -30t-119.5 -87t-79 -134t-27.5 -165z" />
    <glyph glyph-name="p" unicode="p" horiz-adv-x="1217" 
d="M172 -342v1219h-164v92h271v-205h4q37 69 94 117.5t129.5 75t152.5 26.5q102 0 187.5 -38t149 -104.5t99 -158.5t35.5 -201q0 -147 -61 -264t-169.5 -181.5t-246.5 -64.5q-125 0 -220.5 57t-149.5 165h-4v-535h176v-92h-459v92h176zM274 481q0 -120 48.5 -214
t135.5 -146.5t197 -52.5q108 0 194 52t133.5 146t47.5 215q0 117 -49 211t-137.5 146.5t-198.5 52.5q-106 0 -191.5 -52.5t-132.5 -145.5t-47 -212z" />
    <glyph glyph-name="q" unicode="q" horiz-adv-x="1217" 
d="M1042 -342h179v-92h-459v92h174v535h-4q-109 -222 -369 -222q-139 0 -247.5 65t-169 180.5t-60.5 262.5q0 106 35.5 199t98.5 161t149.5 106t187.5 38q78 0 149.5 -25.5t129 -74t96.5 -115.5h4v201h285v-92h-179v-1219zM940 481q0 118 -46.5 211.5t-131 146t-191.5 52.5
q-111 0 -199 -52t-137 -146t-49 -216q0 -119 47.5 -212t134 -145t193.5 -52q82 0 152 30.5t121 86.5t78.5 132t27.5 164z" />
    <glyph glyph-name="r" unicode="r" horiz-adv-x="811" 
d="M45 0v92h184v785h-184v92h291v-238h4q35 89 98.5 147t151.5 85t194 20v-102q-133 3 -222.5 -23t-138.5 -76t-68 -120.5t-19 -167.5v-402h199v-92h-490z" />
    <glyph glyph-name="s" unicode="s" horiz-adv-x="918" 
d="M78 0v336h94q0 -120 83 -194t218 -74q119 0 194.5 54t75.5 138q0 96 -71.5 129.5t-227.5 65t-234.5 83.5t-78.5 181q0 75 40 135.5t108 94.5t155 34q173 0 266 -127h5v113h90v-318h-90q-3 70 -38 126t-94.5 87t-134.5 31q-105 0 -158 -54.5t-53 -123.5q0 -88 65 -115.5
t226 -60t241.5 -88t80.5 -185.5q0 -85 -45.5 -148.5t-128.5 -98.5t-195 -35q-204 0 -295 135h-4v-121h-94z" />
    <glyph glyph-name="t" unicode="t" horiz-adv-x="532" 
d="M178 877h-172v92h172v217l107 84v-301h202v-92h-202v-676q0 -62 13 -91.5t57 -34.5t132 17v-92q-93 -27 -163 -21t-108 51t-38 126v721z" />
    <glyph glyph-name="u" unicode="u" horiz-adv-x="1110" 
d="M821 0v139q-178 -153 -381 -153q-110 0 -176.5 65.5t-66.5 173.5v652h-170v92h276v-717q0 -170 158 -170q87 0 183 47t177 129v619h-170v92h277v-877h166v-92h-273z" />
    <glyph glyph-name="v" unicode="v" horiz-adv-x="1067" 
d="M498 -14l-342 891h-160v92h401v-92h-133l195 -523q34 -90 54 -152.5t30 -109.5h4q31 115 63 205l213 580h-135v92h383v-92h-147l-328 -891h-98z" />
    <glyph glyph-name="w" unicode="w" horiz-adv-x="1536" 
d="M410 -14l-277 891h-127v92h340v-92h-113l154 -502q56 -179 70 -266h4q21 121 67 266l160 502h-113v92h367v-92h-108l137 -437q62 -205 84 -340h4q1 40 13.5 91.5t25.5 93.5t41 125l155 467h-127v92h363v-92h-133l-289 -891h-98l-250 841h-4l-242 -841h-104z" />
    <glyph glyph-name="x" unicode="x" horiz-adv-x="1087" 
d="M37 0v92h131l311 408l-301 377h-125v92h361v-92h-115l240 -302l235 302h-104v92h356v-92h-131l-295 -377l330 -408h123v-92h-361v92h119l-272 334l-252 -334h127v-92h-377z" />
    <glyph glyph-name="y" unicode="y" horiz-adv-x="1087" 
d="M377 -342l135 369l-348 850h-160v92h422v-92h-158l295 -721l273 721h-154v92h403v-92h-147l-496 -1311h-270v92h205z" />
    <glyph glyph-name="z" unicode="z" horiz-adv-x="981" 
d="M92 0v92l682 785h-549v-252h-84v344h750v-92l-682 -785h596v262h86v-354h-799z" />
    <glyph glyph-name="braceleft" unicode="{" horiz-adv-x="682" 
d="M98 545q99 0 146 79.5t47 213.5v245q0 113 40 185.5t106 101.5t147 23v-111q-78 -2 -115 -20t-51.5 -74t-14.5 -176v-142q0 -157 -44.5 -251.5t-151.5 -139.5q107 -43 151.5 -138t44.5 -253v-141q0 -95 8.5 -145.5t28 -77t49.5 -35.5t95 -13v-110q-81 -6 -147 22.5
t-106 101t-40 185.5v246q0 134 -47 213.5t-146 79.5v131z" />
    <glyph glyph-name="bar" unicode="|" horiz-adv-x="1016" 
d="M455 1391h106v-1850h-106v1850z" />
    <glyph glyph-name="braceright" unicode="}" horiz-adv-x="682" 
d="M584 545v-131q-99 0 -146 -79.5t-47 -213.5v-246q0 -113 -40 -185.5t-106 -101t-147 -22.5v110q82 3 117 21t49.5 73.5t14.5 176.5v141q0 158 45.5 253t150.5 138q-106 45 -151 139.5t-45 251.5v142q0 120 -14.5 176t-51.5 74t-115 20v111q81 6 147 -23t106 -101.5
t40 -185.5v-245q0 -134 47 -213.5t146 -79.5z" />
    <glyph glyph-name="asciitilde" unicode="~" horiz-adv-x="1343" 
d="M135 596v111q167 120 287 120q53 0 111.5 -19.5t146.5 -57.5l95.5 -42t78.5 -27t72 -11q57 0 117.5 28t166.5 103v-111q-90 -65 -155 -93t-125 -28q-59 0 -113 19t-149 61q-80 37 -138 57.5t-108 20.5q-64 0 -119.5 -25.5t-167.5 -105.5z" />
    <glyph glyph-name="Adieresis" unicode="&#xc4;" horiz-adv-x="1343" 
d="M129 92l418 1206h-174v93h598v-93h-174l424 -1206h172v-92h-461v92h174l-154 436h-561l-149 -436h182v-92h-471v92h176zM424 621h498l-242 704h-14zM850 1739q28 0 49 -21t21 -49q0 -29 -21 -49t-49 -20q-29 0 -49 20t-20 49q0 28 20 49t49 21zM496 1739q29 0 49 -20
t20 -50q0 -31 -20 -50t-49 -19q-28 0 -49 20t-21 49q0 28 21 49t49 21z" />
    <glyph glyph-name="Aring" unicode="&#xc5;" horiz-adv-x="1343" 
d="M129 92l418 1206h-174v93h598v-93h-174l424 -1206h172v-92h-461v92h174l-154 436h-561l-149 -436h182v-92h-471v92h176zM424 621h498l-242 704h-14zM672 1856q79 0 133.5 -54.5t54.5 -132.5t-55 -133t-133 -55q-77 0 -131.5 55.5t-54.5 132.5t54 132t132 55zM672 1794
q-51 0 -88 -37t-37 -88t37 -89t88 -38q52 0 89.5 37.5t37.5 89.5t-37.5 88.5t-89.5 36.5z" />
    <glyph glyph-name="Ccedilla" unicode="&#xc7;" horiz-adv-x="1536" 
d="M670 -143l24 133q-170 25 -298.5 119.5t-198.5 245.5t-70 337q0 171 54.5 307t150.5 228t218 139t257 47q160 0 295.5 -65t220.5 -179h4v222h94v-445h-96q-21 117 -99 199.5t-189 125t-222 42.5q-124 0 -229.5 -44t-182.5 -127t-119 -196.5t-42 -245.5q0 -133 42.5 -247
t122 -198.5t184.5 -129.5t232 -45q136 0 241.5 46.5t183 141t130.5 240.5l90 -51q-34 -113 -94.5 -202.5t-144.5 -151t-187.5 -92.5t-222.5 -31q-41 0 -59 2l-10 -50q68 -7 108.5 -49.5t40.5 -107.5q0 -102 -92.5 -148t-249.5 -41v66q98 -8 169 18t71 92q0 42 -30 64.5
t-97 30.5z" />
    <glyph glyph-name="Eacute" unicode="&#xc9;" horiz-adv-x="1237" 
d="M31 0v92h178v1206h-178v93h1114v-338h-94v245h-727v-540h577v-92h-577v-574h727v250h94v-342h-1114zM547 1514h-78l205 317h117z" />
    <glyph glyph-name="Ntilde" unicode="&#xd1;" horiz-adv-x="1450" 
d="M20 0v92h187v1206h-187v93h328l799 -1227h4v1134h-195v93h474v-93h-183v-1316h-106l-834 1278h-4v-1168h197v-92h-480zM451 1581h-56q58 181 180 181q38 0 75.5 -14t78.5 -36q100 -49 154 -49q77 0 120 96h54q-20 -80 -71.5 -129t-117.5 -49q-55 0 -155 49
q-98 50 -144 50q-82 0 -118 -99z" />
    <glyph glyph-name="Odieresis" unicode="&#xd6;" horiz-adv-x="1599" 
d="M102 696q0 155 51.5 286.5t145.5 228.5t222.5 149.5t279.5 52.5q150 0 277.5 -52t222 -149t146.5 -229t52 -287q0 -152 -50.5 -283t-144 -229t-219 -151t-270.5 -53q-154 0 -286 52t-228 148t-147.5 227.5t-51.5 288.5zM217 696q0 -176 75.5 -317t209.5 -220t299 -79
q125 0 233 46t186.5 129.5t121 195t42.5 245.5q0 174 -75 316t-209 221.5t-299 79.5t-299 -79t-209.5 -221t-75.5 -317zM977 1739q28 0 49 -21t21 -49q0 -29 -21 -49t-49 -20q-29 0 -49 20t-20 49q0 28 20 49t49 21zM623 1739q29 0 49 -20t20 -50q0 -31 -20 -50t-49 -19
q-28 0 -49 20t-21 49q0 28 21 49t49 21z" />
    <glyph glyph-name="Udieresis" unicode="&#xdc;" horiz-adv-x="1323" 
d="M184 1298h-178v93h469v-93h-176v-892q0 -161 94.5 -243.5t261.5 -82.5q177 0 272 76.5t95 244.5v897h-176v93h469v-93h-178v-892q0 -171 -78.5 -265.5t-182.5 -127.5t-204 -33q-133 0 -242.5 39.5t-177.5 135t-68 251.5v892zM840 1739q28 0 49 -21t21 -49q0 -29 -21 -49
t-49 -20q-29 0 -49 20t-20 49q0 28 20 49t49 21zM486 1739q29 0 49 -20t20 -50q0 -31 -20 -50t-49 -19q-28 0 -49 20t-21 49q0 28 21 49t49 21z" />
    <glyph glyph-name="aacute" unicode="&#xe1;" horiz-adv-x="1044" 
d="M758 0v139q-181 -153 -359 -153q-121 0 -208 83.5t-87 202.5q0 84 46 153.5t128.5 107.5t184.5 38q73 0 146.5 -19.5t148.5 -59.5v225q0 203 -258 203q-220 0 -299 -166l-80 20q56 116 147.5 168.5t239.5 52.5q181 0 268.5 -72.5t87.5 -201.5v-629h160v-92h-266zM758 229
v177q-79 46 -143.5 66t-133.5 20q-118 0 -193 -63t-75 -163q0 -84 60.5 -141t152.5 -57q58 0 118.5 20.5t117.5 58t96 82.5zM450 1098h-78l205 317h117z" />
    <glyph glyph-name="agrave" unicode="&#xe0;" horiz-adv-x="1044" 
d="M758 0v139q-181 -153 -359 -153q-121 0 -208 83.5t-87 202.5q0 84 46 153.5t128.5 107.5t184.5 38q73 0 146.5 -19.5t148.5 -59.5v225q0 203 -258 203q-220 0 -299 -166l-80 20q56 116 147.5 168.5t239.5 52.5q181 0 268.5 -72.5t87.5 -201.5v-629h160v-92h-266zM758 229
v177q-79 46 -143.5 66t-133.5 20q-118 0 -193 -63t-75 -163q0 -84 60.5 -141t152.5 -57q58 0 118.5 20.5t117.5 58t96 82.5zM596 1098l-244 317h117l205 -317h-78z" />
    <glyph glyph-name="acircumflex" unicode="&#xe2;" horiz-adv-x="1044" 
d="M758 0v139q-181 -153 -359 -153q-121 0 -208 83.5t-87 202.5q0 84 46 153.5t128.5 107.5t184.5 38q73 0 146.5 -19.5t148.5 -59.5v225q0 203 -258 203q-220 0 -299 -166l-80 20q56 116 147.5 168.5t239.5 52.5q181 0 268.5 -72.5t87.5 -201.5v-629h160v-92h-266zM758 229
v177q-79 46 -143.5 66t-133.5 20q-118 0 -193 -63t-75 -163q0 -84 60.5 -141t152.5 -57q58 0 118.5 20.5t117.5 58t96 82.5zM221 1106l242 297h102l260 -297h-76l-235 207l-221 -207h-72z" />
    <glyph glyph-name="adieresis" unicode="&#xe4;" horiz-adv-x="1044" 
d="M758 0v139q-181 -153 -359 -153q-121 0 -208 83.5t-87 202.5q0 84 46 153.5t128.5 107.5t184.5 38q73 0 146.5 -19.5t148.5 -59.5v225q0 203 -258 203q-220 0 -299 -166l-80 20q56 116 147.5 168.5t239.5 52.5q181 0 268.5 -72.5t87.5 -201.5v-629h160v-92h-266zM758 229
v177q-79 46 -143.5 66t-133.5 20q-118 0 -193 -63t-75 -163q0 -84 60.5 -141t152.5 -57q58 0 118.5 20.5t117.5 58t96 82.5zM700 1323q28 0 49 -21t21 -49q0 -29 -21 -49t-49 -20q-29 0 -49 20t-20 49q0 28 20 49t49 21zM346 1323q29 0 49 -20t20 -50q0 -31 -20 -50t-49 -19
q-28 0 -49 20t-21 49q0 28 21 49t49 21z" />
    <glyph glyph-name="atilde" unicode="&#xe3;" horiz-adv-x="1044" 
d="M758 0v139q-181 -153 -359 -153q-121 0 -208 83.5t-87 202.5q0 84 46 153.5t128.5 107.5t184.5 38q73 0 146.5 -19.5t148.5 -59.5v225q0 203 -258 203q-220 0 -299 -166l-80 20q56 116 147.5 168.5t239.5 52.5q181 0 268.5 -72.5t87.5 -201.5v-629h160v-92h-266zM758 229
v177q-79 46 -143.5 66t-133.5 20q-118 0 -193 -63t-75 -163q0 -84 60.5 -141t152.5 -57q58 0 118.5 20.5t117.5 58t96 82.5zM248 1165h-56q58 181 180 181q38 0 75.5 -14t78.5 -36q100 -49 154 -49q77 0 120 96h54q-20 -80 -71.5 -129t-117.5 -49q-55 0 -155 49
q-98 50 -144 50q-82 0 -118 -99z" />
    <glyph glyph-name="aring" unicode="&#xe5;" horiz-adv-x="1044" 
d="M758 0v139q-181 -153 -359 -153q-121 0 -208 83.5t-87 202.5q0 84 46 153.5t128.5 107.5t184.5 38q73 0 146.5 -19.5t148.5 -59.5v225q0 203 -258 203q-220 0 -299 -166l-80 20q56 116 147.5 168.5t239.5 52.5q181 0 268.5 -72.5t87.5 -201.5v-629h160v-92h-266zM758 229
v177q-79 46 -143.5 66t-133.5 20q-118 0 -193 -63t-75 -163q0 -84 60.5 -141t152.5 -57q58 0 118.5 20.5t117.5 58t96 82.5zM522 1440q79 0 133.5 -54.5t54.5 -132.5t-55 -133t-133 -55q-77 0 -131.5 55.5t-54.5 132.5t54 132t132 55zM522 1378q-51 0 -88 -37t-37 -88
t37 -89t88 -38q52 0 89.5 37.5t37.5 89.5t-37.5 88.5t-89.5 36.5z" />
    <glyph glyph-name="ccedilla" unicode="&#xe7;" horiz-adv-x="1044" 
d="M444 -164l29 146q-117 20 -205 87t-136 171.5t-48 232.5q0 142 61 260t167.5 184t236.5 66q99 0 178 -36.5t129 -104.5h4v127h88v-369h-88q0 85 -42 150.5t-111.5 101t-153.5 35.5q-106 0 -187.5 -51.5t-127 -143.5t-45.5 -211q0 -123 46.5 -216.5t129.5 -145t192 -51.5
q234 0 336 231l86 -37q-37 -92 -98.5 -157t-143.5 -99.5t-178 -34.5h-26l-13 -59q69 -8 109.5 -50.5t40.5 -107.5q0 -68 -43 -111t-120.5 -61.5t-178.5 -15.5v65q99 -8 169 18t70 93q0 80 -127 94z" />
    <glyph glyph-name="eacute" unicode="&#xe9;" 
d="M1059 461h-871q0 -109 54.5 -202t148.5 -147.5t205 -54.5q112 0 209.5 54.5t169.5 156.5l84 -39q-71 -119 -199 -188.5t-276 -69.5q-109 0 -200.5 37.5t-160.5 108.5t-105 163.5t-36 202.5q0 145 63 263t175 183.5t255 65.5q107 0 195.5 -38t152.5 -108.5t99.5 -170.5
t36.5 -217zM190 553h758q-18 110 -69.5 189.5t-131 121t-180.5 41.5q-149 0 -248.5 -93t-128.5 -259zM493 1098h-78l205 317h117z" />
    <glyph glyph-name="egrave" unicode="&#xe8;" 
d="M1059 461h-871q0 -109 54.5 -202t148.5 -147.5t205 -54.5q112 0 209.5 54.5t169.5 156.5l84 -39q-71 -119 -199 -188.5t-276 -69.5q-109 0 -200.5 37.5t-160.5 108.5t-105 163.5t-36 202.5q0 145 63 263t175 183.5t255 65.5q107 0 195.5 -38t152.5 -108.5t99.5 -170.5
t36.5 -217zM190 553h758q-18 110 -69.5 189.5t-131 121t-180.5 41.5q-149 0 -248.5 -93t-128.5 -259zM639 1098l-244 317h117l205 -317h-78z" />
    <glyph glyph-name="ecircumflex" unicode="&#xea;" 
d="M1059 461h-871q0 -109 54.5 -202t148.5 -147.5t205 -54.5q112 0 209.5 54.5t169.5 156.5l84 -39q-71 -119 -199 -188.5t-276 -69.5q-109 0 -200.5 37.5t-160.5 108.5t-105 163.5t-36 202.5q0 145 63 263t175 183.5t255 65.5q107 0 195.5 -38t152.5 -108.5t99.5 -170.5
t36.5 -217zM190 553h758q-18 110 -69.5 189.5t-131 121t-180.5 41.5q-149 0 -248.5 -93t-128.5 -259zM264 1106l242 297h102l260 -297h-76l-235 207l-221 -207h-72z" />
    <glyph glyph-name="edieresis" unicode="&#xeb;" 
d="M1059 461h-871q0 -109 54.5 -202t148.5 -147.5t205 -54.5q112 0 209.5 54.5t169.5 156.5l84 -39q-71 -119 -199 -188.5t-276 -69.5q-109 0 -200.5 37.5t-160.5 108.5t-105 163.5t-36 202.5q0 145 63 263t175 183.5t255 65.5q107 0 195.5 -38t152.5 -108.5t99.5 -170.5
t36.5 -217zM190 553h758q-18 110 -69.5 189.5t-131 121t-180.5 41.5q-149 0 -248.5 -93t-128.5 -259zM743 1323q28 0 49 -21t21 -49q0 -29 -21 -49t-49 -20q-29 0 -49 20t-20 49q0 28 20 49t49 21zM389 1323q29 0 49 -20t20 -50q0 -31 -20 -50t-49 -19q-28 0 -49 20t-21 49
q0 28 21 49t49 21z" />
    <glyph glyph-name="iacute" unicode="&#xed;" horiz-adv-x="512" 
d="M49 0v92h172v785h-172v92h279v-877h164v-92h-443zM184 1098h-78l205 317h117z" />
    <glyph glyph-name="igrave" unicode="&#xec;" horiz-adv-x="512" 
d="M49 0v92h172v785h-172v92h279v-877h164v-92h-443zM269 1098l-244 317h117l205 -317h-78z" />
    <glyph glyph-name="icircumflex" unicode="&#xee;" horiz-adv-x="512" 
d="M49 0v92h172v785h-172v92h279v-877h164v-92h-443zM-45 1106l242 297h102l260 -297h-76l-235 207l-221 -207h-72z" />
    <glyph glyph-name="idieresis" unicode="&#xef;" horiz-adv-x="512" 
d="M49 0v92h172v785h-172v92h279v-877h164v-92h-443zM434 1323q28 0 49 -21t21 -49q0 -29 -21 -49t-49 -20q-29 0 -49 20t-20 49q0 28 20 49t49 21zM80 1323q29 0 49 -20t20 -50q0 -31 -20 -50t-49 -19q-28 0 -49 20t-21 49q0 28 21 49t49 21z" />
    <glyph glyph-name="ntilde" unicode="&#xf1;" horiz-adv-x="1087" 
d="M14 0v92h179v785h-179v92h285v-150q95 80 189.5 122t175.5 42q77 0 136 -30t92.5 -87t33.5 -135v-639h155v-92h-434v92h172v610q0 93 -42.5 139t-119.5 46q-79 0 -175 -46.5t-183 -127.5v-621h158v-92h-443zM269 1165h-56q58 181 180 181q38 0 75.5 -14t78.5 -36
q100 -49 154 -49q77 0 120 96h54q-20 -80 -71.5 -129t-117.5 -49q-55 0 -155 49q-98 50 -144 50q-82 0 -118 -99z" />
    <glyph glyph-name="oacute" unicode="&#xf3;" 
d="M84 483q0 143 63.5 261t172.5 184.5t245 66.5t246.5 -66.5t174 -184t63.5 -261.5q0 -142 -63.5 -259.5t-174 -185t-246.5 -67.5t-245.5 67t-172.5 185.5t-63 259.5zM193 483q0 -119 48.5 -213.5t133 -148t190.5 -53.5q107 0 192.5 53.5t134 149t48.5 212.5
q0 116 -48.5 212.5t-134 150t-192.5 53.5q-78 0 -146 -30t-119.5 -87t-79 -134t-27.5 -165zM493 1098h-78l205 317h117z" />
    <glyph glyph-name="ograve" unicode="&#xf2;" 
d="M84 483q0 143 63.5 261t172.5 184.5t245 66.5t246.5 -66.5t174 -184t63.5 -261.5q0 -142 -63.5 -259.5t-174 -185t-246.5 -67.5t-245.5 67t-172.5 185.5t-63 259.5zM193 483q0 -119 48.5 -213.5t133 -148t190.5 -53.5q107 0 192.5 53.5t134 149t48.5 212.5
q0 116 -48.5 212.5t-134 150t-192.5 53.5q-78 0 -146 -30t-119.5 -87t-79 -134t-27.5 -165zM639 1098l-244 317h117l205 -317h-78z" />
    <glyph glyph-name="ocircumflex" unicode="&#xf4;" 
d="M84 483q0 143 63.5 261t172.5 184.5t245 66.5t246.5 -66.5t174 -184t63.5 -261.5q0 -142 -63.5 -259.5t-174 -185t-246.5 -67.5t-245.5 67t-172.5 185.5t-63 259.5zM193 483q0 -119 48.5 -213.5t133 -148t190.5 -53.5q107 0 192.5 53.5t134 149t48.5 212.5
q0 116 -48.5 212.5t-134 150t-192.5 53.5q-78 0 -146 -30t-119.5 -87t-79 -134t-27.5 -165zM264 1106l242 297h102l260 -297h-76l-235 207l-221 -207h-72z" />
    <glyph glyph-name="odieresis" unicode="&#xf6;" 
d="M84 483q0 143 63.5 261t172.5 184.5t245 66.5t246.5 -66.5t174 -184t63.5 -261.5q0 -142 -63.5 -259.5t-174 -185t-246.5 -67.5t-245.5 67t-172.5 185.5t-63 259.5zM193 483q0 -119 48.5 -213.5t133 -148t190.5 -53.5q107 0 192.5 53.5t134 149t48.5 212.5
q0 116 -48.5 212.5t-134 150t-192.5 53.5q-78 0 -146 -30t-119.5 -87t-79 -134t-27.5 -165zM743 1323q28 0 49 -21t21 -49q0 -29 -21 -49t-49 -20q-29 0 -49 20t-20 49q0 28 20 49t49 21zM389 1323q29 0 49 -20t20 -50q0 -31 -20 -50t-49 -19q-28 0 -49 20t-21 49
q0 28 21 49t49 21z" />
    <glyph glyph-name="otilde" unicode="&#xf5;" 
d="M84 483q0 143 63.5 261t172.5 184.5t245 66.5t246.5 -66.5t174 -184t63.5 -261.5q0 -142 -63.5 -259.5t-174 -185t-246.5 -67.5t-245.5 67t-172.5 185.5t-63 259.5zM193 483q0 -119 48.5 -213.5t133 -148t190.5 -53.5q107 0 192.5 53.5t134 149t48.5 212.5
q0 116 -48.5 212.5t-134 150t-192.5 53.5q-78 0 -146 -30t-119.5 -87t-79 -134t-27.5 -165zM291 1165h-56q58 181 180 181q38 0 75.5 -14t78.5 -36q100 -49 154 -49q77 0 120 96h54q-20 -80 -71.5 -129t-117.5 -49q-55 0 -155 49q-98 50 -144 50q-82 0 -118 -99z" />
    <glyph glyph-name="uacute" unicode="&#xfa;" horiz-adv-x="1110" 
d="M821 0v139q-178 -153 -381 -153q-110 0 -176.5 65.5t-66.5 173.5v652h-170v92h276v-717q0 -170 158 -170q87 0 183 47t177 129v619h-170v92h277v-877h166v-92h-273zM483 1098h-78l205 317h117z" />
    <glyph glyph-name="ugrave" unicode="&#xf9;" horiz-adv-x="1110" 
d="M821 0v139q-178 -153 -381 -153q-110 0 -176.5 65.5t-66.5 173.5v652h-170v92h276v-717q0 -170 158 -170q87 0 183 47t177 129v619h-170v92h277v-877h166v-92h-273zM568 1098l-244 317h117l205 -317h-78z" />
    <glyph glyph-name="ucircumflex" unicode="&#xfb;" horiz-adv-x="1110" 
d="M821 0v139q-178 -153 -381 -153q-110 0 -176.5 65.5t-66.5 173.5v652h-170v92h276v-717q0 -170 158 -170q87 0 183 47t177 129v619h-170v92h277v-877h166v-92h-273zM254 1106l242 297h102l260 -297h-76l-235 207l-221 -207h-72z" />
    <glyph glyph-name="udieresis" unicode="&#xfc;" horiz-adv-x="1110" 
d="M821 0v139q-178 -153 -381 -153q-110 0 -176.5 65.5t-66.5 173.5v652h-170v92h276v-717q0 -170 158 -170q87 0 183 47t177 129v619h-170v92h277v-877h166v-92h-273zM733 1323q28 0 49 -21t21 -49q0 -29 -21 -49t-49 -20q-29 0 -49 20t-20 49q0 28 20 49t49 21zM379 1323
q29 0 49 -20t20 -50q0 -31 -20 -50t-49 -19q-28 0 -49 20t-21 49q0 28 21 49t49 21z" />
    <glyph glyph-name="dagger" unicode="&#x2020;" horiz-adv-x="961" 
d="M506 852q0 -44 1 -90.5t8.5 -86.5t25.5 -81v-182l-35 -822h-49l-35 822v182q25 54 30 106t5 152q-100 0 -151.5 -4.5t-92.5 -20.5h-186v103h186q68 -25 244 -25q0 112 -7 174.5t-28 110.5v201h117v-201q-22 -54 -27.5 -114.5t-5.5 -170.5q175 0 244 25h186v-103h-186
q-69 25 -244 25z" />
    <glyph glyph-name="degree" unicode="&#xb0;" horiz-adv-x="811" 
d="M406 1413q78 0 144 -39t105 -105t39 -145q0 -78 -39 -144t-105 -105t-144 -39q-79 0 -145 39t-105 105t-39 144q0 79 39 145t105 105t145 39zM406 1331q-89 0 -148 -63t-59 -144q0 -52 26 -99t73 -77t108 -30q81 0 143.5 59.5t62.5 146.5q0 37 -23 86.5t-70 85t-113 35.5
z" />
    <glyph glyph-name="cent" unicode="&#xa2;" horiz-adv-x="1044" 
d="M274 -434l113 434q-90 33 -158.5 102t-106.5 164.5t-38 206.5q0 159 79 287.5t207 186t267 22.5l102 401h68l-107 -416q100 -33 156 -112h4v127h88v-369h-88q-4 99 -48 163.5t-134 100.5l-205 -788q97 -16 175.5 1t142.5 73t106 149l86 -37q-39 -98 -113.5 -170.5
t-183.5 -103.5t-235 -4l-107 -418h-70zM414 96l200 785q-138 17 -233 -38t-141.5 -152.5t-46.5 -207.5q0 -131 61.5 -238.5t159.5 -148.5z" />
    <glyph glyph-name="sterling" unicode="&#xa3;" horiz-adv-x="1067" 
d="M111 641v92h245q-36 76 -60 142t-35 119.5t-11 103.5q0 93 43.5 164.5t121 111t179.5 39.5q162 0 252.5 -87t95.5 -249h-100q-5 121 -69 185.5t-179 64.5q-70 0 -124.5 -28t-85 -78t-30.5 -113q0 -115 107 -375h268v-92h-237q30 -80 40 -151.5t5.5 -131.5t-19.5 -127
q64 -56 108.5 -91t85 -53.5t79.5 -18.5q76 0 112 57.5t39 181.5h84q3 -152 -61 -238.5t-170 -86.5q-136 0 -303 168q-38 -80 -95.5 -124t-126.5 -44q-78 0 -130 51t-52 129q0 51 25 92.5t70.5 65.5t101.5 24q79 0 161 -57q12 45 6.5 108.5t-24 127.5t-41.5 118h-276z
M428 205q-62 65 -139 65q-53 0 -89 -32t-36 -80q0 -45 30 -74t74 -29q99 0 160 150z" />
    <glyph glyph-name="section" unicode="&#xa7;" horiz-adv-x="897" 
d="M109 -80h100q0 -117 73.5 -191.5t190.5 -74.5q76 0 135 32t91 85t32 116q0 106 -84 163.5t-258 132t-265 152.5t-91 214q0 82 41 150t135 145q-66 47 -100.5 114t-34.5 146q0 88 45 158.5t123.5 110.5t179.5 40q85 0 168 -32t141 -109t64 -201h-97q-6 124 -84.5 190
t-193.5 66q-108 0 -178 -62t-70 -157q0 -114 83 -175t255 -133.5t262 -148.5t90 -211q0 -84 -48.5 -165.5t-129.5 -133.5q43 -26 74.5 -65.5t48 -88.5t16.5 -100q0 -94 -44 -167.5t-124 -113.5t-186 -40q-78 0 -144.5 25.5t-115 73.5t-74.5 113.5t-26 141.5zM614 184
q150 100 150 244q0 76 -33 123.5t-90 79t-182 84.5t-183 82q-68 -46 -106.5 -107.5t-38.5 -126.5q0 -77 46 -133t109 -90.5t172 -81t156 -74.5z" />
    <glyph glyph-name="bullet" unicode="&#x2022;" horiz-adv-x="1024" 
d="M512 948q68 0 125 -33.5t91 -90.5t34 -126q0 -68 -34 -125t-91 -90.5t-125 -33.5t-125 33.5t-91 90.5t-34 125q0 69 34 126t91 90.5t125 33.5z" />
    <glyph glyph-name="paragraph" unicode="&#xb6;" horiz-adv-x="1323" 
d="M1266 1391v-138h-195v-1687h-129v1687h-266v-1687h-131v979q-141 0 -243.5 59t-154 157.5t-51.5 211.5q0 94 33 171t96.5 133t152 85t197.5 29h691z" />
    <glyph glyph-name="germandbls" unicode="&#xdf;" horiz-adv-x="1260" 
d="M207 92v938q0 117 48.5 203t144.5 133t231 47q96 0 173 -24.5t130.5 -68.5t83 -105.5t29.5 -139.5q0 -97 -49 -165.5t-140 -96.5v-4q98 -18 170 -72.5t110 -138.5t38 -190q0 -92 -27.5 -168.5t-80 -133.5t-126 -88.5t-158.5 -31.5q-64 0 -116 14v92q20 -13 57 -16
q46 -4 63 -4q67 0 132 37t108 112t43 180q0 98 -36 179t-125.5 131.5t-241.5 50.5v82q99 -4 160.5 30.5t87.5 91t26 117.5q0 71 -38.5 126.5t-108.5 86.5t-164 31q-130 0 -224 -63t-94 -228v-944h154v-92h-434v92h174z" />
    <glyph glyph-name="registered" unicode="&#xae;" horiz-adv-x="1642" 
d="M512 1120h338q86 0 147.5 -25.5t94 -73t32.5 -116.5q0 -60 -29 -110t-84 -81t-126 -32v-4q61 -21 96.5 -51t70 -93t101.5 -217h-121q-64 152 -111.5 226t-103 98.5t-153.5 24.5h-46v-349h-106v803zM618 750h134q92 0 149.5 15t83 47.5t25.5 86.5q0 79 -52.5 109
t-191.5 30h-148v-288zM821 1491q206 0 382.5 -102.5t279 -279t102.5 -382.5t-102.5 -382.5t-279 -279t-382.5 -102.5t-382.5 102.5t-279 279t-102.5 382.5t102.5 382.5t279 279t382.5 102.5zM819 59q181 0 335 89.5t243.5 243.5t89.5 335q0 137 -51.5 258.5t-144 214
t-214 144t-258.5 51.5q-181 0 -334.5 -89.5t-243 -244t-89.5 -334.5t89.5 -334.5t243 -244t334.5 -89.5z" />
    <glyph glyph-name="copyright" unicode="&#xa9;" horiz-adv-x="1642" 
d="M1153 924l-96 -29q-70 166 -226 166q-124 0 -202 -89t-78 -233q0 -102 33 -184t94 -128t143 -46q180 0 250 205l90 -33q-27 -99 -83 -157t-122.5 -81.5t-130.5 -23.5q-83 0 -153.5 33.5t-123 95.5t-79.5 141t-27 168q0 100 43 196t131 157t215 61q108 0 186 -53t136 -166
zM821 1491q206 0 382.5 -102.5t279 -279t102.5 -382.5t-102.5 -382.5t-279 -279t-382.5 -102.5t-382.5 102.5t-279 279t-102.5 382.5t102.5 382.5t279 279t382.5 102.5zM819 59q181 0 335 89.5t243.5 243.5t89.5 335q0 137 -51.5 258.5t-144 214t-214 144t-258.5 51.5
q-181 0 -334.5 -89.5t-243 -244t-89.5 -334.5t89.5 -334.5t243 -244t334.5 -89.5z" />
    <glyph glyph-name="trademark" unicode="&#x2122;" horiz-adv-x="1921" 
d="M231 1391h637v-88h-264v-730h-106v730h-267v88zM961 1391h155l203 -654h4l209 654h156v-818h-93v730h-4l-237 -730h-70l-225 730h-4v-730h-94v818z" />
    <glyph glyph-name="acute" unicode="&#xb4;" horiz-adv-x="682" 
d="M268 1098h-78l205 317h117z" />
    <glyph glyph-name="dieresis" unicode="&#xa8;" horiz-adv-x="682" 
d="M518 1323q28 0 49 -21t21 -49q0 -29 -21 -49t-49 -20q-29 0 -49 20t-20 49q0 28 20 49t49 21zM164 1323q29 0 49 -20t20 -50q0 -31 -20 -50t-49 -19q-28 0 -49 20t-21 49q0 28 21 49t49 21z" />
    <glyph glyph-name="notequal" unicode="&#x2260;" horiz-adv-x="1124" 
d="M823 1124l101 -57l-156 -279h338v-112h-399l-160 -285h559v-112h-621l-184 -330l-100 57l151 273h-321v112h385l157 285h-542v112h606z" />
    <glyph glyph-name="AE" unicode="&#xc6;" horiz-adv-x="1921" 
d="M-125 0v92h148l663 1206h-229v93h1372v-338h-94v245h-731v-538h583v-92h-583v-576h731v250h94v-342h-1172v92h232v576h-432l-320 -576h162v-92h-424zM504 760h385v538h-88z" />
    <glyph glyph-name="Oslash" unicode="&#xd8;" horiz-adv-x="1599" 
d="M1251 1257l127 146l54 -47l-132 -148q62 -60 108 -140t68.5 -171t22.5 -197q0 -183 -77.5 -348t-236 -268.5t-384.5 -103.5q-72 0 -138 8.5t-113.5 25t-93.5 44.5t-100 73l-127 -141l-53 45l127 145q-70 73 -114 151.5t-65.5 168.5t-21.5 192q0 136 45 265.5t133 232.5
t220.5 163t300.5 60q135 0 236 -34t214 -122zM375 262l805 916q-98 77 -179 106t-194 29q-130 0 -238 -44.5t-187.5 -129t-122 -199.5t-42.5 -252q0 -85 15 -156.5t51 -138t92 -131.5zM1233 1128l-805 -915q76 -69 165 -101t200 -32q203 0 336 96t194 239t61 285
q0 131 -38.5 239.5t-112.5 188.5z" />
    <glyph glyph-name="infinity" unicode="&#x221e;" horiz-adv-x="1460" 
d="M738 608l110.5 97t72 53t81.5 43q72 32 143 27.5t131 -41t97 -93.5t43 -123q8 -78 -29.5 -154.5t-110 -123t-161.5 -37.5q-70 7 -134 34.5t-109 61t-87.5 76t-46.5 45.5l-56.5 -56t-76.5 -65.5t-108 -61t-136 -34.5q-89 -9 -161.5 37.5t-110 123t-29.5 154.5q7 67 44 124
t97 93t131 40.5t142 -27.5q45 -20 81.5 -43t72 -53zM671 541q-88 75 -141.5 112t-102.5 54q-61 22 -110.5 12.5t-84.5 -40.5t-52 -71.5t-17 -77.5q1 -56 37 -101.5t91 -64.5t109 -6q81 19 124 50.5t147 132.5zM806 541q68 -67 105 -99.5t73 -51.5t92 -32q55 -13 110 6
t91 64.5t37 101.5q2 49 -29.5 102.5t-92 78t-143.5 -3.5q-50 -18 -103 -55.5t-140 -110.5z" />
    <glyph glyph-name="plusminus" unicode="&#xb1;" horiz-adv-x="1366" 
d="M145 55h1076v-92h-1076v92zM729 862h492v-92h-492v-491h-92v491h-492v92h492v492h92v-492z" />
    <glyph glyph-name="lessequal" unicode="&#x2264;" horiz-adv-x="1124" 
d="M59 0v113h1018v-113h-1018zM59 711v127l1018 471v-127l-887 -408l887 -407v-127z" />
    <glyph glyph-name="greaterequal" unicode="&#x2265;" horiz-adv-x="1124" 
d="M1077 113v-113h-1018v113h1018zM1077 838v-127l-1018 -471v127l887 407l-887 408v127z" />
    <glyph glyph-name="yen" unicode="&#xa5;" 
d="M432 1057h301l119 241h-180v93h458v-93h-167l-117 -241h284v-92h-333l-117 -246h450v-92h-507v-535h198v-92h-506v92h193v535h-508v92h449l-113 246h-336v92h301l-121 241h-180v93h496v-93h-183zM686 965h-219l108 -238z" />
    <glyph glyph-name="mu" unicode="&#xb5;" 
d="M213 969h100v-490q0 -212 76 -304.5t184 -92.5q121 0 189.5 98t68.5 309v480h101v-969h-101v119h-4q-37 -52 -74.5 -83t-83.5 -46t-100 -15q-79 0 -137 34t-115 110h-4v-553h-100v1403z" />
    <glyph glyph-name="partialdiff" unicode="&#x2202;" horiz-adv-x="1012" 
d="M220 1366l-80 102q76 34 177 52t194 -4q102 -24 188.5 -89t155.5 -186q42 -73 64 -164t28 -160.5t6 -111.5q0 -47 -10 -143t-34.5 -205.5t-61.5 -188.5q-48 -102 -91.5 -160t-121.5 -102q-102 -56 -208.5 -48.5t-191.5 65.5q-45 31 -80 70.5t-60.5 96.5t-31.5 129
q-9 111 27 204t86 155q58 71 128 109.5t163 35.5q88 -3 147 -31t160 -108q18 99 22 238q3 65 -19.5 168.5t-45.5 156.5q-24 59 -84.5 117.5t-144.5 65.5q-56 5 -89.5 3t-56.5 -9t-64 -26zM757 612q-59 67 -101 99.5t-121 31.5q-117 -3 -196 -110q-41 -58 -62.5 -110.5
t-31 -107t-9.5 -112.5q0 -74 17.5 -144.5t77.5 -111.5q44 -28 83.5 -29t86.5 19q103 45 165 190q36 88 57.5 186.5t33.5 198.5z" />
    <glyph glyph-name="summation" unicode="&#x2211;" horiz-adv-x="1460" 
d="M1264 1526l12 -326h-41q-32 102 -50.5 139t-79 66t-183.5 29h-539l559 -734l-602 -694h760q83 0 128 19.5t77 66t71 146.5h47q-45 -185 -56 -245t-32 -214l-80 14.5t-77 7.5h-1031q-14 0 -36.5 -1.5l-45 -3t-36.5 -1.5l714 815l-710 930q32 -2 105 -8t108 -6h1018z" />
    <glyph glyph-name="product" unicode="&#x220f;" horiz-adv-x="1686" 
d="M1446 1288v-1282q0 -69 23.5 -105t67 -48.5t108.5 -12.5v-47h-627v47q100 0 148 33t48 133v1419h-733v-1419q0 -69 23.5 -105t67 -48.5t108.5 -12.5v-47h-629v47q102 0 150.5 33t48.5 133v1282q0 203 -195 203v47h1583v-47q-192 0 -192 -203z" />
    <glyph glyph-name="pi" unicode="&#x3c0;" horiz-adv-x="1124" 
d="M686 821h-231q-17 -201 -33 -329.5t-31 -221t-31 -168.5q-13 -59 -38 -92.5t-74 -46.5q-40 -10 -79.5 16t-47.5 62q-6 27 -3 45.5t11 34.5t18 29l21 26q3 4 34.5 41t47.5 67.5t20 67.5l60 469h-97q-41 0 -78 -19.5t-57 -45.5l-43 -64h-35l35 93.5t58 105.5q29 43 78 74.5
t114 31.5h764v-176h-258q-25 -239 -25 -481q0 -44 15 -86t37 -64q28 -26 68.5 -33.5t82.5 25.5q23 18 33.5 41t13.5 44l6 42h43q-1 -83 -25 -149.5t-57 -107t-65 -58.5q-36 -22 -84 -26.5t-88 22.5q-66 48 -100 151q-19 60 -21.5 158.5t6.5 192.5z" />
    <glyph glyph-name="integral" unicode="&#x222b;" horiz-adv-x="561" 
d="M395 999l-2 -442q-2 -364 -70 -600q-21 -76 -59 -125q-17 -22 -75.5 -42t-104.5 1q-22 11 -41.5 36t-26.5 44q-12 35 0 65t49 48q34 17 60.5 5t56.5 -46q29 -30 48.5 -4t27.5 82.5t6 130.5q-2 76 -4 141t-4 119.5t-3 163t-1 219.5v295q0 90 2 192t7.5 181.5t16 139.5
t27.5 121q10 34 37.5 75.5t54.5 58.5q26 16 56.5 17.5t59.5 -8.5t44 -20q27 -17 40.5 -60t-13.5 -77q-15 -18 -43 -29.5t-56 -8.5t-47 24q-22 22 -40.5 24t-29 -11.5t-12.5 -33.5q-1 -26 2 -62.5l14 -173t17 -243t6 -197.5z" />
    <glyph glyph-name="ordfeminine" unicode="&#xaa;" horiz-adv-x="682" 
d="M502 815v84q-124 -92 -232 -92q-81 0 -136.5 50.5t-55.5 123.5q0 77 65.5 127.5t165.5 50.5q95 0 193 -49v127q0 67 -40.5 98t-127.5 31q-144 0 -195 -98l-53 12q39 69 98 101t152 32q123 0 179 -43.5t56 -140.5v-359h103v-55h-172zM502 952v107q-94 51 -178 51
q-52 0 -92 -17t-62.5 -48t-22.5 -70q0 -52 39 -85.5t101 -33.5q55 0 116.5 28t98.5 68z" />
    <glyph glyph-name="ordmasculine" unicode="&#xba;" horiz-adv-x="725" 
d="M49 1106q0 131 90 219t223 88q87 0 160 -40.5t113.5 -111t40.5 -155.5t-40.5 -155.5t-113 -111t-157.5 -40.5q-135 0 -225.5 88t-90.5 219zM121 1106q0 -108 68.5 -179t175.5 -71q104 0 172.5 71t68.5 179t-68.5 179t-172.5 71q-107 0 -175.5 -71t-68.5 -179z" />
    <glyph glyph-name="Omega" unicode="&#x2126;" horiz-adv-x="1573" 
d="M641 311l33 -311h-604v332h30q20 -78 45.5 -101.5t90.5 -23.5h323l-4 57q-89 27 -145.5 53.5t-106.5 68.5t-90 101q-69 103 -90.5 212.5t-4 212t61.5 180.5q52 95 106.5 140t127.5 87q69 41 169.5 65.5t204.5 24.5q105 0 205.5 -24.5t169.5 -65.5q73 -42 127 -86
t107 -141q44 -78 61.5 -180.5t-4 -212t-90.5 -212.5q-60 -87 -137.5 -135.5t-204.5 -87.5l-4 -57h323q65 0 91.5 24.5t44.5 100.5h30v-332h-604l33 311l55.5 24.5t61.5 35.5t64 65.5t61 108.5q37 86 47.5 215.5t-22.5 261t-118 215.5q-106 106 -297 106t-296 -106
q-85 -84 -118 -215.5t-22.5 -261t47.5 -215.5q28 -65 60.5 -108t64.5 -66t61 -36z" />
    <glyph glyph-name="ae" unicode="&#xe6;" horiz-adv-x="1772" 
d="M1698 461h-852q15 -181 125 -289.5t278 -108.5q229 0 381 205l82 -43q-66 -102 -181.5 -178t-279.5 -76q-268 0 -413 222q-199 -222 -412 -222q-89 0 -161 38.5t-113 107.5t-41 153q0 134 95.5 215.5t252.5 81.5q152 0 293 -86v232q0 104 -64 153t-196 49
q-105 0 -174 -39.5t-109 -123.5l-84 22q42 104 143 162.5t238 58.5q288 0 340 -221q67 107 166.5 164t222.5 57q90 0 173 -33t149 -100.5t103.5 -168.5t37.5 -232zM856 553h737q-3 75 -34.5 142.5t-82 113.5t-114 71t-133.5 25q-89 0 -170 -41.5t-136 -121t-67 -189.5z
M752 399q-170 90 -283 90q-74 0 -132.5 -28t-91 -78.5t-32.5 -114.5q0 -62 28.5 -111.5t78.5 -77.5t112 -28q78 0 164 44t156 118v186z" />
    <glyph glyph-name="oslash" unicode="&#xf8;" 
d="M1063 1001l-141 -163q129 -154 129 -355q0 -142 -63.5 -259.5t-173.5 -185t-245 -67.5q-171 0 -303 107l-135 -158l-57 47l139 162q-59 67 -93 162.5t-34 195.5q0 141 64 258t173.5 183.5t243.5 66.5q56 0 110.5 -12.5t103.5 -36.5t89 -57l140 160zM854 758l-522 -604
q102 -86 237 -86q106 0 191 53.5t133.5 148.5t48.5 211q0 160 -88 277zM281 207l524 604q-50 44 -111 66t-127 22q-78 0 -146 -30t-119 -86t-79 -133.5t-28 -164.5q0 -161 86 -278z" />
    <glyph glyph-name="questiondown" unicode="&#xbf;" horiz-adv-x="918" 
d="M530 592l37 -393l-14 -6q-92 14 -174.5 -4.5t-136.5 -81t-54 -177.5q0 -80 37.5 -144t105 -101t148.5 -37q64 0 115 20.5t89 59t57.5 91t19.5 115.5h96q0 -108 -47.5 -195t-133 -135t-198.5 -48q-82 0 -154.5 28t-126 80t-82 121t-28.5 152q0 91 41 174.5t125 135.5
t205 48l24 297h49zM453 778v191h114v-191h-114z" />
    <glyph glyph-name="exclamdown" unicode="&#xa1;" horiz-adv-x="512" 
d="M199 778v191h114v-191h-114zM203 -422v434l24 588h58l24 -588v-434h-106z" />
    <glyph glyph-name="logicalnot" unicode="&#xac;" horiz-adv-x="1366" 
d="M145 948h1076v-579h-93v487h-983v92z" />
    <glyph glyph-name="radical" unicode="&#x221a;" horiz-adv-x="1124" 
d="M53 854l-33 68l299 147l404 -825l260 1634l72 -10l-307 -1946l-498 1028z" />
    <glyph glyph-name="florin" unicode="&#x192;" 
d="M731 1063h223l-20 -92h-221l-248 -1141q-16 -74 -38 -121.5t-55 -80t-78 -47.5t-104 -15q-75 0 -180 31l23 100q91 -23 145 -23q65 0 103 31t53 100l252 1166h-168l18 92h168l49 207q17 72 54.5 122.5t90.5 74.5t120 24q60 0 182 -33l-21 -98q-81 20 -153 20
q-109 0 -140 -104l-30 -102z" />
    <glyph glyph-name="approxequal" unicode="&#x2248;" horiz-adv-x="1124" 
d="M1004 807l75 -49q-58 -97 -163.5 -138t-200.5 -14l-307 88q-66 19 -118 11.5t-86.5 -30t-54.5 -48.5l-32 -41l-88 55q79 105 182.5 142t216.5 5l309 -86q68 -20 162 19q66 28 105 86zM1004 498l75 -49q-58 -99 -163.5 -139t-200.5 -13l-307 88q-66 19 -118 11.5
t-86.5 -30t-56 -50.5l-30.5 -40l-88 56q79 105 182.5 142t216.5 5l309 -86q68 -20 162 19q66 28 105 86z" />
    <glyph glyph-name="increment" unicode="&#x2206;" horiz-adv-x="1253" 
d="M668 1409l577 -1409h-1233zM594 1059l-447 -959h844z" />
    <glyph glyph-name="guillemotleft" unicode="&#xab;" horiz-adv-x="961" 
d="M616 489l312 -489h-113l-313 489l313 490h113zM180 489l312 -489h-113l-313 489l313 490h113z" />
    <glyph glyph-name="guillemotright" unicode="&#xbb;" horiz-adv-x="961" 
d="M780 489l-311 490h113l313 -490l-313 -489h-113zM344 489l-311 490h112l314 -490l-314 -489h-112z" />
    <glyph glyph-name="ellipsis" unicode="&#x2026;" horiz-adv-x="2048" 
d="M1649 190h114v-190h-114v190zM967 190h114v-190h-114v190zM285 190h114v-190h-114v190z" />
    <glyph glyph-name="nbspace" unicode="&#xa0;" horiz-adv-x="544" 
 />
    <glyph glyph-name="Agrave" unicode="&#xc0;" horiz-adv-x="1343" 
d="M129 92l418 1206h-174v93h598v-93h-174l424 -1206h172v-92h-461v92h174l-154 436h-561l-149 -436h182v-92h-471v92h176zM424 621h498l-242 704h-14zM746 1514l-244 317h117l205 -317h-78z" />
    <glyph glyph-name="Atilde" unicode="&#xc3;" horiz-adv-x="1343" 
d="M129 92l418 1206h-174v93h598v-93h-174l424 -1206h172v-92h-461v92h174l-154 436h-561l-149 -436h182v-92h-471v92h176zM424 621h498l-242 704h-14zM398 1581h-56q58 181 180 181q38 0 75.5 -14t78.5 -36q100 -49 154 -49q77 0 120 96h54q-20 -80 -71.5 -129t-117.5 -49
q-55 0 -155 49q-98 50 -144 50q-82 0 -118 -99z" />
    <glyph glyph-name="Otilde" unicode="&#xd5;" horiz-adv-x="1599" 
d="M102 696q0 155 51.5 286.5t145.5 228.5t222.5 149.5t279.5 52.5q150 0 277.5 -52t222 -149t146.5 -229t52 -287q0 -152 -50.5 -283t-144 -229t-219 -151t-270.5 -53q-154 0 -286 52t-228 148t-147.5 227.5t-51.5 288.5zM217 696q0 -176 75.5 -317t209.5 -220t299 -79
q125 0 233 46t186.5 129.5t121 195t42.5 245.5q0 174 -75 316t-209 221.5t-299 79.5t-299 -79t-209.5 -221t-75.5 -317zM525 1581h-56q58 181 180 181q38 0 75.5 -14t78.5 -36q100 -49 154 -49q77 0 120 96h54q-20 -80 -71.5 -129t-117.5 -49q-55 0 -155 49q-98 50 -144 50
q-82 0 -118 -99z" />
    <glyph glyph-name="OE" unicode="&#x152;" horiz-adv-x="2154" 
d="M2030 340v-340h-1188q-246 0 -413.5 95t-247 251.5t-79.5 341.5q0 122 36.5 244.5t118.5 226.5t224.5 168t345.5 64h1203v-334h-93v241h-725v-534h576v-92h-576v-580h725v248h93zM1098 1298l-238 -1q-241 -1 -384 -88.5t-201 -223.5t-58 -297q0 -191 78.5 -324.5
t222 -202.5t329.5 -69h251v1206z" />
    <glyph glyph-name="oe" unicode="&#x153;" horiz-adv-x="1898" 
d="M1833 463h-832q8 -181 113.5 -291.5t274.5 -110.5q233 0 360 207l84 -39q-149 -258 -451 -258q-298 0 -434 258q-45 -117 -156 -187.5t-255 -70.5q-137 0 -241 63.5t-160 180.5t-56 270q0 148 57.5 265t162.5 181t239 64q70 0 134.5 -19t117.5 -54t95 -88.5t62 -112.5
q59 130 170 202t252 72q85 0 164.5 -28.5t148.5 -92t109.5 -166.5t40.5 -245zM1001 555h721q-6 97 -52.5 178t-125 127.5t-172.5 46.5q-97 0 -180.5 -47t-134 -127t-56.5 -178zM186 498q0 -132 42.5 -231.5t122 -151.5t188.5 -52q94 0 174.5 40t131 132.5t50.5 243.5
q0 128 -43 223t-122.5 146t-186.5 51q-96 0 -178 -45.5t-130.5 -137t-48.5 -218.5z" />
    <glyph glyph-name="endash" unicode="&#x2013;" horiz-adv-x="1024" 
d="M-12 567h1048v-108h-1048v108z" />
    <glyph glyph-name="emdash" unicode="&#x2014;" horiz-adv-x="2048" 
d="M-12 567h2072v-108h-2072v108z" />
    <glyph glyph-name="quotedblleft" unicode="&#x201c;" horiz-adv-x="981" 
d="M727 1133h51v-191h-114v223q0 101 32 162t101 64v-74q-41 0 -54 -36.5t-16 -147.5zM248 1133h51v-191h-115v223q0 101 33 162t100 64v-74q-42 0 -54 -36.5t-15 -147.5z" />
    <glyph glyph-name="quotedblright" unicode="&#x201d;" horiz-adv-x="981" 
d="M733 1200h-51v191h115v-224q0 -102 -32.5 -162t-100.5 -63v74q42 0 54 37t15 147zM254 1200h-51v191h114v-224q0 -101 -32 -161.5t-101 -63.5v74q43 0 55 37t15 147z" />
    <glyph glyph-name="quoteleft" unicode="&#x2018;" horiz-adv-x="512" 
d="M313 1133v-191h-114v223q0 101 33 162t100 64v-74q-41 0 -54 -36.5t-16 -147.5h51z" />
    <glyph glyph-name="quoteright" unicode="&#x2019;" horiz-adv-x="512" 
d="M199 1200v191h114v-224q0 -102 -32.5 -162t-100.5 -63v74q43 0 55 37t15 147h-51z" />
    <glyph glyph-name="divide" unicode="&#xf7;" horiz-adv-x="1368" 
d="M145 612v93h1076v-93h-1076zM682 180q-26 0 -45 19t-19 45q0 27 19 46t45 19q27 0 46.5 -19.5t19.5 -45.5q0 -25 -19.5 -44.5t-46.5 -19.5zM682 1008q-25 0 -44.5 18.5t-19.5 44.5q0 27 19.5 46.5t44.5 19.5q26 0 46 -20t20 -46q0 -25 -20 -44t-46 -19z" />
    <glyph glyph-name="lozenge" unicode="&#x25ca;" horiz-adv-x="1012" 
d="M557 0h-123l-397 772l397 754h123l397 -754zM831 772l-335 643l-336 -643l336 -661z" />
    <glyph glyph-name="ydieresis" unicode="&#xff;" horiz-adv-x="1087" 
d="M377 -342l135 369l-348 850h-160v92h422v-92h-158l295 -721l273 721h-154v92h403v-92h-147l-496 -1311h-270v92h205zM721 1323q28 0 49 -21t21 -49q0 -29 -21 -49t-49 -20q-29 0 -49 20t-20 49q0 28 20 49t49 21zM367 1323q29 0 49 -20t20 -50q0 -31 -20 -50t-49 -19
q-28 0 -49 20t-21 49q0 28 21 49t49 21z" />
    <glyph glyph-name="Ydieresis" unicode="&#x178;" horiz-adv-x="1237" 
d="M375 0v92h192v535l-426 671h-180v93h496v-93h-183l361 -571l362 571h-180v93h459v-93h-168l-426 -671v-535h199v-92h-506zM797 1739q28 0 49 -21t21 -49q0 -29 -21 -49t-49 -20q-29 0 -49 20t-20 49q0 28 20 49t49 21zM443 1739q29 0 49 -20t20 -50q0 -31 -20 -50
t-49 -19q-28 0 -49 20t-21 49q0 28 21 49t49 21z" />
    <glyph glyph-name="fraction" unicode="&#x2215;" horiz-adv-x="705" 
d="M-172 0l979 1391h72l-979 -1391h-72z" />
    <glyph glyph-name="currency" unicode="&#xa4;" horiz-adv-x="1366" 
d="M1092 1171l63 -67l-129 -129q49 -60 73.5 -129.5t24.5 -147.5q0 -58 -22 -136.5t-76 -141.5l129 -127l-63 -66l-131 127q-128 -96 -281 -96q-147 0 -274 96l-127 -127l-66 66l125 127q-96 130 -96 280q0 75 21.5 139t74.5 136l-125 129l66 67l127 -131q79 55 143 78
t137 23q75 0 139 -23.5t136 -77.5zM682 1044q-92 0 -172 -46t-126 -124.5t-46 -173.5q0 -93 46.5 -173t125.5 -126.5t172 -46.5t173 46.5t126.5 126.5t46.5 173q0 95 -46.5 173t-127 124.5t-172.5 46.5z" />
    <glyph glyph-name="guilsinglleft" unicode="&#x2039;" horiz-adv-x="469" 
d="M147 489l312 -489h-113l-313 489l313 490h113z" />
    <glyph glyph-name="guilsinglright" unicode="&#x203a;" horiz-adv-x="469" 
d="M322 489l-312 490h113l313 -490l-313 -489h-113z" />
    <glyph glyph-name="fi" unicode="&#xf001;" horiz-adv-x="1110" 
d="M891 1413q35 0 59.5 -24.5t24.5 -57.5q0 -32 -25 -58t-59 -26q-33 0 -57.5 25.5t-24.5 58.5q0 34 24 58t58 24zM938 969v-877h145v-92h-403v92h151v785h-522v-785h142v-92h-404v92h156v785h-150v92h150v178q0 134 72.5 200t166.5 66q56 0 103.5 -23t79 -66.5t45.5 -104.5
l-97 -15q-20 62 -51.5 89.5t-83.5 27.5q-63 0 -96 -41.5t-33 -114.5v-196h629z" />
    <glyph glyph-name="fl" unicode="&#xf002;" horiz-adv-x="1110" 
d="M543 1391h393v-1299h147v-92h-403v92h149v1206h-190q20 -27 31 -79l-97 -15q-20 62 -51.5 89.5t-83.5 27.5q-63 0 -96 -41.5t-33 -114.5v-196h158v-92h-158v-785h142v-92h-404v92h156v785h-156v92h156v178q0 136 72.5 201t166.5 65q55 0 101 -22z" />
    <glyph glyph-name="daggerdbl" unicode="&#x2021;" horiz-adv-x="1004" 
d="M584 487q-24 -56 -37 -114.5t-17 -125.5t-4 -149q95 0 148 13q48 7 96 24h186v-127h-186q-64 22 -96 27q-62 10 -148 10q0 -93 7.5 -136.5t25.5 -109.5v-215h-117v215q18 60 26.5 105t8.5 141q-87 0 -149 -10q-32 -5 -95 -27h-186v127h186q47 -16 95 -24q56 -13 149 -13
q0 89 -4 151.5t-18 123t-39 114.5q38 83 49.5 168t11.5 222q-77 0 -149 -11q-37 -6 -95 -26h-186v127h186q44 -17 95 -25q56 -12 149 -12q0 51 -4 98.5t-10.5 74t-20.5 73.5v215h117v-215q-18 -66 -25.5 -109.5t-7.5 -136.5q93 0 148 12q51 8 96 25h186v-127h-186
q-59 20 -96 26q-68 11 -148 11q0 -135 11 -222t47 -168z" />
    <glyph glyph-name="periodcentered" unicode="&#x2219;" horiz-adv-x="598" 
d="M242 588v190h114v-190h-114z" />
    <glyph glyph-name="quotesinglbase" unicode="&#x201a;" horiz-adv-x="512" 
d="M199 0v190h114v-223q0 -102 -32.5 -162t-100.5 -63v74q43 0 55 37t15 147h-51z" />
    <glyph glyph-name="quotedblbase" unicode="&#x201e;" horiz-adv-x="981" 
d="M686 0v190h115v-223q0 -102 -32.5 -162t-100.5 -63v74q42 0 54 37t15 147h-51zM199 0v190h114v-223q0 -102 -32.5 -162t-100.5 -63v74q43 0 55 37t15 147h-51z" />
    <glyph glyph-name="perthousand" unicode="&#x2030;" horiz-adv-x="2048" 
d="M1999 342q0 -123 -31 -205t-92.5 -124t-153.5 -42q-136 0 -206 95t-70 278q0 182 71 276.5t207 94.5t205.5 -94.5t69.5 -278.5zM1917 342q0 153 -49 234t-142 81q-95 0 -144.5 -81t-49.5 -234t49.5 -233t142.5 -80q95 0 144 79.5t49 233.5zM1309 342q0 -183 -70.5 -277
t-206.5 -94t-206 95t-70 278q0 182 71 276.5t207 94.5t205.5 -95.5t69.5 -277.5zM1227 342q0 153 -49 234t-142 81q-95 0 -144.5 -81t-49.5 -234t49.5 -233t142.5 -80q95 0 144 79.5t49 233.5zM604 1040q0 -184 -70 -277t-206 -93q-137 0 -207 95t-70 277t71 276.5t208 94.5
q136 0 205 -94.5t69 -278.5zM522 1040q0 154 -49 235t-141 81q-95 0 -145 -80.5t-50 -235.5q0 -153 49 -233t144 -80t143.5 80.5t48.5 232.5zM156 0l979 1391h69l-979 -1391h-69z" />
    <glyph glyph-name="Acircumflex" unicode="&#xc2;" horiz-adv-x="1343" 
d="M129 92l418 1206h-174v93h598v-93h-174l424 -1206h172v-92h-461v92h174l-154 436h-561l-149 -436h182v-92h-471v92h176zM424 621h498l-242 704h-14zM371 1522l242 297h102l260 -297h-76l-235 207l-221 -207h-72z" />
    <glyph glyph-name="Ecircumflex" unicode="&#xca;" horiz-adv-x="1237" 
d="M31 0v92h178v1206h-178v93h1114v-338h-94v245h-727v-540h577v-92h-577v-574h727v250h94v-342h-1114zM318 1522l242 297h102l260 -297h-76l-235 207l-221 -207h-72z" />
    <glyph glyph-name="Aacute" unicode="&#xc1;" horiz-adv-x="1343" 
d="M129 92l418 1206h-174v93h598v-93h-174l424 -1206h172v-92h-461v92h174l-154 436h-561l-149 -436h182v-92h-471v92h176zM424 621h498l-242 704h-14zM600 1514h-78l205 317h117z" />
    <glyph glyph-name="Edieresis" unicode="&#xcb;" horiz-adv-x="1237" 
d="M31 0v92h178v1206h-178v93h1114v-338h-94v245h-727v-540h577v-92h-577v-574h727v250h94v-342h-1114zM797 1739q28 0 49 -21t21 -49q0 -29 -21 -49t-49 -20q-29 0 -49 20t-20 49q0 28 20 49t49 21zM443 1739q29 0 49 -20t20 -50q0 -31 -20 -50t-49 -19q-28 0 -49 20
t-21 49q0 28 21 49t49 21z" />
    <glyph glyph-name="Egrave" unicode="&#xc8;" horiz-adv-x="1237" 
d="M31 0v92h178v1206h-178v93h1114v-338h-94v245h-727v-540h577v-92h-577v-574h727v250h94v-342h-1114zM693 1514l-244 317h117l205 -317h-78z" />
    <glyph glyph-name="Iacute" unicode="&#xcd;" horiz-adv-x="575" 
d="M55 0v92h174v1206h-174v93h465v-93h-176v-1206h176v-92h-465zM215 1514h-78l205 317h117z" />
    <glyph glyph-name="Icircumflex" unicode="&#xce;" horiz-adv-x="575" 
d="M55 0v92h174v1206h-174v93h465v-93h-176v-1206h176v-92h-465zM-14 1522l242 297h102l260 -297h-76l-235 207l-221 -207h-72z" />
    <glyph glyph-name="Idieresis" unicode="&#xcf;" horiz-adv-x="575" 
d="M55 0v92h174v1206h-174v93h465v-93h-176v-1206h176v-92h-465zM465 1739q28 0 49 -21t21 -49q0 -29 -21 -49t-49 -20q-29 0 -49 20t-20 49q0 28 20 49t49 21zM111 1739q29 0 49 -20t20 -50q0 -31 -20 -50t-49 -19q-28 0 -49 20t-21 49q0 28 21 49t49 21z" />
    <glyph glyph-name="Igrave" unicode="&#xcc;" horiz-adv-x="575" 
d="M55 0v92h174v1206h-174v93h465v-93h-176v-1206h176v-92h-465zM361 1514l-244 317h117l205 -317h-78z" />
    <glyph glyph-name="Oacute" unicode="&#xd3;" horiz-adv-x="1599" 
d="M102 696q0 155 51.5 286.5t145.5 228.5t222.5 149.5t279.5 52.5q150 0 277.5 -52t222 -149t146.5 -229t52 -287q0 -152 -50.5 -283t-144 -229t-219 -151t-270.5 -53q-154 0 -286 52t-228 148t-147.5 227.5t-51.5 288.5zM217 696q0 -176 75.5 -317t209.5 -220t299 -79
q125 0 233 46t186.5 129.5t121 195t42.5 245.5q0 174 -75 316t-209 221.5t-299 79.5t-299 -79t-209.5 -221t-75.5 -317zM727 1514h-78l205 317h117z" />
    <glyph glyph-name="Ocircumflex" unicode="&#xd4;" horiz-adv-x="1599" 
d="M102 696q0 155 51.5 286.5t145.5 228.5t222.5 149.5t279.5 52.5q150 0 277.5 -52t222 -149t146.5 -229t52 -287q0 -152 -50.5 -283t-144 -229t-219 -151t-270.5 -53q-154 0 -286 52t-228 148t-147.5 227.5t-51.5 288.5zM217 696q0 -176 75.5 -317t209.5 -220t299 -79
q125 0 233 46t186.5 129.5t121 195t42.5 245.5q0 174 -75 316t-209 221.5t-299 79.5t-299 -79t-209.5 -221t-75.5 -317zM498 1522l242 297h102l260 -297h-76l-235 207l-221 -207h-72z" />
    <glyph glyph-name="apple" unicode="&#xf000;" horiz-adv-x="1618" 
d="M849 61q-52 0 -142 -41q-71 -35 -145 -22q-77 13 -129 61q-75 69 -119.5 136t-103.5 192q-43 97 -69.5 236.5t-8.5 236.5q42 226 176 328q75 58 181 74.5t177 -2.5q15 -4 77 -30t106 -26q45 0 105 26t77 30q74 18 180.5 2t179.5 -74q27 -20 78 -78q-51 -38 -69.5 -54.5
t-34.5 -36.5t-33 -48q-56 -91 -53 -205q1 -52 20 -107.5t47 -93.5q32 -43 59 -66t66 -42.5l41 -20.5q-54 -115 -84 -171t-63.5 -101t-75.5 -84l-40 -37.5t-42 -27.5t-70 -17q-71 -13 -147 22q-87 41 -141 41zM1170 1655q1 -32 1 -67t-5 -60q-7 -37 -26 -76.5t-44 -62.5
q-60 -60 -139 -109q-14 -9 -115 -18q-7 62 11 104q39 100 71 141q33 41 61 64.5t50 34.5q83 40 135 49z" />
    <glyph glyph-name="Ograve" unicode="&#xd2;" horiz-adv-x="1599" 
d="M102 696q0 155 51.5 286.5t145.5 228.5t222.5 149.5t279.5 52.5q150 0 277.5 -52t222 -149t146.5 -229t52 -287q0 -152 -50.5 -283t-144 -229t-219 -151t-270.5 -53q-154 0 -286 52t-228 148t-147.5 227.5t-51.5 288.5zM217 696q0 -176 75.5 -317t209.5 -220t299 -79
q125 0 233 46t186.5 129.5t121 195t42.5 245.5q0 174 -75 316t-209 221.5t-299 79.5t-299 -79t-209.5 -221t-75.5 -317zM873 1514l-244 317h117l205 -317h-78z" />
    <glyph glyph-name="Uacute" unicode="&#xda;" horiz-adv-x="1323" 
d="M184 1298h-178v93h469v-93h-176v-892q0 -161 94.5 -243.5t261.5 -82.5q177 0 272 76.5t95 244.5v897h-176v93h469v-93h-178v-892q0 -171 -78.5 -265.5t-182.5 -127.5t-204 -33q-133 0 -242.5 39.5t-177.5 135t-68 251.5v892zM590 1514h-78l205 317h117z" />
    <glyph glyph-name="Ucircumflex" unicode="&#xdb;" horiz-adv-x="1323" 
d="M184 1298h-178v93h469v-93h-176v-892q0 -161 94.5 -243.5t261.5 -82.5q177 0 272 76.5t95 244.5v897h-176v93h469v-93h-178v-892q0 -171 -78.5 -265.5t-182.5 -127.5t-204 -33q-133 0 -242.5 39.5t-177.5 135t-68 251.5v892zM361 1522l242 297h102l260 -297h-76l-235 207
l-221 -207h-72z" />
    <glyph glyph-name="Ugrave" unicode="&#xd9;" horiz-adv-x="1323" 
d="M184 1298h-178v93h469v-93h-176v-892q0 -161 94.5 -243.5t261.5 -82.5q177 0 272 76.5t95 244.5v897h-176v93h469v-93h-178v-892q0 -171 -78.5 -265.5t-182.5 -127.5t-204 -33q-133 0 -242.5 39.5t-177.5 135t-68 251.5v892zM736 1514l-244 317h117l205 -317h-78z" />
    <glyph glyph-name="dotlessi" unicode="&#x131;" horiz-adv-x="512" 
d="M49 0v92h172v785h-172v92h279v-877h164v-92h-443z" />
    <glyph glyph-name="circumflex" unicode="&#x2c6;" horiz-adv-x="682" 
d="M39 1106l242 297h102l260 -297h-76l-235 207l-221 -207h-72z" />
    <glyph glyph-name="tilde" unicode="&#x2dc;" horiz-adv-x="682" 
d="M66 1165h-56q58 181 180 181q38 0 75.5 -14t78.5 -36q100 -49 154 -49q77 0 120 96h54q-20 -80 -71.5 -129t-117.5 -49q-55 0 -155 49q-98 50 -144 50q-82 0 -118 -99z" />
    <glyph glyph-name="macron" unicode="&#x2c9;" horiz-adv-x="682" 
d="M12 1229v59h658v-59h-658z" />
    <glyph glyph-name="breve" unicode="&#x2d8;" horiz-adv-x="682" 
d="M553 1370h84q-33 -105 -115.5 -173.5t-179.5 -68.5q-96 0 -179 68t-118 174h86q35 -71 89 -108t122 -37q137 0 211 145z" />
    <glyph glyph-name="dotaccent" unicode="&#x2d9;" horiz-adv-x="682" 
d="M342 1323q28 0 49 -21t21 -49q0 -29 -21 -49t-49 -20t-49 20t-21 49q0 28 21 49t49 21z" />
    <glyph glyph-name="ring" unicode="&#x2da;" horiz-adv-x="682" 
d="M340 1440q79 0 133.5 -54.5t54.5 -132.5t-55 -133t-133 -55q-77 0 -131.5 55.5t-54.5 132.5t54 132t132 55zM340 1378q-51 0 -88 -37t-37 -88t37 -89t88 -38q52 0 89.5 37.5t37.5 89.5t-37.5 88.5t-89.5 36.5z" />
    <glyph glyph-name="cedilla" unicode="&#xb8;" horiz-adv-x="682" 
d="M260 -164l29 150h65l-14 -74q68 -7 108.5 -50t40.5 -108q0 -101 -92.5 -147t-249.5 -41v65q99 -8 169.5 18.5t70.5 92.5q0 80 -127 94z" />
    <glyph glyph-name="hungarumlaut" unicode="&#x2dd;" horiz-adv-x="682" 
d="M434 1098h-78l205 317h117zM201 1098h-78l205 317h116z" />
    <glyph glyph-name="ogonek" unicode="&#x2db;" horiz-adv-x="682" 
d="M254 0h84q-76 -73 -76 -147q0 -51 33.5 -82t89.5 -31q66 0 135 29v-84q-67 -41 -133 -41q-94 0 -158.5 54t-64.5 134q0 44 20 81t70 87z" />
    <glyph glyph-name="caron" unicode="&#x2c7;" horiz-adv-x="682" 
d="M39 1405h72l221 -207l235 207h76l-260 -297h-102z" />
    </font>
</defs>
</svg>
