<?xml version="1.0" standalone="no"?>
<!DOCTYPE svg PUBLIC "-//W3C//DTD SVG 1.1//EN" "http://www.w3.org/Graphics/SVG/1.1/DTD/svg11.dtd" >
<svg>
<metadata>
Created by FontForge 20110222 at Wed Oct 26 18:01:02 2011
 By System Administrator
Copyright (c) The Font Bureau, Inc, 2003. All rights reserved.
</metadata>
<defs>
<font id="Amplitude-Book" horiz-adv-x="500" >
  <font-face 
    font-family="Amplitude-Book"
    font-weight="500"
    font-stretch="normal"
    units-per-em="1000"
    panose-1="2 0 6 6 4 0 0 2 0 4"
    ascent="800"
    descent="-200"
    x-height="522"
    cap-height="651"
    bbox="-49 -239 1138 888"
    underline-thickness="20"
    underline-position="-113"
    unicode-range="U+0020-00FB"
  />
<missing-glyph 
 />
    <glyph glyph-name=".notdef" 
 />
    <glyph glyph-name="NUL" horiz-adv-x="0" 
 />
    <glyph glyph-name="nonmarkingreturn" horiz-adv-x="234" 
 />
    <glyph glyph-name="space" unicode=" " horiz-adv-x="234" 
 />
    <glyph glyph-name="space" unicode="&#xa0;" horiz-adv-x="234" 
 />
    <glyph glyph-name="exclam" unicode="!" horiz-adv-x="261" 
d="M87 431v261h87v-261l-25 -244h-37zM130 -10q-25 0 -44 17.5t-19 45.5q0 29 19 46.5t44 17.5q26 0 45 -17.5t19 -46.5q0 -28 -19 -45.5t-45 -17.5z" />
    <glyph glyph-name="quotedbl" unicode="&#x22;" horiz-adv-x="371" 
d="M223 573v119h83v-119l-26 -156h-32zM65 573v119h83v-119l-25 -156h-32z" />
    <glyph glyph-name="numbersign" unicode="#" horiz-adv-x="580" 
d="M141 173h-100l10 67h100l29 186h-99l10 67h99l25 158h55l-24 -158h139l25 158h55l-24 -158h98l-10 -67h-99l-28 -186h97l-10 -67h-98l-27 -173h-55l27 173h-140l-27 -173h-55zM348 238l29 191h-144l-28 -191h143z" />
    <glyph glyph-name="dollar" unicode="$" horiz-adv-x="487" 
d="M210 304q-38 12 -67.5 25t-50 33.5t-31.5 50t-11 72.5q0 88 49.5 133t143.5 45h23l18 114l53 -9l-17 -110q29 -5 52.5 -12.5t43.5 -15.5l-12 -62q-25 8 -46.5 14.5t-47.5 10.5l-18 -116q-3 -22 -6.5 -42.5t-6 -37t-4.5 -26.5l-2 -10q38 -12 69 -25.5t52.5 -34.5t33 -51.5
t11.5 -75.5q0 -93 -51 -140.5t-148 -47.5h-13t-12 1l-22 -140l-53 10l21 135q-37 5 -65 15.5t-53 24.5l19 56q29 -12 54.5 -22t53.5 -15l40 253v0zM242 597q-63 0 -91 -23.5t-28 -82.5q0 -24 4 -41.5t15 -30t30 -22.5t49 -20l35 220h-14zM224 46q70 0 105 25.5t35 96.5
q0 24 -4.5 42.5t-15.5 32.5t-31 25t-51 21l-38 -243v0z" />
    <glyph glyph-name="percent" unicode="%" horiz-adv-x="820" 
d="M191 250q-39 0 -67.5 17t-47 45.5t-27.5 66t-9 79.5q0 40 9.5 77t28 65.5t47.5 45.5t68 17t68 -17t47.5 -45t27.5 -64.5t9 -76.5q0 -42 -9.5 -80t-28.5 -67t-48 -46t-68 -17zM561 651h61l-364 -651h-61zM626 -14q-39 0 -67.5 17t-47.5 45.5t-28 66t-9 79.5q0 40 9.5 77
t28.5 65.5t48 45.5t68 17t68 -17t47.5 -45t27.5 -64.5t9 -76.5q0 -42 -9.5 -80t-28.5 -67t-48 -46t-68 -17zM192 301q17 0 32 6.5t25.5 21.5t16.5 40.5t6 64.5v44q0 38 -6 63t-16.5 40t-25.5 21.5t-32 6.5t-32 -6.5t-25.5 -21.5t-16.5 -40.5t-6 -63.5v-44q0 -39 6 -64.5
t16.5 -40.5t25.5 -21t32 -6zM627 37q17 0 32 6.5t25.5 21.5t16.5 40.5t6 64.5v44q0 38 -6 63t-16.5 40t-25.5 21.5t-32 6.5t-32 -6.5t-25.5 -21.5t-16.5 -40.5t-6 -63.5v-44q0 -39 6 -64.5t16.5 -40.5t25.5 -21t32 -6z" />
    <glyph glyph-name="ampersand" unicode="&#x26;" horiz-adv-x="598" 
d="M423 179q31 70 46 192h69l-11 -70q-8 -48 -23 -96.5t-36 -84.5l92 -120h-95l-61 80l-25 -51q-14 -12 -46 -27.5t-89 -15.5q-45 0 -82.5 13t-64.5 37t-42 59t-15 80q0 44 12.5 76.5t33 56t45.5 39.5t49 28l-2 3q-39 51 -52.5 91t-13.5 83q0 35 12.5 62.5t34 47t50.5 30
t62 10.5q29 0 56 -9t48 -27t33.5 -45.5t12.5 -63.5q0 -26 -4 -45.5t-10.5 -35t-15 -28t-18.5 -24.5l-102 -46zM254 400q21 11 39 24t30.5 30t20 39t7.5 52q0 26 -5.5 43.5t-16 28t-25 15t-31.5 4.5q-35 0 -58.5 -19t-23.5 -64q0 -19 2 -34.5t7 -30.5t14 -31t24 -35l16 -22v0
zM208 338q-43 -27 -63 -60t-20 -89v-11q0 -70 32 -100.5t95 -30.5q39 0 71.5 15t58.5 47z" />
    <glyph glyph-name="quoteright" unicode="'" horiz-adv-x="239" 
d="M65 469l42 120l-32 6q-7 7 -12.5 17t-5.5 27q0 28 18 45.5t44 17.5t44.5 -17.5t18.5 -45.5q0 -24 -9.5 -45.5t-23.5 -42.5l-60 -93z" />
    <glyph glyph-name="parenleft" unicode="(" horiz-adv-x="302" 
d="M218 -100q-20 20 -48 56.5t-53.5 88.5t-43.5 120t-18 151q0 80 17.5 145.5t42.5 116t52.5 86t48.5 54.5h62q-33 -43 -58.5 -86t-43.5 -90t-27.5 -99.5t-9.5 -114.5v-24q0 -63 9 -115.5t27 -100.5t44.5 -93.5t60.5 -94.5h-62v0z" />
    <glyph glyph-name="parenright" unicode=")" horiz-adv-x="301" 
d="M22 -100q34 49 60.5 94.5t44.5 93.5t27 100.5t9 115.5v24q0 62 -9.5 114.5t-27.5 99.5t-43.5 90t-58.5 86h61q21 -19 49 -54.5t52.5 -86t42 -116t17.5 -145.5q0 -83 -17.5 -151t-43 -120t-53.5 -88.5t-49 -56.5h-61v0z" />
    <glyph glyph-name="asterisk" unicode="*" horiz-adv-x="422" 
d="M86 409l35 48l72 62l-95 9l-56 17l20 63l56 -18l83 -50l-23 94v58h66v-58l-22 -94l82 50l56 18l20 -63l-56 -17l-95 -9l72 -62l35 -48l-53 -39l-35 48l-37 87l-37 -87l-35 -48z" />
    <glyph glyph-name="plus" unicode="+" horiz-adv-x="494" 
d="M211 269h-154v67h154v171h72v-171h154v-67h-154v-171h-72v171z" />
    <glyph glyph-name="comma" unicode="," horiz-adv-x="246" 
d="M66 -115l45 120l-36 7q-7 7 -12.5 17.5t-5.5 27.5q0 30 19.5 48.5t46.5 18.5q28 0 47.5 -18.5t19.5 -48.5q0 -26 -12.5 -50.5t-26.5 -46.5l-57 -88z" />
    <glyph glyph-name="hyphen" unicode="-" horiz-adv-x="315" 
d="M57 335h201v-75h-201v75z" />
    <glyph glyph-name="period" unicode="." horiz-adv-x="246" 
d="M123 -10q-27 0 -47 18.5t-20 48.5t20 48.5t47 18.5q28 0 47.5 -18.5t19.5 -48.5t-19.5 -48.5t-47.5 -18.5z" />
    <glyph glyph-name="slash" unicode="/" horiz-adv-x="397" 
d="M314 718h67l-300 -818h-67z" />
    <glyph glyph-name="zero" unicode="0" horiz-adv-x="564" 
d="M280 -14q-59 0 -102 24.5t-71 69t-41.5 107.5t-13.5 140q0 74 14 135.5t42.5 106t72 69.5t101.5 25q59 0 102 -24.5t71.5 -68.5t42.5 -105.5t14 -135.5q0 -81 -13.5 -144.5t-42 -107.5t-72.5 -67.5t-104 -23.5zM282 48q38 0 65 14.5t45 47t26.5 84t8.5 126.5v28
q0 133 -34.5 191t-111.5 58q-76 0 -110 -60t-34 -193v-27q0 -75 8.5 -126t26.5 -83t45.5 -46t64.5 -14z" />
    <glyph glyph-name="one" unicode="1" horiz-adv-x="381" 
d="M61 58h95v490h-95v36l132 67h44v-593h92v-58h-268v58z" />
    <glyph glyph-name="two" unicode="2" horiz-adv-x="471" 
d="M42 67l6 22q9 35 26.5 64.5t40 55t48.5 48.5t51 45q28 25 50 45t37 39t22.5 39t7.5 45v12q0 33 -6.5 55t-20.5 35t-34.5 18.5t-49.5 5.5q-45 0 -78.5 -11t-68.5 -27l-16 58q29 17 70 32t105 15q50 0 85.5 -14t58 -38t32.5 -56.5t10 -69.5q0 -40 -13 -72t-35 -59.5
t-52 -52.5t-63 -51q-27 -21 -49.5 -40t-40.5 -39.5t-31 -45t-19 -55.5l-3 -15l108 11h192v-66h-370v67z" />
    <glyph glyph-name="three" unicode="3" horiz-adv-x="484" 
d="M222 -14q-67 0 -112 14t-74 31l16 57l37.5 -15t35.5 -12t38 -7.5t44 -2.5q73 0 108 29t35 95v12q0 71 -37 98.5t-117 27.5h-54v60h41q42 0 71 6t46.5 19.5t25 34.5t7.5 51v7q0 61 -30 83.5t-99 22.5q-22 0 -39 -2t-33 -5.5t-32 -9t-36 -11.5l-11 59q26 12 65.5 23.5
t96.5 11.5q54 0 92.5 -13t62.5 -35.5t35.5 -53.5t11.5 -67q0 -33 -8.5 -57t-25.5 -41t-41 -29t-56 -20q71 -14 110.5 -56t39.5 -118q0 -42 -14.5 -76.5t-42.5 -59t-67.5 -38t-89.5 -13.5z" />
    <glyph glyph-name="four" unicode="4" horiz-adv-x="554" 
d="M338 163h-300v42l274 446h107v-424h85v-64h-85v-163h-81v163zM338 227v246l8 143l-58 -122l-163 -267h213z" />
    <glyph glyph-name="five" unicode="5" horiz-adv-x="476" 
d="M217 -14q-68 0 -111 15.5t-71 32.5l16 59q21 -9 38.5 -17t34.5 -13t36 -8t42 -3q68 0 104 32t36 112v11q0 43 -7.5 71t-21.5 44t-33.5 22t-44.5 6q-45 0 -66.5 -14t-37.5 -33l-66 10l14 338h317v-67h-251l-7 -146l-16 -88q21 23 51 40t79 17q36 0 68 -11.5t56 -36.5
t38.5 -64t14.5 -93q0 -48 -15.5 -87.5t-43.5 -68t-67 -44.5t-86 -16z" />
    <glyph glyph-name="six" unicode="6" horiz-adv-x="536" 
d="M217 399q14 6 32 10.5t43 4.5q43 0 79 -13.5t62.5 -39.5t41 -65t14.5 -89q0 -103 -57 -162t-159 -59q-49 0 -90 17.5t-70 51.5t-45 84t-16 115q0 72 23.5 132.5t60.5 110t81.5 88t87.5 66.5h116q-49 -29 -95 -63.5t-83.5 -73.5t-63.5 -81.5t-37 -88.5zM136 307
q-1 -5 -1 -10v-10v-39q0 -106 34 -154t106 -48q65 0 97 33t32 113v23q0 79 -33.5 108.5t-99.5 29.5q-43 0 -73.5 -14t-61.5 -32z" />
    <glyph glyph-name="seven" unicode="7" horiz-adv-x="467" 
d="M321 522l48 69l-84 -7h-254v67h394v-82l-242 -569h-85z" />
    <glyph glyph-name="eight" unicode="8" horiz-adv-x="531" 
d="M195 334q-52 26 -85 65.5t-33 100.5q0 35 13 65t37.5 52t59.5 34t78 12q47 0 82 -12.5t58.5 -33.5t35.5 -49t12 -60q0 -36 -8.5 -61.5t-28.5 -50.5l-88 -44q32 -13 60 -28.5t50 -36.5t34.5 -49t12.5 -67q0 -42 -15.5 -76t-44 -58t-69.5 -37.5t-91 -13.5q-107 0 -163 48
t-56 129q0 46 17 77.5t41 52.5l91 41v0zM292 369q28 15 45 29t26 29t12 32.5t3 39.5v6q0 44 -25 69.5t-87 25.5q-61 0 -84.5 -27t-23.5 -67v-6q0 -24 7.5 -42t24 -33t42 -28.5t60.5 -27.5zM229 314q-57 -29 -80 -60.5t-23 -79.5v-12q0 -117 138 -117q69 0 102.5 31t33.5 87
v15q0 25 -9 42t-29.5 32t-53 29t-79.5 33z" />
    <glyph glyph-name="nine" unicode="9" horiz-adv-x="536" 
d="M319 249q-14 -6 -32 -10.5t-43 -4.5q-43 0 -79 13.5t-62.5 40t-41 65.5t-14.5 89q0 101 57 161t159 60q49 0 89.5 -16.5t70 -50t45.5 -83.5t16 -118q0 -72 -23.5 -132.5t-60 -109t-81.5 -86.5t-88 -67h-116q50 29 95 63t82 72t63.5 79.5t38.5 86.5zM400 336q1 6 1 12v14
v39q0 108 -34 152.5t-106 44.5q-65 0 -97 -31.5t-32 -110.5v-23q0 -79 33.5 -110.5t99.5 -31.5q43 0 73.5 13t61.5 32z" />
    <glyph glyph-name="colon" unicode=":" horiz-adv-x="253" 
d="M126 291q-26 0 -46 18.5t-20 48.5t20 48.5t46 18.5q28 0 47.5 -18.5t19.5 -48.5t-19.5 -48.5t-47.5 -18.5zM126 -10q-26 0 -46 18.5t-20 48.5t20 48.5t46 18.5q28 0 47.5 -18.5t19.5 -48.5t-19.5 -48.5t-47.5 -18.5z" />
    <glyph glyph-name="semicolon" unicode=";" horiz-adv-x="252" 
d="M126 291q-26 0 -46 18.5t-20 48.5t20 48.5t46 18.5q28 0 47.5 -18.5t19.5 -48.5t-19.5 -48.5t-47.5 -18.5zM70 -115l45 120l-37 7q-7 7 -12.5 17.5t-5.5 27.5q0 30 20 48.5t46 18.5q28 0 47.5 -18.5t19.5 -48.5q0 -26 -12.5 -50.5t-26.5 -46.5l-56 -88z" />
    <glyph glyph-name="less" unicode="&#x3c;" horiz-adv-x="431" 
d="M45 245v79l334 159v-79l-208 -93l-91 -28l91 -28l208 -95v-74z" />
    <glyph glyph-name="equal" unicode="=" horiz-adv-x="467" 
d="M57 419h353v-66h-353v66zM57 251h353v-65h-353v65z" />
    <glyph glyph-name="greater" unicode="&#x3e;" horiz-adv-x="431" 
d="M52 165l207 93l92 28l-92 27l-207 95v75l334 -159v-79l-334 -159v79z" />
    <glyph glyph-name="question" unicode="?" horiz-adv-x="431" 
d="M130 308q-4 28 3.5 41.5t36.5 24.5q39 12 63.5 22.5t37.5 25.5t17.5 37t4.5 56v10q0 31 -5 52t-18 33.5t-35 18t-55 5.5q-38 0 -69.5 -7.5t-70.5 -21.5l-12 59q24 12 67.5 25t97.5 13q91 0 139 -44.5t48 -134.5q0 -45 -11 -77.5t-33.5 -55t-56 -37t-78.5 -24.5v-142h-56z
M176 -10q-25 0 -44 17.5t-19 45.5q0 29 19 46.5t44 17.5q26 0 45 -17.5t19 -46.5q0 -28 -19 -45.5t-45 -17.5z" />
    <glyph glyph-name="at" unicode="@" horiz-adv-x="773" 
d="M399 -142q-181 0 -266.5 98t-85.5 297q0 196 87 296t271 100q91 0 152.5 -25t99 -69.5t53.5 -107t16 -137.5q0 -152 -47.5 -226.5t-153.5 -74.5q-20 0 -32.5 2t-21.5 4l-23 57l-46 -50q-43 -16 -88 -16q-51 0 -86.5 29.5t-35.5 91.5q0 41 11.5 71t35.5 50.5t62.5 32.5
t92.5 17l87 7l9 56q4 23 4 41t-7 30t-22.5 18.5t-42.5 6.5q-33 0 -70 -6.5t-75 -16.5v56q42 15 77 22.5t76 7.5q86 0 114 -47.5t13 -138.5l-41 -240q-4 -21 2 -29t24 -8h9q60 0 90.5 60.5t30.5 179.5v23q0 64 -12 116t-42.5 89t-82.5 57.5t-132 20.5q-81 0 -138 -20
t-93.5 -61t-53 -105t-16.5 -151v-24q0 -85 15.5 -148.5t50.5 -106t91 -63t138 -20.5q63 0 117 13.5t110 33.5l14 -44q-41 -18 -102.5 -33.5t-136.5 -15.5zM335 60q41 0 67 14.5t45 31.5q7 44 13 79q5 30 9.5 54.5t3.5 24.5l-81 -9q-33 -3 -55.5 -9t-36.5 -17.5t-22 -29
t-12 -44.5v-7q-14 -88 69 -88z" />
    <glyph glyph-name="A" unicode="A" horiz-adv-x="567" 
d="M107 0h-74l210 651h86l206 -651h-87l-41 138h-257zM308 465l-25 133l-30 -133l-84 -267h220z" />
    <glyph glyph-name="B" unicode="B" horiz-adv-x="552" 
d="M86 651h197q44 0 81.5 -10t64.5 -31t42 -53.5t15 -77.5q0 -36 -11 -60.5t-28 -41t-37 -26t-39 -15.5q21 -4 44.5 -15t43 -30t32 -46t12.5 -64q0 -49 -16.5 -83t-45 -56t-66.5 -32t-82 -10h-207v651zM285 363q65 0 91.5 23.5t26.5 83.5v9q0 58 -29 82t-100 24h-105v-222
h116zM285 66q65 0 97 25.5t32 87.5v12q0 63 -29 88t-97 25h-119v-238h116z" />
    <glyph glyph-name="C" unicode="C" horiz-adv-x="503" 
d="M301 -14q-69 0 -117 26t-78 72t-43 108t-13 135q0 72 14 133.5t45 106.5t79 70.5t115 25.5q51 0 87 -9.5t70 -23.5l-11 -66q-23 6 -42 11.5t-36.5 9t-35 5.5t-38.5 2q-33 0 -62 -11.5t-50 -39.5t-33.5 -76t-12.5 -121v-27q0 -74 11 -124.5t31.5 -81.5t50 -44.5
t66.5 -13.5q24 0 43 2.5t37 7.5t35.5 11.5t38.5 14.5l20 -64q-37 -17 -77 -28t-94 -11z" />
    <glyph glyph-name="D" unicode="D" horiz-adv-x="592" 
d="M86 651h182q139 0 206.5 -83.5t67.5 -240.5q0 -166 -68.5 -246.5t-214.5 -80.5h-173v651zM253 64q50 0 87.5 10t63 38t38 77t12.5 128v25q0 72 -12.5 118.5t-37.5 74t-63 38t-90 10.5h-82v-519h84z" />
    <glyph glyph-name="E" unicode="E" horiz-adv-x="499" 
d="M86 651h350v-68h-267v-216h231v-64h-231v-236h285v-67h-368v651z" />
    <glyph glyph-name="F" unicode="F" horiz-adv-x="488" 
d="M86 651h350v-68h-267v-234h235v-64h-235v-285h-83v651z" />
    <glyph glyph-name="G" unicode="G" horiz-adv-x="560" 
d="M387 -6q-18 -4 -40.5 -6t-42.5 -2q-70 0 -118.5 25.5t-78.5 71.5t-43.5 108.5t-13.5 135.5q0 72 15 133.5t46.5 106.5t80.5 70.5t117 25.5q54 0 94 -9.5t75 -23.5l-11 -67q-47 14 -83 22t-80 8q-35 0 -65.5 -11.5t-53 -40t-35 -76.5t-12.5 -121v-27q0 -74 11 -125
t32 -82.5t51 -45t69 -13.5t67.5 6.5t48.5 14.5v202h-102v62h182v-344h-30l-24 54z" />
    <glyph glyph-name="H" unicode="H" horiz-adv-x="602" 
d="M169 301v-301h-83v651h83v-285h264v285h83v-651h-83v301h-264z" />
    <glyph glyph-name="I" unicode="I" horiz-adv-x="266" 
d="M91 651h84v-651h-84v651z" />
    <glyph glyph-name="J" unicode="J" horiz-adv-x="351" 
d="M136 -14q-35 0 -61 8.5t-42 17.5l9 61q21 -8 38 -13.5t39 -5.5q16 0 28.5 5t21 18t13 34.5t4.5 55.5v484h84v-462q0 -104 -33 -153.5t-101 -49.5z" />
    <glyph glyph-name="K" unicode="K" horiz-adv-x="547" 
d="M421 651h90l-244 -299l74 -57l177 -295h-94l-191 323l-63 -81v-242h-84v651h84v-227l-14 -110z" />
    <glyph glyph-name="L" unicode="L" horiz-adv-x="473" 
d="M86 651h83v-585h269v-66h-352v651z" />
    <glyph glyph-name="M" unicode="M" horiz-adv-x="723" 
d="M85 651h114l130 -458l28 -162l27 162l136 458h117v-651h-82v366l15 255l-44 -188l-130 -433h-89l-124 427l-39 194l14 -255v-366h-73v651z" />
    <glyph glyph-name="N" unicode="N" horiz-adv-x="601" 
d="M85 651h94l214 -414l67 -181l-20 208v387h76v-651h-90l-224 431l-60 169l19 -192v-408h-76v651z" />
    <glyph glyph-name="O" unicode="O" horiz-adv-x="603" 
d="M300 -14q-65 0 -112 24.5t-78 69.5t-45.5 108t-14.5 139q0 74 15.5 135.5t46.5 106t78.5 69.5t111.5 25t111 -24.5t78 -68.5t46.5 -105.5t15.5 -135.5q0 -80 -15 -143.5t-46 -108t-79 -68t-113 -23.5zM302 49q40 0 70.5 14.5t51 46.5t31 83.5t10.5 126.5v28
q0 133 -41 190t-123 57t-122.5 -59t-40.5 -192v-27q0 -75 10.5 -126t31.5 -82.5t51.5 -45.5t70.5 -14z" />
    <glyph glyph-name="P" unicode="P" horiz-adv-x="535" 
d="M86 651h200q54 0 94 -15t66 -42t38.5 -64t12.5 -81q0 -43 -12.5 -80.5t-38 -65.5t-65.5 -44t-95 -16h-117v-243h-83v651zM279 303q71 0 100 32.5t29 107.5v12q0 73 -30 101.5t-101 28.5h-108v-282h110z" />
    <glyph glyph-name="Q" unicode="Q" horiz-adv-x="603" 
d="M486 -116l-95 -20l-89 122h-2q-65 0 -112 24.5t-78 69.5t-45.5 108t-14.5 139q0 74 15.5 135.5t46.5 106t78.5 69.5t111.5 25t111 -25t78 -69t46.5 -105.5t15.5 -134.5q0 -110 -27.5 -185.5t-87.5 -117.5l-76 -9zM302 47q40 0 70.5 14.5t51 47t31 84.5t10.5 127v28
q0 133 -41 190t-123 57t-122.5 -59t-40.5 -192v-27q0 -75 10.5 -126.5t31.5 -83.5t51.5 -46t70.5 -14z" />
    <glyph glyph-name="R" unicode="R" horiz-adv-x="556" 
d="M389 228l123 -228h-92l-139 266h-112v-266h-83v651h200q109 0 160.5 -52.5t51.5 -140.5q0 -31 -8 -62t-27 -56.5t-51 -43t-80 -22.5zM279 323q71 0 100.5 29.5t29.5 100.5v12q0 35 -7 58t-23 37t-41 19.5t-61 5.5h-108v-262h110z" />
    <glyph glyph-name="S" unicode="S" horiz-adv-x="492" 
d="M242 -14q-36 0 -64.5 4t-51.5 10t-41.5 14.5t-34.5 17.5l16 60q42 -19 78.5 -30.5t83.5 -11.5q67 0 99.5 24.5t32.5 92.5q0 26 -5.5 44.5t-19 32t-37.5 24.5t-62 22q-44 13 -78 27.5t-57 36t-34.5 53t-11.5 78.5q0 88 51 133t144 45q59 0 96.5 -9.5t69.5 -23.5l-13 -63
q-20 6 -36.5 11t-34 8.5t-37.5 5.5t-46 2q-60 0 -87.5 -22.5t-27.5 -79.5q0 -27 5 -44.5t18.5 -31t38 -23.5t63.5 -22q42 -12 76 -27t58 -37t37 -54t13 -79q0 -93 -52.5 -140.5t-148.5 -47.5z" />
    <glyph glyph-name="T" unicode="T" horiz-adv-x="480" 
d="M28 583v68h424v-68h-170v-583h-84v583h-170z" />
    <glyph glyph-name="U" unicode="U" horiz-adv-x="592" 
d="M422 651h84v-651h-48l-27 63l-39 -52q-17 -8 -48.5 -16.5t-72.5 -8.5q-99 0 -144.5 60t-45.5 197v408h84v-434q0 -51 6.5 -83.5t20.5 -51t37 -25.5t56 -7q49 0 80 12.5t57 28.5v560z" />
    <glyph glyph-name="V" unicode="V" horiz-adv-x="567" 
d="M33 651h87l139 -457l29 -149l28 149l140 457h78l-207 -651h-84z" />
    <glyph glyph-name="W" unicode="W" horiz-adv-x="747" 
d="M31 651h86l80 -391l26 -221l28 205l82 407h90l85 -407l27 -205l28 221l84 391h74l-149 -651h-88l-85 403l-23 205l-26 -205l-85 -403h-87z" />
    <glyph glyph-name="X" unicode="X" horiz-adv-x="524" 
d="M213 335l-174 316h92l99 -185l41 -102l36 102l96 185h77l-173 -315l186 -336h-92l-109 202l-43 101l-35 -101l-105 -202h-78z" />
    <glyph glyph-name="Y" unicode="Y" horiz-adv-x="520" 
d="M224 231l-198 420h90l121 -277l31 -120l30 120l118 277h78l-187 -416v-235h-83v231z" />
    <glyph glyph-name="Z" unicode="Z" horiz-adv-x="495" 
d="M48 81l287 456l48 56l-88 -8h-235v66h383v-85l-283 -449l-58 -65l98 13h245v-65h-397v81z" />
    <glyph glyph-name="bracketleft" unicode="[" horiz-adv-x="273" 
d="M68 718h165v-58h-90v-704h90v-58h-165v820z" />
    <glyph glyph-name="backslash" unicode="\" horiz-adv-x="397" 
d="M16 718h67l300 -818h-67z" />
    <glyph glyph-name="bracketright" unicode="]" horiz-adv-x="273" 
d="M40 -44h90v704h-90v58h165v-820h-165v58z" />
    <glyph glyph-name="asciicircum" unicode="^" horiz-adv-x="507" 
d="M207 691h79l139 -275h-79l-77 167l-24 79l-23 -79l-80 -167h-71z" />
    <glyph glyph-name="underscore" unicode="_" horiz-adv-x="272" 
d="M4 -107h264v-55h-264v55z" />
    <glyph glyph-name="quoteleft" unicode="`" horiz-adv-x="239" 
d="M119 471q-26 0 -44 17.5t-18 45.5q0 24 9.5 45.5t23.5 42.5l59 93l25 -11l-43 -120l32 -6q7 -7 13 -17t6 -27q0 -28 -18.5 -45.5t-44.5 -17.5z" />
    <glyph glyph-name="a" unicode="a" horiz-adv-x="483" 
d="M322 363q0 22 -4 41t-13.5 32.5t-27 21.5t-44.5 8q-38 0 -74.5 -9.5t-77.5 -23.5l-12 60q36 16 76 27.5t91 11.5q87 0 124.5 -46.5t37.5 -149.5v-255q0 -22 8 -29.5t26 -7.5h20l2 -41q-7 -5 -20 -9.5t-31 -4.5q-21 0 -42 8l-35 56l-46 -51q-15 -7 -36.5 -11.5t-47.5 -4.5
q-31 0 -58.5 8t-48 25.5t-32.5 46t-12 70.5q0 39 11 67.5t33.5 47.5t58 30t83.5 16l91 8v58zM322 257l-86 -9q-62 -7 -89 -29.5t-27 -76.5v-7q0 -49 23.5 -70t71.5 -21q42 0 66.5 15t40.5 34v164z" />
    <glyph glyph-name="b" unicode="b" horiz-adv-x="513" 
d="M115 -3h-37v721h77v-244q22 22 54 40t78 18q85 0 132 -65t47 -204q0 -145 -49 -211t-140 -66q-26 0 -47 5t-32 10l-59 55zM155 81q24 -17 50.5 -28t58.5 -11q31 0 54 10.5t38.5 34.5t23 63.5t7.5 97.5v26q0 58 -8 95.5t-23 59.5t-36 31t-47 9q-44 0 -72.5 -17.5
t-45.5 -34.5v-336z" />
    <glyph glyph-name="c" unicode="c" horiz-adv-x="422" 
d="M246 -14q-97 0 -148.5 68t-51.5 208q0 138 50.5 204t149.5 66q42 0 77 -9t62 -21l-13 -60q-35 11 -63.5 18t-57.5 7q-30 0 -53.5 -8t-39 -30t-23.5 -60t-8 -97v-15q0 -61 8.5 -101.5t24 -64.5t38.5 -33.5t53 -9.5q36 0 63 9.5t61 25.5l15 -57q-25 -15 -62 -27.5
t-82 -12.5z" />
    <glyph glyph-name="d" unicode="d" horiz-adv-x="510" 
d="M355 718h77v-718h-44l-29 62l-57 -58q-11 -5 -29 -10t-43 -5q-91 0 -137 69t-46 206q0 70 13.5 120.5t38 83.5t58.5 48.5t74 15.5q43 0 73 -15t51 -32v233zM355 426q-17 13 -45 28t-66 15q-28 0 -50 -8.5t-37 -30t-23 -59t-8 -95.5v-28q0 -57 8 -95.5t23 -62.5
t37.5 -34.5t50.5 -10.5q33 0 57 13.5t53 36.5v331z" />
    <glyph glyph-name="e" unicode="e" horiz-adv-x="480" 
d="M127 237q1 -53 9.5 -89t25 -58.5t42 -32t59.5 -9.5q35 0 67 9.5t67 25.5l14 -58q-23 -13 -64.5 -26t-89.5 -13q-104 0 -157.5 68t-53.5 206q0 71 14.5 122.5t41.5 84.5t64.5 49t82.5 16q47 0 81.5 -17t57 -48.5t33.5 -76t11 -99.5v-54h-305v0zM356 295v15q0 89 -27 126
t-80 37q-26 0 -48 -7.5t-37.5 -27.5t-25 -54.5t-11.5 -88.5h229z" />
    <glyph glyph-name="f" unicode="f" horiz-adv-x="303" 
d="M27 462v60h65v72q0 69 30 100.5t82 31.5q32 0 55.5 -7t40.5 -15l-4 -43h-80q-26 0 -37 -11t-11 -36v-92h117v-60h-117v-462h-76v462h-65z" />
    <glyph glyph-name="g" unicode="g" horiz-adv-x="490" 
d="M474 539v-79h-118l61 -42q4 -11 6 -22.5t2 -28.5q0 -48 -15.5 -80t-41 -52t-59 -28.5t-69.5 -8.5q-23 0 -46 4t-43 12q-11 -8 -19.5 -21t-8.5 -30q0 -53 69 -53h114q76 0 115.5 -32t39.5 -94q0 -41 -17 -71.5t-47.5 -51t-72.5 -30.5t-91 -10q-97 0 -146 35.5t-49 94.5
q0 30 9.5 47.5t17.5 26.5l60 30q-26 8 -45.5 27.5t-19.5 60.5q0 25 7.5 40.5t13.5 23.5l53 27l-59 36q-10 19 -16 42.5t-6 51.5q0 47 17 79t44 52t60 28.5t66 8.5q32 0 62.5 -8t56.5 -26zM240 252q57 0 82.5 25.5t25.5 81.5v10q0 49 -25.5 76.5t-82.5 27.5t-83 -27.5
t-26 -75.5v-10q0 -57 26 -82.5t83 -25.5zM154 46q-23 -17 -35.5 -37t-12.5 -49q0 -42 31.5 -60.5t96.5 -18.5q78 0 116 28.5t38 66.5v6q0 26 -16.5 45t-63.5 19h-154v0z" />
    <glyph glyph-name="h" unicode="h" horiz-adv-x="513" 
d="M155 0h-77v718h77v-260l46 51q17 8 40.5 15.5t56.5 7.5q65 0 103 -38t38 -126v-368h-77v380q0 50 -22.5 69.5t-60.5 19.5q-39 0 -66.5 -12.5t-57.5 -32.5v-424z" />
    <glyph glyph-name="i" unicode="i" horiz-adv-x="240" 
d="M120 620q-21 0 -37 15t-16 38t16 38t37 15q22 0 37.5 -15t15.5 -38t-15.5 -38t-37.5 -15zM81 522h77v-522h-77v522z" />
    <glyph glyph-name="j" unicode="j" horiz-adv-x="234" 
d="M117 620q-22 0 -37.5 15t-15.5 38t15.5 38t37.5 15t37.5 -15t15.5 -38t-15.5 -38t-37.5 -15zM56 -170q-29 0 -50 7t-33 15l6 41h55q25 0 35 12t10 35v582h76v-559q0 -69 -27 -101t-72 -32z" />
    <glyph glyph-name="k" unicode="k" horiz-adv-x="462" 
d="M155 0h-77v718h77v-340l-15 -139l211 283h83l-176 -227l65 -71l122 -224h-86l-143 263l-61 -87v-176z" />
    <glyph glyph-name="l" unicode="l" horiz-adv-x="246" 
d="M84 718h78v-718h-78v718z" />
    <glyph glyph-name="m" unicode="m" horiz-adv-x="774" 
d="M469 509q15 8 39 15.5t55 7.5q64 0 100.5 -38t36.5 -126v-368h-77v380q0 51 -20.5 70t-58.5 19q-37 0 -62.5 -12.5t-53.5 -32.5v-424h-77v380q0 51 -22 70t-57 19q-36 0 -62.5 -11.5t-54.5 -31.5v-426h-77v522h44l30 -64l45 51q16 8 39.5 15.5t55.5 7.5q29 0 50.5 -6
t40.5 -17l36 -55z" />
    <glyph glyph-name="n" unicode="n" horiz-adv-x="513" 
d="M201 509q17 8 40.5 15.5t56.5 7.5q65 0 103 -38t38 -126v-368h-77v380q0 50 -22.5 69.5t-60.5 19.5q-39 0 -66.5 -12.5t-57.5 -32.5v-424h-77v522h44l31 -66z" />
    <glyph glyph-name="o" unicode="o" horiz-adv-x="502" 
d="M252 -14q-94 0 -150 70t-56 203q0 67 15 118t42 85.5t65 52t84 17.5t83.5 -17.5t64.5 -51.5t41.5 -84.5t14.5 -116.5q0 -135 -55 -205.5t-149 -70.5zM252 46q28 0 51 11t39 35t25 63t9 96v14q0 60 -8.5 99.5t-24 63t-38.5 33t-53 9.5t-53 -9.5t-39 -32.5t-24.5 -61.5
t-8.5 -96.5v-15q0 -58 9 -98t25 -64.5t39.5 -35.5t51.5 -11z" />
    <glyph glyph-name="p" unicode="p" horiz-adv-x="513" 
d="M200 512q18 8 39 14t50 6q87 0 132 -68t45 -204q0 -132 -47 -195t-133 -63q-45 0 -77 15.5t-54 33.5v-213h-77v684h44l30 -63zM155 100q17 -13 45.5 -28t69.5 -15q57 0 86.5 43.5t29.5 149.5v25q0 55 -7 92t-21.5 59.5t-35.5 32.5t-49 10q-34 0 -61.5 -11t-56.5 -32v-326
v0z" />
    <glyph glyph-name="q" unicode="q" horiz-adv-x="513" 
d="M358 53q-22 -19 -54 -35t-77 -16q-84 0 -132 64t-48 196q0 135 47.5 202.5t132.5 67.5q29 0 53 -5.5t41 -13.5l51 -53l26 62h37v-684h-77v215v0zM358 428q-28 20 -56.5 30.5t-61.5 10.5q-26 0 -47 -9.5t-36 -32t-23 -59.5t-8 -93v-25q0 -106 30.5 -149.5t87.5 -43.5
q40 0 68.5 15.5t45.5 29.5v326v0z" />
    <glyph glyph-name="r" unicode="r" horiz-adv-x="367" 
d="M205 514q18 8 36 13t38 5q24 0 41 -4.5t26 -9.5l-15 -71q-15 6 -31 9.5t-41 3.5q-32 0 -56 -12t-48 -30v-418h-77v522h44l31 -68z" />
    <glyph glyph-name="s" unicode="s" horiz-adv-x="402" 
d="M191 -14q-52 0 -88.5 10.5t-59.5 22.5l11 58q26 -11 59.5 -21t72.5 -10q48 0 75 19.5t27 69.5q0 23 -5 38t-18 25.5t-36 19t-60 18.5q-28 8 -51.5 18.5t-40 27.5t-26 41.5t-9.5 59.5q0 75 44.5 112t119.5 37q46 0 80.5 -9t57.5 -21l-12 -57l-28.5 9.5t-27.5 7.5t-30.5 5
t-36.5 2q-47 0 -71 -16.5t-24 -65.5q0 -22 6 -36t18.5 -23.5t33.5 -16.5t51 -15q35 -10 61 -22t43 -30t26 -44t9 -62q0 -66 -42.5 -109t-128.5 -43z" />
    <glyph glyph-name="t" unicode="t" horiz-adv-x="321" 
d="M188 -11q-54 0 -77 29.5t-23 92.5v351h-63v60h68l36 141h36v-141h115v-60h-115v-366q0 -26 9.5 -36t35.5 -10h78l4 -41q-21 -8 -46.5 -14t-57.5 -6z" />
    <glyph glyph-name="u" unicode="u" horiz-adv-x="510" 
d="M355 522h77v-522h-44l-31 62l-44 -52q-17 -8 -42 -14.5t-58 -6.5q-62 0 -100.5 38.5t-38.5 126.5v368h77v-380q0 -53 22.5 -73t58.5 -20q41 0 68.5 11.5t54.5 32.5v429z" />
    <glyph glyph-name="v" unicode="v" horiz-adv-x="450" 
d="M22 522h80l99 -342l26 -154l26 154l101 342h75l-163 -522h-82z" />
    <glyph glyph-name="w" unicode="w" horiz-adv-x="657" 
d="M22 522h78l79 -341l15 -141l28 175l73 307h81l71 -307l24 -175l16 141l78 341h70l-129 -522h-79l-72 307l-23 167l-24 -167l-77 -307h-79z" />
    <glyph glyph-name="x" unicode="x" horiz-adv-x="447" 
d="M180 268l-146 254h83l75 -134l39 -98l33 98l70 134h75l-143 -255l152 -267h-82l-81 144l-40 99l-36 -99l-75 -144h-76z" />
    <glyph glyph-name="y" unicode="y" horiz-adv-x="450" 
d="M188 14l-166 508h79l101 -326l25 -144l27 144l100 326h75l-219 -684h-75z" />
    <glyph glyph-name="z" unicode="z" horiz-adv-x="416" 
d="M37 69l236 349l41 46l-87 -7h-176v65h328v-73l-235 -350l-46 -49l90 11h192v-61h-343v69z" />
    <glyph glyph-name="braceleft" unicode="{" horiz-adv-x="294" 
d="M201 -108q-46 0 -77 29t-31 89q0 29 4 55t9.5 49.5t9.5 43.5t4 36q0 45 -22.5 65.5t-65.5 22.5v60q43 2 65.5 21.5t22.5 64.5q0 16 -4 35.5t-9.5 42t-9.5 47.5t-4 52q0 31 9 53.5t24 37.5t35 22t42 7q19 0 34 -4t24 -9l-4 -49h-40q-30 0 -42.5 -18t-4.5 -65l20 -118
q5 -29 3 -54t-13.5 -44.5t-33 -32.5t-55.5 -19q67 -11 89 -50t11 -102l-19 -118q-8 -48 3.5 -69t41.5 -21h40l4 -47q-9 -5 -25.5 -9t-34.5 -4z" />
    <glyph glyph-name="bar" unicode="|" horiz-adv-x="191" 
d="M64 718h63v-818h-63v818z" />
    <glyph glyph-name="braceright" unicode="}" horiz-adv-x="295" 
d="M95 -108q-18 0 -35 4t-27 9l4 47h40q30 0 43 19t5 66l-21 125q-10 59 11.5 99.5t88.5 50.5q-67 11 -89 50t-11 102l19 111q8 48 -4 68t-42 20h-40l-4 49q10 5 24.5 9t33.5 4q22 0 42 -6.5t35.5 -21t24.5 -36.5t9 -53q0 -28 -4 -53.5t-9.5 -47.5t-9.5 -40.5t-4 -34.5
q0 -45 22.5 -66.5t65.5 -23.5v-60q-43 -2 -65.5 -21t-22.5 -64q0 -16 4 -36.5t9.5 -44.5t9.5 -50t4 -53q0 -64 -31 -92.5t-76 -28.5z" />
    <glyph glyph-name="asciitilde" unicode="~" horiz-adv-x="405" 
d="M267 258q-24 0 -41 14t-32 30l-29 31q-14 14 -19.5 17.5t-14.5 3.5q-15 0 -20.5 -18.5t-5.5 -53.5v-14h-52q0 80 23 117.5t61 37.5q24 0 41 -14t32 -30l29 -30q14 -15 19.5 -18.5t15.5 -3.5q14 0 19.5 18.5t5.5 53.5v14h53q0 -80 -24 -117.5t-61 -37.5z" />
    <glyph glyph-name="exclamdown" unicode="&#xa1;" horiz-adv-x="261" 
d="M131 405q-26 0 -45 17.5t-19 46.5q0 28 19 45.5t45 17.5q25 0 44 -17.5t19 -45.5q0 -29 -19 -46.5t-44 -17.5zM87 91l25 244h37l25 -244v-253h-87v253z" />
    <glyph glyph-name="cent" unicode="&#xa2;" horiz-adv-x="423" 
d="M227 49q5 -1 11.5 -1.5t12.5 -0.5q36 0 63 10.5t61 26.5l14 -58q-24 -15 -61 -27.5t-82 -12.5q-20 0 -37 3l-39 -126l-50 16l38 125q-112 52 -112 258q0 138 50.5 204t149.5 66q20 0 37 -2t33 -6l39 127l52 -15l-180 -587v0zM298 463q-12 2 -24 3.5t-23 1.5
q-30 0 -53.5 -8.5t-39.5 -30t-24.5 -59.5t-8.5 -98v-15q0 -78 13.5 -123t39.5 -65l120 394v0z" />
    <glyph glyph-name="sterling" unicode="&#xa3;" horiz-adv-x="461" 
d="M225 294q5 -17 8 -34t3 -37q0 -67 -59 -126l-80 -45l116 14h216v-66h-376v69q23 15 42.5 28.5t33.5 29.5t22.5 37t8.5 51q0 21 -4.5 40.5t-12.5 38.5h-101v63h71q-15 31 -27 65.5t-12 76.5q0 33 10.5 62.5t33 52t58.5 36t86 13.5q62 0 100.5 -12.5t69.5 -29.5l-17 -60
q-32 14 -64 24t-76 10q-61 0 -87.5 -21.5t-26.5 -77.5v-12q0 -35 12 -65.5t26 -61.5h158v-63h-132v0z" />
    <glyph glyph-name="fraction" unicode="&#xa4;" horiz-adv-x="308" 
d="M279 651h64l-314 -651h-64z" />
    <glyph glyph-name="yen" unicode="&#xa5;" horiz-adv-x="559" 
d="M519 420v-62h-145l-44 -100h189v-63h-199v-195h-81v195h-199v63h187l-46 100h-141v62h113l-105 231h89l116 -275l30 -144l31 144l114 275h73l-101 -231h119z" />
    <glyph glyph-name="florin" unicode="&#xa6;" horiz-adv-x="369" 
d="M25 -177q-24 0 -41 7t-33 16l11 42h51q20 0 28 8t12 29l82 472h-78v60h89l24 136q13 72 45 102t81 30q32 0 54 -7.5t39 -15.5l-12 -42h-72q-27 0 -38.5 -10.5t-16.5 -36.5l-27 -156h100v-60h-111l-81 -465q-11 -62 -37.5 -85.5t-68.5 -23.5z" />
    <glyph glyph-name="section" unicode="&#xa7;" horiz-adv-x="454" 
d="M172 367q-19 8 -36 20t-29.5 28.5t-19.5 39t-7 51.5q0 75 44.5 116t119.5 41q46 0 80 -8.5t58 -21.5l-14 -57q-15 5 -28 9.5t-27 7.5t-30 5t-36 2q-47 0 -71 -20.5t-24 -69.5q0 -22 6 -37.5t19.5 -27t35 -20.5t52.5 -18q34 -10 61.5 -22.5t46.5 -30.5t29.5 -43.5
t10.5 -61.5q0 -37 -14.5 -63t-38.5 -45l-78 -21q37 -18 62.5 -51t25.5 -89q0 -75 -44.5 -116t-119.5 -41q-46 0 -80.5 8.5t-58.5 21.5l11 55q15 -5 28 -9.5t27.5 -8t31 -5.5t37.5 -2q48 0 72 22t24 71q0 22 -6.5 38.5t-20 28.5t-35 22t-51.5 19q-35 11 -62 23.5t-45 31
t-27.5 44t-9.5 61.5q0 35 14.5 61t37.5 43l79 19v0zM242 137q49 16 74 38.5t25 66.5q0 24 -5 40t-18.5 28t-36.5 21t-59 19q-6 2 -9 2q-52 -14 -76 -35.5t-24 -67.5q0 -24 4.5 -39.5t16.5 -27.5t34.5 -21t58.5 -20q4 -1 7.5 -2t7.5 -2z" />
    <glyph glyph-name="currency" unicode="&#xa8;" horiz-adv-x="527" 
d="M36 367v58h77q8 53 25.5 96.5t45.5 75t67 49t91 17.5q47 0 82 -8.5t69 -22.5l-13 -65q-23 8 -41 13t-34.5 9t-32.5 5.5t-35 1.5q-28 0 -51.5 -8.5t-41.5 -28.5t-30 -52.5t-18 -81.5h194v-58h-198v-23v-27v-39h198v-59h-193q12 -92 47.5 -131t93.5 -39q22 0 40 2.5t34.5 7
t33 11t37.5 15.5l20 -60q-35 -17 -72.5 -28t-89.5 -11q-53 0 -92 17t-67 47.5t-44.5 73.5t-24.5 95h-77v59h71q-1 12 -1 24v25v20q0 10 1 20h-71z" />
    <glyph glyph-name="quotesingle" unicode="&#xa9;" horiz-adv-x="214" 
d="M65 573v119h83v-119l-25 -156h-32z" />
    <glyph glyph-name="quotedblleft" unicode="&#xaa;" horiz-adv-x="409" 
d="M290 471q-26 0 -44.5 17.5t-18.5 45.5q0 24 9.5 45.5t23.5 42.5l59 93l25 -11l-43 -120l32 -6q7 -7 13 -17t6 -27q0 -28 -18 -45.5t-44 -17.5zM119 471q-26 0 -44 17.5t-18 45.5q0 24 9.5 45.5t23.5 42.5l59 93l25 -11l-43 -120l32 -6q7 -7 13 -17t6 -27
q0 -28 -18.5 -45.5t-44.5 -17.5z" />
    <glyph glyph-name="guillemotleft" unicode="&#xab;" horiz-adv-x="453" 
d="M214 170v63l127 169h78l-112 -151l-47 -50l47 -49l112 -152h-77zM46 170v63l127 169h78l-112 -151l-48 -50l48 -49l112 -152h-77z" />
    <glyph glyph-name="guilsinglleft" unicode="&#xac;" horiz-adv-x="285" 
d="M46 170v63l127 169h78l-112 -151l-48 -50l48 -49l112 -152h-77z" />
    <glyph glyph-name="guilsinglright" unicode="&#xad;" horiz-adv-x="285" 
d="M146 151l47 50l-47 49l-112 152h77l128 -169v-64l-127 -169h-78z" />
    <glyph glyph-name="fi" unicode="&#xae;" horiz-adv-x="530" 
d="M408 620q-23 0 -39.5 15.5t-16.5 39.5t16.5 39.5t39.5 15.5t39.5 -15.5t16.5 -39.5t-16.5 -39.5t-39.5 -15.5zM28 462v60h64v72q0 69 30.5 100.5t81.5 31.5q27 0 49 -7t37 -15l-4 -43h-67q-28 0 -39.5 -11t-11.5 -36v-92h117v-60h-117v-462h-76v462h-64zM369 522h77v-522
h-77v522z" />
    <glyph glyph-name="fl" unicode="&#xaf;" horiz-adv-x="527" 
d="M28 462v60h64v72q0 69 30.5 100.5t81.5 31.5q29 0 51 -7t37 -15l-4 -43h-69q-28 0 -39.5 -11t-11.5 -36v-92h117v-60h-117v-462h-76v462h-64zM366 718h77v-718h-77v718z" />
    <glyph glyph-name="endash" unicode="&#xb1;" horiz-adv-x="414" 
d="M53 328h308v-61h-308v61z" />
    <glyph glyph-name="dagger" unicode="&#xb2;" horiz-adv-x="489" 
d="M138 404h-87v69h87l90 -21l-26 96v123h85v-123l-26 -95l90 20h87v-69h-87l-92 17l28 -116v-171l-24 -296h-37l-24 296v171l27 116z" />
    <glyph glyph-name="daggerdbl" unicode="&#xb3;" horiz-adv-x="489" 
d="M138 404h-87v69h87l91 -21l-27 96v123h85v-123l-27 -95l91 20h87v-69h-87l-91 17l27 -112v-109l-27 -112l91 17h87v-69h-87l-91 21l27 -96v-123h-85v123l27 95l-91 -20h-87v69h87l91 -17l-27 112v109l27 112z" />
    <glyph glyph-name="periodcentered" unicode="&#xb4;" horiz-adv-x="246" 
d="M123 272q-27 0 -47 19t-20 48q0 30 20 49t47 19q28 0 47.5 -19t19.5 -49q0 -29 -19.5 -48t-47.5 -19z" />
    <glyph glyph-name="paragraph" unicode="&#xb6;" 
d="M221 332l-69 -12q-52 14 -81.5 54t-29.5 111q0 82 52 124t139 42h182v-751h-58v696h-77v-696h-58v432z" />
    <glyph glyph-name="bullet" unicode="&#xb7;" horiz-adv-x="329" 
d="M163 212q-21 0 -41 8t-35 23t-24 35.5t-9 44.5q0 25 9 46t24 36t35 23t41 8q47 0 79.5 -31t32.5 -82q0 -24 -9 -44.5t-24 -35.5t-35.5 -23t-43.5 -8z" />
    <glyph glyph-name="bullet" unicode="&#x2219;" horiz-adv-x="329" 
d="M163 212q-21 0 -41 8t-35 23t-24 35.5t-9 44.5q0 25 9 46t24 36t35 23t41 8q47 0 79.5 -31t32.5 -82q0 -24 -9 -44.5t-24 -35.5t-35.5 -23t-43.5 -8z" />
    <glyph glyph-name="quotesinglbase" unicode="&#xb8;" horiz-adv-x="239" 
d="M65 -112l42 120l-32 6q-7 7 -12.5 17t-5.5 27q0 28 18 45.5t44 17.5t44.5 -17.5t18.5 -45.5q0 -24 -9.5 -45.5t-23.5 -42.5l-60 -93z" />
    <glyph glyph-name="quotedblbase" unicode="&#xb9;" horiz-adv-x="409" 
d="M235 -112l42 120l-32 6q-7 7 -12.5 17t-5.5 27q0 28 18 45.5t44 17.5t44.5 -17.5t18.5 -45.5q0 -24 -9.5 -45.5t-23.5 -42.5l-60 -93zM65 -112l42 120l-32 6q-7 7 -12.5 17t-5.5 27q0 28 18 45.5t44 17.5t44.5 -17.5t18.5 -45.5q0 -24 -9.5 -45.5t-23.5 -42.5l-60 -93z
" />
    <glyph glyph-name="quotedblright" unicode="&#xba;" horiz-adv-x="409" 
d="M235 469l42 120l-32 6q-7 7 -12.5 17t-5.5 27q0 28 18 45.5t44 17.5t44.5 -17.5t18.5 -45.5q0 -24 -9.5 -45.5t-23.5 -42.5l-60 -93zM65 469l42 120l-32 6q-7 7 -12.5 17t-5.5 27q0 28 18 45.5t44 17.5t44.5 -17.5t18.5 -45.5q0 -24 -9.5 -45.5t-23.5 -42.5l-60 -93z" />
    <glyph glyph-name="guillemotright" unicode="&#xbb;" horiz-adv-x="453" 
d="M314 151l48 50l-48 49l-112 152h77l128 -169v-64l-127 -169h-78zM146 151l47 50l-47 49l-112 152h77l128 -169v-64l-127 -169h-78z" />
    <glyph glyph-name="ellipsis" unicode="&#xbc;" horiz-adv-x="682" 
d="M559 -10q-26 0 -46 18.5t-20 48.5t20 48.5t46 18.5q28 0 47.5 -18.5t19.5 -48.5t-19.5 -48.5t-47.5 -18.5zM341 -10q-27 0 -46.5 18.5t-19.5 48.5t19.5 48.5t46.5 18.5q28 0 47.5 -18.5t19.5 -48.5t-19.5 -48.5t-47.5 -18.5zM122 -10q-26 0 -46 18.5t-20 48.5t20 48.5
t46 18.5q28 0 47.5 -18.5t19.5 -48.5t-19.5 -48.5t-47.5 -18.5z" />
    <glyph glyph-name="perthousand" unicode="&#xbd;" horiz-adv-x="1178" 
d="M191 250q-39 0 -67.5 17t-47 45.5t-27.5 66t-9 79.5q0 40 9.5 77t28 65.5t47.5 45.5t68 17t68 -17t47.5 -45t27.5 -64.5t9 -76.5q0 -42 -9.5 -80t-28.5 -67t-48 -46t-68 -17zM561 651h61l-364 -651h-61zM983 -14q-39 0 -67.5 17t-47 45.5t-27.5 66t-9 79.5q0 40 9.5 77
t28 65.5t47.5 45.5t68 17t68 -17t48 -45t28 -64.5t9 -76.5q0 -42 -9.5 -80t-28.5 -67t-48.5 -46t-68.5 -17zM626 -14q-39 0 -67.5 17t-47.5 45.5t-28 66t-9 79.5q0 40 9.5 77t28.5 65.5t48 45.5t68 17t68 -17t47.5 -45t27.5 -64.5t9 -76.5q0 -42 -9.5 -80t-28.5 -67t-48 -46
t-68 -17zM192 301q17 0 32 6.5t25.5 21.5t16.5 40.5t6 64.5v44q0 38 -6 63t-16.5 40t-25.5 21.5t-32 6.5t-32 -6.5t-25.5 -21.5t-16.5 -40.5t-6 -63.5v-44q0 -39 6 -64.5t16.5 -40.5t25.5 -21t32 -6zM984 37q17 0 32 6.5t25.5 21.5t16.5 40.5t6 64.5v44q0 38 -6 63t-16.5 40
t-25.5 21.5t-32 6.5t-32 -6.5t-25.5 -21.5t-16.5 -40.5t-6 -63.5v-44q0 -39 6 -64.5t16.5 -40.5t25.5 -21t32 -6zM627 37q17 0 32 6.5t25.5 21.5t16.5 40.5t6 64.5v44q0 38 -6 63t-16.5 40t-25.5 21.5t-32 6.5t-32 -6.5t-25.5 -21.5t-16.5 -40.5t-6 -63.5v-44q0 -39 6 -64.5
t16.5 -40.5t25.5 -21t32 -6z" />
    <glyph glyph-name="questiondown" unicode="&#xbf;" horiz-adv-x="431" 
d="M255 405q-26 0 -45 17.5t-19 46.5q0 28 19 45.5t45 17.5q25 0 43.5 -17.5t18.5 -45.5q0 -29 -18.5 -46.5t-43.5 -17.5zM238 -176q-91 0 -139 44.5t-48 134.5q0 45 11 77t33 54.5t55.5 37t78.5 24.5v139h56l16 -119q3 -27 -4 -41t-36 -24q-39 -12 -63.5 -22.5t-38 -25
t-18 -36t-4.5 -56.5v-9q0 -31 5.5 -52t18.5 -34t35 -18.5t55 -5.5q38 0 69.5 7.5t70.5 21.5l12 -59q-25 -12 -68.5 -25t-96.5 -13z" />
    <glyph glyph-name="grave" unicode="&#xc1;" horiz-adv-x="518" 
d="M125 757h97l61 -164h-48z" />
    <glyph glyph-name="acute" unicode="&#xc2;" 
d="M284 757h97l-110 -164h-48z" />
    <glyph glyph-name="circumflex" unicode="&#xc3;" 
d="M217 769h64l109 -176h-76l-44 82l-22 63l-22 -63l-49 -82h-67z" />
    <glyph glyph-name="tilde" unicode="&#xc4;" 
d="M301 598q-19 0 -32.5 8t-26.5 24l-20 24q-8 9 -13 13.5t-13 4.5q-28 0 -28 -55v-11h-48q0 63 24 94.5t55 31.5q18 0 31.5 -8t27.5 -24l19 -24q9 -9 14 -13.5t13 -4.5q28 0 28 55v11h47q0 -63 -23.5 -94.5t-54.5 -31.5z" />
    <glyph glyph-name="macron" unicode="&#xc5;" 
d="M137 697h226v-69h-226v69z" />
    <glyph glyph-name="breve" unicode="&#xc6;" 
d="M252 615q-30 0 -52.5 11t-36.5 30t-21.5 44.5t-7.5 54.5h57v-12q0 -35 13.5 -52.5t47.5 -17.5t47.5 17.5t13.5 52.5v12h57q0 -29 -7.5 -54.5t-21.5 -44.5t-36.5 -30t-52.5 -11z" />
    <glyph glyph-name="dotaccent" unicode="&#xc7;" 
d="M250 596q-21 0 -36.5 15t-15.5 38t15.5 38.5t36.5 15.5t36.5 -15.5t15.5 -38.5t-15.5 -38t-36.5 -15z" />
    <glyph glyph-name="dieresis" unicode="&#xc8;" 
d="M334 596q-22 0 -37.5 15t-15.5 38t15.5 38.5t37.5 15.5q21 0 36.5 -15.5t15.5 -38.5t-15.5 -38t-36.5 -15zM166 596q-21 0 -36.5 15t-15.5 38t15.5 38.5t36.5 15.5q22 0 37.5 -15.5t15.5 -38.5t-15.5 -38t-37.5 -15z" />
    <glyph glyph-name="ring" unicode="&#xca;" 
d="M250 590q-42 0 -70.5 27.5t-28.5 81.5t28.5 82t70.5 28t70.5 -28t28.5 -82t-28.5 -81.5t-70.5 -27.5zM250 633q24 0 37 12t13 54t-13 55t-37 13t-37 -13t-13 -55t13 -54t37 -12z" />
    <glyph glyph-name="cedilla" unicode="&#xcb;" 
d="M248 -239q-26 0 -49.5 7t-37.5 17l8 39q20 -8 38 -13.5t35 -5.5q29 0 42 9.5t13 29.5v8q0 35 -37 35q-17 0 -25 -3.5t-18 -11.5l-31 24l41 104h45l-35 -86l36 16q35 -1 59.5 -21.5t24.5 -58.5q0 -23 -9 -39.5t-24 -27.5t-34.5 -16.5t-41.5 -5.5z" />
    <glyph glyph-name="hungarumlaut" unicode="&#xcd;" 
d="M363 757h88l-104 -164h-48zM211 757h88l-104 -164h-48z" />
    <glyph glyph-name="ogonek" unicode="&#xce;" 
d="M250 -237q-40 0 -67 22.5t-27 61.5q0 24 8.5 45t22.5 40.5t32 36t36 31.5h36l-43 -62q-17 -24 -24 -42.5t-7 -44.5q0 -46 43 -46q17 0 29 3.5t32 11.5l6 -39q-11 -6 -29.5 -12t-47.5 -6z" />
    <glyph glyph-name="caron" unicode="&#xcf;" 
d="M110 769h76l44 -82l22 -63l22 63l49 82h67l-107 -176h-64z" />
    <glyph glyph-name="emdash" unicode="&#xd0;" horiz-adv-x="633" 
d="M53 328h527v-61h-527v61z" />
    <glyph glyph-name="AE" unicode="&#xe1;" horiz-adv-x="818" 
d="M375 651h381v-68h-267v-216h231v-64h-231v-236h284v-67h-367v138h-228l-3 -6t-8.5 -15.5t-12.5 -22t-14 -25.5q-17 -31 -38 -69h-83zM406 198v275l7 148l-49 -127l-154 -296h196z" />
    <glyph glyph-name="ordfeminine" unicode="&#xe3;" horiz-adv-x="432" 
d="M280 516q0 38 -14.5 62.5t-59.5 24.5q-32 0 -63.5 -7.5t-66.5 -18.5l-10 53q33 14 67 23.5t76 9.5q75 0 108 -39.5t33 -127.5v-215q0 -17 6.5 -23t20.5 -6h17l2 -37q-6 -4 -19 -8t-28 -4q-10 0 -19.5 2t-17.5 5l-28 49l-38 -46q-12 -5 -30 -8.5t-40 -3.5q-27 0 -50.5 6.5
t-41 21.5t-28 39t-10.5 60q0 68 38.5 98.5t119.5 37.5l76 6v46zM280 430l-71 -8q-51 -5 -71.5 -24.5t-20.5 -64.5v-6q0 -40 17 -58t57 -18q34 0 54.5 12.5t34.5 29.5v137z" />
    <glyph glyph-name="Lslash" unicode="&#xe8;" horiz-adv-x="482" 
d="M27 235v69l73 34v313h84v-274l142 67v-69l-142 -66v-242h264v-67h-348v269z" />
    <glyph glyph-name="Oslash" unicode="&#xe9;" horiz-adv-x="603" 
d="M478 586q38 -44 56 -109.5t18 -147.5q0 -80 -15 -143.5t-46 -108t-79 -68t-113 -23.5q-76 0 -129 35l-59 -108l-49 28l64 118q-39 45 -58 113t-19 155q0 74 15.5 135.5t46.5 106t78.5 69.5t111.5 25q79 0 134 -38l55 101l49 -27l-61 -113v0zM403 567q-37 31 -103 31
q-82 0 -123.5 -60.5t-41.5 -193.5v-27q0 -127 29 -189zM200 77q38 -31 101 -31q40 0 71 15t52 47.5t31.5 84.5t10.5 127v28q0 111 -26 169z" />
    <glyph glyph-name="OE" unicode="&#xea;" horiz-adv-x="814" 
d="M332 0q-146 0 -214.5 80.5t-68.5 246.5q0 157 67.5 240.5t206.5 83.5h429v-68h-262v-216h226v-64h-226v-236h279v-67h-437v0zM406 64v519h-66q-52 0 -89.5 -10.5t-62.5 -38t-37 -74t-12 -118.5v-25q0 -79 12.5 -128t37 -77t62 -38t87.5 -10h68z" />
    <glyph glyph-name="ordmasculine" unicode="&#xeb;" horiz-adv-x="442" 
d="M223 206q-79 0 -126.5 60t-47.5 168q0 109 48 169t126 60q39 0 70.5 -15.5t54 -44.5t35 -71t12.5 -95q0 -110 -46.5 -170.5t-125.5 -60.5zM223 258q23 0 41.5 8t31.5 27t20 51.5t7 81.5v13q0 50 -7 83t-20 52t-31.5 26.5t-41.5 7.5q-24 0 -42.5 -7.5t-32 -26t-20.5 -50.5
t-7 -81v-13q0 -50 7 -83.5t20.5 -53t32.5 -27.5t42 -8z" />
    <glyph glyph-name="ae" unicode="&#xf1;" horiz-adv-x="745" 
d="M199 -14q-32 0 -60 8t-49 25.5t-33 46t-12 70.5q0 39 11 67.5t33.5 47.5t58 30t83.5 16l92 8v58q0 22 -4 41t-14 32.5t-27.5 21.5t-44.5 8q-38 0 -75 -9.5t-78 -23.5l-11 60q40 17 79 28t88 11q54 0 88 -21.5t48 -73.5q20 48 59 71.5t91 23.5q47 0 81.5 -17t57 -48.5
t33.5 -76t11 -99.5v-51h-305q0 -55 8.5 -92t25.5 -59t42.5 -31.5t59.5 -9.5q35 0 68.5 10t68.5 26l11 -59q-24 -13 -65 -26t-89 -13q-121 0 -172 96l-74 -80q-15 -7 -37 -11.5t-48 -4.5zM629 293v17q0 89 -27 126t-80 37q-27 0 -48.5 -7.5t-37.5 -27.5t-25 -55t-11 -90h229z
M215 44q26 0 45 6.5t34 17t26.5 23.5t22.5 26q-19 57 -21 140l-86 -9q-61 -7 -88.5 -29.5t-27.5 -76.5v-7q0 -49 23.5 -70t71.5 -21z" />
    <glyph glyph-name="dotlessi" unicode="&#xf5;" horiz-adv-x="240" 
d="M81 522h77v-522h-77v522z" />
    <glyph glyph-name="lslash" unicode="&#xf8;" horiz-adv-x="309" 
d="M37 262v68l78 42v346h78v-303l79 43v-68l-79 -43v-347h-78v304z" />
    <glyph glyph-name="oslash" unicode="&#xf9;" horiz-adv-x="502" 
d="M396 467q29 -35 44 -85.5t15 -119.5q0 -135 -55 -205.5t-149 -70.5q-60 0 -104 29l-55 -99l-46 26l60 109q-29 35 -45 87t-16 121q0 67 15 118t42 85.5t65 52t84 17.5q62 0 105 -30l52 94l46 -25l-58 -104v0zM328 451q-27 21 -77 21q-30 0 -53.5 -10t-40 -33.5t-25.5 -62
t-9 -96.5v-15q0 -48 4.5 -83t12.5 -59zM174 64q15 -12 34 -16.5t43 -4.5q29 0 52 10.5t39.5 35t25.5 64.5t9 98v14q0 46 -4 79.5t-13 57.5z" />
    <glyph glyph-name="oe" unicode="&#xfa;" horiz-adv-x="799" 
d="M452 240q0 -54 8.5 -91t25 -59.5t42 -32t59.5 -9.5q35 0 69 10t69 26l11 -59q-24 -13 -65 -26t-89 -13q-64 0 -108.5 29t-61.5 92q-20 -64 -61.5 -92.5t-99.5 -28.5q-93 0 -149 70.5t-56 202.5q0 67 15 118t42 85.5t65 52t84 17.5q56 0 99.5 -29t60.5 -92q17 63 61 92
t101 29q47 0 81.5 -17t57 -48.5t33.5 -76t11 -99.5v-51h-305v0zM680 293v17q0 89 -26.5 126t-79.5 37q-27 0 -48.5 -7.5t-37 -27.5t-25 -55t-11.5 -90h228zM252 46q29 0 52 10t39 34t24.5 63.5t8.5 97.5v14q0 60 -8.5 99.5t-24 63t-38.5 33t-53 9.5t-53 -9.5t-39 -32.5
t-24.5 -61.5t-8.5 -96.5v-15q0 -60 8.5 -100t25 -64t39.5 -34.5t52 -10.5z" />
    <glyph glyph-name="germandbls" unicode="&#xfb;" horiz-adv-x="561" 
d="M364 -14q-50 0 -81 10t-53 22l10 58q26 -11 53 -20.5t65 -9.5q48 0 68.5 19t20.5 64q0 25 -4.5 40t-15.5 24.5t-29.5 16t-47.5 15.5q-22 7 -42.5 16.5t-37 25.5t-26.5 42t-10 66q0 53 23.5 82t50.5 42l56 6v27q0 36 -3 61t-13.5 40.5t-30.5 23t-53 7.5t-54 -9.5
t-33.5 -30t-17.5 -52t-5 -75.5v-497h-76v476q0 124 44 187t143 63q50 0 82.5 -15t52 -42t27 -66t7.5 -87v-44l-45 -8q-23 -4 -39 -10t-26 -15.5t-14.5 -24t-4.5 -36.5q0 -23 5.5 -37t16.5 -22.5t27 -14.5t38 -13q23 -7 46 -16.5t41.5 -26.5t30 -44t11.5 -70q0 -31 -9 -58.5
t-28 -47t-48.5 -31t-71.5 -11.5z" />
    <glyph glyph-name="Scaron" horiz-adv-x="492" 
d="M242 -14q-36 0 -64.5 4t-51.5 10t-41.5 14.5t-34.5 17.5l16 60q42 -19 78.5 -30.5t83.5 -11.5q67 0 99.5 24.5t32.5 92.5q0 26 -5.5 44.5t-19 32t-37.5 24.5t-62 22q-44 13 -78 27.5t-57 36t-34.5 53t-11.5 78.5q0 88 51 133t144 45q59 0 96.5 -9.5t69.5 -23.5l-13 -63
q-20 6 -36.5 11t-34 8.5t-37.5 5.5t-46 2q-60 0 -87.5 -22.5t-27.5 -79.5q0 -27 5 -44.5t18.5 -31t38 -23.5t63.5 -22q42 -12 76 -27t58 -37t37 -54t13 -79q0 -93 -52.5 -140.5t-148.5 -47.5zM105 888h76l44 -82l22 -63l22 63l49 82h67l-107 -176h-64z" />
    <glyph glyph-name="scaron" horiz-adv-x="402" 
d="M191 -14q-52 0 -88.5 10.5t-59.5 22.5l11 58q26 -11 59.5 -21t72.5 -10q48 0 75 19.5t27 69.5q0 23 -5 38t-18 25.5t-36 19t-60 18.5q-28 8 -51.5 18.5t-40 27.5t-26 41.5t-9.5 59.5q0 75 44.5 112t119.5 37q46 0 80.5 -9t57.5 -21l-12 -57l-28.5 9.5t-27.5 7.5t-30.5 5
t-36.5 2q-47 0 -71 -16.5t-24 -65.5q0 -22 6 -36t18.5 -23.5t33.5 -16.5t51 -15q35 -10 61 -22t43 -30t26 -44t9 -62q0 -66 -42.5 -109t-128.5 -43zM61 769h76l44 -82l22 -63l22 63l49 82h67l-107 -176h-64z" />
    <glyph glyph-name="Yacute" horiz-adv-x="520" 
d="M224 231l-198 420h90l121 -277l31 -120l30 120l118 277h78l-187 -416v-235h-83v231zM293 876h97l-110 -164h-48z" />
    <glyph glyph-name="yacute" horiz-adv-x="450" 
d="M188 14l-166 508h79l101 -326l25 -144l27 144l100 326h75l-219 -684h-75zM259 757h97l-110 -164h-48z" />
    <glyph glyph-name="Thorn" horiz-adv-x="534" 
d="M86 651h83v-108h117q54 0 94 -15t66 -41.5t38.5 -63.5t12.5 -81q0 -43 -12.5 -80t-38 -64.5t-65.5 -43.5t-95 -16h-117v-138h-83v651zM279 197q71 0 100 32t29 107v12q0 72 -30 100.5t-101 28.5h-108v-280h110z" />
    <glyph glyph-name="thorn" horiz-adv-x="512" 
d="M155 -162h-77v880h77v-244q22 22 54 40t78 18q85 0 132 -65t47 -204q0 -145 -48.5 -211t-137.5 -66q-24 0 -43 4t-30 8l-52 48v-208zM155 83q24 -19 50.5 -30t59.5 -11q31 0 54 10t38 34t22.5 63.5t7.5 98.5v26q0 58 -8 95.5t-23 59.5t-36 31t-47 9q-44 0 -72.5 -17.5
t-45.5 -34.5v-334z" />
    <glyph glyph-name="Zcaron" horiz-adv-x="495" 
d="M48 81l287 456l48 56l-88 -8h-235v66h383v-85l-283 -449l-58 -65l98 13h245v-65h-397v81zM106 888h76l44 -82l22 -63l22 63l49 82h67l-107 -176h-64z" />
    <glyph glyph-name="zcaron" horiz-adv-x="416" 
d="M37 69l236 349l41 46l-87 -7h-176v65h328v-73l-235 -350l-46 -49l90 11h192v-61h-343v69zM68 769h76l44 -82l22 -63l22 63l49 82h67l-107 -176h-64z" />
    <glyph glyph-name="onehalf" horiz-adv-x="819" 
d="M35 304h58v266h-58v31l91 53h35v-350h56v-45h-182v45zM536 651h61l-364 -651h-61zM527 51l4 12q11 42 39 70.5t58 54.5q32 28 48 46t16 46v8q0 35 -15 46.5t-45 11.5q-25 0 -44.5 -6t-42.5 -15l-11 48q17 11 43 20t68 9q63 0 91 -31.5t28 -80.5q0 -25 -8 -45t-21.5 -36.5
t-31.5 -31t-38 -29.5q-29 -22 -49 -42t-27 -52l-3 -9l68 9h106v-54h-233v51z" />
    <glyph glyph-name="onequarter" horiz-adv-x="819" 
d="M37 304h58v266h-58v31l90 53h36v-350h55v-45h-181v45zM546 651h61l-364 -651h-61zM653 93h-179v35l160 267h86v-253h51v-49h-51v-93h-67v93zM654 142v128l5 91l-34 -77l-85 -142h114z" />
    <glyph glyph-name="onesuperior" horiz-adv-x="286" 
d="M48 304h57v267h-57v31l90 53h36v-351h55v-44h-181v44z" />
    <glyph glyph-name="threequarters" horiz-adv-x="819" 
d="M155 251q-42 0 -71 8.5t-46 19.5l12 45q24 -10 43.5 -15.5t47.5 -5.5q39 0 58 15t19 50v8q0 36 -19.5 50.5t-64.5 14.5h-34v46h26q48 0 66.5 14t18.5 46v5q0 32 -17 44t-54 12q-25 0 -42 -4.5t-42 -12.5l-7 48q17 8 41.5 15t61.5 7q66 0 96.5 -28.5t30.5 -74.5
q0 -40 -21 -60t-62 -31q45 -8 70 -32t25 -72q0 -51 -36 -81.5t-100 -30.5zM576 651h61l-364 -651h-61zM672 93h-179v35l160 267h86v-253h51v-49h-51v-93h-67v93zM673 142v128l5 91l-35 -77l-85 -142h115z" />
    <glyph glyph-name="threesuperior" horiz-adv-x="348" 
d="M155 251q-42 0 -70.5 8.5t-46.5 19.5l12 45q24 -10 43.5 -15.5t48.5 -5.5q39 0 58 15t19 50v8q0 36 -20 50.5t-65 14.5h-33v46h26q48 0 66 14t18 46v5q0 32 -17 44t-53 12q-26 0 -43 -4.5t-41 -12.5l-8 48q17 8 42 15t61 7q66 0 97 -28.5t31 -74.5q0 -40 -21.5 -60
t-62.5 -31q45 -8 70 -32t25 -72q0 -51 -36 -81.5t-100 -30.5z" />
    <glyph glyph-name="twosuperior" horiz-adv-x="331" 
d="M44 310l3 12q12 42 40 70.5t58 54.5q32 28 48 46.5t16 45.5v8q0 35 -15 47t-45 12q-25 0 -45 -6t-43 -16l-10 48q17 11 43 20t68 9q63 0 91 -31.5t28 -79.5q0 -26 -8 -45.5t-21.5 -36t-31.5 -31.5t-38 -30q-29 -22 -49 -42t-28 -52l-2 -8l68 8h106v-54h-233v51z" />
    <glyph glyph-name="brokenbar" horiz-adv-x="190" 
d="M64 718h62v-374h-62v374zM64 277h62v-377h-62v377z" />
    <glyph glyph-name="minus" horiz-adv-x="494" 
d="M57 336h380v-67h-380v67z" />
    <glyph glyph-name="multiply" horiz-adv-x="494" 
d="M426 166l-47 -46l-132 135l-132 -135l-46 46l132 135l-5.5 6t-15 15.5l-21.5 21.5t-24 25l-66 68l46 46l132 -135l132 135l47 -46l-66 -68q-12 -13 -24 -25l-21.5 -21.5l-15.5 -15.5l-6 -6z" />
    <glyph glyph-name="eth" horiz-adv-x="502" 
d="M203 548l-21 42l87 45q-16 21 -33 41.5t-35 41.5h73q11 -10 24 -23.5t27 -30.5l85 44l22 -42l-78 -40q20 -28 38 -62.5t32.5 -76.5t23 -92t8.5 -108q0 -81 -14.5 -138t-41 -93.5t-64 -53t-84.5 -16.5q-94 0 -150 65t-56 197q0 67 15 116t41.5 80.5t63 47t79.5 15.5
q14 0 24.5 -2t19.5 -4l71 -57q-11 45 -27 82t-37 70zM368 401q-23 20 -49 32.5t-68 12.5q-29 0 -52 -8.5t-39 -29.5t-24.5 -57t-8.5 -92v-15q0 -58 8.5 -96.5t25 -61t39.5 -31.5t52 -9t52 8.5t39 32.5t24.5 68.5t8.5 116.5v15q0 32 -2 60t-6 54z" />
    <glyph glyph-name="Adieresis" horiz-adv-x="567" 
d="M107 0h-74l210 651h86l206 -651h-87l-41 138h-257zM308 465l-25 133l-30 -133l-84 -267h220zM367 715q-22 0 -37.5 15t-15.5 38t15.5 38.5t37.5 15.5q21 0 36.5 -15.5t15.5 -38.5t-15.5 -38t-36.5 -15zM199 715q-21 0 -36.5 15t-15.5 38t15.5 38.5t36.5 15.5
q22 0 37.5 -15.5t15.5 -38.5t-15.5 -38t-37.5 -15z" />
    <glyph glyph-name="Aring" horiz-adv-x="567" 
d="M233 623q-22 11 -35.5 35.5t-13.5 60.5q0 54 29 82t71 28t70.5 -28t28.5 -82q0 -35 -12.5 -58.5t-33.5 -36.5l8.5 -26.5t22.5 -70.5t31.5 -100t36.5 -115q44 -137 99 -312h-87l-41 138h-257l-43 -138h-74zM284 652q23 0 36 12t13 55q0 42 -13 55t-36 13q-24 0 -37 -13
t-13 -55q0 -43 13 -55t37 -12zM389 198l-81 267l-25 133l-30 -133l-84 -267h220z" />
    <glyph glyph-name="Ccedilla" horiz-adv-x="503" 
d="M254 -11q-56 9 -95 38t-63 73.5t-35 102.5t-11 124q0 72 14 133.5t45 106.5t79 70.5t115 25.5q51 0 87 -9.5t70 -23.5l-11 -66q-23 6 -42 11.5t-36.5 9t-35 5.5t-38.5 2q-33 0 -62 -11.5t-50 -39.5t-33.5 -76t-12.5 -121v-27q0 -74 11 -124.5t31.5 -81.5t50 -44.5
t66.5 -13.5q24 0 43 2.5t37 7.5t35.5 11.5t38.5 14.5l20 -64q-37 -17 -77 -28t-94 -11h-3l-29 -72l36 16q35 -1 59.5 -21.5t24.5 -58.5q0 -23 -9 -39.5t-24 -27.5t-34.5 -16.5t-41.5 -5.5q-26 0 -49.5 7t-37.5 17l8 39q20 -8 38 -13.5t35 -5.5q29 0 42 9.5t13 29.5v8
q0 35 -37 35q-17 0 -25 -3.5t-18 -11.5l-31 24l18 46q7 17 13 32t5 15z" />
    <glyph glyph-name="Eacute" horiz-adv-x="499" 
d="M86 651h350v-68h-267v-216h231v-64h-231v-236h285v-67h-368v651zM283 876h97l-110 -164h-48z" />
    <glyph glyph-name="Ntilde" horiz-adv-x="601" 
d="M85 651h94l214 -414l67 -181l-20 208v387h76v-651h-90l-224 431l-60 169l19 -192v-408h-76v651zM349 717q-19 0 -32.5 8t-26.5 24l-20 24q-8 9 -13 13.5t-13 4.5q-28 0 -28 -55v-11h-48q0 63 24 94.5t55 31.5q18 0 31.5 -8t27.5 -24l19 -24q9 -9 14 -13.5t13 -4.5
q28 0 28 55v11h47q0 -63 -23.5 -94.5t-54.5 -31.5z" />
    <glyph glyph-name="Odieresis" horiz-adv-x="603" 
d="M300 -14q-65 0 -112 24.5t-78 69.5t-45.5 108t-14.5 139q0 74 15.5 135.5t46.5 106t78.5 69.5t111.5 25t111 -24.5t78 -68.5t46.5 -105.5t15.5 -135.5q0 -80 -15 -143.5t-46 -108t-79 -68t-113 -23.5zM302 49q40 0 70.5 14.5t51 46.5t31 83.5t10.5 126.5v28
q0 133 -41 190t-123 57t-122.5 -59t-40.5 -192v-27q0 -75 10.5 -126t31.5 -82.5t51.5 -45.5t70.5 -14zM383 715q-22 0 -37.5 15t-15.5 38t15.5 38.5t37.5 15.5q21 0 36.5 -15.5t15.5 -38.5t-15.5 -38t-36.5 -15zM215 715q-21 0 -36.5 15t-15.5 38t15.5 38.5t36.5 15.5
q22 0 37.5 -15.5t15.5 -38.5t-15.5 -38t-37.5 -15z" />
    <glyph glyph-name="Udieresis" horiz-adv-x="592" 
d="M422 651h84v-651h-48l-27 63l-39 -52q-17 -8 -48.5 -16.5t-72.5 -8.5q-99 0 -144.5 60t-45.5 197v408h84v-434q0 -51 6.5 -83.5t20.5 -51t37 -25.5t56 -7q49 0 80 12.5t57 28.5v560zM378 715q-22 0 -37.5 15t-15.5 38t15.5 38.5t37.5 15.5q21 0 36.5 -15.5t15.5 -38.5
t-15.5 -38t-36.5 -15zM210 715q-21 0 -36.5 15t-15.5 38t15.5 38.5t36.5 15.5q22 0 37.5 -15.5t15.5 -38.5t-15.5 -38t-37.5 -15z" />
    <glyph glyph-name="aacute" horiz-adv-x="483" 
d="M322 363q0 22 -4 41t-13.5 32.5t-27 21.5t-44.5 8q-38 0 -74.5 -9.5t-77.5 -23.5l-12 60q36 16 76 27.5t91 11.5q87 0 124.5 -46.5t37.5 -149.5v-255q0 -22 8 -29.5t26 -7.5h20l2 -41q-7 -5 -20 -9.5t-31 -4.5q-21 0 -42 8l-35 56l-46 -51q-15 -7 -36.5 -11.5t-47.5 -4.5
q-31 0 -58.5 8t-48 25.5t-32.5 46t-12 70.5q0 39 11 67.5t33.5 47.5t58 30t83.5 16l91 8v58zM322 257l-86 -9q-62 -7 -89 -29.5t-27 -76.5v-7q0 -49 23.5 -70t71.5 -21q42 0 66.5 15t40.5 34v164zM258 757h97l-110 -164h-48z" />
    <glyph glyph-name="agrave" horiz-adv-x="483" 
d="M322 363q0 22 -4 41t-13.5 32.5t-27 21.5t-44.5 8q-38 0 -74.5 -9.5t-77.5 -23.5l-12 60q36 16 76 27.5t91 11.5q87 0 124.5 -46.5t37.5 -149.5v-255q0 -22 8 -29.5t26 -7.5h20l2 -41q-7 -5 -20 -9.5t-31 -4.5q-21 0 -42 8l-35 56l-46 -51q-15 -7 -36.5 -11.5t-47.5 -4.5
q-31 0 -58.5 8t-48 25.5t-32.5 46t-12 70.5q0 39 11 67.5t33.5 47.5t58 30t83.5 16l91 8v58zM322 257l-86 -9q-62 -7 -89 -29.5t-27 -76.5v-7q0 -49 23.5 -70t71.5 -21q42 0 66.5 15t40.5 34v164zM115 757h97l61 -164h-48z" />
    <glyph glyph-name="acircumflex" horiz-adv-x="483" 
d="M322 363q0 22 -4 41t-13.5 32.5t-27 21.5t-44.5 8q-38 0 -74.5 -9.5t-77.5 -23.5l-12 60q36 16 76 27.5t91 11.5q87 0 124.5 -46.5t37.5 -149.5v-255q0 -22 8 -29.5t26 -7.5h20l2 -41q-7 -5 -20 -9.5t-31 -4.5q-21 0 -42 8l-35 56l-46 -51q-15 -7 -36.5 -11.5t-47.5 -4.5
q-31 0 -58.5 8t-48 25.5t-32.5 46t-12 70.5q0 39 11 67.5t33.5 47.5t58 30t83.5 16l91 8v58zM322 257l-86 -9q-62 -7 -89 -29.5t-27 -76.5v-7q0 -49 23.5 -70t71.5 -21q42 0 66.5 15t40.5 34v164zM202 769h64l109 -176h-76l-44 82l-22 63l-22 -63l-49 -82h-67z" />
    <glyph glyph-name="adieresis" horiz-adv-x="483" 
d="M322 363q0 22 -4 41t-13.5 32.5t-27 21.5t-44.5 8q-38 0 -74.5 -9.5t-77.5 -23.5l-12 60q36 16 76 27.5t91 11.5q87 0 124.5 -46.5t37.5 -149.5v-255q0 -22 8 -29.5t26 -7.5h20l2 -41q-7 -5 -20 -9.5t-31 -4.5q-21 0 -42 8l-35 56l-46 -51q-15 -7 -36.5 -11.5t-47.5 -4.5
q-31 0 -58.5 8t-48 25.5t-32.5 46t-12 70.5q0 39 11 67.5t33.5 47.5t58 30t83.5 16l91 8v58zM322 257l-86 -9q-62 -7 -89 -29.5t-27 -76.5v-7q0 -49 23.5 -70t71.5 -21q42 0 66.5 15t40.5 34v164zM324 596q-22 0 -37.5 15t-15.5 38t15.5 38.5t37.5 15.5q21 0 36.5 -15.5
t15.5 -38.5t-15.5 -38t-36.5 -15zM156 596q-21 0 -36.5 15t-15.5 38t15.5 38.5t36.5 15.5q22 0 37.5 -15.5t15.5 -38.5t-15.5 -38t-37.5 -15z" />
    <glyph glyph-name="atilde" horiz-adv-x="483" 
d="M322 363q0 22 -4 41t-13.5 32.5t-27 21.5t-44.5 8q-38 0 -74.5 -9.5t-77.5 -23.5l-12 60q36 16 76 27.5t91 11.5q87 0 124.5 -46.5t37.5 -149.5v-255q0 -22 8 -29.5t26 -7.5h20l2 -41q-7 -5 -20 -9.5t-31 -4.5q-21 0 -42 8l-35 56l-46 -51q-15 -7 -36.5 -11.5t-47.5 -4.5
q-31 0 -58.5 8t-48 25.5t-32.5 46t-12 70.5q0 39 11 67.5t33.5 47.5t58 30t83.5 16l91 8v58zM322 257l-86 -9q-62 -7 -89 -29.5t-27 -76.5v-7q0 -49 23.5 -70t71.5 -21q42 0 66.5 15t40.5 34v164zM283 598q-19 0 -32.5 8t-26.5 24l-20 24q-8 9 -13 13.5t-13 4.5
q-28 0 -28 -55v-11h-48q0 63 24 94.5t55 31.5q18 0 31.5 -8t27.5 -24l19 -24q9 -9 14 -13.5t13 -4.5q28 0 28 55v11h47q0 -63 -23.5 -94.5t-54.5 -31.5z" />
    <glyph glyph-name="aring" horiz-adv-x="483" 
d="M322 363q0 22 -4 41t-13.5 32.5t-27 21.5t-44.5 8q-38 0 -74.5 -9.5t-77.5 -23.5l-12 60q36 16 76 27.5t91 11.5q87 0 124.5 -46.5t37.5 -149.5v-255q0 -22 8 -29.5t26 -7.5h20l2 -41q-7 -5 -20 -9.5t-31 -4.5q-21 0 -42 8l-35 56l-46 -51q-15 -7 -36.5 -11.5t-47.5 -4.5
q-31 0 -58.5 8t-48 25.5t-32.5 46t-12 70.5q0 39 11 67.5t33.5 47.5t58 30t83.5 16l91 8v58zM322 257l-86 -9q-62 -7 -89 -29.5t-27 -76.5v-7q0 -49 23.5 -70t71.5 -21q42 0 66.5 15t40.5 34v164zM235 590q-42 0 -70.5 27.5t-28.5 81.5t28.5 82t70.5 28t70.5 -28t28.5 -82
t-28.5 -81.5t-70.5 -27.5zM235 633q24 0 37 12t13 54t-13 55t-37 13t-37 -13t-13 -55t13 -54t37 -12z" />
    <glyph glyph-name="ccedilla" horiz-adv-x="422" 
d="M209 -11q-80 12 -121.5 80t-41.5 193q0 138 50.5 204t149.5 66q42 0 77 -9t62 -21l-13 -60q-35 11 -63.5 18t-57.5 7q-30 0 -53.5 -8t-39 -30t-23.5 -60t-8 -97v-15q0 -61 8.5 -101.5t24 -64.5t38.5 -33.5t53 -9.5q36 0 63 9.5t61 25.5l15 -57q-24 -14 -59 -26.5
t-79 -13.5l-29 -72l36 16q35 -1 59.5 -21.5t24.5 -58.5q0 -23 -9 -39.5t-24 -27.5t-34.5 -16.5t-41.5 -5.5q-26 0 -49.5 7t-37.5 17l8 39q20 -8 38 -13.5t35 -5.5q29 0 42 9.5t13 29.5v8q0 35 -37 35q-17 0 -25 -3.5t-18 -11.5l-31 24l37 93v0z" />
    <glyph glyph-name="eacute" horiz-adv-x="480" 
d="M127 237q1 -53 9.5 -89t25 -58.5t42 -32t59.5 -9.5q35 0 67 9.5t67 25.5l14 -58q-23 -13 -64.5 -26t-89.5 -13q-104 0 -157.5 68t-53.5 206q0 71 14.5 122.5t41.5 84.5t64.5 49t82.5 16q47 0 81.5 -17t57 -48.5t33.5 -76t11 -99.5v-54h-305v0zM356 295v15q0 89 -27 126
t-80 37q-26 0 -48 -7.5t-37.5 -27.5t-25 -54.5t-11.5 -88.5h229zM274 757h97l-110 -164h-48z" />
    <glyph glyph-name="egrave" horiz-adv-x="480" 
d="M127 237q1 -53 9.5 -89t25 -58.5t42 -32t59.5 -9.5q35 0 67 9.5t67 25.5l14 -58q-23 -13 -64.5 -26t-89.5 -13q-104 0 -157.5 68t-53.5 206q0 71 14.5 122.5t41.5 84.5t64.5 49t82.5 16q47 0 81.5 -17t57 -48.5t33.5 -76t11 -99.5v-54h-305v0zM356 295v15q0 89 -27 126
t-80 37q-26 0 -48 -7.5t-37.5 -27.5t-25 -54.5t-11.5 -88.5h229zM119 757h97l61 -164h-48z" />
    <glyph glyph-name="ecircumflex" horiz-adv-x="480" 
d="M127 237q1 -53 9.5 -89t25 -58.5t42 -32t59.5 -9.5q35 0 67 9.5t67 25.5l14 -58q-23 -13 -64.5 -26t-89.5 -13q-104 0 -157.5 68t-53.5 206q0 71 14.5 122.5t41.5 84.5t64.5 49t82.5 16q47 0 81.5 -17t57 -48.5t33.5 -76t11 -99.5v-54h-305v0zM356 295v15q0 89 -27 126
t-80 37q-26 0 -48 -7.5t-37.5 -27.5t-25 -54.5t-11.5 -88.5h229zM209 769h64l109 -176h-76l-44 82l-22 63l-22 -63l-49 -82h-67z" />
    <glyph glyph-name="edieresis" horiz-adv-x="480" 
d="M127 237q1 -53 9.5 -89t25 -58.5t42 -32t59.5 -9.5q35 0 67 9.5t67 25.5l14 -58q-23 -13 -64.5 -26t-89.5 -13q-104 0 -157.5 68t-53.5 206q0 71 14.5 122.5t41.5 84.5t64.5 49t82.5 16q47 0 81.5 -17t57 -48.5t33.5 -76t11 -99.5v-54h-305v0zM356 295v15q0 89 -27 126
t-80 37q-26 0 -48 -7.5t-37.5 -27.5t-25 -54.5t-11.5 -88.5h229zM325 596q-22 0 -37.5 15t-15.5 38t15.5 38.5t37.5 15.5q21 0 36.5 -15.5t15.5 -38.5t-15.5 -38t-36.5 -15zM157 596q-21 0 -36.5 15t-15.5 38t15.5 38.5t36.5 15.5q22 0 37.5 -15.5t15.5 -38.5t-15.5 -38
t-37.5 -15z" />
    <glyph glyph-name="iacute" horiz-adv-x="240" 
d="M81 522h77v-522h-77v522zM151 757h97l-110 -164h-48z" />
    <glyph glyph-name="igrave" horiz-adv-x="240" 
d="M81 522h77v-522h-77v522zM-3 757h97l61 -164h-48z" />
    <glyph glyph-name="icircumflex" horiz-adv-x="240" 
d="M81 522h77v-522h-77v522zM87 769h64l109 -176h-76l-44 82l-22 63l-22 -63l-49 -82h-67z" />
    <glyph glyph-name="idieresis" horiz-adv-x="240" 
d="M81 522h77v-522h-77v522zM204 596q-22 0 -37.5 15t-15.5 38t15.5 38.5t37.5 15.5q21 0 36.5 -15.5t15.5 -38.5t-15.5 -38t-36.5 -15zM36 596q-21 0 -36.5 15t-15.5 38t15.5 38.5t36.5 15.5q22 0 37.5 -15.5t15.5 -38.5t-15.5 -38t-37.5 -15z" />
    <glyph glyph-name="ntilde" horiz-adv-x="513" 
d="M201 509q17 8 40.5 15.5t56.5 7.5q65 0 103 -38t38 -126v-368h-77v380q0 50 -22.5 69.5t-60.5 19.5q-39 0 -66.5 -12.5t-57.5 -32.5v-424h-77v522h44l31 -66zM305 598q-19 0 -32.5 8t-26.5 24l-20 24q-8 9 -13 13.5t-13 4.5q-28 0 -28 -55v-11h-48q0 63 24 94.5t55 31.5
q18 0 31.5 -8t27.5 -24l19 -24q9 -9 14 -13.5t13 -4.5q28 0 28 55v11h47q0 -63 -23.5 -94.5t-54.5 -31.5z" />
    <glyph glyph-name="oacute" horiz-adv-x="502" 
d="M252 -14q-94 0 -150 70t-56 203q0 67 15 118t42 85.5t65 52t84 17.5t83.5 -17.5t64.5 -51.5t41.5 -84.5t14.5 -116.5q0 -135 -55 -205.5t-149 -70.5zM252 46q28 0 51 11t39 35t25 63t9 96v14q0 60 -8.5 99.5t-24 63t-38.5 33t-53 9.5t-53 -9.5t-39 -32.5t-24.5 -61.5
t-8.5 -96.5v-15q0 -58 9 -98t25 -64.5t39.5 -35.5t51.5 -11zM284 757h97l-110 -164h-48z" />
    <glyph glyph-name="ograve" horiz-adv-x="502" 
d="M252 -14q-94 0 -150 70t-56 203q0 67 15 118t42 85.5t65 52t84 17.5t83.5 -17.5t64.5 -51.5t41.5 -84.5t14.5 -116.5q0 -135 -55 -205.5t-149 -70.5zM252 46q28 0 51 11t39 35t25 63t9 96v14q0 60 -8.5 99.5t-24 63t-38.5 33t-53 9.5t-53 -9.5t-39 -32.5t-24.5 -61.5
t-8.5 -96.5v-15q0 -58 9 -98t25 -64.5t39.5 -35.5t51.5 -11zM125 757h97l61 -164h-48z" />
    <glyph glyph-name="ocircumflex" horiz-adv-x="502" 
d="M252 -14q-94 0 -150 70t-56 203q0 67 15 118t42 85.5t65 52t84 17.5t83.5 -17.5t64.5 -51.5t41.5 -84.5t14.5 -116.5q0 -135 -55 -205.5t-149 -70.5zM252 46q28 0 51 11t39 35t25 63t9 96v14q0 60 -8.5 99.5t-24 63t-38.5 33t-53 9.5t-53 -9.5t-39 -32.5t-24.5 -61.5
t-8.5 -96.5v-15q0 -58 9 -98t25 -64.5t39.5 -35.5t51.5 -11zM217 769h64l109 -176h-76l-44 82l-22 63l-22 -63l-49 -82h-67z" />
    <glyph glyph-name="odieresis" horiz-adv-x="502" 
d="M252 -14q-94 0 -150 70t-56 203q0 67 15 118t42 85.5t65 52t84 17.5t83.5 -17.5t64.5 -51.5t41.5 -84.5t14.5 -116.5q0 -135 -55 -205.5t-149 -70.5zM252 46q28 0 51 11t39 35t25 63t9 96v14q0 60 -8.5 99.5t-24 63t-38.5 33t-53 9.5t-53 -9.5t-39 -32.5t-24.5 -61.5
t-8.5 -96.5v-15q0 -58 9 -98t25 -64.5t39.5 -35.5t51.5 -11zM334 596q-22 0 -37.5 15t-15.5 38t15.5 38.5t37.5 15.5q21 0 36.5 -15.5t15.5 -38.5t-15.5 -38t-36.5 -15zM166 596q-21 0 -36.5 15t-15.5 38t15.5 38.5t36.5 15.5q22 0 37.5 -15.5t15.5 -38.5t-15.5 -38
t-37.5 -15z" />
    <glyph glyph-name="otilde" horiz-adv-x="502" 
d="M252 -14q-94 0 -150 70t-56 203q0 67 15 118t42 85.5t65 52t84 17.5t83.5 -17.5t64.5 -51.5t41.5 -84.5t14.5 -116.5q0 -135 -55 -205.5t-149 -70.5zM252 46q28 0 51 11t39 35t25 63t9 96v14q0 60 -8.5 99.5t-24 63t-38.5 33t-53 9.5t-53 -9.5t-39 -32.5t-24.5 -61.5
t-8.5 -96.5v-15q0 -58 9 -98t25 -64.5t39.5 -35.5t51.5 -11zM301 598q-19 0 -32.5 8t-26.5 24l-20 24q-8 9 -13 13.5t-13 4.5q-28 0 -28 -55v-11h-48q0 63 24 94.5t55 31.5q18 0 31.5 -8t27.5 -24l19 -24q9 -9 14 -13.5t13 -4.5q28 0 28 55v11h47q0 -63 -23.5 -94.5
t-54.5 -31.5z" />
    <glyph glyph-name="uacute" horiz-adv-x="510" 
d="M355 522h77v-522h-44l-31 62l-44 -52q-17 -8 -42 -14.5t-58 -6.5q-62 0 -100.5 38.5t-38.5 126.5v368h77v-380q0 -53 22.5 -73t58.5 -20q41 0 68.5 11.5t54.5 32.5v429zM288 757h97l-110 -164h-48z" />
    <glyph glyph-name="ugrave" horiz-adv-x="510" 
d="M355 522h77v-522h-44l-31 62l-44 -52q-17 -8 -42 -14.5t-58 -6.5q-62 0 -100.5 38.5t-38.5 126.5v368h77v-380q0 -53 22.5 -73t58.5 -20q41 0 68.5 11.5t54.5 32.5v429zM129 757h97l61 -164h-48z" />
    <glyph glyph-name="ucircumflex" horiz-adv-x="510" 
d="M355 522h77v-522h-44l-31 62l-44 -52q-17 -8 -42 -14.5t-58 -6.5q-62 0 -100.5 38.5t-38.5 126.5v368h77v-380q0 -53 22.5 -73t58.5 -20q41 0 68.5 11.5t54.5 32.5v429zM221 769h64l109 -176h-76l-44 82l-22 63l-22 -63l-49 -82h-67z" />
    <glyph glyph-name="udieresis" horiz-adv-x="510" 
d="M355 522h77v-522h-44l-31 62l-44 -52q-17 -8 -42 -14.5t-58 -6.5q-62 0 -100.5 38.5t-38.5 126.5v368h77v-380q0 -53 22.5 -73t58.5 -20q41 0 68.5 11.5t54.5 32.5v429zM338 596q-22 0 -37.5 15t-15.5 38t15.5 38.5t37.5 15.5q21 0 36.5 -15.5t15.5 -38.5t-15.5 -38
t-36.5 -15zM170 596q-21 0 -36.5 15t-15.5 38t15.5 38.5t36.5 15.5q22 0 37.5 -15.5t15.5 -38.5t-15.5 -38t-37.5 -15z" />
    <glyph glyph-name="degree" horiz-adv-x="322" 
d="M162 371q-25 0 -47 9t-38.5 27.5t-26 46t-9.5 63.5t10 63.5t26.5 46t38.5 27.5t46 9t45.5 -9t38 -27.5t26 -45.5t9.5 -63q0 -37 -9.5 -64.5t-25.5 -46t-38 -27.5t-46 -9zM162 415q29 0 44 20t15 74v16q0 55 -15 73.5t-44 18.5q-30 0 -45.5 -18.5t-15.5 -71.5v-15
q0 -56 16 -76.5t45 -20.5z" />
    <glyph glyph-name="registered" horiz-adv-x="457" 
d="M227 171q-98 0 -144 65t-46 183q0 114 47.5 179t144.5 65q95 0 143 -64t48 -179q0 -126 -47 -187.5t-146 -61.5zM227 205q42 0 72 11.5t49.5 37t28.5 66.5t9 100q0 109 -38 159t-119 50q-83 0 -121 -51.5t-38 -158.5q0 -112 36.5 -163t120.5 -51zM283 372l48 -95h-49
l-54 114h-38v-114h-46v285h88q49 0 71.5 -24t22.5 -62q0 -28 -14.5 -51t-56.5 -29zM229 421q27 0 38 12.5t11 38.5v5q0 26 -11.5 37t-37.5 11h-39v-104h39z" />
    <glyph glyph-name="copyright" horiz-adv-x="618" 
d="M307 -14q-133 0 -197.5 89.5t-64.5 251.5q0 78 16.5 140.5t49.5 106t82.5 66.5t115.5 23q131 0 197.5 -88t66.5 -246q0 -343 -266 -343zM307 24q60 0 102.5 16.5t70 53.5t40.5 95t13 140q0 152 -54 224t-170 72q-118 0 -171 -74t-53 -224q0 -156 51.5 -229.5t170.5 -73.5
zM312 92q-45 0 -76.5 18.5t-51 50t-28.5 74.5t-9 92t9 91t29 73t51.5 48.5t76.5 17.5q35 0 59 -6t51 -17l-8 -54q-17 5 -29.5 9t-24 6t-22.5 3t-25 1q-21 0 -38.5 -8.5t-30.5 -27.5t-20 -49.5t-7 -74.5v-19q0 -91 24.5 -131t72.5 -40q15 0 27 1.5t23 5t23.5 8t27.5 10.5
l17 -48q-29 -17 -57 -25.5t-64 -8.5z" />
    <glyph glyph-name="trademark" horiz-adv-x="719" 
d="M338 651h72l69 -241l14 -104l19 104l71 241h75v-371h-61v151l14 192l-39 -165l-54 -178h-56l-51 180l-34 163l13 -189v-154h-52v371zM42 602v49h246v-49h-92v-322h-62v322h-92z" />
    <glyph glyph-name="notequal" horiz-adv-x="581" 
d="M310 462v60h61v72q0 69 30 100.5t81 31.5q32 0 56 -7t41 -15l-4 -43h-80q-26 0 -37 -11t-11 -36v-92h117v-60h-117v-462h-76v462h-61zM28 462v60h64v72q0 69 31.5 100.5t82.5 31.5q33 0 57.5 -6.5t42.5 -15.5l-4 -43h-83q-28 0 -39.5 -11t-11.5 -36v-92h97v-60h-97v-462
h-76v462h-64z" />
    <glyph glyph-name="infinity" horiz-adv-x="808" 
d="M687 620q-23 0 -39.5 15.5t-16.5 39.5t16.5 39.5t39.5 15.5t39 -15.5t16 -39.5t-16 -39.5t-39 -15.5zM310 462v60h61v72q0 69 30.5 100.5t80.5 31.5q27 0 49 -7t37 -15l-4 -43h-66q-29 0 -40 -11t-11 -36v-92h116v-60h-116v-462h-76v462h-61zM28 462v60h64v72
q0 69 31.5 100.5t82.5 31.5q33 0 57.5 -6.5t42.5 -15.5l-4 -43h-83q-28 0 -39.5 -11t-11.5 -36v-92h97v-60h-97v-462h-76v462h-64zM648 522h77v-522h-77v522z" />
    <glyph glyph-name="plusminus" horiz-adv-x="805" 
d="M310 462v60h61v72q0 69 30.5 100.5t80.5 31.5q29 0 53 -7t39 -15l-4 -43h-72q-29 0 -40 -11t-11 -36v-92h116v-60h-116v-462h-76v462h-61zM28 462v60h64v72q0 69 31.5 100.5t82.5 31.5q33 0 57.5 -6.5t42.5 -15.5l-4 -43h-83q-28 0 -39.5 -11t-11.5 -36v-92h97v-60h-97
v-462h-76v462h-64zM645 718h76v-718h-76v718z" />
    <glyph glyph-name="lessequal" horiz-adv-x="261" 
d="M87 431v261h87v-261l-25 -244h-37zM74 -113l44 116l-35 7q-7 6 -12 16.5t-5 25.5q0 30 19 48t45 18q27 0 45.5 -18t18.5 -47q0 -26 -12 -50t-25 -44l-55 -85z" />
    <glyph glyph-name="greaterequal" horiz-adv-x="431" 
d="M130 308q-4 28 3.5 41.5t36.5 24.5q39 12 63.5 22.5t37.5 25.5t17.5 37t4.5 56v10q0 31 -5 52t-18 33.5t-35 18t-55 5.5q-38 0 -69.5 -7.5t-70.5 -21.5l-12 59q24 12 67.5 25t97.5 13q91 0 139 -44.5t48 -134.5q0 -45 -11 -77.5t-33.5 -55t-56 -37t-78.5 -24.5v-142h-56z
M120 -113l43 116l-34 7q-7 6 -12.5 16.5t-5.5 25.5q0 30 19 48t45 18q27 0 46 -18t19 -47q0 -26 -12.5 -50t-25.5 -44l-55 -85z" />
    <glyph glyph-name="mu" horiz-adv-x="514" 
d="M359 522h77v-522h-44l-31 62l-44 -53q-14 -8 -37 -13.5t-54 -5.5q-10 0 -19 1t-15 3l-54 49l16 -85v-120h-76v684h77v-380q0 -53 22.5 -73t58.5 -20q41 0 68.5 11.5t54.5 32.5v429z" />
    <glyph glyph-name="partialdiff" horiz-adv-x="594" 
d="M75 -14q-22 0 -36 20.5t-23.5 62.5t-16.5 105.5t-14 150.5h29q5 -50 9 -105t10.5 -101t16 -76t25.5 -30t25.5 30t16 76t11 101t8.5 105q8 87 14 150.5t15 105t22.5 62t35.5 20.5t35.5 -20.5t22.5 -62t15.5 -105t13.5 -150.5q5 -50 9 -105t10.5 -101t16 -76t25.5 -30
t25.5 30t16 76t11 101t8.5 105q8 87 14 150.5t15 105t22.5 62t35.5 20.5t36 -20.5t23.5 -62t16.5 -105t14 -150.5h-29q-4 50 -8.5 105t-11 101t-16 75.5t-25.5 29.5t-25 -29.5t-15 -75.5t-9.5 -101t-8.5 -105q-7 -87 -14 -150.5t-16.5 -105.5t-23.5 -62.5t-36 -20.5
t-36 20.5t-23.5 62.5t-16 105.5t-14.5 150.5q-4 50 -8 105t-10 101t-15 75.5t-25 29.5t-25 -29.5t-15 -75.5t-9.5 -101t-8.5 -105q-7 -87 -14 -150.5t-16.5 -105.5t-23.5 -62.5t-36 -20.5z" />
    <glyph glyph-name="summation" horiz-adv-x="594" 
d="M75 -14q-22 0 -36 20.5t-23.5 62.5t-16.5 105.5t-14 150.5h29q5 -50 9 -105t10.5 -101t16 -76t25.5 -30t25.5 30t16 76t11 101t8.5 105q8 87 14 150.5t15 105t22.5 62t35.5 20.5t35.5 -20.5t22.5 -62t15.5 -105t13.5 -150.5q5 -50 9 -105t10.5 -101t16 -76t25.5 -30
t25.5 30t16 76t11 101t8.5 105q8 87 14 150.5t15 105t22.5 62t35.5 20.5t36 -20.5t23.5 -62t16.5 -105t14 -150.5h-29q-4 50 -8.5 105t-11 101t-16 75.5t-25.5 29.5t-25 -29.5t-15 -75.5t-9.5 -101t-8.5 -105q-7 -87 -14 -150.5t-16.5 -105.5t-23.5 -62.5t-36 -20.5
t-36 20.5t-23.5 62.5t-16 105.5t-14.5 150.5q-4 50 -8 105t-10 101t-15 75.5t-25 29.5t-25 -29.5t-15 -75.5t-9.5 -101t-8.5 -105q-7 -87 -14 -150.5t-16.5 -105.5t-23.5 -62.5t-36 -20.5z" />
    <glyph glyph-name="product" horiz-adv-x="594" 
d="M75 -14q-22 0 -36 20.5t-23.5 62.5t-16.5 105.5t-14 150.5h29q5 -50 9 -105t10.5 -101t16 -76t25.5 -30t25.5 30t16 76t11 101t8.5 105q8 87 14 150.5t15 105t22.5 62t35.5 20.5t35.5 -20.5t22.5 -62t15.5 -105t13.5 -150.5q5 -50 9 -105t10.5 -101t16 -76t25.5 -30
t25.5 30t16 76t11 101t8.5 105q8 87 14 150.5t15 105t22.5 62t35.5 20.5t36 -20.5t23.5 -62t16.5 -105t14 -150.5h-29q-4 50 -8.5 105t-11 101t-16 75.5t-25.5 29.5t-25 -29.5t-15 -75.5t-9.5 -101t-8.5 -105q-7 -87 -14 -150.5t-16.5 -105.5t-23.5 -62.5t-36 -20.5
t-36 20.5t-23.5 62.5t-16 105.5t-14.5 150.5q-4 50 -8 105t-10 101t-15 75.5t-25 29.5t-25 -29.5t-15 -75.5t-9.5 -101t-8.5 -105q-7 -87 -14 -150.5t-16.5 -105.5t-23.5 -62.5t-36 -20.5z" />
    <glyph glyph-name="pi" horiz-adv-x="618" 
d="M307 -14q-133 0 -197.5 89.5t-64.5 251.5q0 78 16.5 140.5t49.5 106t82.5 66.5t115.5 23q131 0 197.5 -88t66.5 -246q0 -343 -266 -343zM307 24q60 0 102.5 16.5t70 53.5t40.5 95t13 140q0 152 -54 224t-170 72q-118 0 -171 -74t-53 -224q0 -156 51.5 -229.5t170.5 -73.5
zM187 545h130q74 0 109 -40.5t35 -101.5q0 -30 -8.5 -56t-26 -45.5t-44.5 -30.5t-65 -11h-64v-162h-66v447zM312 309q48 0 64.5 20.5t16.5 69.5v13q0 47 -17 64.5t-66 17.5h-57v-185h59z" />
    <glyph glyph-name="integral" horiz-adv-x="594" 
d="M75 -14q-22 0 -36 20.5t-23.5 62.5t-16.5 105.5t-14 150.5h29q5 -50 9 -105t10.5 -101t16 -76t25.5 -30t25.5 30t16 76t11 101t8.5 105q8 87 14 150.5t15 105t22.5 62t35.5 20.5t35.5 -20.5t22.5 -62t15.5 -105t13.5 -150.5q5 -50 9 -105t10.5 -101t16 -76t25.5 -30
t25.5 30t16 76t11 101t8.5 105q8 87 14 150.5t15 105t22.5 62t35.5 20.5t36 -20.5t23.5 -62t16.5 -105t14 -150.5h-29q-4 50 -8.5 105t-11 101t-16 75.5t-25.5 29.5t-25 -29.5t-15 -75.5t-9.5 -101t-8.5 -105q-7 -87 -14 -150.5t-16.5 -105.5t-23.5 -62.5t-36 -20.5
t-36 20.5t-23.5 62.5t-16 105.5t-14.5 150.5q-4 50 -8 105t-10 101t-15 75.5t-25 29.5t-25 -29.5t-15 -75.5t-9.5 -101t-8.5 -105q-7 -87 -14 -150.5t-16.5 -105.5t-23.5 -62.5t-36 -20.5z" />
    <glyph glyph-name="Omega" horiz-adv-x="594" 
d="M75 -14q-22 0 -36 20.5t-23.5 62.5t-16.5 105.5t-14 150.5h29q5 -50 9 -105t10.5 -101t16 -76t25.5 -30t25.5 30t16 76t11 101t8.5 105q8 87 14 150.5t15 105t22.5 62t35.5 20.5t35.5 -20.5t22.5 -62t15.5 -105t13.5 -150.5q5 -50 9 -105t10.5 -101t16 -76t25.5 -30
t25.5 30t16 76t11 101t8.5 105q8 87 14 150.5t15 105t22.5 62t35.5 20.5t36 -20.5t23.5 -62t16.5 -105t14 -150.5h-29q-4 50 -8.5 105t-11 101t-16 75.5t-25.5 29.5t-25 -29.5t-15 -75.5t-9.5 -101t-8.5 -105q-7 -87 -14 -150.5t-16.5 -105.5t-23.5 -62.5t-36 -20.5
t-36 20.5t-23.5 62.5t-16 105.5t-14.5 150.5q-4 50 -8 105t-10 101t-15 75.5t-25 29.5t-25 -29.5t-15 -75.5t-9.5 -101t-8.5 -105q-7 -87 -14 -150.5t-16.5 -105.5t-23.5 -62.5t-36 -20.5z" />
    <glyph glyph-name="logicalnot" horiz-adv-x="594" 
d="M75 -14q-22 0 -36 20.5t-23.5 62.5t-16.5 105.5t-14 150.5h29q5 -50 9 -105t10.5 -101t16 -76t25.5 -30t25.5 30t16 76t11 101t8.5 105q8 87 14 150.5t15 105t22.5 62t35.5 20.5t35.5 -20.5t22.5 -62t15.5 -105t13.5 -150.5q5 -50 9 -105t10.5 -101t16 -76t25.5 -30
t25.5 30t16 76t11 101t8.5 105q8 87 14 150.5t15 105t22.5 62t35.5 20.5t36 -20.5t23.5 -62t16.5 -105t14 -150.5h-29q-4 50 -8.5 105t-11 101t-16 75.5t-25.5 29.5t-25 -29.5t-15 -75.5t-9.5 -101t-8.5 -105q-7 -87 -14 -150.5t-16.5 -105.5t-23.5 -62.5t-36 -20.5
t-36 20.5t-23.5 62.5t-16 105.5t-14.5 150.5q-4 50 -8 105t-10 101t-15 75.5t-25 29.5t-25 -29.5t-15 -75.5t-9.5 -101t-8.5 -105q-7 -87 -14 -150.5t-16.5 -105.5t-23.5 -62.5t-36 -20.5z" />
    <glyph glyph-name="radical" horiz-adv-x="455" 
d="M32 375h80l57 -194l28 -155l25 155l145 537h71l-203 -719h-82z" />
    <glyph glyph-name="approxequal" horiz-adv-x="594" 
d="M75 -14q-22 0 -36 20.5t-23.5 62.5t-16.5 105.5t-14 150.5h29q5 -50 9 -105t10.5 -101t16 -76t25.5 -30t25.5 30t16 76t11 101t8.5 105q8 87 14 150.5t15 105t22.5 62t35.5 20.5t35.5 -20.5t22.5 -62t15.5 -105t13.5 -150.5q5 -50 9 -105t10.5 -101t16 -76t25.5 -30
t25.5 30t16 76t11 101t8.5 105q8 87 14 150.5t15 105t22.5 62t35.5 20.5t36 -20.5t23.5 -62t16.5 -105t14 -150.5h-29q-4 50 -8.5 105t-11 101t-16 75.5t-25.5 29.5t-25 -29.5t-15 -75.5t-9.5 -101t-8.5 -105q-7 -87 -14 -150.5t-16.5 -105.5t-23.5 -62.5t-36 -20.5
t-36 20.5t-23.5 62.5t-16 105.5t-14.5 150.5q-4 50 -8 105t-10 101t-15 75.5t-25 29.5t-25 -29.5t-15 -75.5t-9.5 -101t-8.5 -105q-7 -87 -14 -150.5t-16.5 -105.5t-23.5 -62.5t-36 -20.5z" />
    <glyph glyph-name="Delta" horiz-adv-x="594" 
d="M75 -14q-22 0 -36 20.5t-23.5 62.5t-16.5 105.5t-14 150.5h29q5 -50 9 -105t10.5 -101t16 -76t25.5 -30t25.5 30t16 76t11 101t8.5 105q8 87 14 150.5t15 105t22.5 62t35.5 20.5t35.5 -20.5t22.5 -62t15.5 -105t13.5 -150.5q5 -50 9 -105t10.5 -101t16 -76t25.5 -30
t25.5 30t16 76t11 101t8.5 105q8 87 14 150.5t15 105t22.5 62t35.5 20.5t36 -20.5t23.5 -62t16.5 -105t14 -150.5h-29q-4 50 -8.5 105t-11 101t-16 75.5t-25.5 29.5t-25 -29.5t-15 -75.5t-9.5 -101t-8.5 -105q-7 -87 -14 -150.5t-16.5 -105.5t-23.5 -62.5t-36 -20.5
t-36 20.5t-23.5 62.5t-16 105.5t-14.5 150.5q-4 50 -8 105t-10 101t-15 75.5t-25 29.5t-25 -29.5t-15 -75.5t-9.5 -101t-8.5 -105q-7 -87 -14 -150.5t-16.5 -105.5t-23.5 -62.5t-36 -20.5z" />
    <glyph glyph-name="nonbreakingspace" horiz-adv-x="117" 
 />
    <glyph glyph-name="Agrave" horiz-adv-x="567" 
d="M107 0h-74l210 651h86l206 -651h-87l-41 138h-257zM308 465l-25 133l-30 -133l-84 -267h220zM158 876h97l61 -164h-48z" />
    <glyph glyph-name="Atilde" horiz-adv-x="567" 
d="M107 0h-74l210 651h86l206 -651h-87l-41 138h-257zM308 465l-25 133l-30 -133l-84 -267h220zM334 717q-19 0 -32.5 8t-26.5 24l-20 24q-8 9 -13 13.5t-13 4.5q-28 0 -28 -55v-11h-48q0 63 24 94.5t55 31.5q18 0 31.5 -8t27.5 -24l19 -24q9 -9 14 -13.5t13 -4.5
q28 0 28 55v11h47q0 -63 -23.5 -94.5t-54.5 -31.5z" />
    <glyph glyph-name="Otilde" horiz-adv-x="603" 
d="M300 -14q-65 0 -112 24.5t-78 69.5t-45.5 108t-14.5 139q0 74 15.5 135.5t46.5 106t78.5 69.5t111.5 25t111 -24.5t78 -68.5t46.5 -105.5t15.5 -135.5q0 -80 -15 -143.5t-46 -108t-79 -68t-113 -23.5zM302 49q40 0 70.5 14.5t51 46.5t31 83.5t10.5 126.5v28
q0 133 -41 190t-123 57t-122.5 -59t-40.5 -192v-27q0 -75 10.5 -126t31.5 -82.5t51.5 -45.5t70.5 -14zM350 717q-19 0 -32.5 8t-26.5 24l-20 24q-8 9 -13 13.5t-13 4.5q-28 0 -28 -55v-11h-48q0 63 24 94.5t55 31.5q18 0 31.5 -8t27.5 -24l19 -24q9 -9 14 -13.5t13 -4.5
q28 0 28 55v11h47q0 -63 -23.5 -94.5t-54.5 -31.5z" />
    <glyph glyph-name="divide" horiz-adv-x="597" 
d="M289 177l2 122q0 28 8.5 41t38.5 20q35 6 57.5 13.5t36 20t20 32.5t10.5 50l2 15q5 39 -0.5 64t-21.5 39t-41.5 19.5t-60.5 5.5q-47 0 -108 -14l-11 59q26 8 58 14t74 6q44 0 80.5 -9.5t62.5 -30.5t40.5 -53.5t14.5 -77.5q0 -90 -42.5 -139.5t-147.5 -63.5l-22 -140z
M102 379l-72 256l83 25l73 -254l45 -233l-36 -13zM269 -10q-26 0 -44.5 17.5t-18.5 45.5q0 29 18.5 46.5t44.5 17.5t44.5 -17.5t18.5 -46.5q0 -28 -18.5 -45.5t-44.5 -17.5z" />
    <glyph glyph-name="lozenge" horiz-adv-x="594" 
d="M75 -14q-22 0 -36 20.5t-23.5 62.5t-16.5 105.5t-14 150.5h29q5 -50 9 -105t10.5 -101t16 -76t25.5 -30t25.5 30t16 76t11 101t8.5 105q8 87 14 150.5t15 105t22.5 62t35.5 20.5t35.5 -20.5t22.5 -62t15.5 -105t13.5 -150.5q5 -50 9 -105t10.5 -101t16 -76t25.5 -30
t25.5 30t16 76t11 101t8.5 105q8 87 14 150.5t15 105t22.5 62t35.5 20.5t36 -20.5t23.5 -62t16.5 -105t14 -150.5h-29q-4 50 -8.5 105t-11 101t-16 75.5t-25.5 29.5t-25 -29.5t-15 -75.5t-9.5 -101t-8.5 -105q-7 -87 -14 -150.5t-16.5 -105.5t-23.5 -62.5t-36 -20.5
t-36 20.5t-23.5 62.5t-16 105.5t-14.5 150.5q-4 50 -8 105t-10 101t-15 75.5t-25 29.5t-25 -29.5t-15 -75.5t-9.5 -101t-8.5 -105q-7 -87 -14 -150.5t-16.5 -105.5t-23.5 -62.5t-36 -20.5z" />
    <glyph glyph-name="ydieresis" horiz-adv-x="450" 
d="M188 14l-166 508h79l101 -326l25 -144l27 144l100 326h75l-219 -684h-75zM309 596q-22 0 -37.5 15t-15.5 38t15.5 38.5t37.5 15.5q21 0 36.5 -15.5t15.5 -38.5t-15.5 -38t-36.5 -15zM141 596q-21 0 -36.5 15t-15.5 38t15.5 38.5t36.5 15.5q22 0 37.5 -15.5t15.5 -38.5
t-15.5 -38t-37.5 -15z" />
    <glyph glyph-name="Ydieresis" horiz-adv-x="520" 
d="M224 231l-198 420h90l121 -277l31 -120l30 120l118 277h78l-187 -416v-235h-83v231zM348 715q-22 0 -37.5 15t-15.5 38t15.5 38.5t37.5 15.5q21 0 36.5 -15.5t15.5 -38.5t-15.5 -38t-36.5 -15zM180 715q-21 0 -36.5 15t-15.5 38t15.5 38.5t36.5 15.5q22 0 37.5 -15.5
t15.5 -38.5t-15.5 -38t-37.5 -15z" />
    <glyph glyph-name="Acircumflex" horiz-adv-x="567" 
d="M107 0h-74l210 651h86l206 -651h-87l-41 138h-257zM308 465l-25 133l-30 -133l-84 -267h220zM250 888h64l109 -176h-76l-44 82l-22 63l-22 -63l-49 -82h-67z" />
    <glyph glyph-name="Ecircumflex" horiz-adv-x="499" 
d="M86 651h350v-68h-267v-216h231v-64h-231v-236h285v-67h-368v651zM228 888h64l109 -176h-76l-44 82l-22 63l-22 -63l-49 -82h-67z" />
    <glyph glyph-name="Aacute" horiz-adv-x="567" 
d="M107 0h-74l210 651h86l206 -651h-87l-41 138h-257zM308 465l-25 133l-30 -133l-84 -267h220zM317 876h97l-110 -164h-48z" />
    <glyph glyph-name="Edieresis" horiz-adv-x="499" 
d="M86 651h350v-68h-267v-216h231v-64h-231v-236h285v-67h-368v651zM349 715q-22 0 -37.5 15t-15.5 38t15.5 38.5t37.5 15.5q21 0 36.5 -15.5t15.5 -38.5t-15.5 -38t-36.5 -15zM181 715q-21 0 -36.5 15t-15.5 38t15.5 38.5t36.5 15.5q22 0 37.5 -15.5t15.5 -38.5t-15.5 -38
t-37.5 -15z" />
    <glyph glyph-name="Egrave" horiz-adv-x="499" 
d="M86 651h350v-68h-267v-216h231v-64h-231v-236h285v-67h-368v651zM140 876h97l61 -164h-48z" />
    <glyph glyph-name="Iacute" horiz-adv-x="266" 
d="M91 651h84v-651h-84v651zM166 876h97l-110 -164h-48z" />
    <glyph glyph-name="Icircumflex" horiz-adv-x="266" 
d="M91 651h84v-651h-84v651zM99 888h64l109 -176h-76l-44 82l-22 63l-22 -63l-49 -82h-67z" />
    <glyph glyph-name="Idieresis" horiz-adv-x="266" 
d="M91 651h84v-651h-84v651zM216 715q-22 0 -37.5 15t-15.5 38t15.5 38.5t37.5 15.5q21 0 36.5 -15.5t15.5 -38.5t-15.5 -38t-36.5 -15zM48 715q-21 0 -36.5 15t-15.5 38t15.5 38.5t36.5 15.5q22 0 37.5 -15.5t15.5 -38.5t-15.5 -38t-37.5 -15z" />
    <glyph glyph-name="Igrave" horiz-adv-x="266" 
d="M91 651h84v-651h-84v651zM7 876h97l61 -164h-48z" />
    <glyph glyph-name="Oacute" horiz-adv-x="603" 
d="M300 -14q-65 0 -112 24.5t-78 69.5t-45.5 108t-14.5 139q0 74 15.5 135.5t46.5 106t78.5 69.5t111.5 25t111 -24.5t78 -68.5t46.5 -105.5t15.5 -135.5q0 -80 -15 -143.5t-46 -108t-79 -68t-113 -23.5zM302 49q40 0 70.5 14.5t51 46.5t31 83.5t10.5 126.5v28
q0 133 -41 190t-123 57t-122.5 -59t-40.5 -192v-27q0 -75 10.5 -126t31.5 -82.5t51.5 -45.5t70.5 -14zM333 876h97l-110 -164h-48z" />
    <glyph glyph-name="Ocircumflex" horiz-adv-x="603" 
d="M300 -14q-65 0 -112 24.5t-78 69.5t-45.5 108t-14.5 139q0 74 15.5 135.5t46.5 106t78.5 69.5t111.5 25t111 -24.5t78 -68.5t46.5 -105.5t15.5 -135.5q0 -80 -15 -143.5t-46 -108t-79 -68t-113 -23.5zM302 49q40 0 70.5 14.5t51 46.5t31 83.5t10.5 126.5v28
q0 133 -41 190t-123 57t-122.5 -59t-40.5 -192v-27q0 -75 10.5 -126t31.5 -82.5t51.5 -45.5t70.5 -14zM266 888h64l109 -176h-76l-44 82l-22 63l-22 -63l-49 -82h-67z" />
    <glyph glyph-name="apple" horiz-adv-x="594" 
d="M75 -14q-22 0 -36 20.5t-23.5 62.5t-16.5 105.5t-14 150.5h29q5 -50 9 -105t10.5 -101t16 -76t25.5 -30t25.5 30t16 76t11 101t8.5 105q8 87 14 150.5t15 105t22.5 62t35.5 20.5t35.5 -20.5t22.5 -62t15.5 -105t13.5 -150.5q5 -50 9 -105t10.5 -101t16 -76t25.5 -30
t25.5 30t16 76t11 101t8.5 105q8 87 14 150.5t15 105t22.5 62t35.5 20.5t36 -20.5t23.5 -62t16.5 -105t14 -150.5h-29q-4 50 -8.5 105t-11 101t-16 75.5t-25.5 29.5t-25 -29.5t-15 -75.5t-9.5 -101t-8.5 -105q-7 -87 -14 -150.5t-16.5 -105.5t-23.5 -62.5t-36 -20.5
t-36 20.5t-23.5 62.5t-16 105.5t-14.5 150.5q-4 50 -8 105t-10 101t-15 75.5t-25 29.5t-25 -29.5t-15 -75.5t-9.5 -101t-8.5 -105q-7 -87 -14 -150.5t-16.5 -105.5t-23.5 -62.5t-36 -20.5z" />
    <glyph glyph-name="Ograve" horiz-adv-x="603" 
d="M300 -14q-65 0 -112 24.5t-78 69.5t-45.5 108t-14.5 139q0 74 15.5 135.5t46.5 106t78.5 69.5t111.5 25t111 -24.5t78 -68.5t46.5 -105.5t15.5 -135.5q0 -80 -15 -143.5t-46 -108t-79 -68t-113 -23.5zM302 49q40 0 70.5 14.5t51 46.5t31 83.5t10.5 126.5v28
q0 133 -41 190t-123 57t-122.5 -59t-40.5 -192v-27q0 -75 10.5 -126t31.5 -82.5t51.5 -45.5t70.5 -14zM174 876h97l61 -164h-48z" />
    <glyph glyph-name="Uacute" horiz-adv-x="592" 
d="M422 651h84v-651h-48l-27 63l-39 -52q-17 -8 -48.5 -16.5t-72.5 -8.5q-99 0 -144.5 60t-45.5 197v408h84v-434q0 -51 6.5 -83.5t20.5 -51t37 -25.5t56 -7q49 0 80 12.5t57 28.5v560zM328 876h97l-110 -164h-48z" />
    <glyph glyph-name="Ucircumflex" horiz-adv-x="592" 
d="M422 651h84v-651h-48l-27 63l-39 -52q-17 -8 -48.5 -16.5t-72.5 -8.5q-99 0 -144.5 60t-45.5 197v408h84v-434q0 -51 6.5 -83.5t20.5 -51t37 -25.5t56 -7q49 0 80 12.5t57 28.5v560zM261 888h64l109 -176h-76l-44 82l-22 63l-22 -63l-49 -82h-67z" />
    <glyph glyph-name="Ugrave" horiz-adv-x="592" 
d="M422 651h84v-651h-48l-27 63l-39 -52q-17 -8 -48.5 -16.5t-72.5 -8.5q-99 0 -144.5 60t-45.5 197v408h84v-434q0 -51 6.5 -83.5t20.5 -51t37 -25.5t56 -7q49 0 80 12.5t57 28.5v560zM178 876h97l61 -164h-48z" />
    <glyph glyph-name="Euro" horiz-adv-x="527" 
d="M36 367v58h77q8 53 25.5 96.5t45.5 75t67 49t91 17.5q47 0 82 -8.5t69 -22.5l-13 -65q-23 8 -41 13t-34.5 9t-32.5 5.5t-35 1.5q-28 0 -51.5 -8.5t-41.5 -28.5t-30 -52.5t-18 -81.5h194v-58h-198v-23v-27v-39h198v-59h-193q12 -92 47.5 -131t93.5 -39q22 0 40 2.5t34.5 7
t33 11t37.5 15.5l20 -60q-35 -17 -72.5 -28t-89.5 -11q-53 0 -92 17t-67 47.5t-44.5 73.5t-24.5 95h-77v59h71q-1 12 -1 24v25v20q0 10 1 20h-71z" />
    <glyph glyph-name="Eth" horiz-adv-x="601" 
d="M20 292v65h76v294h182q139 0 206.5 -83.5t67.5 -240.5q0 -166 -68.5 -246.5t-214.5 -80.5h-173v292h-76zM307 357v-65h-128v-228h84q50 0 87.5 10t62.5 38t37.5 77t12.5 128v25q0 72 -12 118.5t-37 74t-63 38t-90 10.5h-82v-226h128z" />
    </font>
</defs>
</svg>
