<?xml version="1.0" standalone="no"?>
<!DOCTYPE svg PUBLIC "-//W3C//DTD SVG 1.1//EN" "http://www.w3.org/Graphics/SVG/1.1/DTD/svg11.dtd" >
<svg>
<metadata>
Created by FontForge 20090914 at Thu Jan 13 00:43:50 2011
 By apache
Copyright (c) Design: Mehmet Gozetlik,, 2009. All rights reserved.
</metadata>
<defs>
<font id="PublicGothicVintage" horiz-adv-x="426" >
  <font-face 
    font-family="Public Gothic Vintage"
    font-weight="400"
    font-stretch="normal"
    units-per-em="1000"
    panose-1="2 0 5 6 3 0 0 2 0 4"
    ascent="800"
    descent="-200"
    x-height="645.5"
    cap-height="647.5"
    bbox="-30.4444 -155 538.4 824.8"
    underline-thickness="20"
    underline-position="-123"
    unicode-range="U+0020-U+FB02"
  />
<missing-glyph horiz-adv-x="241" 
 />
    <glyph glyph-name=".notdef" horiz-adv-x="241" 
 />
    <glyph glyph-name="space" unicode=" " horiz-adv-x="241" 
 />
    <glyph glyph-name="exclam" unicode="!" horiz-adv-x="195" 
d="M12 125q1 0 0.5 0.5t0.5 0.5q10 1 27 1.5t34 0.5t31 -1.5t17 -4.5q4 -4 5.5 -11.5t1.5 -16t-1 -17t-1 -13.5q0 -18 1 -35t-6 -24q-3 -3 -10.5 -4t-16.5 -1t-17.5 0.5t-13.5 0.5q-14 0 -32.5 -1t-25.5 5q-5 5 -4.5 21.5t0.5 34.5q0 22 -1 40.5t11 23.5zM12 645q8 3 24.5 2
t33.5 -1q13 0 30 0.5t22 -4.5q4 -4 5.5 -18t1.5 -31.5t-1 -35t-1 -28.5v-294v-32t-5 -22q-8 -8 -25 -6t-33 2q-14 0 -33 -1t-25 5q-4 4 -5 20t-1 35t1 36t1 24v235q0 17 -0.5 42.5t0.5 46.5q0 11 1 16t9 9z" />
    <glyph glyph-name="quotedbl" unicode="&#x22;" horiz-adv-x="380" 
d="M2 637q8 4 24.5 3t33.5 -1q13 0 30 0.5t22 -4.5q4 -4 5.5 -18t1.5 -31.5t-1 -35.5t-1 -29v-121v-32t-5 -22q-8 -8 -25 -6t-33 2q-14 0 -33 -1t-25 5q-4 4 -5 20t-1 35t1 36t1 24v63q0 17 -0.5 42.5t0.5 46.5q0 11 1 16t9 8zM187 363q-1 13 -0.5 30t0.5 30v177v-237z
M187 363v237v18q1 7 3 11.5t9 6.5q10 3 25 1.5t32 -1.5q13 0 29 0.5t21 -4.5q3 -2 5 -14v-54v-153q0 -4 -1.5 -4t-3 1t-3.5 1.5t-2 -2.5q2 -8 5 -9t5 -7v-34q-2 -9 -5 -11q-3 -3 -10 -4.5t-16 -1.5t-17.5 0.5t-14.5 0.5q-7 0 -15.5 -0.5t-16.5 0t-14.5 1.5t-9.5 4
q-3 2 -5 17z" />
    <glyph glyph-name="numbersign" unicode="#" horiz-adv-x="502" 
d="M199 654q2 2 2.5 5.5t1.5 6.5q-2 0 -3 1t-3 0q-1 -4 -2 -7.5t4 -5.5zM209 659l3 -3t4 1q2 7 -2.5 7t-4.5 -5zM177 651q0 -4 6 -4q0 6 -4 6zM370 651q-2 2 -7 2q-2 -7 3 -7t4 5zM380 616q6 -6 12 0q1 8 -6 8t-6 -8zM203 606q4 -4 8 0q0 4 -5 6q0 -2 -2 -2.5t-1 -3.5z
M193 586q2 -3 9.5 -3.5t8.5 4.5q-3 5 -9.5 5t-8.5 -6zM341 567h3v3h-3v-3zM167 529q3 -2 3 2.5t-3 2.5v-5zM347 499q0 5 -6 6q-3 -4 0.5 -6.5t5.5 0.5zM418 484q-10 4 -8.5 -2t4.5 -6q4 0 4 8zM376 480h3v3h-3v-3zM346 458h2v3h-2v-3zM337 445q2 -3 5 -2.5t5 2.5v3
q-2 2 -6.5 2t-3.5 -5zM376 263q2 2 1.5 4t-2.5 2q-4 -4 1 -6zM279 143q8 2 9 7q-2 3 -2.5 5.5t-5.5 1.5q-1 -3 -2 -7.5t1 -6.5zM241 112h3q0 2 0.5 2t0.5 1q-2 0 -2 1t-2 1v-5zM338 202l-13 -95q0 3 -4 2v-3h4l-8 -59q-1 -6 -7 -11.5t-12 -5.5h-50q-10 0 -16 6.5t-4 15.5
l19 148q2 11 -9 11h-62q-10 0 -10 -9l-21 -155q-1 -6 -7 -11.5t-12 -5.5h-50q-10 0 -16 6.5t-4 15.5l20 148q0 11 -10 11h-44q-8 0 -14 6t-6 14v46q0 8 6 14t14 6h59q10 0 10 9l12 86q0 5 -3 8q-4 -2 -5 -4q1 -2 2.5 -4t-0.5 -4q-5 2 -6.5 6t-2.5 9h-22q-6 -4 -15 -3
q-1 1 -1 1.5t-1 1.5q-14 0 -19 14q-7 -1 -13.5 -1t-12.5 5q2 2 2.5 4.5t2.5 4.5q3 -2 7 -3t7 -3q3 0 6 3v43q0 8 5 13.5t13 6.5q-2 0 0 2q1 0 1 2q4 0 4 -4h16q-2 8 2 12q8 0 4 -8q0 -2 2 -4h31q10 0 10 9l21 155q1 6 7 11.5t12 5.5h50q10 0 16 -6.5t4 -15.5l-1 -8
q-6 0 -9.5 2.5t-8.5 4.5q-6 -7 -12 -10q-10 0 -15 -3t-13 -5l3.5 -10.5t2.5 -10.5q14 16 42 13q3 -1 4 -3t3 -4l-3 -20h-1v-4l-11 -90q-2 -11 9 -11h62q10 0 10 9l2 13q-2 0 -5 -3q-5 7 5 7l19 138q1 6 7 11.5t12 5.5h50q10 0 16 -6.5t4 -15.5l-16 -123h-1l-2.5 -2.5
t0.5 -4.5h2v-3q6 2 9 -3q0 -2 -2 -6q-5 -3 -10 -9q3 -5 5 -6q-3 -3 -1 -5t2 -7q-5 -2 -7 -10.5t2 -12.5q6 3 10 5.5t9 4.5q-3 6 -1.5 9t3.5 8q-6 3 -10 7q2 2 6 2.5t4 -3.5h22q8 0 14 -6t6 -14v-1q-6 -4 -7 -8q3 -2 7 -10v-28q0 -8 -6 -14t-14 -6h-48q-10 0 -10 -9l-11 -86
q-2 -11 9 -11h34q8 0 14 -6t6 -14v-46q0 -8 -6 -14t-14 -6h-49q-10 0 -10 -9zM275 392q0 11 -10 11h-62q-10 0 -10 -9l-12 -86q0 -11 10 -11h62q10 0 10 9zM259 370q4 4 7 0q1 -2 0 -3t-2 -3q-5 0 -5 6zM382 299q-4 -1 -5 2t1 5q4 1 4 -7zM443 315q-4 -1 -4.5 0.5t1.5 3.5
q3 0 3 -4zM378 315q-7 0 -6.5 12t3.5 15q2 1 2 0t2 -1q2 -5 2 -14t-3 -12zM398 357v3h3v-3h-3zM455 363v3h3v-3h-3zM32 388v2h3v-2h-3zM22 396q2 -2 -2 -4t-2 3q0 1 1 1h3zM15 405q2 2 2 1t3 -1q2 -5 -2.5 -5t-2.5 5zM450 462q3 1 4 4q1 -1 1 -4h-5zM443 481q-4 4 -4 7
q1 0 2 -0.5t2 -0.5v-6zM9 502q-7 -1 -3 5q3 -1 3 -5zM423 502q-6 -5 -13 -1l-12 7v2l6 6q-2 2 -2.5 3.5t-2.5 3.5q5 5 15.5 -2.5t8.5 -18.5zM86 523q0 2 1 2t2 2q3 -3 4 -3q-1 -2 -2 -2t-1 -2q-2 0 -2 1t-2 2zM0 533v3h3v-3h-3zM92 533q-1 2 0 3t1 3q3 -1 2.5 -4t-3.5 -2z
M397 534q-1 4 2.5 5.5t5.5 -0.5v-5q-1 -2 -4 -2t-4 2z" />
    <glyph glyph-name="quotesingle" unicode="'" horiz-adv-x="176" 
d="M2 637q8 4 24.5 3t33.5 -1q13 0 30 0.5t22 -4.5q4 -4 5.5 -18t1.5 -31.5t-1 -35.5t-1 -29v-121v-32t-5 -22q-8 -8 -25 -6t-33 2q-14 0 -33 -1t-25 5q-4 4 -5 20t-1 35t1 36t1 24v63q0 17 -0.5 42.5t0.5 46.5q0 11 1 16t9 8z" />
    <glyph glyph-name="parenleft" unicode="(" horiz-adv-x="237" 
d="M184 764q6 -8 5.5 -23t-0.5 -35q0 -14 1 -33t-5 -25q-3 -3 -8.5 -3t-12.5 0.5t-14.5 0t-13.5 -4.5q-5 -3 -7 -12t-2.5 -20t0 -22.5t0.5 -20.5v-489q0 -20 -0.5 -43.5t7.5 -30.5q3 -3 10.5 -3.5l15.5 -1t15 -1t10 -3.5q4 -4 5 -11t0.5 -14.5t-2 -15t-2.5 -11.5q1 -6 2 -15
l2 -18.5t0 -17.5t-5 -12q-6 -6 -25.5 -5t-31.5 1h-46.5t-35.5 8q-17 9 -29.5 25t-14.5 38q-2 16 -1 36.5t1 41.5t-0.5 41t0.5 36q0 6 0.5 11t3.5 10q-4 8 -4 20q-2 30 -1 65.5t1 74.5v276q0 38 -1.5 73t1.5 65q3 27 23 47.5t47 23.5q13 2 27.5 1t30.5 -1q14 0 27.5 0.5
t26.5 -3.5zM99 739q5 -2 13 -1t10 6q-1 2 -5.5 3.5t-9.5 1t-8 -2.5t0 -7zM136 739q0 2 2 2.5t1 3.5q-4 2 -6 2q-2 -5 3 -8zM30 693q-4 -1 -5 -5v-46q0 -13 -0.5 -25.5t3.5 -21.5q8 -4 22.5 -3.5t24.5 2.5q4 9 3.5 22.5t-0.5 26.5q0 14 0.5 26.5t-3.5 20.5q-8 5 -21 3t-24 0z
M51 540q5 -3 14 -3t11 5q-1 7 -6 13q-8 -1 -14 -3.5t-5 -11.5zM21 545q0 -3 2.5 -5t6.5 -2.5t7 1t3 4.5q0 5 -9.5 7.5t-9.5 -5.5zM109 402q-2 2 -2.5 4t-5.5 1q-2 -6 2.5 -7.5t5.5 2.5zM166 -79h3v3h-3v-3z" />
    <glyph glyph-name="parenright" unicode=")" horiz-adv-x="237" 
d="M28 -124q-6 2 -3.5 4.5t2.5 7.5q-3 1 -4.5 -0.5t-3.5 -4t-4 -4.5t-7 -1q-9 8 -8 24t1 31q0 16 -0.5 31.5t1.5 28.5q5 6 13.5 6.5t17.5 0.5t17.5 2t11.5 10q5 12 3 36.5t-2 44.5q0 35 0.5 64t-0.5 61q-2 5 2.5 5t5.5 4q-1 8 1.5 12t2.5 11q-3 0 -4 -1.5t-2 -4t-2 -4
t-4 -0.5v325q5 2 14.5 0t13.5 3q1 4 -2.5 6.5t-7.5 3.5q-6 2 -10 -1.5t-8 -1.5q-3 20 0.5 36t-4.5 27q-5 6 -13 6.5t-16.5 0.5t-16 0.5t-11.5 6.5q-2 25 -1 52.5t0 53.5q5 12 21.5 11.5t42.5 -0.5q14 0 27.5 0.5t24.5 -0.5q26 -3 46 -22t24 -45q2 -22 1 -46.5t-1 -49.5v-567
q0 -16 1 -36t0 -39.5t-5 -35t-14 -21.5q-2 -1 -3.5 -1t-3.5 -2q-3 -3 -4 -7.5t-5 -7.5q-9 -8 -24.5 -10.5t-33 -2.5t-35.5 0.5t-32 -0.5zM102 564q3 2 3.5 7t-4.5 6q-3 -2 -3 -7.5t4 -5.5zM91 527q6 0 6 6q-3 4 -6.5 0.5t0.5 -6.5zM76 478q-2 -5 -1 -13.5t7 -8.5
q8 3 6.5 9.5t-4.5 12.5q-4 -1 -5 0.5t-3 -0.5zM117 433q-3 7 -10 6.5t-12 -5.5q0 -5 0.5 -8.5t1.5 -7.5q-2 -3 -5.5 -5t-6.5 -5q1 -4 0.5 -8.5t0 -8.5t3 -6t9.5 -2q4 1 4 4.5t3 4.5q7 -2 11 0.5t7 6.5q-3 8 -5.5 15.5t-0.5 18.5zM98 274q5 0 7 3t5 5q-5 5 -5.5 13t-7.5 10
q-7 -6 -3 -13.5t4 -17.5zM85 270q4 -1 4.5 2.5t-3.5 3.5q0 -2 -1 -3t0 -3zM165 174q2 3 1.5 8t-5.5 4q-2 -3 -1.5 -7.5t5.5 -4.5zM102 30q4 1 4 6.5t-5 4.5q-4 -1 -3.5 -6t4.5 -5zM69 -31v-3q6 -6 12 0q0 5 -5 5.5t-7 -2.5zM86 -31q0 -4 6 -4q0 2 2 4q-4 4 -8 0zM98 -38
q2 -1 3.5 -2.5t5.5 -0.5q3 4 1.5 7t-4 4t-5 -0.5t-1.5 -7.5zM107 -118q2 2 1.5 5.5t-4.5 1.5q-2 -2 -1.5 -5t4.5 -2z" />
    <glyph glyph-name="asterisk" unicode="*" horiz-adv-x="449" 
d="M328 313q2 5 12 5t15 -2q-2 -4 -12 -4.5t-15 1.5zM147 603q5 0 7 3l4 6q-4 6 -8 2v-2q-2 -2 -3 -2q-1 -3 0 -7zM176 593q1 2 2 3.5t1 3.5q-2 2 -3 4t-4 2q-4 -2 -2.5 -7t6.5 -6zM240 600h3v3h-3v-3zM186 580q7 0 6 7q-6 1 -8 -2t2 -5zM199 580v-4q2 -2 8 -2t5 5
q-2 2 -6.5 2.5t-6.5 -1.5zM186 568h6q2 8 -6 6v-6zM38 558q-3 3 -5 0q0 -2 3 -2t2 2zM100 545q2 -2 4.5 -1t1.5 4q-4 2 -6 -3zM48 529q2 -8 7 -8q2 0 2.5 1t2.5 1q1 8 -4.5 9.5t-7.5 -3.5zM113 505q6 -2 10.5 5t1.5 13q-2 1 -2 1.5t-2 0.5l-4 -10zM158 480q-1 4 -5 6
q-1 -1 -1 -2q2 -2 6 -4zM157 471q3 3 1 9q-2 -6 -3 -8q1 0 1 -0.5t1 -0.5zM135 473q2 -1 3 -0.5t2 0.5l2 2q0 2 -0.5 4t-0.5 4q-6 -2 -6 -5h2v-3h-3q0 -1 0.5 -1t0.5 -1zM231 449q2 -3 8 -2.5t5 5.5q-2 3 -8 3t-5 -6zM227 429q7 0 8 2q2 7 -5 7l-3.5 -3.5t0.5 -5.5zM174 414
q2 2 3.5 7.5t-3.5 6.5l-2.5 -7.5t2.5 -6.5zM228 416q6 0 6 6q-3 3 -6 0t0 -6zM54 356q-7 5 -8.5 13t3.5 15l50 67q8 11 -5 15q-20 7 -41 13.5l-39 12.5q-8 2 -11.5 9.5t-1.5 15.5l22 66q2 8 9.5 11.5t15.5 1.5l55 -19l-4.5 -6.5t0.5 -9.5q11 2 13 13l6 -1q4 -14 17 -13l3 3
q1 4 -1 10q2 4 2 6q2 2 4.5 3t3.5 4q-3 2 -8 2v23l-1 1q0 4 1 5v46q0 7 4 12q-3 1 -3.5 4.5t1.5 5.5q2 -2 4 -2.5t3 -2.5q2 1 5 2t6 1h23q0 1 0.5 1.5t0.5 1.5q5 1 9 -1t7 1q1 5 -1 6.5t-3 5.5q0 6 3.5 8.5t5.5 7.5q4 0 5.5 -2.5t4.5 -3.5q-2 -3 -4.5 -5t-4.5 -4
q0 -4 4 -7.5t2 -5.5q0 -3 -2 -3h20q8 0 14 -6t6 -14v-84q0 -12 13 -9l40 13.5l38 12.5q8 2 15.5 -1.5t9.5 -11.5l22 -66q2 -8 -1.5 -15.5t-11.5 -9.5l-24 -8q4 -9 3.5 -20t1.5 -22q-5 -2 -9 -4t-9 0q-6 2 -7.5 6t-1 9.5t1.5 12t0 12.5l-36 -12q-14 -4 -5 -15l25 -34.5
l24 -32.5q5 -7 3.5 -15t-7.5 -13l-55 -41q-7 -5 -15 -4t-13 8l-49 69q-9 11 -16 0l-25.5 -34.5t-23.5 -34.5q-5 -7 -13.5 -8t-15.5 4zM371 441q-3 0 -3.5 2.5t1.5 4.5q2 0 2.5 -1t1.5 -1q2 -3 0 -3t-2 -2zM372 484q4 0 6 -4.5t2 -9.5t-2 -9.5t-6 -4.5q-4 5 -4.5 14.5
t4.5 13.5zM99 563v2h3v-2h-3zM320 595q1 5 5.5 8.5t8.5 -1.5q0 -5 -5 -8.5t-9 1.5zM362 605v3h3v-3h-3zM350 615q1 2 2 2t1 2q3 0 3 -6q-2 0 -6 2zM424 621q-5 1 -5 3q1 2 5.5 2.5t-0.5 -5.5zM349 634q2 2 5.5 1t1.5 -6q-8 0 -7 5zM128 647q0 -5 -4.5 -5t-2.5 6q3 1 7 -1z
M118 679q-3 4 0 7q5 0 5 -3.5t-5 -3.5z" />
    <glyph glyph-name="plus" unicode="+" horiz-adv-x="527" 
d="M289 29q2 4 -0.5 5t-4.5 -1q-1 -4 5 -4zM279 61v2q-2 3 -3.5 -0.5t3.5 -1.5zM284 167q1 -1 2.5 -0.5t1.5 2.5q-1 1 -2.5 0.5t-1.5 -2.5zM233 202q1 -2 4 -1.5t5 0.5q1 5 -4 5.5t-5 -4.5zM56 214h39q0 1 -5.5 1.5t-12.5 0.5h-13.5h-7.5v-2zM193 238h3v2h-3v-2zM150 247
q2 -1 3 -2.5t4 -0.5q2 4 -1.5 5.5t-5.5 -2.5zM138 255q0 2 2 2q0 6 -3 4q0 -1 -0.5 -3.5t1.5 -2.5zM126 268v5h-5q0 -5 5 -5zM111 280h2v2h-2v-2zM230 431q3 0 5 5q-5 0 -5 -5zM221 424q4 0 5 1q0 4 -1 4q-1 -2 -2.5 -2.5t-1.5 -2.5zM266 407q-2 0 -5 -1.5t-8 -3.5
q-2 0 -4 0.5t-3 -0.5q-4 -2 -5 -5t-3 -4q-2 0 -4 1.5t-4 -0.5q2 -6 8 -5t8 -5q2 2 1 7t4 4q7 -7 15 -11q1 2 2.5 3.5t2.5 4.5q-1 2 -3 2t-1 3q4 2 5.5 0t3.5 0q-2 8 -10 10zM196 391q5 -1 5 1.5t2 4.5q-5 1 -7 -6zM213 371q0 7 -3 10q1 2 3 3t2 3q-4 0 -5 2q0 2 2.5 2.5
t1.5 3.5q-5 0 -7 -3t-1.5 -7.5t2.5 -8.5t5 -5zM279 388q0 2 1 2t1 2q-2 2 -4 -0.5t2 -3.5zM243 371q0 1 1 1.5t1 1.5q-2 3 -4 0.5t2 -3.5zM252 370q2 -2 2 1.5t-2 1.5v-3zM293 16q0 -6 -5 -10.5t-11 -4.5h-86q-6 0 -11 4.5t-5 10.5v143q0 6 -4.5 10.5t-11.5 4.5h-142
q-6 0 -11 5t-5 11v87q0 6 5 10.5t11 4.5h14q-1 -2 -1.5 -3.5t-1.5 -3.5q6 -2 12 -1q0 2 -1 4t0 4h5q2 -1 3.5 -2t4.5 -1q1 1 1 3h106q7 0 11.5 5t4.5 11v142q0 6 5 10.5t11 4.5h74v-4q2 0 4 4h8q8 0 12 -6q0 -3 3 -3q0 -2 0.5 -3.5t0.5 -2.5v-5h-1q-1 -1 -1 -3t2 -3v-35
q-4 0 -9 -3q0 -5 2.5 -9t6.5 -2v-82q0 -8 7 -13q-1 -8 -1.5 -16t-0.5 -16q-2 -17 -1 -33.5t1 -35.5q0 -5 -1 -11.5t3 -10.5q-7 -5 -7 -13v-143zM395 259q-9 4 -11 -7q8 -2 10.5 -7.5t10.5 -6.5q2 5 -1.5 9t-2.5 10q1 2 4 2.5t5 1.5q-2 7 -7 3t-8 -5zM409 248q3 5 -1 5
q-2 -1 -1.5 -2.5t2.5 -2.5zM455 235q2 -1 2.5 -2.5t3.5 -0.5q0 2 0.5 2.5t0.5 2.5q-2 2 -3.5 1t-3.5 -3zM308 292h1h79q1 -3 0.5 -5t1.5 -4q1 2 0.5 4.5t1.5 4.5h33q-2 -2 -1 -5.5t7 -1.5q3 0 5 5l-2 2h17q8 0 13 -7q-3 -1 -3 -4q2 -1 3 -2l3 -3v-86q0 -6 -5 -11t-11 -5
h-142h-3q1 5 0 10t0 10q0 5 1.5 8.5t1.5 8.5q1 11 0 23t-1 23q0 9 0.5 18t-0.5 17zM293 398v-7q-2 2 -4 6q2 1 4 1z" />
    <glyph glyph-name="comma" unicode="," horiz-adv-x="228" 
d="M12 158q6 2 15 2.5t19.5 0l21 -1t18.5 -0.5t18.5 0.5t20.5 0.5t18 -1t11 -4t4 -15.5t1 -27.5t-0.5 -29t-0.5 -20q0 -23 2 -47t-2 -47q-3 -23 -19 -41t-33 -23q-11 -4 -28.5 -4.5t-35.5 -0.5h-20.5t-15.5 5q-3 3 -4 9.5t-1 15.5t0.5 18.5t0.5 17.5v131q0 18 -0.5 37
t10.5 24zM58 102q0 -3 2 -4.5t2 -3.5q9 0 12 7q-3 1 -8.5 2t-7.5 -1z" />
    <glyph glyph-name="hyphen" unicode="-" horiz-adv-x="307" 
d="M92 272h3q0 2 1 2.5t0 2.5h-4v-5zM96 256q4 -2 10.5 -1.5t10.5 1.5q-1 8 8 8q0 -3 -1 -5t3 -3q-1 5 1 7t5 6q-4 2 -5.5 1t-6.5 -1q-3 2 -2.5 6.5t-4.5 4.5q-6 -5 -9.5 -11.5t-8.5 -12.5zM159 280q1 -5 3.5 0.5t-2.5 0.5q0 -1 -0.5 -0.5t-0.5 -0.5zM140 278q4 -1 6.5 -0.5
t3.5 5.5q-3 -1 -5.5 0.5t-6.5 -0.5q2 -1 2 -5zM125 278q6 0 6 3q-2 0 -2 1t-2 2q-2 -4 -2 -6zM169 277h10q0 5 -2.5 6.5t-6.5 3.5q-1 -2 -1 -10zM107 291q-1 2 -2.5 1.5t-3.5 0.5q-2 -5 2.5 -5.5t3.5 3.5zM96 294q-1 0 -1.5 1t-2.5 1q-2 -3 1.5 -3.5t2.5 1.5zM117 287
q3 0 2.5 3.5t0.5 6.5h1h23q1 -1 1 -1.5t1 -1.5q2 -1 2.5 0.5t2.5 2.5q17 0 40.5 0.5t43.5 -0.5q11 -1 16 -1.5t9 -8.5q3 -8 2 -25t-1 -34q0 -12 0.5 -29.5t-4.5 -22.5q-4 -4 -18 -5t-31.5 -1t-35.5 1t-29 1h-83q-15 0 -32 -0.5t-22 4.5q-8 8 -6 25.5t2 32.5q0 14 -1 33t5 25
q3 4 16 5.5t29 1.5t32.5 -1t27.5 -1q2 -2 1.5 -6t4.5 -4z" />
    <glyph glyph-name="period" unicode="." horiz-adv-x="228" 
d="M5 6q-5 19 -4.5 50.5t0.5 60.5v27.5t11 15.5q6 2 15.5 2t20 -0.5l20.5 -1t17 -0.5q6 0 16 1t20.5 1t19.5 -1t12 -5q4 -4 5 -13.5t1 -20.5t-0.5 -22.5t-0.5 -18.5t0.5 -18.5t0.5 -22.5t-1 -20.5t-5 -13.5t-13.5 -5t-21 -1t-22 1t-17.5 1h-39q-9 0 -18.5 -0.5t-16.5 4.5z
" />
    <glyph glyph-name="slash" unicode="/" horiz-adv-x="356" 
d="M288 644q1 -5 -3.5 -3.5t-6.5 0.5q-5 -13 -14 -18q-2 -11 -3.5 -21.5t-7.5 -17.5q3 -4 6 -7t5 -8q-7 -4 -5 -21q-7 -2 -7 2t-4 5q-2 -9 0 -19q8 0 12 3t9 1q-2 8 -1.5 19t10.5 13q-5 7 -3.5 11.5t3.5 12.5q0 6 -4 3t-5 2q-2 5 3.5 7.5t6.5 7.5q-1 3 -1.5 6.5t-2.5 5.5
q0 4 5 3t8 1q3 3 2 6.5t2 5.5q10 2 14 -0.5t5 -8t-1 -13t-5 -15.5q-7 -19 -14.5 -42l-12.5 -39q-5 -2 -4.5 1t-3.5 2q-4 -4 -2 -9t5 -7l-69.5 -205l-69.5 -205q-5 -2 -6 2t-4 1q-5 -6 -1.5 -10.5t5.5 -8.5q-6 -19 -12.5 -36.5t-12.5 -37.5q-5 -2 -7.5 -5.5l-5.5 -7.5h-81
q-2 2 -4.5 3.5t-4.5 3.5q2 17 8 33t11 33l73.5 216.5l73.5 217.5q2 2 3.5 4t3.5 5q-2 8 1.5 15t8.5 12q-2 12 3 24.5t10 26.5q7 18 10.5 30.5t14.5 20.5h38q4 1 5.5 -1.5t4.5 -4.5q2 3 8 5.5t11 -0.5zM184 532h5q0 3 -5 3v-3zM244 532q-2 -2 -1.5 -6t1.5 -6q4 1 6 3t6 3
q0 5 -5 6t-7 0zM250 510q2 2 0 5t-4 4q-3 -3 -1.5 -6t5.5 -3zM170 463q8 3 5 11t-9 8q-2 -4 1.5 -8.5t2.5 -10.5zM90 222q5 -2 6 2.5t-3 5.5l-3 -3t0 -5zM119 139q8 -1 10 9t-3 15q-8 0 -10 -9.5t3 -14.5zM62 65q0 9 -5 8q0 -9 5 -8z" />
    <glyph glyph-name="zero" unicode="0" 
d="M181 644q1 -6 -4 -6.5t-6 -5.5q2 -4 4.5 -1.5l4.5 4.5q3 2 9 5t9 5q4 1 8 -3q13 5 32.5 4t33.5 -2q3 -3 1 -6.5t0 -5.5q3 -3 5.5 1.5t4.5 1.5q-1 -10 0.5 -18t8.5 -11q2 5 4 11.5t2 14.5q11 -3 18.5 -8t10.5 -16q3 -1 5.5 -2.5t4.5 -3.5q8 -12 13.5 -25.5t6.5 -29.5
q3 -34 1.5 -75t-1.5 -84v-238q1 -5 -3 -5t-4 -5q-1 -6 3 -6t4 -4q-1 -11 0 -23t-4 -18q0 -16 -7.5 -31t-20 -27.5t-29 -20.5t-35.5 -10q-9 -1 -18.5 0.5t-20.5 -0.5q-2 3 -1.5 7t-2.5 6q-19 0 -26 -13q-14 2 -28.5 0.5t-28.5 1.5q5 4 3.5 9.5t-4.5 10.5q-5 -4 -8 -12.5
t-10 -7.5q0 25 4.5 58t-2.5 59q-12 -2 -12 -14t-2 -26q0 -5 -1.5 -9t-2.5 -9q-2 -17 1.5 -32.5t1.5 -26.5q-5 -2 -8 1.5t-9 -1.5q-5 5 -11 5t-11 2q-26 11 -43 36.5t-20 57.5q-2 38 0 78t2 82q0 65 -1.5 129t-0.5 123q4 2 9 2t7 2q-2 4 -5.5 9t-5.5 10.5t-2 11t5 10.5
q6 2 8.5 -1t7.5 -2q0 5 1 5q0 4 -2 5t-5 1.5t-6 0.5t-4 2q6 24 21 40t38 25t51.5 10.5t61.5 -2.5zM183 627q4 -4 6 1q-2 2 -4 1.5t-2 -2.5zM221 619q3 -2 7 -1q0 3 1 3q0 4 -5 6q-1 -2 -2.5 -3t-0.5 -5zM145 612q6 -4 10 -4q5 4 3.5 8t-5 6t-6.5 0t-2 -10zM177 619
q3 -2 3 2.5t-3 2.5v-5zM198 587q1 -2 4 -1.5t3 3.5q-2 0 -2.5 1t-2.5 2q0 -2 -1 -2.5t-1 -2.5zM151 576q7 -1 9 7q-1 3 -5 4q-2 -2 -4.5 -5t0.5 -6zM61 567q-5 -2 -9.5 -3.5t-9.5 -2.5q3 -6 2 -13t-1.5 -14t0.5 -11.5t8 -6.5q5 -1 8.5 0.5l8.5 3.5q-2 14 -1.5 25.5
t-5.5 21.5zM86 562q-5 -4 -5 -13.5t5 -13.5q4 0 6 4.5t2 9.5t-2 9t-6 4zM187 548q2 2 2 6t-5 3q-2 -2 -1.5 -6t4.5 -3zM228 550q-1 -7 2 -4.5t-2 4.5zM84 519q0 2 2 2.5t1 3.5q-2 0 -2 1t-2 0q-2 -2 -1.5 -4.5t2.5 -2.5zM224 125q2 3 4.5 5.5t3.5 7.5q3 10 2.5 22.5
t-1.5 24.5t0 22.5t7 17.5q-8 12 -2 24q-2 2 -4 3.5t-2 6.5q0 64 0.5 127.5t-0.5 123.5q-4 6 -10 10h-62q-3 2 -6.5 5t-5.5 -3q-6 -2 -11.5 -3t-8.5 -6q-2 -93 -2 -190t2 -191q4 -2 7.5 -5.5t11.5 -1.5q2 -8 8.5 -12t11.5 -10q2 -5 2 -11.5t5 -8.5q4 3 0.5 6t-0.5 6
q5 -5 12.5 -5.5t12.5 5.5q-3 8 -5 15.5t-7 14.5h27q3 -1 1.5 -7t5.5 -6q5 1 3 6.5t0 6.5zM349 355q2 0 1 2.5t0 4.5h-4q0 -2 -0.5 -5.5t3.5 -1.5zM238 285q2 0 3 -1t3 0q0 2 2 4q-2 2 -4.5 0.5t-3.5 -3.5zM113 271q5 5 -3 7q-2 -2 -2 -4.5t5 -2.5zM269 257q0 3 -3 2t-5 0
q-2 -4 3.5 -5t4.5 3zM349 212q3 8 -3 9q-2 -2 -2 -6t5 -3zM283 202q1 4 -2.5 3.5t-5.5 1.5q-1 -4 3 -3.5t5 -1.5zM247 172q1 5 -2.5 10t1.5 13q-2 0 -2.5 2t-3.5 1q-3 -7 -1.5 -16t8.5 -10zM276 170h3v3h-3v-3zM298 117q-2 9 -9 10q-2 -3 1 -7t8 -3zM308 117q3 -2 3 0.5
t1 3.5h-4v-4zM293 96q4 8 -4 7q0 -7 4 -7zM17 92q5 -2 8.5 -3t7.5 -3q2 5 6.5 6.5t6.5 6.5q-3 -1 -7 -1h-8.5t-8.5 -1t-5 -5zM327 93q3 -3 11 -3q1 5 -4.5 6.5t-6.5 -3.5zM209 70q5 -6 3.5 -15t-0.5 -15q10 -2 13 3t3 13v16.5t4 12.5l-4.5 7t-8.5 4q-2 -8 -5 -13t-5 -13z
M314 92q1 4 -2.5 4h-6.5q0 -4 3.5 -5t5.5 1zM52 82q3 3 0 4q0 -2 -1 -2.5t1 -1.5zM20 82h3v3h-3v-3zM293 57q7 2 12 13q-2 1 -3 3t-4 1q-2 -2 -4.5 -7.5t-0.5 -9.5zM32 50q3 -7 12 -8q2 5 1.5 13t-3.5 11h-4q-1 -10 -6 -16zM83 44q5 -1 6 2.5t1 8.5q-2 0 -2 1t-2 1
q-1 -3 -3.5 -6.5t0.5 -6.5zM169 37q2 -6 10 -7.5t13 2.5q0 6 1 10t0 11q-10 -1 -15 -5.5t-9 -10.5zM70 26q9 0 8 8q-4 -1 -6.5 -2t-1.5 -6zM169 22q2 5 -2 6q-2 -2 -1.5 -4t3.5 -2zM86 11q2 2 3 5.5t3 6.5q-2 1 -2.5 2.5t-3.5 0.5q-3 -2 -4.5 -8t4.5 -7zM157 9q4 -1 4.5 2.5
t-3.5 3.5q0 -2 -1 -3t0 -3zM176 12h3v3h-3v-3z" />
    <glyph glyph-name="one" unicode="1" horiz-adv-x="281" 
d="M-19 644q7 3 26 2.5t33 -0.5h115q12 0 29 1t23 -5q3 -3 4 -11.5t1 -20v-24v-21.5q0 -54 0.5 -103t-0.5 -101q0 -2 -1 -3t-1 -3q4 -42 3 -91.5t-1 -99.5v-82q0 -9 0.5 -21t0 -23.5t-1.5 -20.5t-4 -12q-5 -5 -23.5 -4.5t-34.5 0.5q-15 0 -33.5 -1t-24.5 5t-5 24t1 37v388
q0 17 1 35.5t-4 25.5q-3 5 -13.5 6.5t-23 1.5t-25.5 -1t-22 -1h-14.5t-10.5 4q-7 7 -5 24t2 36q0 9 -1 18.5t-1 17.5t2.5 14.5t8.5 8.5zM151 610q-2 -3 -1.5 -3.5t2 0t2 1.5t-2.5 2zM149 331h3v3h-3v-3zM197 281q1 4 -0.5 5t-3.5 3q-2 -2 -1.5 -5.5t5.5 -2.5zM164 193
q3 -5 6 -1.5t4 8.5q-4 3 -6.5 -0.5t-3.5 -6.5zM170 185q-1 -4 1 -5.5t3 -5.5q1 -5 -0.5 -11t7.5 -5q0 10 -1.5 16t0.5 16q-3 2 -7 1t-3 -6zM194 174h3v3h-3v-3z" />
    <glyph glyph-name="two" unicode="2" 
d="M327 111q-6 -1 -13.5 -5t-9.5 -12q5 -8 14.5 -12.5t20.5 -2.5q6 1 9 4t8 2v-63q-3 -2 -8.5 0t-10.5 -1q1 -6 9 -4.5t9 -5.5q-1 -10 -11 -8.5t-18 -0.5q-5 -1 -5.5 3t-4.5 4q-6 -5 -11.5 -5h-15.5q-8 -1 -13 -1t-13 2q0 7 -6.5 7.5t-6.5 8.5q-6 2 -5.5 -3.5t-4.5 -6.5
t-5 4t-4 6q-3 -5 -7.5 -8.5t-8.5 -8.5q-5 2 -8 0.5t-8 -3.5h-144q-14 0 -30.5 -0.5t-21.5 7.5q-4 7 -2.5 23.5t1.5 30.5q0 41 -1.5 84.5t1.5 80.5q2 19 9 31t17.5 20.5t24 15l27.5 13.5l53 27l52 27q13 7 26.5 12.5t21.5 17.5v60q0 21 1 42t-11 28q-12 -1 -26.5 0t-29 1
t-25.5 -1.5t-15 -9.5v-24q0 -14 0.5 -28t-7.5 -18q-7 -4 -23 -3t-33 1q-20 0 -38 -0.5t-23 7.5q-4 8 -2.5 25t1.5 27q0 18 -1 36.5t1 35.5q2 27 20.5 49.5t50.5 26.5q22 2 49.5 1t55.5 -1q27 0 54 1t50 -1q29 -2 50 -21.5t24 -47.5q4 -26 2 -55t-2 -61q0 -19 1 -40.5
t1 -42.5t-2.5 -39t-10.5 -29q-9 -12 -27.5 -21.5l-35.5 -17.5q-26 -14 -53.5 -27t-53.5 -27q-13 -7 -26.5 -13.5t-21.5 -18.5q1 -8 0 -17.5t-1 -18t2.5 -15t8.5 -8.5q12 -3 25.5 -2t26.5 2.5t24.5 1.5t19.5 -5l6 -6q2 0 6 4t7 5q15 3 32.5 -0.5t34.5 0.5q2 -5 4.5 -7.5
t3.5 -7.5zM128 575h3v2h-3v-2zM15 535q6 0 6 6h-6v-6zM239 271q5 -4 8.5 1.5t1.5 8.5q-10 -2 -10 -10zM205 271h3v3h-3v-3zM252 110q2 -5 7.5 -3t5.5 7q-2 3 -7.5 2t-5.5 -6zM297 75q4 4 -2 6q-2 -2 -1.5 -4t3.5 -2zM339 53q2 -1 2.5 -2.5t4.5 -0.5q1 4 3 7t2 8
q-2 0 -2.5 2.5t-3.5 1.5q0 -5 -2.5 -7.5t-3.5 -8.5zM263 60q2 -8 4.5 -12.5t10.5 -6.5q5 3 7 12q-2 5 -10 6t-12 1zM220 31q2 2 1 6t-4 4q-2 -2 -2 -6.5t5 -3.5zM317 18q2 -3 6.5 -2t3.5 6q-3 3 -5.5 0.5zM99 18h3v3h-3v-3z" />
    <glyph glyph-name="three" unicode="3" 
d="M333 22q-4 -2 -5 -2t-6 1q-3 -1 -2.5 -5.5t-4.5 -4.5q-5 -1 -9 -3.5t-8 -4.5q-7 -1 -12.5 0.5t-11.5 -3.5q-8 2 -16 1.5t-17 -1.5h-39q-8 1 -15 2.5t-14 0.5q-3 0 -6.5 -1t-6.5 -2q-11 -1 -21 0.5t-20 -0.5q-6 0 -4 4.5t0 6.5q-6 0 -7 -5t-6 -6q-32 -2 -52.5 7t-32.5 27
t-15.5 44.5t-0.5 58.5q2 3 3.5 2.5t4 -2.5t4.5 -2.5t3 2.5q2 8 -2 10t-7 7q-1 2 -2.5 -4.5t-3.5 -4.5q2 9 1 17.5t-1.5 16.5t0.5 14.5t6 10.5q4 3 12 4t17 0.5l17.5 -1t14.5 -0.5q16 0 34 0.5t23 -7.5q3 -6 1.5 -13.5t-1.5 -14.5q0 -14 0.5 -27.5t8.5 -17.5q6 -3 18 -3.5
t26 0.5t26.5 2.5t19.5 0.5q9 3 8.5 21t-0.5 35q0 16 1 30t-1 23q-2 11 -13.5 17.5l-21.5 12.5q-11 8 -20.5 13.5t-15.5 15.5v56q6 10 16 16l20.5 12t19.5 13t15 17q-1 26 0 52.5t-1 50.5q-2 8 -18.5 9t-32.5 1q-14 0 -31 -0.5t-21 -8.5q-4 -7 -3.5 -16t2 -18.5t1.5 -18.5
t-5 -15q-5 -8 -23.5 -7t-32.5 1q-6 0 -15 -0.5l-17.5 -1t-16 0.5t-11.5 4q-7 5 -6.5 21t0.5 30q0 42 1.5 75.5t22.5 53.5q8 8 21.5 15t25.5 8q25 3 52 1.5t55 -1.5q26 0 53.5 1.5t52.5 -1.5q30 -3 49.5 -23.5t22.5 -51.5q2 -17 1 -40t-1 -49q0 -18 0.5 -36.5t0 -35.5
t-3 -31.5t-8.5 -25.5q-1 -2 -5 -5.5t-8 -7.5t-7.5 -8t-3.5 -7q0 -8 9.5 -15.5t14.5 -14.5q12 -21 11.5 -55.5t-0.5 -72.5q0 -22 0.5 -43.5t-1 -40.5t-6.5 -34.5t-17 -25.5zM80 190h3v2h-3v-2zM14 161q11 -2 11 8q-2 2 -4 3t-7 0q-2 -2 -2 -5.5t2 -5.5zM206 102q6 0 6 10
q-5 2 -6.5 -2.5t0.5 -7.5zM99 83q-4 -4 -3 -8q8 0 16.5 -1t9.5 9q-6 1 -10.5 -1t-12.5 1zM75 77q1 3 -3 5q-1 -2 -1 -4t4 -1zM141 60q3 -2 3 2t-3 2v-4zM131 44q2 2 5 3.5t2 6.5q-3 4 -6 3t-4.5 -3.5t-1 -5.5t4.5 -4zM132 22v3q-2 4 -3.5 0t3.5 -3zM195 9q-1 -4 3.5 -4.5
t4.5 3.5l-4 2t-4 -1z" />
    <glyph glyph-name="four" unicode="4" horiz-adv-x="410" 
d="M195 87q-3 10 -17.5 9.5t-34.5 -0.5h-47q-11 0 -25 -1t-26.5 -1t-23 1t-15.5 4q-4 3 -5 8t-1 10.5t1 11t0 11.5q2 5 5.5 10t2.5 13q0 2 -1.5 4t0.5 5h-5t-2 3l3.5 17.5t-0.5 16.5l46.5 131.5l50.5 140.5q10 26 18.5 53t19.5 56q2 8 4.5 17t6 17t8 14.5t10.5 8.5q8 2 18 1
t21 -1q19 0 38 -1t39 -1q8 0 17.5 1t14.5 -4q4 -4 5 -17.5t1 -30t-1 -32.5t-1 -24v-215q0 -8 -0.5 -24t-0.5 -32t1.5 -29t6.5 -16q8 -3 20.5 -1.5t17.5 -2.5q8 -6 7 -24t-1 -35q0 -7 0.5 -16t0 -18t-2 -16t-4.5 -10q-7 -5 -18 -3t-18 -1q-10 -5 -9.5 -17.5t0.5 -26.5
q0 -11 1.5 -24.5t-5.5 -20.5q-4 -4 -15.5 -5.5t-24.5 -0.5l-26 2t-21 1t-15 -1t-12 3q-6 5 -6.5 15t0.5 22l2 24t-3 21zM181 532h3q0 1 0.5 1.5t0.5 1.5q-2 0 -2 1t-2 0v-4zM194 533h3v3h-3v-3zM155 512q4 1 7 4.5t1 8.5q-5 1 -8.5 -3.5t0.5 -9.5zM284 475q6 0 6 6
q-7 2 -6 -6zM192 422q-3 -2 -3 -3t-1 -3q-5 -12 -10.5 -29.5l-11.5 -36.5l-12 -38.5l-11 -35.5q-4 -11 -9 -26.5t-3 -21.5q3 -5 10 -6.5t15.5 -1.5t17.5 1t15 1q8 5 8 17v29v30v32v31v27q0 11 2 18.5t-4 15.5h-3zM99 371q2 7 -6 5q0 -6 6 -5zM204 273q0 2 2.5 3.5t-1.5 2.5
q1 -2 -1.5 -3t0.5 -3zM163 189q4 4 -1 6q-4 -4 1 -6zM176 160q2 2 1.5 4.5t-4.5 1.5q0 -6 3 -6zM232 103q-2 -8 -6 -18.5t4 -17.5q3 2 3 6t1 9l11.5 13.5t13.5 10.5q3 0 3 -3.5t4 -2.5q1 10 7.5 12.5t8.5 8.5q-12 0 -26 -5.5t-24 -12.5zM204 71q4 0 5.5 4t-2.5 5
q-1 -2 -3.5 -4t0.5 -5zM224 42q5 -2 8.5 -4.5t7.5 1.5q0 7 -4.5 8.5t-9.5 3.5q-2 -2 -2 -9zM253 41h5v4h-5v-4z" />
    <glyph glyph-name="five" unicode="5" 
d="M151 1q-2 2 -1.5 4t1.5 4.5t1.5 5t-2.5 4.5q-5 0 -5.5 -3t0.5 -6t1 -6t-4 -3q-17 0 -31.5 0.5t-29.5 1.5q-8 0 -17 0.5t-19 5.5q-13 5 -27 21.5t-17 36.5q-2 17 -1 37.5t1 43.5q0 18 -1.5 33t6.5 23q8 7 24.5 5.5t33.5 -1.5t33.5 1t23.5 -5q6 -6 5.5 -16.5t-1.5 -22
t-0.5 -21.5t6.5 -15q3 -2 9 -3t13 -1t13.5 0.5t10.5 0.5q5 0 12.5 -0.5t15 0t14 2t9.5 4.5q4 5 3.5 17t-0.5 24v87q0 14 0.5 27.5t-6.5 18.5t-25 4t-28 -1h-114q-5 0 -12.5 -0.5t-15.5 0t-14.5 1.5t-9.5 4t-4.5 12t-1.5 20.5t0.5 23.5t0.5 22v166q0 8 -0.5 20t-0.5 24.5
t0.5 22.5t2.5 14q3 5 10 7q13 4 38.5 2t47.5 -2h171q8 0 20.5 1t25 1t22.5 -1t14 -5q6 -6 5 -25t-1 -33q0 -13 1.5 -32t-5.5 -26q-5 -5 -22.5 -4.5t-30.5 0.5h-113q-7 0 -16.5 0.5t-17.5 0t-14.5 -2t-9.5 -4.5q-2 -3 -3.5 -14.5t-1 -25t2 -25t5.5 -14.5t13 -4t19.5 -0.5
l21 1t17.5 0.5q20 0 38.5 1t34.5 -1q32 -2 54.5 -20.5t26.5 -54.5q4 -33 2 -69.5t-2 -71.5q0 -38 1.5 -71.5t-1.5 -68.5q-2 -30 -21.5 -51.5t-49.5 -25.5q-29 -3 -63 -0.5t-71 0.5zM102 126h3q2 3 -1.5 3.5t-3.5 -1.5q2 0 2 -2zM125 9q6 1 6 3t-2 3t-4 0t0 -6z" />
    <glyph glyph-name="six" unicode="6" 
d="M182 527q-5 -2 -8.5 -3t-9.5 -2q-9 -2 -18 -0.5t-15 -4.5q-7 -7 -6 -26t1 -33v-34.5t2 -28.5q2 -6 8 -7.5t8 -8.5q4 5 6 5.5t10 1.5q12 2 28 1t33 -1q22 0 42.5 1t37.5 -4q18 -5 32.5 -19.5t19.5 -30.5q4 -13 5 -30t1 -36t-1 -37.5t-1 -34.5t1 -34.5t1 -37.5t-1 -36
t-5 -30q-6 -20 -23.5 -36.5t-41.5 -19.5q-19 -2 -42.5 -1t-46.5 1t-45 -0.5t-41 3.5q-48 -10 -78 12t-34 64q-2 28 -1 59t1 63v244q0 31 -1 61t1 61q3 31 23 53t49 25q20 3 49 1.5t58 -1.5q28 0 56.5 1.5t51.5 -1.5t41 -18t24 -34q8 -24 6 -51.5t-2 -59.5q0 -10 0.5 -22
t-4.5 -17q-4 -4 -11.5 -5t-16 -1t-17 1t-13.5 1q-14 0 -33 -1t-25 5t-6 15t1.5 19.5t2 20.5t-4.5 17q-4 5 -10.5 5.5t-13 0.5t-13 0.5t-11.5 4.5zM95 630q8 0 7 6q-4 0 -6 2q-2 -3 -2.5 -3.5t1.5 -4.5zM115 584q4 -1 4.5 1t1.5 5q-2 0 -2.5 1t-2.5 0q1 -2 -0.5 -3t-0.5 -4z
M105 556q4 -3 8.5 -5.5t4.5 -10.5q6 2 6 9q-4 -1 -6.5 1.5l-4.5 4.5t-3.5 3t-4.5 -2zM160 553h3v3h-3v-3zM107 539h3v3h-3v-3zM187 536q-1 0 -2 1t-3 0q-2 -3 2 -3t3 2zM110 459q6 0 6 3q-2 0 -3 1t-3 0v-4zM103 337q5 1 5 13t-5 13q0 -4 -0.5 -12.5t0.5 -13.5zM312 337
q2 -1 3 -2.5t3 0.5q1 5 -2 5t-4 -3zM106 325q2 2 1.5 6.5t-4.5 3.5q-2 -2 -2 -6.5t5 -3.5zM100 306h5v5h-5v-5zM105 238q3 5 0.5 11.5t-0.5 13.5h-5q2 -5 1 -13.5t4 -11.5zM126 192v-38t5 -23q7 -8 23 -6.5t25 1.5t25.5 -1t23.5 6q6 6 5 26.5t-1 35.5q0 8 1 17.5t1 18.5
t-1 16.5t-5 11.5q-3 3 -14 4.5t-24.5 1.5t-28 -0.5t-23.5 -1.5l-1 -1q-12 -5 -11.5 -25t0.5 -43zM106 174q7 3 4.5 11.5t-1.5 13.5h-4q-2 -6 -0.5 -12.5t1.5 -12.5zM250 168q-3 -1 -7 -1t-2 -4q6 -2 10.5 -5t11.5 -4q5 2 7 6t6 7q4 -3 7.5 -0.5t4.5 6.5q-7 8 -20 3t-18 -8z
M107 163q-1 3 1.5 3t1.5 4h-4q1 -2 0 -5t1 -2zM105 158h2v3h-2v-3zM102 94q2 -7 7 -8q3 1 3 4.5v8.5q-5 1 -5.5 -2.5t-4.5 -2.5zM144 91q2 0 3 -1t3 0q0 5 -3 6q-1 -2 -2 -2.5t-1 -2.5zM105 41q3 -2 3 2t-3 2v-4z" />
    <glyph glyph-name="seven" unicode="7" 
d="M12 644q6 2 17 2.5t24 0.5t25.5 -0.5t20.5 -0.5h172q8 0 20.5 0.5t25 0.5t22.5 -1t13 -4t4 -11.5t1 -19t-0.5 -21.5t-0.5 -20v-149q0 -16 0.5 -33t-1 -33t-5 -29t-11.5 -21q-10 -11 -23 -16.5l-26 -11.5q-6 -3 -12.5 -7l-12.5 -8q-8 -4 -14 -6.5t-8 -9.5
q-4 -10 -3.5 -26.5t0.5 -32.5v-125q0 -16 0.5 -34t-4.5 -23q-3 -3 -10 -4t-15.5 -1t-17.5 0.5t-15 0.5t-15 -0.5t-17.5 -0.5t-15 1t-9.5 4q-7 8 -5.5 30.5t1.5 39.5v145q0 12 -0.5 25.5t0 26.5t2 25t5.5 20q8 17 27 26.5t37 19.5q9 5 23.5 10.5t18.5 16.5t3 30t-1 36
t0.5 35.5t-5.5 25.5q-5 5 -21 4.5t-27 -0.5q-4 0 -10.5 0.5l-13.5 1t-13.5 -0.5t-10.5 -4q-6 -5 -6.5 -15t1 -21t1.5 -21.5t-6 -16.5t-25 -5.5t-33 0.5h-34.5t-22.5 5q-4 4 -5 15.5t-1 25.5t1 27.5t1 21.5v58q0 14 -0.5 31t10.5 21zM204 639h3v3h-3v-3zM234 560h5q0 5 -5 3
v-3zM314 536q1 2 -0.5 3t-0.5 4h-4q0 -9 5 -7zM89 521q3 1 3.5 8.5t-4.5 6.5q-2 -2 -4.5 -9t5.5 -6z" />
    <glyph glyph-name="eight" unicode="8" 
d="M156 647q3 -3 5 -6.5t7 -4.5q4 0 5 1.5t1 3.5t0.5 3.5t3.5 2.5q19 -2 37 0t35 0l4 -2t4 -1t5 1l6 2q33 2 58.5 -19t28.5 -54q2 -21 1 -45t-1 -48q0 -34 1 -69.5t-11 -56.5q-3 -6 -12.5 -14t-10.5 -15q0 -4 3.5 -9.5t8 -10.5l9.5 -10.5t7 -10.5q8 -20 6.5 -53.5
t-1.5 -64.5q0 -22 0.5 -43t-1 -39.5t-6.5 -33.5t-16 -26q-8 -8 -20.5 -14.5t-27.5 -8.5q-24 -3 -51.5 -1.5t-54.5 1.5q-22 0 -45 -1t-43.5 0.5t-37.5 6t-28 15.5q-17 17 -22 47t2 67q-3 7 -3.5 21t4.5 19q-1 4 -2.5 11t-2 14.5t1.5 14t6 8.5q1 3 -0.5 4.5t-3 2.5t-2.5 2
t-1 4q1 11 0.5 21.5t8.5 12.5q-3 2 -3 5.5v8.5q5 11 13.5 18.5t13.5 18.5q-3 11 -11.5 17.5t-12.5 17.5q-2 4 0 4.5t4 2.5q-2 2 -4.5 0t-4.5 3q-4 6 -3.5 13.5t1.5 18.5q0 19 -1 42l-2 46t-1 44.5t2 37.5q0 2 0.5 6t2.5 8q0 1 1.5 1t1.5 1q1 4 -0.5 7.5t0.5 6.5q5 17 25 31
t40 16q19 2 39.5 0t43.5 0zM245 634q7 3 7.5 -3t2.5 -11q7 2 4 9t0 12q-4 -1 -9.5 -0.5t-4.5 -6.5zM230 632v3q-2 4 -3.5 0t3.5 -3zM216 634q-1 -5 5 -5v6q-4 0 -5 -1zM243 604q2 2 3 6t-4 3q-2 -1 -2.5 -5.5t3.5 -3.5zM246 578q-2 1 -1.5 3l1 4t0.5 3.5t-3 1.5
q-5 -2 -2.5 -6t2.5 -7q1 -5 -0.5 -10t-0.5 -10q0 -2 1 -5l2 -6q0 -6 -1 -13.5t-1 -12.5q0 -2 -0.5 -7t3.5 -6q5 20 7 44.5t5 47.5h-5q0 -7 -1 -15t-6 -6zM16 581q2 -2 5.5 -2.5t5.5 1.5q0 6 -6 10q-2 -1 -2.5 -4t-2.5 -5zM73 578q0 3 1 3.5t-1 2.5q-4 1 -4 -3t4 -3zM40 572
h3v3h-3v-3zM47 559q-3 -3 0.5 -3t-0.5 3zM213 551q2 -2 4 -5t7 -3q0 5 -4.5 9.5t-6.5 -1.5zM120 549q1 4 -2.5 4.5t-6.5 0.5q-2 -5 2.5 -6t6.5 1zM101 543q2 0 3 -1t3 0v4q-6 2 -6 -3zM268 538q2 2 1.5 4t-4.5 1q0 -5 3 -5zM25 530q4 2 7 2.5t5 3.5q-3 4 -9 0.5t-3 -6.5z
M19 522q-2 2 -5 2h-6q-3 -5 4.5 -6t6.5 4zM178 385q9 0 22.5 -1.5t23.5 3.5q5 2 6.5 10.5t2 18.5t0 20.5t-0.5 16.5q0 14 1.5 32.5t-3.5 28.5q-4 8 -16 8h-22q-9 0 -18 0.5t-15 0.5q-4 0 -13.5 -0.5t-12.5 -2.5q-4 -2 -5.5 -6t-2.5 -9.5l-2 -10.5t-5 -9q6 -8 6.5 -22.5
t0 -29.5t0.5 -28t8 -18q12 -2 23 -2h22zM246 484q2 2 1.5 7.5t-0.5 9.5h-4q2 -4 0 -10.5t3 -6.5zM112 440h8q1 5 -4 5t-4 -5zM73 436q1 4 -4 4q0 -4 4 -4zM266 362q3 2 0.5 5t-4.5 5q-3 -2 -2 -6.5t6 -3.5zM56 301q2 2 0.5 3.5t-2.5 3.5h-6q1 -5 8 -7zM89 299q-2 0 -2 1
t-2 1q-2 -3 1.5 -3.5t2.5 1.5zM46 289v4q-6 0 -6 -1q2 0 2.5 -2t3.5 -1zM18 288h3v3h-3v-3zM125 225q0 -9 -0.5 -23.5t-0.5 -29t1.5 -26.5t4.5 -15q6 -7 21 -5.5t27 1.5t27.5 -1t21.5 5q8 7 6.5 25t-1.5 39q0 7 0.5 16.5t0.5 19t-1 17t-5 11.5q-3 3 -14 4.5t-25 1.5
t-28 -0.5t-23 -1.5l-1 -1q-10 -5 -10.5 -14t-0.5 -23zM72 250h3q0 2 0.5 2t0.5 2h-4v-4zM72 186h3q0 1 0.5 1.5t0.5 1.5q-2 0 -2 1t-2 0v-4zM256 47q5 0 5.5 4t2.5 7q-5 3 -8 -1.5t0 -9.5zM156 41h3v3h-3v-3z" />
    <glyph glyph-name="nine" unicode="9" 
d="M350 564q0 -5 3 -6.5t5 -5.5q0 -4 -2.5 -5t-3.5 -4l4 -4t2 -6v-301q0 -25 1.5 -51t-1.5 -49q-1 -4 -1 -6t-4 -4q5 -6 5.5 -19t-0.5 -23q-2 -29 -18.5 -49.5t-42.5 -26.5q-2 6 -1 9t-5 4q-5 1 -6.5 -0.5t-1.5 -4t0.5 -5.5t-1.5 -6q-32 3 -62.5 0t-59.5 0q-3 1 -6.5 2
t-6.5 1q-4 0 -7 -1l-6 -2q-8 -1 -17.5 0.5t-17.5 1.5q-14 0 -25.5 -1t-22.5 5q-4 2 -2 6t-1 7t-4.5 -1t-4.5 -4q-17 8 -26.5 26.5t-9.5 44.5q0 14 -0.5 32.5t-0.5 41.5q0 17 -1 29.5t8 17.5q8 4 25.5 2.5t29.5 -1.5t30 1.5t25 -2.5q8 -4 8.5 -16t-1 -25t-0.5 -24.5t11 -15.5
h72q7 2 7 -2.5t5 -4.5q8 0 11.5 3t10.5 -1q2 6 8.5 8.5t8.5 8.5q-7 4 -12 -2t-14 -4q-2 12 -1.5 27t0.5 31q0 22 1 43t-12 28q-28 3 -56.5 1t-54.5 -2t-48 4.5t-37 18.5q-22 22 -23 55.5t-1 81.5q0 21 -1.5 42.5t1.5 38.5q1 5 1 7t5 5q-3 3 -4.5 9.5t-2 15t0 16.5t0.5 14
q2 31 21 53t51 25q11 2 26 1t31 -1q15 0 29.5 1t25.5 -1h6.5t5.5 -4q6 4 11 4q11 2 27.5 2t26.5 -2q8 0 12 -4q8 6 17 3t18 -7q4 -2 8.5 -3.5t7.5 -3.5q14 -11 21.5 -27t10.5 -33q0 -5 -3 -5t-5 -2zM79 628q0 3 -3 4q-2 -2 -1.5 -4t4.5 0zM272 601q4 -2 7 0q2 7 -3 6t-4 -6z
M302 569q7 2 13.5 3t11.5 -1q0 -5 -5.5 -5t-7.5 -4q0 -4 2 -5t4 -3q10 -1 15.5 4.5t1.5 15.5q2 2 6 2t6 2q1 6 -3 7t-6 3q-7 -3 -14.5 -5.5t-15.5 -4.5q-1 2 -2 3.5t-1 3.5q2 3 4 2t7 0q-2 7 1.5 11t0.5 9q-10 -3 -16.5 -15t-1.5 -23zM157 596q5 -4 9 0q0 5 -4.5 5t-4.5 -5z
M237 594q4 0 6 2q0 3 -4 5q-2 -2 -3 -2.5t1 -4.5zM243 578q1 0 1 -3q4 -2 9 -2t6 5q-4 4 -5 7q5 3 6 6q-2 2 -3 6t-7 3q0 -8 -2 -12zM295 596h4q1 4 -4 4v-4zM99 591q0 -2 0.5 -2.5t0.5 -1.5q4 0 6 4q-3 4 -7 0zM115 590q1 -5 4 -6.5t6 -3.5q2 2 5.5 2.5t4.5 4.5
q-5 1 -10 3.5t-10 -0.5zM205 574q-3 4 -5 8.5t-7 7.5q-4 -8 1.5 -15t10.5 -1zM147 575q4 -1 4.5 -0.5l2.5 2.5q1 2 -4 6l-3 -3t0 -5zM162 577q3 -1 3.5 2.5t-3.5 3.5v-6zM179 569q2 -2 5.5 -2.5t6.5 1.5q-2 7 -9 7l-1.5 -3zM150 567q4 -6 7 -8q2 4 9 3t7 5q-8 1 -13 4.5
t-10 -4.5zM195 569q-2 -2 0.5 -4.5t3.5 -5.5q5 2 8 4.5t2 8.5q-5 -1 -6.5 -3t-7.5 0zM89 568q-2 -3 2.5 -6t8.5 -4q4 5 -1.5 8.5t-9.5 1.5zM241 555q-4 -2 -6 -10.5t2 -12.5l9 5.5t10 4.5q-3 6 -2 9t3 8q-5 2 -7.5 5t-8.5 4q-4 -3 -2 -5.5t2 -7.5zM301 546q-2 -3 -5 -4.5
t-4 -5.5q5 -2 8 -10t10 -4q1 5 -1 7.5t-4 6.5q7 3 8 10q-5 4 -6 10t-6 8q-2 -3 -2 -9t2 -9zM275 559q-7 3 -8.5 0t0.5 -5.5t5 -2.5t3 8zM170 556q1 -8 9 -2q0 5 -3 4.5t-6 -2.5zM233 555h3v3h-3v-3zM172 546q-2 2 -5 2h-5q-3 -8 4 -7.5t6 5.5zM323 540q3 -2 7 -1q5 5 0 9
q-8 0 -7 -8zM145 533h3v3h-3v-3zM208 535q-2 0 -3 1t-3 0q-1 -4 2.5 -4.5t3.5 3.5zM233 494q2 12 -1.5 18.5t-10.5 10.5q-7 -2 -12.5 -0.5t-10.5 3.5q-3 -3 -9.5 -4t-13.5 -1t-13 1.5t-9 4.5q-1 -2 -2 -2t-1 -2q-4 -2 -8.5 -1.5t-7.5 -1.5q-2 -2 -3.5 -4t-3.5 -5v-116
q4 -6 10 -10h36q3 -2 2 -6t5 -4t8.5 4t9.5 6q12 3 22.5 1.5t12.5 8.5q1 12 -0.5 26t3.5 22q-5 2 -3.5 10t0.5 13q4 2 7.5 1t6.5 4q2 11 -5 13.5t-9 9.5zM114 437q3 0 5 2q1 4 -5 4v-6zM138 365q0 -5 6 -5q1 4 -1.5 5.5t-4.5 -0.5zM150 363q2 -3 2 -7t5 -4l2 4t1 6
q-2 2 -5 2.5t-5 -1.5zM270 180q2 -2 4 -1.5t2 2.5q-4 4 -6 -1zM328 173q0 -12 9 -15q2 4 4.5 8.5t0.5 9.5q-9 4 -14 -3zM282 154q0 -2 2 -4q2 -1 2.5 0t2.5 1q1 4 -2 4.5t-5 -1.5zM333 116q3 2 4 5.5t3 6.5q-4 2 -4.5 6.5t-4.5 6.5q-3 -5 -5 -14t7 -11zM253 123q0 -5 4.5 -5
t8.5 -2q3 4 4.5 7t7.5 0q-1 5 -4 4t-6 2q-2 -6 -6.5 -5t-8.5 -1zM302 97q3 5 5 10t3 12q-7 0 -9.5 -10t1.5 -12zM16 90q5 7 -1 9q-3 -3 -3.5 -5.5t4.5 -3.5zM247 70q4 -2 5 4t-3 6q-2 -2 -2 -10zM273 67q8 -1 6 6q-3 3 -6 0t0 -6zM186 41q-1 -7 4 -8.5t3 -9.5q3 -1 4.5 -2.5
t4.5 -1.5q3 3 1 5t-2 5q5 4 10 7t9 8q-8 0 -14.5 -2.5t-19.5 -0.5zM251 41h3q0 1 1 1t1 2q-2 0 -2.5 0.5t-2.5 0.5v-4zM263 29q7 -1 7 3.5t-7 3.5q-3 -3 0 -7zM297 19q5 1 7 -0.5t6 0.5q2 2 3 9t-5 7q-3 -4 -6 -7.5t-5 -8.5zM217 16q0 -3 1 -4q6 -2 4 5q-3 1 -5 -1z" />
    <glyph glyph-name="colon" unicode=":" horiz-adv-x="228" 
d="M4 404q-4 14 -3.5 30t11.5 20q7 2 17 1t20 -1h36q6 0 16.5 0.5t21 0.5t19 -1.5t11.5 -4.5q4 -3 5 -12.5t1 -20.5t-0.5 -22t-0.5 -19q0 -6 1 -17t1 -22t-1.5 -21t-5.5 -14q-3 -3 -13 -4t-21.5 -1t-22.5 0.5t-17 0.5t-17 -1t-22.5 -1t-21 1t-13.5 5q-6 6 -5 22t1 29
q0 16 -0.5 29.5t3.5 22.5zM143 387q2 4 0.5 9t-6.5 5h-3q-2 -4 0.5 -9t8.5 -5zM5 6q-5 19 -4.5 50.5t0.5 60.5v27.5t11 15.5q6 2 15.5 2t20 -0.5l20.5 -1t17 -0.5q6 0 16 1t20.5 1t19.5 -1t12 -5q4 -4 5 -13.5t1 -20.5t-0.5 -22.5t-0.5 -18.5t0.5 -18.5t0.5 -22.5t-1 -20.5
t-5 -13.5t-13.5 -5t-21 -1t-22 1t-17.5 1h-39q-9 0 -18.5 -0.5t-16.5 4.5z" />
    <glyph glyph-name="semicolon" unicode=";" horiz-adv-x="228" 
d="M12 451q0 1 1 1q17 2 33 1t38 -1q9 0 20 0.5t21 0.5t18 -1t11 -4q4 -4 5 -13.5t1 -20.5t-1 -22t-1 -18q0 -6 1 -17t1 -22.5t-1 -21t-5 -13.5t-13.5 -5t-21 -1t-22.5 1t-17 1q-8 0 -19 -1t-22 -1t-20 1t-13 5t-5 17.5t-1 30.5t1 34t1 27q0 14 -0.5 25.5t10.5 16.5zM81 400
q0 -2 -2 -3.5t1 -3.5q1 2 3 2.5t3 3.5q-5 2 -5.5 6.5t-7.5 3.5v-6q2 -1 4.5 -1t3.5 -2zM102 316q2 0 1 3.5t0 5.5h-4q-2 -2 -1.5 -6t4.5 -3zM12 158q6 2 15 2.5t19.5 0l21 -1t18.5 -0.5t18.5 0.5t20.5 0.5t18 -1t11 -4t4 -15.5t1 -27.5t-0.5 -29t-0.5 -20q0 -23 2 -47
t-2 -47q-3 -23 -19 -41t-33 -23q-11 -4 -28.5 -4.5t-35.5 -0.5h-20.5t-15.5 5q-3 3 -4 9.5t-1 15.5t0.5 18.5t0.5 17.5v131q0 18 -0.5 37t10.5 24zM58 102q0 -3 2 -4.5t2 -3.5q9 0 12 7q-3 1 -8.5 2t-7.5 -1z" />
    <glyph glyph-name="less" unicode="&#x3c;" horiz-adv-x="280" 
d="M206 639q-3 -19 -9.5 -39t-13.5 -38q-2 -6 -4 -13t-5 -11q-4 -5 -10.5 -6t-8.5 -8q4 -4 8.5 -0.5t6.5 -1.5q-6 -22 -19 -39q-5 -7 -2 -6.5t4 -7.5q0 -5 -6 -17t-8 -18q-7 -20 -11.5 -35t-11.5 -35q-4 -11 -8.5 -21t-2.5 -24q1 -13 6.5 -27l10.5 -28l27.5 -79l27.5 -81
q-5 -14 -12.5 -25.5t-14.5 -23.5q6 -1 9 5.5t7 11.5q3 5 6 11.5t8 8.5q7 -21 15 -40t11 -44q-5 -8 -17 -7.5t-25 0.5t-28 -1t-23 2q-5 3 -10 12.5t-9 21.5t-7 24t-6 19l-34.5 101l-34.5 101l-8 22t-4 20q0 8 3.5 19t8.5 22l40 116l40 118q5 14 9 29.5t17 18.5q10 2 23.5 1
t24.5 -1q13 0 24 0.5t16 -7.5zM184 598h3v3h-3v-3zM125 520q1 -3 1.5 -5.5t4.5 -2.5q3 5 4 12q-2 4 -5.5 2t-4.5 -6zM121 470q5 1 13.5 -0.5t9.5 6.5q-4 7 -13.5 3.5t-9.5 -9.5zM102 466q2 -2 6 -1t4 5q-3 2 -7 1t-3 -5zM92 305q-2 0 -2.5 0.5t-2.5 0.5q-2 -3 1.5 -3t3.5 2z
M138 76q4 0 6.5 3t3 6.5t0 7t-3.5 4.5q-7 -6 -6 -21z" />
    <glyph glyph-name="equal" unicode="=" horiz-adv-x="527" 
d="M456 290h-456v108h456v-108v0zM456 89h-456v108h456v-108v0z" />
    <glyph glyph-name="greater" unicode="&#x3e;" horiz-adv-x="280" 
d="M0 9q1 11 4 21l6 21l40 115.5l40 118.5q4 11 8 20.5t4 18.5q0 8 -4 19l-8 22l-33.5 97.5l-33.5 96.5q-6 20 -13 39t-10 41q6 8 20 7.5t34 -0.5h22t17 -3t10.5 -12t8.5 -21t7 -24t6 -20l34.5 -99.5l35.5 -100.5l7 -21t4 -21q0 -10 -4.5 -20t-8.5 -22l-33 -101l-35 -103
q-3 -8 -6.5 -20t-7.5 -23.5t-8.5 -20.5t-9.5 -11q-11 -5 -25.5 -3t-22.5 4q-4 -2 -11 -3t-13.5 -0.5t-12.5 2.5t-8 6zM93 549q2 -5 3 -11t6 -8q8 2 5.5 9t-4.5 12t-6.5 10t-4.5 10h-5q-1 -9 1.5 -13t4.5 -9zM100 401q2 4 0.5 6t-4 4l-5 4t-2.5 6h-5q-2 -8 3.5 -13t12.5 -7z
M78 226l10.5 -2t7.5 2q0 3 -2.5 5t-6.5 2t-6.5 -2t-2.5 -5zM121 221q5 -2 5 3q-2 0 -2.5 1t-2.5 0v-4zM131 219q4 -5 8 -2.5t11 -0.5q0 5 -2.5 7t-6 2t-6.5 -1.5t-4 -4.5z" />
    <glyph glyph-name="question" unicode="?" 
d="M128 125q4 2 20.5 2.5t35 0.5t34.5 -1.5t19 -4.5q3 -4 4 -11t1 -15.5t-0.5 -17t-0.5 -14.5q0 -14 1.5 -32.5t-5.5 -26.5q-3 -3 -11 -4t-17 -1t-17 0.5t-13 0.5t-13.5 -0.5t-17.5 -0.5t-16 1t-10 4q-5 5 -4.5 20.5t0.5 35.5q0 23 -0.5 41t10.5 23zM215 298q3 -8 1 -15.5
t6 -9.5q4 3 5.5 9t0.5 11t-4 7.5t-9 -2.5zM241 244q-3 -17 0.5 -35.5t-4.5 -27.5q-3 -3 -10 -4t-15.5 -1t-17.5 0.5t-15 0.5q-13 0 -32 -1t-25 5q-2 2 -3 9t-1 15v16.5v14.5q0 32 0.5 55.5t15.5 39.5q7 8 21 14.5t28 14.5l28.5 14t19.5 16q2 7 2.5 19.5t0.5 26.5t-1 28.5
t-1 24.5q0 9 0.5 16t-4.5 12q-3 3 -9 4t-13 1t-14.5 -0.5t-12.5 -0.5q-14 0 -28.5 0.5t-19.5 -4.5q-6 -6 -5.5 -9.5t0.5 -17.5q0 -9 1.5 -24t-5.5 -22q-6 -6 -24.5 -5.5t-33.5 0.5h-34t-24 5q-8 7 -6.5 21.5t1.5 29.5q0 22 -1 39.5t1 36.5q3 31 23 51.5t49 23.5q23 3 51 1.5
t56 -1.5q29 0 56 1.5t50 -1.5q28 -3 47.5 -22.5t22.5 -42.5q2 -14 1 -30t-1 -31v-60q0 -18 1 -39t0.5 -41.5t-2.5 -37.5t-8 -27q-8 -14 -21.5 -21.5t-28.5 -13.5t-29.5 -14t-26.5 -22z" />
    <glyph glyph-name="at" unicode="@" horiz-adv-x="501" 
d="M159 638q6 3 6.5 5t6.5 4q8 2 18.5 1t21.5 -1q29 0 60.5 1t60.5 -1q42 -4 68.5 -32.5t30.5 -66.5q2 -23 1 -47t-1 -48v-237q0 -14 0.5 -27.5t-6.5 -18.5q-4 -3 -14.5 -4t-23 -1t-24 1t-17.5 1q-33 0 -68.5 0.5t-57.5 11.5q-10 5 -23.5 16.5t-20.5 25.5q-1 3 -1 7.5
t-2 8.5q-1 3 -3 5t-4 5q-3 11 -2 23t1 26q0 15 -1.5 28t-0.5 22q1 6 3.5 10t2.5 9t-2.5 9.5t-3.5 12.5q5 3 7 -1t5 -5q1 8 6 16q8 5 8 11q1 9 -4.5 10.5t-6.5 8.5q5 4 5.5 -1t5.5 -3q6 5 1 8.5t-5 8.5l28 24.5t40 14.5q16 2 34 -1t30 3q5 2 7.5 11t3 19t-1.5 18.5t-7 11.5
q-8 4 -28.5 2.5t-34.5 -1.5q-29 0 -51 0.5t-49 -0.5q-15 -1 -29.5 0t-19.5 -7q-4 -7 -3 -23.5t1 -29.5v-185.5t2 -181.5q1 -5 9 -7t18.5 -2.5t22.5 0t21 0.5q47 0 101.5 -1t95.5 1q15 1 28.5 1.5t24.5 -5.5q2 -20 -6 -38t-20 -31q-11 -11 -28.5 -20t-37.5 -11
q-25 -3 -56.5 -1.5t-63.5 1.5t-63 -1.5t-57 1.5q-27 2 -45.5 15.5t-29.5 27.5q-3 4 -2.5 6t2.5 6q-1 3 -4 0t-5 1q-2 5 -3.5 9.5t-3.5 9.5q-1 2 0 4.5t0 5.5q-1 2 -2.5 4.5t-1.5 4.5q-3 24 -1.5 53.5t1.5 61.5v226q0 31 -1.5 59.5t1.5 54.5q2 21 12 40t22 29q1 1 3 2.5
t3 2.5q3 2 6.5 1.5t5.5 1.5q5 2 8 6t5 5q17 8 39.5 7t44.5 1q8 0 8 -9zM135 639q-1 -5 3.5 -6t6.5 1q1 5 -2.5 6t-7.5 -1zM176 635q4 -3 7 0q2 6 -3 5.5t-4 -5.5zM115 631q2 -2 8.5 -3t6.5 4q-4 2 -6.5 4t-7.5 2q1 -3 -0.5 -3.5t-0.5 -3.5zM193 629q2 0 2.5 -2t3.5 -1
q2 1 2.5 2t2.5 1q1 8 -6 8.5t-5 -8.5zM61 620q1 0 3 -2q8 0 10 11q-5 3 -8 -1t-5 -8zM50 615q5 0 5 5q-3 4 -6 1t1 -6zM371 509q2 0 1 3t0 5h-4q1 -2 -0.5 -6t3.5 -2zM180 362q2 2 2.5 5.5t2.5 5.5q-2 2 -3 4.5t-5 1.5q1 -5 -2 -10t5 -7zM189 375h3v3h-3v-3zM269 366v-43
q0 -11 -1.5 -23.5t2.5 -20.5q2 -4 10 -6t17.5 -2t17.5 2t11 6q4 8 2.5 21.5t-1.5 23.5q0 11 1 24.5t-2 20.5q-3 4 -9 5.5t-13.5 2t-14 -0.5t-10.5 -1q-5 -1 -6.5 -4t-3.5 -5zM65 369v-3q2 0 2 -1h3q0 1 1 1v3q-1 0 -1 1h-3q-1 -1 -2 -1zM174 344q9 0 9 -5q8 2 7.5 7t-2.5 12
q-14 0 -14 -14zM77 276q-6 -1 -8.5 -6.5t-0.5 -10.5q3 0 4.5 -1.5t4.5 -0.5q4 3 3 9t-3 10zM10 237q0 2 1 3t1 3q-2 0 -2.5 1t-2.5 0q-2 -2 -1.5 -5t4.5 -2zM9 214q2 1 1 5.5t0 7.5h-4q1 -3 -0.5 -8.5t3.5 -4.5zM71 187q7 2 10.5 6t11.5 0q2 4 2 8t1 8q-4 4 -8.5 2.5
t-8 -5.5t-6 -9.5t-2.5 -9.5zM54 173q1 -8 7.5 -6.5t11.5 3.5q-1 11 -7.5 8t-11.5 -5zM25 157q2 3 2.5 7.5t1.5 9.5q-2 1 -2 2t-2 1q-5 -2 -6 -10t6 -10zM53 154q6 1 7 7q-1 0 -5 2q-1 -2 -3 -4.5t1 -4.5zM79 118q0 1 -2.5 5.5t-3.5 4.5q-4 2 -6.5 -1.5t-5.5 -5.5
q2 -5 1.5 -8.5t-2.5 -6.5q7 -2 13 2t6 10zM51 95h4q0 3 -4 2v-2zM31 93q0 -4 3 -6t7 0q1 5 -3 6.5t-7 -0.5zM70 77q0 3 1 3.5t-1 2.5q-5 1 -5 -3t5 -3zM382 61q5 5 2.5 12t-9.5 7q-8 -4 -5 -12.5t12 -6.5zM22 71q0 4 -3 5q-2 -2 -1.5 -4t4.5 -1zM54 68q2 -3 7.5 -2t6.5 5
q-1 1 -1 3q-4 3 -8.5 1t-4.5 -7zM51 42q0 8 -4 8q-2 -2 -1 -5.5t5 -2.5z" />
    <glyph glyph-name="A" unicode="A" 
d="M127 167q0 -1 -2 -3v-39v-43v-42.5t-1 -37.5q-14 -3 -31.5 -1.5t-31.5 -1.5q-1 -7 4.5 -6.5t4.5 -5.5q-9 -6 -15.5 -2.5t-17.5 1.5q-3 2 -3 6.5t-3 6.5q-8 1 -16 0t-13 1q-1 37 -1.5 83t-0.5 84h127zM301 167q-1 -8 -1 -16.5t8 -12.5q5 6 4 13.5t-1 15.5h44v-51v-59.5
t-2 -56.5q-5 -5 -12 -2t-12 0q-4 -3 -0.5 -5t1.5 -6q-6 1 -8.5 5.5t-7.5 6.5q-20 1 -42 0t-39 0q-2 16 -2 43.5v47.5t1 41.5t-4 35.5h73zM347 -13q1 -4 -3 -5t-7 1q0 4 4 5t6 -1zM291 -13q-8 0 -7 5q2 2 5.5 1t1.5 -6zM278 47v2q-2 4 -3.5 0t3.5 -2zM305 83q5 2 6 11.5
t-1 15.5q-2 0 -3 1t-3 1q-3 -5 -4 -15.5t5 -13.5zM38 119h3v3h-3v-3zM284 137q5 -5 5 1q-2 2 -3.5 1.5t-1.5 -2.5zM124 335q0 -9 0.5 -17t2.5 -13q4 -8 19.5 -7.5t31.5 0.5q12 0 26 -1t20 2q5 3 6.5 13.5t1.5 22.5h123q1 -29 1.5 -56t-1.5 -48q-1 -2 -1 -4.5t-2 -4.5
q2 -11 2.5 -25t0.5 -30h-44v3q1 5 2.5 10.5t2.5 11.5q1 14 -0.5 28t-1.5 28q0 17 1 34t-5 32h-5q0 -2 -0.5 -2.5t-0.5 -2.5q0 -14 -1 -27l-2 -26q-1 -21 -0.5 -42t0.5 -44v-3h-73q0 3 -3 6q-7 -1 -18.5 0t-24.5 2t-25 1.5t-20 -2.5q-4 -1 -10 -7h-127v168h124zM220 180
q2 -2 5 -1.5t6 0.5q2 6 -4.5 6.5t-6.5 -5.5zM42 195h5q0 3 -5 3v-3zM170 225h3v3h-3v-3zM116 237q2 -2 3 -4t6 -1q2 5 -2.5 7.5t-6.5 -2.5zM101 247q0 3 3 1q0 7 -5 6q1 -2 0 -4.5t2 -2.5zM86 263v6h-6q0 -6 6 -6zM67 278h3v2h-3v-2zM125 503v-147v-10.5t-1 -10.5h-124
q0 42 0.5 84t-0.5 84h125zM243 503q0 -3 2 -3.5t4 -1.5q2 4 1 5h104v-15t1 -14q2 -26 1 -58t-1 -64v-17h-123q0 5 -0.5 10.5t-0.5 10.5v106q0 10 0.5 21t0.5 20h11zM298 433q0 8 -4 7q-2 -1 -1 -4.5t5 -2.5zM311 462h3v3h-3v-3zM260 461q4 -1 5 4.5t-3 6.5q-2 -2 -1.5 -5
t-0.5 -6zM329 474h4v4h-4v-4zM287 482q-1 4 -2.5 5t-3.5 3q-3 -8 6 -8zM297 488q3 4 0.5 8t-6.5 5q-3 -4 -1 -8.5t7 -4.5zM74 531q0 -6 6 -9q4 0 2.5 3t-0.5 6h71v-7q-3 -4 -10 -3t-10 3q-3 -9 -8 -12v-9h-125v16q-1 5 2 5t4 3q0 2 -0.5 2.5t-0.5 1.5h69zM221 531v-1
q2 0 2 1h132q0 -8 -0.5 -14.5t-0.5 -13.5h-104q-3 5 -7 1v-1h-11q0 7 -2 11q-4 7 -12 8t-18 0.5t-20 -1.5t-18 2q0 2 0.5 4t0.5 4h58zM102 520h4v4h-4v-4zM16 522h3v2h-3v-2zM119 520q5 8 0 7.5t-6 -2.5q0 -3 6 -5zM12 559q-2 -1 -5 0h5zM41 559q-2 -1 -4 -1q-5 0 -8 1h12z
M74 559l-1 -2q-4 0 -5 2h6zM134 559v-1q-3 0 -4 -1t-3 1v1h7zM146 559q1 -2 3 -2.5t4 1.5v1h103q-1 -5 5 -7.5t8 -0.5q2 -2 2 -5t4 -3q3 4 -2.5 8.5t-10.5 7.5h94v-14t-1 -14h-132q4 1 4 5t-4 5q-1 -3 -3 -3.5t-2 -4.5q1 0 3 -2h-58q2 7 1 13t-7 10h-4q-2 -7 -1 -12t1 -11
h-71q0 2 1 2q4 2 6 1.5l6 -1.5q0 10 9 13q4 0 5 -4t3 -6q10 8 26 10q4 5 1 6.5t-2 5.5v1h9zM5 531q-2 8 -5 15q4 5 10 4t11 1q8 -6 10.5 -12t10.5 -6t12.5 7t11.5 5q5 -2 6 -5.5t2 -8.5h-69zM79 545q3 0 2.5 -3.5t-4.5 -2.5q0 2 2 6zM270 532q4 4 -1 6q-2 -2 -1.5 -4t2.5 -2
zM259 536q4 -1 5.5 3.5t-2.5 5.5q-1 -2 -3 -4.5t0 -4.5zM240 554h3v3h-3v-3zM173 545q5 3 2 7t-6 6q-5 -3 -2 -7t6 -6zM21 587q-1 -3 0 -4q2 0 4 4h10q4 -4 6 -4q2 2 2 4h34v-1h5v1h49l3 -3q1 2 1.5 2t1.5 1h3q2 -1 5 -2t5 1v1h203q1 -3 1 -5.5t1 -4.5q1 -5 1 -9v-9h-94
q-2 0 -4 2l-2 -2h-103q0 3 -2.5 3.5t-4.5 -1.5v-2h-9q1 2 3 3t3 6q0 2 -1.5 4.5t-0.5 5.5q-4 3 -5.5 -2t-5.5 -6q-5 -1 -6 2t-3 5q-1 -8 -5 -12.5t-14 -2.5q-2 3 -1 4t3 2t3.5 2.5t0.5 4.5q-10 -3 -16.5 -2.5t-17.5 -0.5q-2 -2 -0.5 -6t0.5 -7h-6q-2 2 -4 4.5t-7 1.5
q-4 2 -7.5 -1t-8.5 -5h-12q-5 0 -8 6q-3 0 -5 -2l-4 -4h-5h-1q-8 5 -6.5 13t3.5 15h18zM127 559q1 2 2 2.5t2 2.5q3 -1 3 -5h-7zM228 562q3 -2 3.5 -2.5t4.5 1.5q0 5 -3 6q0 -2 -2.5 -2t-2.5 -3zM170 564q12 -3 21 3q-5 -2 -5 4q-6 0 -10.5 -1t-5.5 -6zM214 564q5 0 6.5 3
l3.5 7q-5 4 -9.5 -0.5t-0.5 -9.5zM303 578h2v3h-2v-3zM3 587q1 1 1 1.5t1 1.5q8 23 25.5 38t46.5 19q41 4 87.5 1t84.5 -3q22 0 43 -2.5t37 -16.5q8 -8 14.5 -18t9.5 -21h-203q-4 6 -12 9.5t-4 13.5q-3 1 -4 3.5t-5 2.5q-2 -5 -1.5 -12.5t-4.5 -10.5q3 -2 6.5 -3t5.5 -3h-49
q-2 2 -5 2v-2h-34q1 3 -2 5.5t-7 1.5q-1 -4 1 -7h-10v4.5t3 4.5q-1 0 -4 3q-3 -4 -3 -12h-18zM137 587h3h-3zM130 594q2 1 2 0t2 -1q0 -1 -0.5 -1.5t-0.5 -1.5h-3v4zM323 590h3v3h-3v-3zM311 591h3v3h-3v-3zM243 599q0 2 1 2.5t0 2.5h-4q0 -5 3 -5zM58 604v-3q2 0 2 -1h3
q0 2 1 1v3q-1 0 -1 2h-3q0 -2 -2 -2zM96 607q0 -4 6 -6q3 4 0.5 6t-6.5 0zM42 615h3v3h-3v-3zM308 619q0 -4 2 -6q3 0 6 5q-2 0 -2.5 1t-2.5 1q0 -1 -3 -1zM144 619h3q0 1 2 3q-2 0 -2.5 1t-2.5 0v-4zM284 625q-3 -7 3 -9q2 7 6 3.5t7 -1.5q1 11 -4 9t-12 -2zM210 613
q-3 12 -3 19q-5 0 -6.5 -2.5t-1 -6.5t3.5 -7t7 -3zM244 612q5 -2 10.5 1.5t7.5 8.5q-5 2 -6 7.5t-6 6.5q2 -7 -2.5 -12.5t-3.5 -11.5zM224 628q2 -2 1 -3q3 -1 8 -1.5t7 1.5q0 8 -7.5 11t-8.5 -8zM61 615q2 -1 2.5 0.5t2.5 2.5q0 4 -3.5 4.5t-4.5 5.5q3 2 1.5 5t-3.5 3
q-6 -5 -3 -11.5t8 -9.5zM281 628q8 0 11 7q-3 7 -8.5 2.5t-2.5 -9.5z" />
    <glyph glyph-name="B" unicode="B" 
d="M240 44q2 -5 2 -12t8 -7q5 3 2.5 8.5t0.5 10.5q-5 6 -13 0zM226 34q5 0 4.5 6t1.5 10q-2 0 -2.5 2t-3.5 1q-4 -4 -2 -9t2 -10zM165 46q2 2 1 5.5t-4 4.5q-3 -2 -2.5 -6t5.5 -4zM266 59q-1 -2 -3 -8t-2 -10q-1 -3 -1 -7.5t5 -5.5q11 2 20 9.5l18 15.5q3 3 7 4.5t4 6.5
q-11 5 -25.5 4.5t-22.5 -9.5zM208 83h5v5h-5v-5zM332 172q1 -4 1.5 -7t5.5 -3q6 4 7 13q-4 3 -8 1t-6 -4zM297 173q4 0 4 3h-3.5t-0.5 -3zM338 210q-8 1 -11 5t-8 6q-4 1 -4 -1.5t-3 -1.5q-3 2 -4.5 4.5t-6.5 1.5q-1 -4 1 -7.5t4 -7.5t2.5 -8t-4.5 -9q-5 0 -6 2t-4 -2
q-1 -6 5.5 -6t10.5 2q0 8 4 13t15 3q5 -4 5 -11.5t8 -8.5q5 7 9 17.5t-5 18.5q1 4 3.5 6t-0.5 7h-4q-1 -8 -4 -12t-3 -11zM320 227q5 4 4 9q-3 2 -5 1t-3 -3t-0.5 -4.5t4.5 -2.5zM187 262q-11 0 -24 1.5t-24 -1.5q-13 -4 -12.5 -26t0.5 -45q0 -20 -1 -37.5t5 -23.5
t21.5 -5.5t26.5 0.5t27.5 -0.5t22.5 5.5q3 3 4 11t1 17.5t-0.5 19t-0.5 16.5q0 19 0.5 35.5t-3.5 29.5q-11 4 -22 3.5t-21 -0.5zM202 268q1 4 -2 6q-2 -2 -1.5 -4.5t3.5 -1.5zM274 272q-2 0 -2.5 2t-3.5 1q-4 -5 0.5 -6.5t5.5 3.5zM313 271q0 3 1 3.5t-1 2.5q-5 1 -5 -3
t5 -3zM327 261q1 4 5 11.5t-3 9.5q-1 -4 -3.5 -11.5t1.5 -9.5zM290 278q0 -7 8 -9q6 3 8 12q-4 5 -9 2.5t-7 -5.5zM181 279q5 0 7 5q-2 0 -3 1t-3 0q0 -2 -1 -3t0 -3zM282 429q5 0 6 2q0 3 -4 5l-2.5 -2.5t0.5 -4.5zM288 445q0 -5 6 -4q0 6 -4 6q0 -2 -2 -2zM30 444h3
q0 2 0.5 2t0.5 2h-4v-4zM34 428q4 -2 10.5 -2t9.5 2q0 9 9 7q0 -2 -1 -4t2 -3q0 5 2 6.5t4 6.5q-4 2 -5 0.5t-6 -0.5q-3 1 -3 6t-5 4q-5 -5 -8.5 -11.5t-8.5 -11.5zM96 451q1 -5 4 0.5t-2 0.5q-2 0 -2 -1zM78 449q4 -1 6.5 -0.5t3.5 5.5q-4 0 -6 1t-6 -1q2 0 2 -5zM63 449
q5 0 6 3q-2 1 -2.5 2t-2.5 1q0 -2 -1 -2.5t0 -3.5zM107 448h10q0 8 -9 10q-2 -2 -1.5 -4.5t0.5 -5.5zM290 461h3v3h-3v-3zM44 463q0 1 -6 1q-2 -4 3 -5t3 4zM266 460q5 6 0.5 5.5t-5.5 -2.5q0 -2 5 -3zM34 465q-2 0 -2 1t-2 1q-2 -3 1 -3.5t3 1.5zM81 468q2 0 2 -3
q3 -1 3.5 1t2.5 2q1 4 -0.5 5t-3.5 3l-3.5 -3.5t-0.5 -4.5zM262 474l5 -2.5t5 1.5q2 5 -4 5t-6 -4zM28 477q-1 -3 0.5 -4t1.5 -3q2 -2 7 -0.5t10 0.5q3 -2 2.5 -7t4.5 -5q3 0 3 3.5v6.5q2 2 4 2.5t2 3.5q-5 6 -15.5 4.5t-19.5 -1.5zM281 468q1 3 4 3.5t3 4.5q-1 4 -4 4
t-5 -2t-2 -5t4 -5zM261 476q1 4 -3 4h-8q0 -5 3.5 -4.5t7.5 0.5zM48 486q3 -1 4.5 -3t4.5 -2q4 4 0 8q-2 -2 -4.5 -1.5t-4.5 -1.5zM290 483q5 6 0 5.5t-5 -2.5q-1 -1 5 -3zM47 490q2 2 1.5 4.5t-2.5 2.5q-2 -1 -2 -4t3 -3zM272 505q3 -1 3 -3q3 -1 3.5 1t2.5 2q0 5 -4.5 5
t-4.5 -5zM223 521q-12 -1 -27 -0.5t-29 0.5t-25.5 -1.5t-16.5 -7.5q-2 1 -3.5 2.5l-3.5 3.5q-3 -5 1.5 -10.5t-1.5 -10.5q3 -2 7.5 -4t-0.5 -7q-6 5 -13 5t-13 5q-2 -2 -5.5 -2.5t-4.5 -4.5q1 -5 6 -2t6 -3v-14q6 -5 16 -7q3 0 4.5 2.5t3.5 -0.5q2 -14 2 -33v-38
q4 -6 10 -10h86q10 3 10 15.5v25.5q2 4 6.5 2t6.5 4q-3 4 -7.5 2t-5.5 3q5 6 1 17t-1 25q2 3 6 3.5t4 5.5q-3 1 -6.5 0.5t-3.5 2.5q1 11 -1 19.5t-9 11.5zM149 545h3q0 2 0.5 2t0.5 1q-2 0 -2 1t-2 1v-5zM237 550h5v4h-5v-4zM166 551q2 10 -7 9q-2 -4 0 -7t7 -2zM295 586v-3
q2 0 2 -1h3q0 1 1 1v3q-1 0 -1 1h-3q-1 -1 -2 -1zM278 589h3v3h-3v-3zM310 585q2 0 4 -2q3 2 3 7t-7 3v-8zM40 592q2 -2 3.5 -1t0.5 2q0 3 -4 -1zM37 590q-1 8 -6 9q-2 -3 0 -6t6 -3zM329 596q6 -1 5.5 2.5t-5.5 3.5v-6zM287 598q4 -3 7 0q0 3 -4 5q0 -2 -2 -2t-1 -3z
M285 617v-5q4 1 8.5 0.5t3.5 4.5q-2 2 -6 2t-6 -2zM227 614q0 3 -3 4q-2 -2 -1.5 -4t4.5 0zM41 611q-4 1 -6 4t-7 3q2 -4 6 -8t7 1zM78 622q-2 2 -4 0q-1 -1 -2 -1q-2 -4 3 -2t3 3zM81 625q0 -3 4 -4t8.5 -1t9 1t4.5 4q-5 -2 -11.5 0t-14.5 0zM247 615q3 -1 5 1t2.5 5t0 5.5
t-2.5 3.5l-4.5 -7t-0.5 -8zM141 615q4 -2 2.5 -6t2.5 -7q8 -1 9.5 4t7.5 6q-6 8 -16.5 12t-24.5 6q-2 -8 4 -12.5t15 -2.5zM217 630q5 6 0 5.5t-5 -2.5t5 -3zM56 644q0 -11 -5 -13l8 -6t7 -7q2 4 1 7.5t3 5.5q9 0 15 3t11 6.5t12 5.5t17 0q2 -2 1.5 -4.5t1.5 -4.5
q5 0 8.5 3.5t7.5 5.5q8 2 19 0t22 -2q23 0 48.5 2t48.5 0q8 -1 17 -3t15 -6q2 -1 3 -3t3 -4t4.5 -2t4.5 -1q7 -6 9.5 -11l6.5 -13q-4 -3 -4 -9t-2 -11q2 -3 5.5 -0.5t7.5 0.5q5 -10 4.5 -22.5t-0.5 -25.5q0 -35 2 -76.5t-2 -75.5q-1 -12 -5.5 -20.5t-9.5 -15.5t-10.5 -13.5
t-8.5 -14.5q-1 -5 3.5 -5t6.5 -2q8 -10 14.5 -19.5t8.5 -23.5q-2 -3 -5 -1.5t-8 -1.5q-2 -4 -1 -8.5t2 -8.5q5 -4 6.5 1.5t6.5 1.5v-89q-2 -2 -5.5 -1.5t-4.5 -2.5q1 -6 4.5 -5t5.5 -2q0 -21 0.5 -40t-1 -35.5t-6.5 -30t-16 -24.5q-22 -21 -72 -21h-21.5t-15.5 7q0 5 4 5
t2 6q0 6 -5 6t-7 3q-1 5 -0.5 10t-4.5 6q5 3 4 10q-8 0 -14.5 2.5l-14.5 5.5q-2 -1 -3 -2.5t-3 -2.5q6 -7 4.5 -16t-4.5 -17q2 -5 8 -5.5t4 -9.5q-3 -3 -6.5 -1t-8.5 1q-4 -1 -2 -2.5t1 -4.5q-5 1 -7 0t-6 -1q-3 2 -1.5 9t-1.5 9q-6 0 -4.5 -7t-1.5 -10q-10 -2 -26 -2.5
t-23 5.5q-14 -7 -33.5 -4.5t-36.5 0.5q-3 1 -2.5 5t-1.5 6q-9 -2 -17 -0.5t-14 4.5v96q0 25 -1.5 49.5t1.5 45.5q1 3 1 5t3 4q0 3 -2 4.5t-2 5.5v146q0 20 -0.5 37.5t10.5 25.5q-2 11 -4.5 18.5t4.5 16.5q0 4 -4 3t-6 1q2 27 0.5 57t1.5 58q4 -2 5 -6.5t9 -2.5q4 5 0 7.5
t-6 5.5q-5 0 -6 -2t-4 2v29q0 5 4 6t6 4q-3 8 1.5 11t12.5 3t16.5 -1t13.5 -1zM110 483q7 -2 13.5 -2t0.5 -10q-2 3 -7.5 3t-8.5 2q-1 3 0.5 3.5t1.5 3.5zM346 596q5 2 5 -3h-5v3zM82 643q0 -5 -5 -4.5t-8 -1.5q-2 4 -5 4q2 5 7.5 2.5t10.5 -0.5z" />
    <glyph glyph-name="C" unicode="C" 
d="M231 512q-3 10 -18.5 9.5t-32.5 -0.5q-14 0 -25.5 0.5t-19.5 -1.5q-5 -2 -7 -11t-2.5 -21.5t0 -26t0.5 -23.5v-75q0 -43 2 -82t-2 -69q-1 -5 -1 -9.5t-5 -7.5q4 -2 6 -7.5t-1 -10.5q-8 -4 -10 0.5t-8 6.5q-5 -4 -11 -10.5t-6 -12.5q5 -4 7 2t7 6q5 -2 11 -2t10 -2
q2 -9 1 -17t2 -13q3 -8 15.5 -9.5t27.5 -1t29.5 2.5t22.5 0q9 6 10 16t-0.5 21t-2 21.5t6.5 17.5q3 4 10.5 5t16 1t17 -1t14.5 -1t15 0.5t17 0.5t14.5 -1t9.5 -4q8 -8 6.5 -21.5t-1.5 -26.5q0 -20 0.5 -36.5t-3.5 -33.5q3 -15 -1.5 -29.5t-14 -26t-23 -19t-28.5 -9.5
q-14 -2 -28.5 -1t-29.5 1q-14 0 -27.5 -0.5t-26.5 3.5q-23 -5 -53 -4t-54 2q-5 -1 -5.5 2.5t-3.5 3.5q-5 1 -10 1.5t-9 2.5q-11 5 -19.5 18.5t-13.5 29.5q-4 12 -5 29.5t-1 36t0.5 38t0.5 36.5v347q0 9 -0.5 18.5t2.5 17.5q1 3 1.5 6t8.5 3q0 5 -2.5 8t2.5 5q-1 7 5.5 6.5
t7.5 1.5q3 3 0 5.5t1 7.5q12 11 27.5 15t35 5.5t42 0.5t47.5 -1q27 0 54 1t50 -1q32 -3 51 -24t22 -44q2 -15 2 -26.5t-0.5 -22t-1 -22.5t-0.5 -27q0 -9 0.5 -19.5t-3.5 -15.5q-6 -8 -23 -7t-34 1q-8 0 -17.5 -0.5t-18.5 0t-15.5 2t-9.5 4.5q-4 6 -4 14.5t1 17.5t1.5 18
t-2.5 17zM23 597q7 -1 7 5q-2 5 -5 5q-2 -2 -3 -5t1 -5zM67 581q2 0 2.5 -1t2.5 -1q1 2 1.5 2t1.5 1q-1 4 -1 8.5t-5 6.5q-6 -8 -2 -16zM49 583q1 2 2.5 3t0.5 5q-2 0 -2 1t-2 0q-2 -2 -2 -5.5t3 -3.5zM14 575q-4 -9 9 -9q2 3 -1.5 7t-7.5 2zM39 541h3v3h-3v-3zM64 303
q1 -3 3 -5t4 -5q5 2 8 4.5t8 4.5q0 4 -3 4.5t-3 5.5q2 4 6.5 5t5.5 6q-10 5 -20.5 -1.5t-8.5 -18.5zM93 233q-2 -3 -1.5 -4t2.5 -3q4 1 9 4t0 6q-1 -2 -5 -1.5t-5 -1.5zM7 172q5 1 9.5 1t8.5 2q0 12 -9 13q-4 -2 -7.5 -6.5t-1.5 -9.5zM61 172q-2 -3 0 -4t3 -3q3 2 7.5 2
t5.5 5q-3 6 -6.5 2t-9.5 -2zM10 162q0 -6 5.5 -5.5t6.5 5.5q-2 3 -5.5 2.5t-6.5 -2.5zM174 12h5q0 5 -5 3v-3z" />
    <glyph glyph-name="D" unicode="D" 
d="M6 309q-5 8 -5 18v21v216q0 8 -0.5 20.5t-0.5 25.5t1.5 22.5t5.5 11.5q8 5 29 4t35 -1q42 0 84.5 0.5t83.5 -1.5q6 -4 15.5 0t18.5 -3q2 -2 1.5 -4t4.5 -2q5 6 8 4l6 -4q20 -7 39.5 -29.5t23.5 -50.5q3 -26 1.5 -56t-1.5 -60v-233q0 -38 1 -79t-10 -66q-10 -22 -32 -39.5
t-52 -21.5q-32 -4 -67 -2t-67 2q-8 0 -24 -0.5t-27 0.5q-2 0 -3 1.5t-3 1.5q-1 0 -2 -1l-2 -2q-7 0 -16.5 -0.5t-19 -0.5t-16.5 1t-10 4q-4 4 -5 13t-1 20t0.5 22.5t0.5 19.5v194q0 8 -0.5 17.5t5.5 16.5zM274 621q4 -2 4 2t-4 2v-4zM279 617q1 -6 10 -11t11 1q-6 1 -10 7
t-11 3zM238 595h3v3h-3v-3zM253 592h5q2 6 -4 6q0 -2 -1 -3t0 -3zM302 592h-2q-1 0 -2 -1q-1 -4 2.5 -2t1.5 3zM285 563q0 5 -2 7h-4q-1 -4 1.5 -4.5t4.5 -2.5zM270 544q8 0 7 4q-2 2 -5 1.5t-2 -5.5zM126 505q-2 -23 -1 -46.5t1 -48.5v-188q0 -10 -0.5 -24t-0.5 -27.5
t1 -24.5t5 -15q6 -6 20 -5t29 1q14 0 29 -1t20 7t3 20t0 25q0 5 6.5 4t5.5 5q-4 2 -7 0.5t-5 2.5v248q0 7 0.5 19t0.5 24.5t-1 23t-4 13.5q-7 7 -21.5 5.5t-25.5 -1.5h-48q-2 0 -2 2t-3 1q2 -5 0.5 -9.5t-2.5 -10.5zM93 169q2 -3 7.5 -2.5t9.5 -1.5q2 8 -4 8.5t-9 4.5
l-3.5 -3.5t-0.5 -5.5zM19 171l3 -3q2 -1 3.5 0.5t3.5 2.5q0 5 -5.5 5t-4.5 -5zM68 120v-3q2 0 1 -2h3q0 2 2 2v3q-2 0 -2 1h-3q0 -1 -1 -1zM30 120q-2 -8 2 -7.5t5 2.5q0 4 -7 5zM52 110q1 -5 5.5 -7.5t9.5 -0.5q2 8 -4.5 9t-10.5 -1zM13 107q2 -2 4.5 -3t4.5 1q1 5 -4 5
t-5 -3zM16 89h3q0 2 0.5 2t0.5 1q-2 0 -2 1t-2 1v-5zM119 85q2 -7 9.5 -10t16 -2t15.5 5.5t7 10.5q-11 1 -23.5 -0.5t-24.5 -3.5zM110 71q5 3 2 9.5t-9 5.5q-1 -6 0.5 -10.5t6.5 -4.5z" />
    <glyph glyph-name="E" unicode="E" horiz-adv-x="416" 
d="M134 260q-7 -4 -8.5 -16.5t-1 -28.5t1.5 -31.5t-2 -24.5q-6 2 -6 10t-3 13q-8 -2 -17 -2t-10 -8q5 -4 8 -1t8 1q7 -3 10.5 -11.5t11.5 -9.5q-2 -9 0 -14t7 -9q35 -2 78.5 -1.5t87.5 0.5q6 0 14.5 0.5t16.5 0t14.5 -2t9.5 -4.5q6 -8 4.5 -24.5t-1.5 -30.5v-32t-2 -25
q-9 -8 -25 -7.5t-33 0.5q-21 0 -42 -1t-38 4q-17 -5 -42.5 -4t-54.5 1q-22 0 -44.5 -1.5t-36.5 1.5q-5 1 -7.5 1t-4.5 6q-6 0 -7.5 -4.5t-8.5 -2.5q-9 4 -9.5 13t-0.5 17q-2 149 -0.5 302t0.5 302q5 11 17.5 11h31.5h112q42 0 81 1.5t67 -1.5q5 -1 8 -1t7 -5q8 8 15.5 6.5
t12 -8t5 -15.5t-5.5 -17q6 -13 5.5 -35.5t-2.5 -39.5q0 -5 -3 -4t-5 2q-4 -1 -4 -4.5t-4 -3.5q-51 -1 -103 0t-102 -2q-5 -2 -7 -8.5t-2 -15.5t0.5 -20t0.5 -21q0 -17 -0.5 -33t1.5 -27q3 -9 16.5 -8.5t30.5 0.5h40q9 0 21 0.5t23.5 0.5t20.5 -1.5t12 -5.5q5 -7 4 -25.5
t-1 -31.5q0 -7 0.5 -16t0.5 -18t-1.5 -16t-5.5 -9q-4 -4 -14 -5t-21.5 -0.5t-23 1.5t-18.5 1h-41t-36 -2zM104 545h8t6 2q-1 4 -5 6t-7.5 2t-5 -2.5t3.5 -7.5zM333 609q-2 2 -6.5 3t-6.5 4q-4 -3 -2.5 -5.5t4.5 -4t6.5 -1.5t4.5 4zM53 166h6q0 3 -5 6q0 -2 -1 -3t0 -3z
M66 554q2 2 1.5 4t-4.5 1q0 -5 3 -5zM240 558q0 4 -3 4q-2 -2 -1.5 -3.5t4.5 -0.5zM37 170h3q0 2 0.5 2t0.5 1q-1 0 -1.5 1t-2.5 0v-4zM166 552h3v3h-3v-3z" />
    <glyph glyph-name="F" unicode="F" horiz-adv-x="406" 
d="M143 646q4 -2 3 -9t3 -10q6 -2 13.5 0t9.5 10q-1 3 -2.5 2.5t-3.5 -1.5t-4 -1.5t-3 2.5q0 4 2 5t5.5 1t7 -0.5t4.5 0.5q5 -3 9.5 -6t12.5 -3q3 1 2.5 2t-2 2.5t-2 3t1.5 2.5h114q14 0 26 0.5t16 -7.5q2 -4 2.5 -11.5t0.5 -16t-0.5 -16t-0.5 -11.5q0 -6 0.5 -15t0 -18.5
t-2 -17.5t-5.5 -10q-8 -5 -22.5 -3.5t-30.5 1.5h-107q-21 0 -39.5 1t-24.5 -11v-57q0 -21 -1 -41t11 -27h115q14 0 25.5 0.5t16.5 -7.5q5 -9 3 -26t-2 -29q0 -7 0.5 -17t0.5 -19t-1.5 -16t-6.5 -9q-4 -2 -14 -2.5t-21 -0.5t-22 0.5t-17 0.5h-38q-17 0 -30.5 0.5t-18.5 -10.5
q-2 -16 0 -35.5t0 -34.5q-1 -4 -1.5 -6.5t-3.5 -4.5q3 -4 5 -12q2 -14 1 -33.5t-1 -42.5q0 -9 0.5 -22t0.5 -25t-1.5 -21t-6.5 -12q-7 -3 -23 -2t-33 1q-20 0 -38 -0.5t-23 7.5q-2 5 -2.5 13.5t0 19l1 21.5t0.5 20v130.5v135.5v133.5t1 124.5q5 2 14 1t10 7q-1 4 -4 4
t-6.5 -1l-7 -2t-6.5 2q0 4 4 3.5t5 2.5q0 5 -5.5 4.5t-4.5 4.5q2 12 11 14q11 3 22 -3t19 -4q5 -1 3.5 3.5t2.5 3.5h83zM176 597l12 -2.5t12 0.5q-2 7 -12 6.5t-12 -4.5zM38 603q6 -1 8 5q-2 4 -8 5q1 -4 -0.5 -6t0.5 -4zM335 576q1 -3 3.5 -6t6.5 -1q0 5 -4 7t-6 0z
M218 594v-3q2 0 2 -2h3q0 2 1 2v3q-2 0 -1 1h-3q0 -1 -2 -1zM192 607h5q0 5 -3 6q-2 -4 -2 -6zM24 637q2 0 2 -1t2 -1q2 2 1 5q-5 2 -5 -3zM185 299h4v4h-4v-4zM162 591q-1 2 -0.5 4.5t-2.5 1.5q-1 -6 3 -6zM255 594h3q0 2 0.5 2t0.5 2h-4v-4zM106 168h3v3h-3v-3z" />
    <glyph glyph-name="G" unicode="G" 
d="M136 520q-10 -3 -9.5 -19t0.5 -34v-48q1 -5 -3.5 -5.5t-6.5 -2.5q0 -4 5 -3t5 -4q1 -66 0 -134.5t1 -134.5q3 -8 16 -8h31q11 0 22.5 -1t19.5 1t13 6t12 1q2 6 -4 5t-7 4q-1 27 0 55.5t-1 54.5q-2 6 -7.5 7.5t-12.5 1.5h-14t-11 3t-5.5 9.5t-1.5 15t0.5 17.5t0.5 16
q0 15 -1 34t5 25q3 3 13.5 4.5t23 1.5t25.5 -0.5t21 -0.5h44h26.5t17.5 -6q3 -4 3.5 -14t0.5 -21.5t-1 -22.5t-1 -18v-154q0 -20 1 -39t-1 -38q-2 -21 -16.5 -41.5t-38.5 -27.5q-23 -7 -57 -5t-68 2q-29 0 -56 -1t-47 1q-26 2 -47 20.5t-24 49.5q-3 29 -1.5 62.5t1.5 67.5
v66q0 16 -1 32.5t1 32.5q0 7 1 10q1 1 3.5 2.5t2.5 2.5q0 2 -2 2.5t-4 2.5q-4 8 -2.5 26.5t1.5 31.5v147q2 2 4.5 3t4.5 4q3 1 5.5 -0.5t2.5 3.5q-1 8 -6.5 3.5t-10.5 -0.5q3 32 22.5 52.5t48.5 23.5q20 2 47.5 1t57.5 -1q23 0 46 1t43.5 -0.5t37.5 -6.5t28 -17
q8 -9 14.5 -21.5t8.5 -26.5q2 -18 1 -38.5t-1 -40.5q0 -6 1 -13t1 -14.5t-1 -14t-5 -10.5q-7 -7 -27 -6t-33 1q-7 0 -16 -0.5t-17.5 0t-15 2t-9.5 4.5q-3 5 -2.5 16l1 22.5t-0.5 22t-8 13.5q-8 5 -21 3.5t-24 -1.5h-20.5t-22.5 -2zM63 561q2 -3 8 -2.5t11 -0.5q1 5 5 7.5
t6 5.5q-8 4 -14.5 2t-14.5 3q5 -8 -1 -15zM307 561q4 -2 8 -3t9 -3q5 4 3 15q8 2 8 10h-5q0 -10 -9 -11.5t-14 -7.5zM329 460q-2 3 -8.5 4.5t-10.5 -1.5q3 -2 9.5 -5.5t9.5 2.5zM253 478q0 -9 6 -9q6 5 1 10q-3 1 -7 -1zM114 570q2 -4 7.5 -2t5.5 8q-10 0 -13 -6zM297 466
q0 4 -3.5 3.5t-6.5 -0.5q-4 -4 2.5 -6t7.5 3zM298 595q6 -2 9 2t-3 6q-2 -2 -5 -2.5t-1 -5.5zM297 573q5 -4 9 0v4q-3 2 -6.5 1t-2.5 -5zM301 313q3 -4 5 -2t4 5q-2 3 -5.5 2.5t-3.5 -5.5zM9 401q-1 -4 3 -4.5t6 1.5q1 5 -3 5t-6 -2zM220 361q-1 -5 3 -4.5t3 5.5q-5 0 -6 -1
zM295 503v-3q2 0 2 -2h3q0 2 1 2v3q-2 0 -1 1h-3q0 -2 -2 -1zM154 57q6 4 -1 7q-2 -2 -1.5 -4.5t2.5 -2.5zM279 502q7 -2 6 4q-2 0 -2 1t-2 0q-1 -2 -1.5 -2.5t-0.5 -2.5zM290 589q4 -1 4 2t-3 4q0 -2 -1 -3t0 -3zM320 488q3 -2 3 2t-3 2v-4zM324 535q6 0 6 1q-2 1 -1.5 2
t-1.5 1q1 -2 -0.5 -2t-2.5 -2zM310 624q0 1 1 1q0 4 -3 3q1 -2 0.5 -3t1.5 -1zM335 526h2v3h-2v-3z" />
    <glyph glyph-name="H" unicode="H" 
d="M233 397v199q0 7 -0.5 15t0 15.5t4 13t11.5 6.5q6 -2 1 -4t-4 -6q2 -2 4 -5t7 -2q5 5 0.5 10t-3.5 6q10 2 22.5 1.5t27.5 -0.5q14 0 32 0.5t22 -7.5q2 -4 2.5 -14t0 -21.5l-1 -23t-0.5 -19.5v-237q0 -88 0.5 -165.5t-1.5 -149.5q-8 -8 -24 -8h-33q-6 0 -16 -0.5t-20.5 0
t-18.5 2.5t-11 6q-2 4 -2.5 11.5t0 16.5l1 17.5t0.5 15.5v45.5v49.5v47.5t-1 40.5q-4 6 -13.5 8t-20.5 1.5t-23 -1.5t-22 0q-5 2 -4 8.5t-3 8.5q-3 -8 -9 -14q-1 -5 -5 -7t-5 -7q-1 -14 -0.5 -29.5t1.5 -31.5t1 -31.5t-2 -28.5l-1.5 -7.5t-4.5 -5.5q8 -8 7 -24.5t-1 -36.5
q0 -15 0.5 -31t-7.5 -21t-25.5 -3.5t-29.5 1.5q-16 0 -36.5 -0.5t-24.5 8.5q-3 6 -3.5 17.5t0.5 24.5l2 25.5t1 19.5q0 24 -2 45.5t3 38.5q2 6 4 1.5t6 -2.5q4 5 7 14t-1 15q-7 -5 -8 -11.5t-1 -13.5q-12 2 -11 15t1 21q0 32 -1 68.5t1 68.5q0 5 1.5 9t1.5 8t-1 7l-2 6
q-3 30 -1.5 62t1.5 63v125q6 12 24.5 11t41.5 -1q8 0 17 0.5t17.5 0.5t14.5 -1.5t9 -6.5q2 -4 2.5 -13.5t0 -20l-1 -21t-0.5 -16.5q0 -41 -0.5 -88t1.5 -85q5 -8 16 -9t24 0t25 1t18 -6q5 4 12 6.5t10 9.5zM262 590v6q-5 2 -5 -2.5t5 -3.5zM333 414h5v4h-3q0 -1 -1 -1.5
t-1 -2.5zM348 410h3q0 2 1 2t0 2h-4v-4zM20 298q1 -2 7.5 -2.5t5.5 3.5q-1 2 -7.5 2.5t-5.5 -3.5zM332 288q4 -4 6 1q-2 2 -4 1.5t-2 -2.5zM38 225h3v3h-3v-3z" />
    <glyph glyph-name="I" unicode="I" horiz-adv-x="195" 
d="M124 71q0 -4 -1.5 -4t-3 1t-3 1.5t-2.5 -2.5q2 -8 5 -9t5 -7q3 -11 1.5 -26t-5.5 -19q-3 -3 -10.5 -4.5t-16 -1.5t-17 0.5t-14.5 0.5q-14 0 -33 -0.5t-24 5.5q-3 3 -4 11.5t-1 20t0.5 24t0.5 21.5v527v23.5t11 12.5q10 3 25.5 1.5t31.5 -1.5q13 0 29.5 0.5t21.5 -4.5
q3 -3 4 -11t1 -18.5t-0.5 -20.5t-0.5 -18v-503zM83 578h3v3h-3v-3zM85 558q4 13 -2 18q-3 -3 -3 -9.5t5 -8.5z" />
    <glyph glyph-name="J" unicode="J" 
d="M347 578q-1 -6 4.5 -6t4.5 -5v-395q0 -24 1 -48.5t-1 -48.5q-2 -29 -22 -49.5t-50 -23.5q-21 -2 -48 -1t-56 1q-33 0 -68 -2t-59 6q-21 8 -35 27t-16 40q-3 26 -1.5 44t1.5 50q0 12 -0.5 24t7.5 16q3 2 18.5 3t34.5 1t35.5 -1t20.5 -3q7 -4 8 -12t0 -18l-2 -21t3 -20
q1 -5 6 -6.5t11.5 -2l13 -1t9.5 -3.5q0 -6 -5.5 -6.5t-5.5 -6.5q5 -7 15 -7.5t19 4.5q1 9 -6.5 10.5t-10.5 6.5q5 3 13 3t16.5 -0.5t16.5 0.5t11 7q2 6 1.5 21t-0.5 26v82.5v87.5v85.5t-1 76.5q-2 3 -4 4.5t-4 4.5q-12 1 -25 0t-20 6q-3 -3 -11.5 -5t-19 -2t-19 2t-11.5 7
q-1 2 -1.5 7.5t0 11.5t2 11.5t4.5 6.5q-5 5 -6 16t4 16q-5 6 -4.5 16.5t0.5 21.5q5 12 25 11t42 -1q13 0 26 -0.5t26 -0.5q23 0 43.5 1.5t35.5 -0.5q3 0 5.5 -0.5t5.5 -3.5q15 6 23 3t9 -22q1 -13 0 -27t-9 -19zM254 628q3 4 0.5 7.5t-7.5 2.5q-2 -3 0 -6.5t7 -3.5zM302 631
q-4 -1 -7 1t-6 -1q-1 -10 8 -10.5t16 0.5q3 -2 5.5 -4.5t7.5 -2.5q5 2 7 8t4 11q-7 2 -15.5 0t-10.5 -8q-2 2 -4 2.5t-3 2.5q1 2 2 3.5t1 4.5h-6q-3 -2 -0.5 -2.5t1.5 -4.5zM199 631q0 -5 5 -5.5t7 4.5q-1 3 -5.5 3t-6.5 -2zM172 618q1 2 1 4t-3 2q-2 -2 -1.5 -4t3.5 -2z
M132 617q3 -5 2 -8t3 -5q1 3 0.5 6.5t3.5 6.5q-4 5 -9 0zM188 605q4 2 5 7q-4 6 -8 5t-5.5 -4t0.5 -6t8 -2zM237 607q-3 2 -7 0t-5 -6q5 -2 7 -6t6 -6q4 2 3.5 7.5t1.5 7.5q8 -4 13.5 0t6.5 11q-10 2 -15.5 -1t-10.5 -7zM267 585q3 6 0.5 7t-4.5 0t-2.5 -3.5t6.5 -3.5z
M142 573q-4 2 -8 -0.5t-4 -8.5q9 -2 12.5 -9t13.5 -8q2 5 -2.5 10t-3.5 13q2 3 5.5 3.5t5.5 2.5q-2 8 -8.5 3.5t-10.5 -6.5zM160 560q4 4 -1 6q-2 -2 -1.5 -4t2.5 -2zM218 543q2 -1 3 -3t4 0q0 2 1 2.5t1 2.5q-4 2 -5.5 1t-3.5 -3zM265 484q-2 3 -3 7t-6 4q0 -5 2.5 -7
t6.5 -4zM265 470q5 -1 8.5 0.5t8.5 -3.5q1 6 7 12q2 -2 2.5 -3.5t3.5 -1.5q0 5 -4 6t-6 3q-1 -4 -4 -5t-6.5 -1.5t-6.5 -1t-3 -5.5zM249 470q0 -4 5 -3.5t3 4.5q-1 3 -5 3t-3 -4zM330 460q0 -8 3 -9q2 5 6.5 6t9.5 3q0 6 -8 5t-11 -2q-2 1 -3.5 3t-5.5 1q0 -7 3 -6t6 -1z
M263 455q2 -3 6 -3.5t7.5 1t5.5 4.5t0 7q-5 -2 -11 -2.5t-8 -6.5zM241 432q5 -2 10 2.5t9 7.5q-2 1 -2.5 2.5t-4.5 0.5q-1 -5 -5.5 -6.5t-6.5 -6.5zM320 438h3v3h-3v-3zM328 428q5 -9 15 -12l-2.5 7.5t-3 7t-4 2.5t-5.5 -5zM251 426q-3 -4 -1 -5.5t4 -1t2.5 2t-5.5 4.5z
M236 358h2v3h-2v-3zM38 169q10 -9 25 -10q5 4 2 10t-5 9q-7 -1 -14 -1t-8 -8zM106 165q3 -2 8.5 -1.5t6.5 4.5q-3 3 -9.5 4t-5.5 -7zM22 153q6 0 6 6q-4 3 -7.5 -0.5t1.5 -5.5zM86 126h3v2h-3v-2zM323 121q3 0 5 2q1 3 -4 5l-2.5 -2.5t1.5 -4.5zM66 98q-4 7 -10.5 11
t-10.5 -7q4 -5 4 -9.5t-1 -11.5q5 -5 12.5 -5.5t9.5 7.5q-3 2 -2.5 6.5t-1.5 8.5zM161 82q5 2 5 6q-2 5 -5 4.5t-5 -2.5t-1 -5t6 -3zM201 82q1 -5 2.5 -5t2.5 2t0.5 3.5t-5.5 -0.5zM170 39q8 -2 10 8q-5 5 -10.5 0.5t0.5 -8.5zM186 17h3q0 2 1 2t0 2h-4v-4z" />
    <glyph glyph-name="K" unicode="K" horiz-adv-x="440" 
d="M379 9q-2 -2 -3.5 -4.5t-3.5 -4.5q-31 1 -63 0t-59 4q-20 42 -40.5 95l-40.5 102l-6.5 15.5t-8.5 8.5q-6 1 -8.5 -4.5t-7.5 -5.5q1 16 -0.5 32t-2.5 32q0 7 1 14t-4 12q-7 -8 -4.5 -21t0.5 -24q0 -2 -1.5 -5t-1.5 -5q0 -6 1.5 -12t1.5 -11q1 -9 -0.5 -17.5t-2.5 -17.5
q-2 -47 0 -91t0 -91q-4 -6 -10 -10h-104q-8 6 -11 10q2 49 0.5 104.5t1.5 106.5q6 -1 9.5 -6t10.5 -1q3 4 -0.5 7.5t-3.5 8.5q-1 5 1.5 8.5t-0.5 8.5q-4 0 -5.5 -2.5t-2 -6t-0.5 -7t-3 -4.5q-9 -1 -7.5 8t-0.5 16q0 5 4.5 6t6.5 4q-2 5 -5.5 2.5t-5.5 0.5q1 41 1 83t-1 80
q2 3 4 4.5t4 4.5l-1.5 15t-6.5 10q1 35 0 71.5t2 70.5q2 0 8 -1t11 -2q2 -3 0.5 -5t-4 -3.5t-4 -3.5t-1.5 -5q1 -4 4 -5t6 -3l-5 -12t2 -12q8 2 12.5 7.5t8.5 13.5q-2 4 -6 1t-6 1q-1 5 3 10.5t13 3.5q2 2 0 5.5t1 5.5q5 1 5.5 -1.5t3.5 -1.5q-2 3 -3.5 7t-3.5 7
q-7 1 -8.5 -5t-7.5 -6q-2 6 -7.5 7t-10.5 4q2 11 -2.5 15.5t-10.5 8.5q2 6 7 8.5t12.5 3t16 0t15.5 -0.5q5 0 3.5 -2.5t0.5 -4.5q4 10 30 7q2 0 4 -1.5t4 -1.5q5 0 7.5 2t4.5 1q7 -2 11 -6.5t9 -4.5q2 -20 0 -36t0 -30q1 -3 -0.5 -4.5t-3 -2.5l-3 -2t-0.5 -4q-1 -6 2.5 -3.5
t4.5 -2.5q1 -11 0.5 -25.5t-0.5 -29.5t1 -28.5t5 -22.5q5 -1 4.5 5t1.5 8l42 71.5l42 73.5l13.5 24t18.5 20h124q2 -2 3.5 -4.5t3.5 -4.5q-3 -10 -9 -14q-3 -3 -3 -8.5t-7 -4.5q-4 4 -1 8t1 6t-5 3t-5 2q-5 -3 -0.5 -5t3.5 -6q-3 -4 -3 -10t-2 -11q4 0 5.5 1.5t3.5 2.5
q-1 -1 -2.5 -6t-4.5 -10t-6.5 -10t-8.5 -6q2 -8 -4 -19t-16 -13q1 -4 -1 -7t-3 -7q-3 -11 -8.5 -20.5t-12.5 -20.5l-19.5 -34l-19.5 -34q-5 -9 -10.5 -17.5t-8.5 -16.5q-4 -10 3.5 -25t12.5 -28l64.5 -159.5zM288 638h3v3h-3v-3zM90 628h3v3h-3v-3zM80 626h3v3h-3v-3z
M74 615h5v4h-3q0 -2 -1 -2t-1 -2zM311 609q1 3 0 5.5t-4 1.5q-2 -2 -1 -5.5t5 -1.5zM115 613q-2 0 -2 1t-2 1q-2 -3 1.5 -3.5t2.5 1.5zM66 601q3 0 5 5q-2 0 -2.5 1t-2.5 0v-6zM118 594q2 5 -2.5 8.5t-10.5 3.5q1 -6 4.5 -8t8.5 -4zM77 604q-1 -6 2 -3.5t-2 3.5zM83 594
q1 -4 1.5 -7.5t5.5 -3.5q2 3 2 9t-4 7zM111 580q5 -1 4 5.5t-6 4.5q2 -3 1 -5.5t1 -4.5zM231 578q6 0 6 6q-4 0 -6 -6zM339 575h3v3h-3v-3zM220 569q3 0 7 2q0 4 -2 4q-1 -2 -3 -2.5t-2 -3.5zM67 572q0 -18 6 -33q-4 -4 -8.5 -13.5t2.5 -14.5q9 7 10.5 17.5t5.5 20.5h-9
q1 4 -0.5 5t-0.5 5q1 5 4.5 6.5t2.5 6.5q-4 2 -6 1t-7 -1zM324 565q5 3 6 7q-4 5 -7.5 0t1.5 -7zM44 562q9 3 14 -1q0 9 -16 7q0 -2 2 -6zM276 548q-3 0 -6.5 -2t-9.5 -4q-2 -1 -4.5 0t-3.5 0q-5 -2 -6.5 -6.5t-4.5 -5.5q-3 0 -5 2.5t-5 -0.5q2 -7 10 -6t11 -7q2 2 1 8.5
t4 5.5l9.5 -7.5t9.5 -6.5q1 3 3.5 4.5t2.5 5.5q0 3 -3 2.5t-1 4.5q5 2 7 0t4 0q-2 4 -5 7.5t-8 4.5zM300 540q-1 -5 2.5 -10t8.5 -3q-4 3 -6 9q4 2 6 1.5l6 -1.5q-2 7 -7 7.5t-10 -3.5zM102 536q5 0 6 3q-2 0 -2.5 1t-2.5 2q0 -2 -1 -3t0 -3zM189 527q5 -1 6 3t3 6
q-5 1 -6.5 -1.5t-2.5 -7.5zM209 503q1 8 -2 13q1 2 3 3t2 4q-5 0 -5 3t3 2.5t1 4.5q-6 0 -8.5 -4t-2.5 -9.5t2.5 -10.5t6.5 -6zM292 524q1 2 2 2.5t1 2.5q-2 4 -5 0.5t2 -5.5zM247 503q1 2 2 2t1 2q-2 4 -5 0.5t2 -4.5zM259 501q3 -2 3 2.5t-3 2.5v-5zM69 500q-1 -5 5 -5v6
q-4 0 -5 -1zM67 472q2 -2 5 0.5t2 6.5q-2 0 -2 1t-2 1q-1 -2 -2.5 -3.5t-0.5 -5.5zM15 463q2 4 1 8h-5q-2 -8 4 -8zM40 468q-7 -5 -10.5 -13t-7.5 -16q4 -2 15 -2q1 5 -1.5 8.5t2.5 4.5q5 -1 6.5 -4t8.5 -1q1 2 1 4.5t1 5.5q-5 2 -7 7t-8 6zM67 450q2 2 5 4.5t-2 4.5
q-1 -2 -4 -4.5t1 -4.5zM32 227q6 -2 7.5 1.5t2.5 8.5q-4 5 -9 0t-1 -10zM15 38q0 8 -4 7q-2 -2 -1.5 -5t5.5 -2zM35 32v-3q2 0 2 -1h3q0 1 1 1v3q-2 0 -1 1h-3q-1 -1 -2 -1zM32 4q5 0 5.5 4.5t-5.5 3.5q-4 -4 0 -8z" />
    <glyph glyph-name="L" unicode="L" 
d="M36 641q-2 -8 -5 -3.5t-8 3.5q-2 -3 -0.5 -7t0.5 -9q6 0 15.5 3t19.5 0q7 4 12.5 4t10.5 5q1 -3 -0.5 -3.5t0.5 -2.5q5 1 7 4t7 3q-1 -5 -3 -7.5t3 -5.5q5 0 6.5 3t3.5 6q6 -3 8 -0.5t8 3.5q4 -7 3.5 -17.5t-0.5 -21.5q0 -15 0.5 -30t-6.5 -21q1 -2 2.5 -4t3.5 -5v-353
q0 -20 -1 -36.5t11 -23.5h210q8 -6 11 -10v-104q-3 -5 -7.5 -5t-6.5 -3q-5 -1 -5.5 3t-4.5 5q-3 1 -3.5 -0.5t-0.5 -3t-0.5 -3t-2.5 -1.5q-2 9 0 12.5t7 8.5q-2 6 -9 5.5t-10 -2.5q0 -7 2.5 -13.5t0.5 -11.5q-3 -2 -5 -1.5t-4.5 2t-5 2t-5.5 -1.5q-3 2 -5 4.5t-5 4.5
q-8 -4 -16.5 -5t-12.5 6q-13 -2 -31 -2.5t-30 4.5q-5 0 -6.5 -2.5t-5.5 -3.5q-4 -2 -2.5 -6t-6.5 -3q-5 1 -2 5t0 6q-10 -2 -15.5 -2.5t-6.5 -8.5q-15 0 -29.5 0.5t-24.5 5.5q-3 -5 -9 -5.5t-14 -0.5q-4 2 -1 4.5t-1 4.5q-7 1 -6 -3t-4 -6q-8 1 -17.5 0.5t-18.5 -0.5
t-15.5 2.5t-9.5 8.5v496q0 5 2.5 6t4.5 3q0 4 -3.5 3.5t-3.5 2.5q2 17 0.5 34t0.5 30q3 6 10 7.5t11 6.5q3 -2 8 -2.5t9 1.5q3 3 3.5 7t2.5 9q-5 2 -8.5 -2.5t-8.5 -4.5q-3 1 -2.5 2.5t1 3.5t0.5 3.5t-4 1.5q-6 -1 -3.5 -6t-0.5 -10q-9 -4 -18 0q-1 11 11 14q2 7 0.5 16
t6.5 13q3 1 10 0t7 -5zM99 615h4v4h-3q0 -1 -1 -1.5t0 -2.5zM10 611v-3q3 -2 3.5 1.5t-1.5 2.5q0 -3 -2 -1zM81 590q3 -2 4.5 -6t6.5 -4q0 3 2.5 3.5t1.5 5.5q-2 2 -7.5 4t-7.5 -3zM61 523q0 8 -4 8q-2 -2 -1.5 -5.5t5.5 -2.5zM55 377q0 -6 6 -6q0 2 1 1q0 6 -5 6
q0 -2 -2 -1zM296 73h3v3h-3v-3zM35 61q0 -6 4.5 -6t5.5 5q-2 2 -5 3t-5 -2zM68 53q0 4 -3 4q-2 -2 -1.5 -4t4.5 0zM333 43q1 -6 3 -6t3.5 2t0.5 4t-7 0z" />
    <glyph glyph-name="M" unicode="M" horiz-adv-x="567" 
d="M23 646q6 -2 12 -0.5t14 0.5q4 -3 2 -7.5t2 -7.5q6 2 4 6t1 7q2 2 7 2t7 -2q0 -3 -2 -4t-4 -3q2 -3 3.5 -6t6.5 -3q6 3 2.5 8.5t0.5 9.5q5 -1 7.5 -4t5.5 -5q6 5 13.5 8t15.5 -2q11 4 25 3t28 0q11 -5 12.5 -20.5t6.5 -27.5q-1 -3 -1.5 -5t-1.5 -4q5 -5 6.5 -13.5
t1.5 -18.5q-8 2 -13 7t-11 9q-4 -2 -4 -6.5t-3 -6.5q7 -6 16 -6.5t17 -2.5q2 -5 3 -12t3 -12q0 -5 -3.5 -5.5t-5.5 -2.5q-1 -3 1.5 -3.5t1.5 -3.5q0 -1 -2 -3q-1 -1 -2 -1q0 -4 3.5 -7.5t0.5 -11.5q5 -4 6 1t6 3q3 -20 6.5 -39l7.5 -39t8.5 -39t6.5 -38q1 -11 0 -23t5 -21
q11 4 10.5 19t0.5 25q2 20 6.5 42l9.5 45l7.5 45t8.5 41q0 5 4 8q-2 15 2.5 29.5t6.5 30.5q0 4 2.5 5.5t4.5 3.5q-6 7 -2.5 17t3.5 20q4 5 5 2.5t6 -0.5q0 4 -1 4.5t-3 0.5t-3 0.5t-1 4.5q4 3 6 0t4 -4q5 2 6 5.5t6 -1.5q4 2 1 4.5t1 4.5q24 1 49 -0.5t51 -1.5q18 0 34 1.5
t25 -9.5q-4 -8 -0.5 -17t-2.5 -17q5 -23 3.5 -52.5t-0.5 -56.5q1 -4 -1.5 -4.5t-3.5 -2.5q6 -2 5.5 -9.5t-0.5 -15.5q-3 -3 -7 0q0 -3 1 -4t2.5 -2t2 -2t-1.5 -3q-8 1 -12.5 0t-10.5 -2q-2 -2 1 -4.5t1 -7.5q2 6 7.5 5.5t11.5 -2.5q3 -12 -3 -21.5t-12 -15.5q1 -5 8.5 -3.5
t10.5 -1.5q2 -93 1 -188t0 -189q1 -5 -2.5 -5.5t-5.5 -2.5q0 -3 2 -5t-1 -5q-12 0 -28.5 -2t-25.5 6q-2 -2 -7 -4t-10 -2t-9 2t-4 7q-4 1 -4.5 -1.5t-4.5 -1.5q0 5 -3 8q-7 0 -9.5 -3t-9.5 0q-4 9 -3.5 19.5t0.5 20.5q0 71 -1.5 148.5t1.5 148.5l2.5 13t-5.5 12
q-7 -2 -7 -8.5t-1 -10.5q-14 -75 -26.5 -152.5t-26.5 -152.5q-2 -11 -2.5 -22.5t-7.5 -21.5q-5 -1 -5.5 2.5t-5.5 1.5q-4 -1 -1.5 -3.5t1.5 -4.5q-11 -2 -16 1.5t-10 6.5l-10 -2t-9 -3q-3 1 -5.5 2.5t-5.5 2.5q-12 -2 -19 0t-15 3q-16 85 -29.5 171t-28.5 171q-2 5 -2 11
t-6 8q-8 -2 -6.5 -11t2.5 -14q4 -81 0.5 -167.5t-0.5 -169.5q-5 -5 -10 -4.5t-9 -5.5q-10 0 -20 -0.5t-16 3.5q-12 -5 -28.5 -3.5t-31.5 0.5q-2 3 -5 5.5t-5 5.5q1 125 0 253t0 256q0 2 -0.5 6t0 8t2.5 7t7 3q4 -2 1.5 -7t-4.5 -7q4 -9 0 -15q1 -8 6.5 -10.5t6.5 -10.5
q5 -1 6.5 2t3.5 6q-2 5 -3.5 3.5t-6.5 -1.5q3 6 -0.5 6.5t-4.5 6.5q6 4 10 -1t9 1q0 5 -2.5 8t-4.5 8q2 6 8.5 7t1.5 10q2 2 6 1.5t6 1.5q1 4 -1.5 3.5t-4.5 -0.5q2 5 6.5 7t6.5 8q-4 5 -6.5 0.5t-5.5 -6.5q-7 2 -8 -2t-7 -3q-5 2 -3 12t-3 12q-5 -4 -10.5 -10t-10.5 -5
q-4 5 0.5 7.5t8.5 4.5q2 5 -2 4t-5 2q2 5 10.5 4t15.5 0q2 -4 2 -7.5t1 -8.5q8 2 14.5 4.5t12.5 -2.5q0 9 -3.5 18t2.5 16q-2 2 -6 2t-6 -2q-5 2 -6.5 6.5t-7.5 3.5q0 -4 3 -6.5t6 -5.5t4 -6.5t-3 -8.5q-11 -1 -13.5 6t-9.5 10q3 6 1.5 10.5t-4.5 9.5l3.5 7t2.5 8zM428 636
q5 -4 9 0v4q-3 2 -6 1t-3 -5zM123 634q4 -1 4.5 2.5t-3.5 3.5q0 -2 -1 -3t0 -3zM31 634h3v3h-3v-3zM358 627q-1 1 -6 3q-4 -4 1.5 -7t4.5 4zM117 624q1 0 4 -3q1 2 2 2.5t1 1.5q-2 1 -2 2t-2 1q0 -2 -1 -2t-2 -2zM429 609q5 -2 12 -6.5t13 1.5q2 7 -3 13t-10.5 8t-10 -1
t-1.5 -15zM318 611q2 2 4 2t4 -1t3.5 -1t2.5 3q-1 1 -4.5 2t-6.5 1t-4.5 -1t1.5 -5zM400 598q-3 -5 -10.5 -4.5t-9.5 -5.5q5 -5 13 -2.5t15 3.5q1 17 17 22q-1 5 -6 6.5t-10 -1t-8 -7t-1 -11.5zM40 604q0 3 -3 4q-2 -2 -1.5 -4t4.5 0zM328 595q3 1 6.5 2t3.5 5q-1 4 -3.5 4
t-5 -1.5t-3 -4t1.5 -5.5zM110 582q0 2 3 3q0 5 -3.5 5.5t-3.5 4.5q4 8 -5 9q-5 -6 -0.5 -13t9.5 -9zM78 593q0 -4 6 -4q0 6 -5 6q0 -2 -1 -2zM329 592q-1 -4 -0.5 -4.5l2.5 -2.5q5 3 7.5 2t8.5 -2q1 4 0 6t-3 4q-9 -3 -15 -3zM422 589q2 -2 5 -1t5 2q1 6 -5 5t-5 -6z
M480 580q2 4 -1.5 6.5t-8.5 2.5q1 -7 10 -9zM360 580q3 4 1.5 5.5t-3.5 0.5t-3 -2.5t5 -3.5zM88 582h3v3h-3v-3zM422 576q3 -2 5 -3.5t4 3.5q-2 2 -5 3t-4 -3zM143 572q2 0 2.5 -2t3.5 -1q4 2 2 4.5t-5 4.5q0 -2 -2 -2.5t-1 -3.5zM111 569q1 4 -5 4q-2 -4 0.5 -5t4.5 1z
M476 564q0 2 0.5 3t0.5 2q-2 0 -2.5 1t-2.5 0q-1 -6 4 -6zM418 563q4 4 -2 6q-1 -2 -1 -4t3 -2zM482 563h4q0 6 -4 6v-6zM68 561q2 0 2 -1t2 -1q2 1 1.5 4t-2.5 3q-1 -2 -2 -2.5t-1 -2.5zM425 563q2 -2 4 -1.5t2 2.5q-4 4 -6 -1zM461 553q-2 11 -13 11q-3 -5 2.5 -10
t10.5 -1zM361 559v2q-2 4 -3.5 0t3.5 -2zM91 553q-2 9 -10 8q-2 -2 1.5 -7.5t8.5 -0.5zM65 553q2 -1 2 -2t2 -1q0 2 1.5 2t1.5 2q-2 1 -2 2t-2 1q-1 -2 -2 -2t-1 -2zM175 537q-3 1 -4 3.5t-4 3.5q2 -9 -6.5 -13.5t-12.5 3.5q2 2 4.5 3t2.5 6q-8 -1 -16 -3t-18 0
q-2 -2 0.5 -7.5t-2.5 -7.5q-5 2 -9 5t-10 4q-3 -2 -4.5 -4t-4.5 -3q-8 -2 -10.5 0.5t-6.5 -0.5q-4 0 -4 3t-4 2q-5 0 -5.5 -3.5t-5.5 -3.5q-3 2 -7 3t-8 3q-2 -2 -2.5 -4.5t-1.5 -4.5q8 -6 16 -4.5t16 0.5q3 -5 7 -8t7 -8q7 -2 10.5 0t6.5 4.5t6.5 4.5t10.5 1q5 -7 5 -13.5
t8 -9.5q2 2 0 4.5t-3 4.5q6 6 16 2q-2 8 2.5 10.5t8.5 4.5q2 -3 3 -6.5t5 -5.5q2 8 12.5 8t13.5 7q-4 1 -4 7q5 2 6 10t-4 12q-2 -2 -3.5 -6t-6.5 -4zM194 524q8 -1 6 6q-3 3 -6 0t0 -6zM302 524q6 -2 11.5 -8t11.5 -4q-2 2 -5 5.5t-6 6t-6 3.5t-6 -3zM312 511
q-2 0 -2.5 0.5t-2.5 0.5q-5 -6 -0.5 -7.5t5.5 6.5zM46 506q-1 -4 3 -4t3 4q-3 0 -3.5 1t-2.5 -1zM318 499q0 2 1 3t0 3h-4q-2 -6 3 -6zM53 498q-1 1 -2.5 0t-1.5 -2q-2 -4 2 -2t2 4zM167 487q3 3 1.5 5.5t-6.5 3.5q-3 -2 -1.5 -5t6.5 -4zM148 492v-3q1 0 1 -2h3q0 2 1 2v3
q-1 0 -1 1h-3q0 -2 -1 -1zM63 489h3v3h-3v-3zM384 483h3v3h-3v-3zM290 471q0 -4 6 -6q0 2 1 3t0 3q-3 4 -7 0zM344 455q2 5 0 9.5t-7 3.5q-3 -4 -0.5 -8t7.5 -5zM486 464h3v3h-3v-3zM429 458h3v3h-3v-3zM332 448q2 2 0.5 5t-4.5 2q-2 -2 -0.5 -4.5t4.5 -2.5zM427 402
q7 -4 14.5 -3t12.5 6q-1 11 -4 19t4 18q-4 2 -10.5 2.5t-11.5 5.5q-3 -12 -3 -24.5t-2 -23.5zM379 441q2 5 -2 6q-2 -2 -1.5 -4t3.5 -2zM409 416q4 3 4 12t-2 14q-2 0 -2.5 1t-2.5 1q-1 -2 -2 -6.5t-1 -9.5t1.5 -8.5t4.5 -3.5zM307 428q4 0 4.5 6.5t-4.5 4.5q-2 -2 0 -4.5
t0 -6.5zM357 431q4 -4 3.5 0t-3.5 0zM475 416q0 2 -3 5q-4 -6 3 -5zM345 400v7t-4 2q-2 -2 -1.5 -6.5t5.5 -2.5zM414 400q0 8 -5 7q-2 -2 -1 -5t6 -2zM75 6q5 -1 5 3t-5 3v-6zM453 9q-2 5 -5 0q-1 -2 2.5 -2t2.5 2z" />
    <glyph glyph-name="N" unicode="N" horiz-adv-x="454" 
d="M7 9q2 0 2.5 -1t2.5 -1v-3q-3 0 -3 -1q-2 0 -1.5 2t-0.5 4zM299 645q0 -5 -3.5 -4.5t-7.5 0.5v4q2 2 5.5 2t5.5 -2zM296 104q2 4 2 6h-5q0 -4 3 -6zM19 149q8 -1 8.5 7.5t-7.5 7.5q-1 -4 -2 -7.5t1 -7.5zM124 354q-1 3 1 5q-2 0 -2 1t-2 0q-1 -4 3 -6zM187 407q5 5 -1 5
q-2 -1 -1.5 -3t2.5 -2zM42 561h3v3h-3v-3zM372 582q3 -2 3 2.5t-3 2.5v-5zM341 591q2 -2 4 -1.5t2 3.5q-5 2 -6 -2zM312 584q0 4 -6.5 4.5t-10.5 2.5l-14.5 7.5t-10.5 -1.5q2 -8 7 -10.5t12 -4.5q1 -3 -0.5 -3.5t-0.5 -3.5q3 -1 5 -2.5t6 -1.5q2 5 8 6.5t5 6.5zM360 604
q0 -7 6 -7q1 2 2.5 3t0.5 4q-4 5 -9 0zM278 606q5 1 8 4t5 7q-2 4 -5 4t-5.5 -2.5t-3.5 -6t1 -6.5zM321 630q5 6 0.5 6t-5.5 -2q0 -1 5 -4zM340 635q2 -1 2 -1.5t1 -1.5q3 -1 3.5 1t2.5 2q0 5 -4.5 5t-4.5 -5zM169 577q-11 1 -17.5 -4.5t-6.5 -19.5q9 2 13.5 7.5t14.5 5.5
q20 -58 37.5 -116l36.5 -117q2 -8 5 -16t8 -15q9 5 6.5 14t-3.5 17q-2 17 -3.5 36.5t-0.5 41.5q-2 5 1.5 5.5t3.5 3.5q1 4 -2.5 4.5t-2.5 5.5q1 51 0 102t1 100q3 -1 4.5 -3t4.5 1q1 6 -3.5 4t-5.5 1q2 11 10.5 9t14.5 -5q5 -3 8.5 -8.5t8.5 -4.5q8 4 6.5 8.5t-3.5 11.5
q16 1 31 0t29 0q2 -2 0 -5.5t3 -4.5q7 0 3 3.5t-1 5.5q12 1 13 -11t1 -25q0 -17 0.5 -34t-5.5 -26q6 -12 5.5 -35t-0.5 -43v-232.5t-2 -229.5q-2 -2 -5 -3t-5 -3q-6 2 -17 -1t-19 2q-12 -5 -30.5 -3t-29.5 2q-2 2 -0.5 5.5t-0.5 5.5q-6 1 -8.5 -5t-7.5 -8q-10 -3 -16.5 0.5
t-10 11t-5.5 16.5t-5 17l-41 130.5l-42 128.5l-6 22t-11 17q-7 -6 -5 -14l4 -16q5 -32 5.5 -69.5t-0.5 -77t-1.5 -79.5t0.5 -77q-4 -2 -10 -10h-90q-5 3 -3 7t-2 6q-5 -1 -11 -0.5t-9 2.5v620q7 12 29.5 11t48.5 -1q18 0 38.5 1t28.5 -4q7 -4 9 -15t4 -17q3 -9 6.5 -17
t4.5 -17z" />
    <glyph glyph-name="O" unicode="O" 
d="M142 646q0 -5 -1.5 -7.5t3.5 -4.5q4 0 4.5 2t0 4t-0.5 3.5t3 2.5h9q2 -5 -2 -4.5t-3 -4.5q2 -2 4.5 0t4.5 -1q-1 -4 -2.5 -6t-3.5 -6q5 -4 9 0q5 -1 5 -5.5t5 -4.5q5 6 2 12.5t-7 10.5q1 8 9.5 8.5t17.5 0.5q15 0 30.5 0.5t26.5 -4.5q7 3 16.5 2t12.5 -8q3 -1 4 0.5
t4 0.5q24 -14 41.5 -33t21.5 -51q3 -29 1.5 -58t-1.5 -57v-228q0 -29 1 -57.5t-1 -55.5q-3 -38 -30.5 -65.5t-66.5 -30.5q-18 -2 -39 -1t-41 1t-40.5 -1t-38.5 1q-22 2 -39.5 11t-28.5 19q-11 12 -20 29.5t-11 37.5q-2 27 -1 56t1 58v223q0 22 -0.5 45t0 44t4.5 40t13 33
q6 1 9.5 4.5t8.5 6.5q5 0 2.5 -2.5t0.5 -4.5q3 2 3 6t5 6q-2 4 -5 2t-6 0q2 5 6.5 6.5t6.5 5.5q5 -2 8 -5t7 2q0 6 -4 4t-3 3q6 6 16 8t19 -3q6 -1 8.5 5t8.5 2q1 -7 -2 -9.5t-5 -6.5q2 -5 8 -7q0 -5 -4 -9t2 -9q6 2 7.5 8t6.5 8q0 5 -4 5t-5 4q-2 13 6 17t23 2zM182 636
q0 2 1 3t0 3q-4 1 -4.5 -2.5t3.5 -3.5zM243 633q3 4 1.5 5t-4 0.5t-3 -2t5.5 -3.5zM266 634h3v3h-3v-3zM83 621h10q0 8 -9 10q-2 -2 -1.5 -4.5t0.5 -5.5zM73 624q0 -2 1.5 -1t2 2.5t0.5 2t-3 -1.5q0 -1 -1 -0.5t0 -1.5zM186 621h3v3h-3v-3zM208 614q6 0 6 4q-2 0 -2.5 1
t-2.5 1q0 -2 -1 -3t0 -3zM264 618q0 -4 6 -4q2 6 -4 6q0 -2 -2 -2zM301 608q1 5 -5 7v-5.5t5 -1.5zM259 602q3 0 5 2q1 2 -4 6q-2 -3 -2.5 -3.5t1.5 -4.5zM211 602q2 -2 5.5 -2t5.5 2q1 3 -1 3.5t-2 2.5q-4 1 -5 -1.5t-3 -4.5zM304 594q0 5 -1 8.5t-5 4.5q-2 -5 -1.5 -10
t7.5 -3zM126 499q-1 -17 -0.5 -38.5t0.5 -35.5v-199q0 -6 -0.5 -20.5t-0.5 -30t1.5 -29t4.5 -16.5t17.5 -4.5t31 -1.5t31 1.5t17.5 4.5q4 4 5 15.5t1 26t-1 29t-1 24.5v197q0 10 1 25t1 29t-1 25.5t-5 15.5q-3 3 -16.5 4.5t-29 1.5t-29 -1t-16.5 -2q-8 -3 -9 -7t-2 -14z" />
    <glyph glyph-name="P" unicode="P" horiz-adv-x="416" 
d="M261 646q2 -3 0 -7t0 -9q5 1 3.5 7t0.5 8q9 -2 17.5 -4.5t14.5 -7.5v-14.5t-4 -10.5q0 -4 3 -7t4 -9q0 -5 -1 -11l-2 -12t0 -11.5t7 -8.5q7 15 5 35t0 40q5 1 9 -2.5t8 -7.5q9 -9 18 -25.5t11 -33.5q4 -33 2 -71t-2 -75q0 -38 1.5 -74t-1.5 -70q-2 -20 -10 -35.5
t-19 -26.5q-16 -16 -36 -22.5t-44 -8.5t-52 -1t-60 -1q-9 -3 -9 -15v-27v-109q-3 -3 -3.5 -8t-3.5 -8q-10 -2 -24.5 -2h-31.5q-14 0 -31 -1t-25 4q-3 3 -4.5 11t-1.5 19.5t0.5 23.5t0.5 22v521v29.5t11 15.5t30 1.5t33 -1.5h186zM139 606q-2 -4 0 -5t2 -3q11 0 11 10
q-5 1 -8 0t-5 -2zM63 550h4q1 5 -4 5v-5zM125 462v-111v-30t5 -21q5 -4 21.5 -4h26.5q11 0 27 -1t22 5t5.5 20.5t-0.5 30.5v114v29.5t-5 22.5q-3 3 -16.5 4.5t-28.5 1.5t-28.5 -0.5t-17.5 -2.5q-11 -4 -11 -22.5v-35.5zM262 335q1 -6 7 -7q2 2 -1 6.5t-6 0.5zM86 144
q1 -2 4 -4t6.5 -2.5t6 1.5t2.5 6q-2 5 -10 5.5t-9 -6.5zM38 23h5v4h-5v-4z" />
    <glyph glyph-name="Q" unicode="Q" 
d="M300 133q5 -6 12 -6.5t14 0t14 0.5t12 -5q7 -7 5.5 -26t-1.5 -32q0 -16 1 -34t-5 -24q-3 -3 -10.5 -4t-16.5 -1t-18 0.5t-16 0.5h-64q-33 0 -64.5 -1.5t-64.5 1.5q-31 3 -53 20t-33 38q-12 25 -11 66t1 84v231q0 29 -1.5 58.5t1.5 55.5q4 38 32.5 63t63.5 29q23 2 48.5 1
t50.5 -1q6 0 14 0.5t13 -4.5q24 6 47 1.5t41 -17.5t30 -32.5t14 -43.5q2 -18 1.5 -39.5t-1.5 -44.5q-1 -38 -0.5 -80.5t0.5 -83.5q0 -35 -0.5 -69t-12.5 -55q-4 -7 -9.5 -13.5t-10.5 -11.5q-6 -5 -13.5 -9t-9.5 -12zM72 580q2 3 -3 6q-2 -2 -1.5 -4.5t4.5 -1.5zM88 582h2v3
h-2v-3zM125 500q-2 -17 -1 -38.5t1 -35.5v-199q0 -6 -0.5 -20.5t-0.5 -30t1.5 -29t4.5 -16.5t17.5 -4.5t31 -1.5t31 1.5t17.5 4.5q4 4 5 15.5t1 26t-1 29t-1 24.5v197q0 10 1 25t1 29t-1 25.5t-5 15.5q-3 3 -16.5 4.5t-29.5 1.5t-29.5 -1t-16.5 -3q-8 -3 -8.5 -6.5
t-1.5 -13.5zM35 478h3v3h-3v-3zM349 455h3v3h-3v-3zM50 380q3 -2 4.5 3t-3.5 4q-2 -4 -1 -7zM240 265q4 -2 5 -0.5t5 1.5q3 -2 6.5 -4t9.5 -2q4 8 5 15q-4 0 -9.5 0.5t-10.5 0t-8.5 -3t-2.5 -7.5zM241 249q5 -1 5 3t-5 3v-6zM320 252q4 -4 6 1q-2 2 -4 1.5t-2 -2.5zM249 239
q0 6 -5 5q-2 -2 0 -3.5t5 -1.5zM253 215h3v3h-3v-3zM246 13q2 -4 11 -4t11 6q-2 4 -11.5 5t-10.5 -7z" />
    <glyph glyph-name="R" unicode="R" 
d="M12 647q4 -1 7.5 -3.5t5.5 -2.5q3 0 5.5 2t6.5 2t9 -2t12 -2q15 0 29 4t34 4q17 0 27.5 -4t19.5 -4q4 0 7.5 2.5t6.5 2.5q1 0 1 -0.5t1 -0.5q16 0 30.5 1.5t29.5 1.5q58 0 85.5 -37.5t27.5 -103.5q0 -23 -1 -47.5t-1 -49.5q0 -24 1 -48.5t1 -47.5q0 -72 -27 -105
q-8 -9 -20 -16.5t-17 -18.5q11 -32 23 -61.5l26 -62.5l8.5 -19t5.5 -20q0 -7 -7 -9t-18 -2q-10 0 -19.5 1t-15.5 1q-11 0 -22 -1t-22 -1q-22 0 -29 13.5t-15 33.5q-6 15 -13 36.5t-15.5 41.5t-17.5 34t-19 14q-13 0 -16.5 -11t-3.5 -29q0 -11 0.5 -19.5t1 -18.5t1 -22.5
t0.5 -30.5q0 -26 -4 -33.5t-27 -7.5q-9 0 -17.5 0.5t-15.5 0.5t-16 -0.5t-17 -0.5q-18 0 -23.5 5.5t-5.5 34.5q0 144 0.5 283.5t0.5 285.5v16q0 8 1.5 13.5t9.5 7.5zM82 546q5 0 7 5q-1 0 -2 0.5t-2 0.5q-3 0 -3 -4v-2zM124 462v-134q0 -25 7.5 -28.5t26.5 -3.5h18
q6 0 12.5 -0.5t13.5 -0.5q15 0 22 4.5t7 23.5v41t-0.5 34.5t-0.5 32.5v34v24q0 14 -2 21t-8 10t-16 3.5t-26 0.5q-20 0 -31 -1t-16.5 -5t-6.5 -10t-1 -17q0 -8 0.5 -15t0.5 -14zM108 302q0 8 -4 8q-2 -2 -2 -4q0 -4 6 -4zM155 254h1q2 0 2 3q0 2 -2 2q-1 0 -1 -5zM88 248
q1 0 2 -0.5t2 -0.5q7 0 7 6q-2 2 -4 2q-7 0 -7 -7zM134 244q3 0 5 -1q1 1 1 3q0 4 -4 4q-2 -4 -2 -6zM59 225v-2q0 -5 5 -5q3 2 3 4q0 4 -5 4q-2 0 -3 -1zM53 202q3 0 3 3q-3 0 -3 -3zM296 193q0 -1 3 -1q1 0 1.5 0.5t1.5 0.5h2q0 4 -3 5q0 -2 -2.5 -1.5t-2.5 -1.5v-2z
M200 188q1 -1 4 -1q4 0 4 3q0 5 -6 5q0 -2 -1 -2.5t-1 -2.5v-2zM226 176q3 0 3 3q-3 0 -3 -3zM246 134q1 -1 2 -1q5 0 5 7q-7 -2 -7 -6zM278 137q-2 0 -3 1.5t-3 1.5q-1 0 -1 -3q0 -4 3 -4q4 0 4 4zM48 122h5q0 5 -5 5v-5zM107 42q1 1 1 4q0 4 -4 4q-1 -1 -1 -3q0 -3 4 -5z
" />
    <glyph glyph-name="S" unicode="S" 
d="M231 513q-3 9 -18.5 9h-32.5h-25.5t-19.5 -2q-9 -2 -9 -16.5v-31.5q1 -14 -0.5 -25.5t0.5 -18.5q3 -11 21 -19.5l30 -14.5l57 -29.5l57 -29.5q13 -7 28.5 -14.5t23.5 -17.5q9 -12 11.5 -28.5t2.5 -35t-1.5 -40t0.5 -44.5q-1 -3 -6 -2.5t-7 -1.5q0 -5 6 -3.5t7 -2.5
q2 -48 -2.5 -81t-33.5 -51q-11 -7 -26.5 -10t-34 -3.5t-39 0.5t-41.5 1h-68t-57 5q-4 2 -2 8q-3 5 -6.5 0.5t-6.5 -0.5q-15 7 -23 20t-11 31t-3 40v46q0 17 -2 31t6 22q6 6 25 5t33 -1q13 0 32 1.5t26 -5.5q5 -5 5 -16t-1 -23t0 -22.5t8 -14.5q8 -5 21 -3.5t24 1.5h22.5
t22.5 2q9 2 9 16.5v31.5q0 14 1 25.5t-1 17.5q-3 11 -19.5 18.5t-28.5 13.5l-52.5 27.5l-52.5 27.5q-20 11 -40.5 19.5t-30.5 28.5q-6 12 -7.5 26t-0.5 29.5t2 33.5t-1 38l11.5 -5.5t12.5 2.5q1 6 -2 8t-7 2.5l-8 1t-7 2.5q1 23 -0.5 43t0.5 37q2 31 22 51t50 23
q28 3 58 1.5t54 -2.5q2 0 4 -1.5t3 -1.5q4 1 6 2.5t6 1.5q8 1 17.5 0.5t20.5 -0.5q23 2 40 0q30 -2 50 -22t23 -46q2 -15 2 -26.5t-0.5 -22t-1 -22.5t-0.5 -28q0 -8 0.5 -19t-4.5 -16q-8 -8 -25.5 -6t-34.5 2q-14 0 -32.5 -1t-24.5 7q-5 7 -3.5 19.5t1.5 23.5v7.5v4t-0.5 4
t-1.5 8.5zM71 484q3 -3 7.5 -3.5t7.5 -2.5q3 3 1 7q-5 1 -10 4t-6 -5zM129 113h6q2 7 -4 6q-2 -4 -2 -6zM161 110q-2 -3 1 -7t8 -3q4 5 0 10t-9 0zM128 78q0 4 -3 5q-2 -2 -1.5 -4t4.5 -1zM139 54q2 -1 3 0t3 1q1 6 -7 4q0 -4 1 -5zM150 42q-1 -4 2 -4.5t5 1.5q1 4 -2 4.5
t-5 -1.5zM116 14v-2l2 -2h3q0 2 1 2v2l-1 2h-3q0 -2 -2 -2zM304 10q0 2 1 3t0 3h-6q0 -6 5 -6z" />
    <glyph glyph-name="T" unicode="T" horiz-adv-x="386" 
d="M206 203q1 -3 2.5 -3.5t3.5 0l4 1t3 -2.5q0 -50 -0.5 -92.5t0.5 -90.5q-3 -4 -4.5 -1.5t-3.5 0.5q-2 -5 2.5 -3t2.5 -3q-8 -9 -24 -8t-31 1q-16 0 -31.5 -0.5t-27.5 1.5q-2 2 -3.5 4.5t-4.5 4.5q4 58 -0.5 118t0.5 116q1 4 1 6.5t2 6.5q-4 33 -3.5 74.5t0.5 82.5v48
q0 11 0.5 21t-0.5 18t-4.5 13.5t-11.5 8.5l-2 11.5t-5 8.5q-9 -2 -13 -2.5t-10 2.5q-5 2 -4.5 -3t-1.5 -7h-7.5t-5.5 -3q-2 -6 3 -5.5t7 -1.5q-5 -5 -15 -3t-10 9q-5 -5 -10.5 -8t-13.5 -1q-9 3 -11 17.5t-1 32.5t2.5 36.5t-0.5 28.5q5 11 19 10.5t34 -0.5h211q9 0 21 1
t24 1.5t22.5 0t15.5 -3.5q4 -2 5.5 -9t2 -16t0 -19t-0.5 -18q0 -7 0.5 -16.5t0 -18.5t-2 -16t-5.5 -9q-8 -4 -24.5 -3.5t-34 2t-31.5 0t-18 -10.5v-298q0 -6 -5.5 -5.5t-7.5 -4.5zM9 597q1 5 1 9t2 11q-5 3 -8.5 0t-4.5 -7.5t1.5 -8.5t8.5 -4zM83 586q5 -4 16 -6.5t16 1.5
q-1 6 -5.5 11t-10 7t-10.5 -1t-6 -12zM62 594q1 -5 7 -4.5t5 5.5q-2 4 -7 4t-5 -5zM52 579q2 6 -0.5 10.5t-7 6t-9.5 -0.5t-7 -7q-7 1 -15.5 2t-14.5 -1q-2 -6 -2 -16t2 -16q13 -5 19.5 2t13.5 12q6 -2 16 -5t13 6q1 5 -3.5 4.5t-4.5 2.5zM103 559q6 -2 6 3q-2 2 -4.5 1
t-1.5 -4zM26 553q3 -2 3 2t-3 2v-4zM97 524q3 -4 10 -2.5t6 8.5q-4 2 -9 -0.5t-7 -5.5zM187 523v-3q2 0 2 -2h3q0 2 1 2v3q-1 0 -1 1h-3q0 -2 -2 -1zM195 499v-4q4 -3 6 -1.5t2 3.5t-2 3.5t-6 -1.5zM179 361v6q-5 1 -5 -3t5 -3zM186 350q0 -7 9 -6q-3 8 -9 6zM180 322
q6 -2 11.5 2.5t5.5 12.5q-5 1 -11.5 -2.5t-5.5 -12.5zM122 180q-1 1 -2.5 0t-1.5 -2q-2 -4 2 -2t2 4zM196 11h3v3h-3v-3z" />
    <glyph glyph-name="U" unicode="U" 
d="M224 127q6 0 7 5t1.5 10.5t1.5 10.5t6 5q-4 4 -5 5.5t-2 7.5q-2 12 -1 27t1 30q0 48 -1 99t1 100q0 4 -0.5 7t0.5 7q0 2 1.5 2.5t1.5 2.5q0 1 -1.5 1.5t-1.5 1.5q-1 35 -1.5 70.5t1.5 71.5q0 5 -0.5 11.5t6.5 10.5q-2 5 -5.5 11.5t0.5 14.5q9 8 26 7.5t34 -0.5t33 0.5
t26 -6.5q5 -17 4 -33.5t-1 -33.5v-209q0 -36 -1.5 -78t0.5 -74q1 -26 3 -59t-2 -62q-2 -16 -9.5 -31t-20 -27.5t-29 -21t-35.5 -10.5q-18 -2 -39.5 -1t-43.5 1q-42 0 -75 0.5t-56 17.5q-17 11 -30.5 32t-15.5 49q-3 34 -1.5 68.5t1.5 69.5q0 91 -1 186.5t1 191.5
q0 15 1 21.5t10 8.5q7 2 15 0.5t15 -1.5h26q5 0 13 0.5l16 1t14.5 -0.5t9.5 -4t4 -9.5t1.5 -15.5t0 -18.5t-0.5 -17.5v-391q0 -14 -1 -33.5t5 -26.5q6 -6 20.5 -5t24.5 1q14 0 25.5 -0.5t22.5 1.5zM351 620q2 2 1.5 5t-4.5 2q-2 -2 -0.5 -4t3.5 -3zM337 613q0 -8 5 -7
q1 3 2 4.5t-4 3.5q0 -1 -3 -1zM342 555q3 2 0.5 2.5t-3.5 -1.5q1 0 1.5 -0.5t1.5 -0.5zM263 183q0 -5 4 -6t7 1q0 4 -4 5.5t-7 -0.5zM348 155q0 3 1 4q-2 1 -3 2t-3 0q0 -4 5 -6zM337 101q2 2 3 6t-1 6h-6q-3 -3 -1.5 -7t5.5 -5zM244 11q6 -1 19 -2t15 5q-5 4 -18.5 4.5
t-15.5 -7.5zM214 16q-5 0 -10 1.5t-9 -1.5q-1 -7 6.5 -6.5t13.5 0.5q7 0 14.5 -0.5t9.5 3.5q-4 6 -11 4.5t-14 -1.5z" />
    <glyph glyph-name="V" unicode="V" horiz-adv-x="423" 
d="M89 646q2 -2 1.5 -5t-0.5 -6q6 -2 5.5 3t3.5 5q11 -5 11 -15.5t2 -19.5l26 -141t24 -143q-1 -5 -5.5 -6.5t-6.5 -4.5q1 -5 6 -4.5t7 -3.5q4 -11 3 -27t6 -24q11 4 10.5 18.5t0.5 27.5q5 37 11 74.5t13 74.5q6 36 12.5 71l13.5 74q2 16 5 32.5t14 19.5q13 4 29 2t33 -2h35
t19 -8q1 -3 0 -10.5t-3 -16t-3.5 -16t-2.5 -11.5q-7 -35 -12.5 -66l-11.5 -67q-3 -12 -4.5 -21t-9.5 -15q7 -8 3.5 -20t-6.5 -26l-22.5 -127.5t-23.5 -125.5q0 -5 -3.5 -5t-3.5 -4t2 -5.5t2 -5.5l-5 -20.5t-5 -26.5q-1 -7 -2 -15t-2.5 -15t-4.5 -12t-9 -6q-8 -2 -21 -1
t-19 5q-4 -3 -11 -4t-14.5 -1t-15 1.5t-11.5 2.5q-4 -1 -12 -2t-16 -1t-14 1t-6 5q2 5 11 2.5t13 1.5q-1 5 -4.5 5.5t-8 0.5t-9 -0.5t-7.5 2.5q-2 3 -1.5 7t0.5 8q-3 7 -8 12q-20 121 -42.5 237.5t-42.5 237.5q3 2 8 1.5t6 4.5q0 5 -4.5 4.5t-2.5 5.5q-4 2 -6 -1.5t-4 0.5
q-1 5 0.5 6.5t4 2t4.5 1t2 3.5q-1 6 -8 6.5t-9 5.5q-2 20 -6 38t-7 37q4 11 19.5 10t32.5 -1q16 0 30 1.5t27 -0.5zM42 636h5v4h-3q0 -1 -1 -1.5t-1 -2.5zM241 613q4 -4 13 -3.5t14 1.5q1 3 2.5 5t1.5 5q-2 5 -7.5 7.5t-11.5 1.5t-10 -5t-2 -12zM105 614q-10 2 -16.5 3
t-6.5 -9q2 -2 5.5 -1t7.5 1q2 -2 3.5 -4.5t6.5 -2.5q3 2 3 6.5t-3 6.5zM86 595q4 -4 6 2q-2 2 -4 1.5t-2 -3.5zM332 587q3 -1 3 1t2 2q0 4 -2 4.5t-3.5 -0.5t-2 -3t2.5 -4zM5 587h5q2 7 -4 5q0 -2 -1 -2.5t0 -2.5zM87 582q2 2 1.5 4t-2.5 2q-4 -4 1 -6zM303 491q-2 1 -3.5 0
t-1.5 -2q-1 -2 2.5 -0.5t2.5 2.5zM292 482q2 -2 4 -0.5t2 4.5q-6 2 -6 -4zM284 469q-2 -9 5 -9q2 3 3 3q1 7 -5 7q-1 -1 -3 -1zM112 327h5q0 3 -5 3v-3zM287 299q2 2 2 6.5t-5 3.5q-2 -2 -2 -6.5t5 -3.5zM191 276h3q0 1 0.5 1t0.5 2q-2 0 -2 1t-2 0v-4zM83 248q2 3 3.5 9
t-0.5 10h-4q-1 -5 -3 -11t4 -8zM208 212q6 -1 6 6q-2 0 -3 1t-3 0q-1 -3 -1 -3.5t1 -3.5zM163 193q1 5 -1.5 6.5t-7.5 2.5q-2 -3 1 -7t8 -2zM212 199h5q0 3 -5 3v-3zM207 154q2 2 1 4t-4 1q-2 -5 3 -5zM173 42q5 0 8.5 0.5t3.5 5.5q-5 0 -8.5 -1t-3.5 -5zM241 33q2 0 2 -0.5
t1 -0.5v3.5t-3 0.5v-3z" />
    <glyph glyph-name="W" unicode="W" horiz-adv-x="592" 
d="M89 645q2 -5 -0.5 -9t3.5 -7q6 -1 5.5 4.5t4.5 5.5q4 -3 6 -10t2.5 -15.5t-0.5 -16.5t-4 -13q0 -4 3.5 -4t4.5 -3q-3 -6 -2 -13t3 -15t3.5 -16t-0.5 -16q-2 -5 -4.5 -6.5t-4.5 -6.5q1 -3 5 -2.5t5 -1.5l10 -100t9 -101q2 -11 1.5 -22.5t6.5 -20.5q8 1 8 7.5v15.5
q2 26 6 54.5t6 54.5q2 2 9 6q1 5 -3 4.5t-3 4.5q5 38 9.5 82t10.5 84q2 15 3 29t3 28q1 5 4 9.5t8 9.5q5 1 5 -3t2 -6t6.5 -1t6.5 -1q4 0 3.5 -5t3.5 -4q5 -2 12 -2.5t12 -3.5q5 2 11 4t13 3q4 1 4 5t2 7q5 -1 9.5 0t9 1.5t8 0.5t5.5 -4q-1 -6 -8.5 -4.5t-10.5 -2.5
q3 -6 8.5 -6t11.5 2q4 -5 3 -11t0 -13q2 -8 5 -16.5t-5 -15.5q2 -5 4.5 -10t4.5 -11q0 -7 -4.5 -5.5t-7.5 -0.5q0 -6 6 -4.5t8 -2.5q5 -62 14.5 -124t14.5 -123q0 -8 -0.5 -17t5.5 -14q9 0 8.5 7t0.5 12q2 14 3.5 30.5t2.5 30.5q0 5 3 6t4 4q-6 6 -4.5 16.5t1.5 20.5
q2 3 5 0t5 1q5 8 -0.5 9t-7.5 6q6 59 10.5 119.5t12.5 118.5q10 8 29.5 7t38.5 -1q16 0 28 1t25 -3q2 -3 3.5 -7t0.5 -10q-2 -5 -6.5 -1t-9.5 -1q0 -7 6.5 -4t8.5 -2q-1 -7 -2.5 -13.5t-6.5 -9.5q0 -3 3 -2.5t1 -4.5q-3 -12 -3.5 -27t-6.5 -24q2 -11 1 -22.5t-5 -19.5
q-2 -29 -6 -59.5t-9 -61.5l-23 -163l-23 -166q-2 -16 -3 -27t-12 -17h-102q-1 9 -8.5 11t-8.5 11q5 4 8 0t9 -3q0 8 -6.5 8t-12.5 2q-3 5 -9.5 7.5t-11.5 5.5q-7 65 -16.5 130.5t-15.5 132.5q-2 9 -2.5 19.5t-5.5 15.5q-8 -2 -8 -8v-15q-2 -32 -8 -71.5t-11 -81.5
q-5 -33 -8.5 -66.5t-7.5 -67.5q-2 -13 -3 -18.5t-10 -11.5h-128q-12 7 -13.5 27t-4.5 38q-8 63 -17 127t-17 128l-9.5 56.5t-4.5 55.5q-4 10 -7 27.5t3 27.5q-1 4 -4 6.5t-4 7.5q-1 3 0 7.5t1 8.5t-2 8.5t3 6.5q-2 3 -4.5 6t3.5 5q-2 2 -4 2.5t-3 2.5q-2 13 -3.5 25.5
t-4.5 25.5q0 5 5 5t4 5q1 5 -4 3.5t-6 0.5q-1 6 -1.5 11t-1.5 11q2 9 15.5 10.5t22.5 -3.5q14 5 34 3.5t37 -0.5zM497 626q-2 4 -9 6t-8 -6q3 0 1 -3q7 0 15 -4q7 2 11.5 5t12.5 4q2 4 -2 7q-4 -4 -10.5 -4.5t-10.5 -4.5zM429 631q-11 -14 -10.5 -30.5t20.5 -20.5q0 13 1 27
t-7 24h-4zM70 625q3 -2 3 2t-3 2v-4zM461 604q3 1 3.5 4t0 6.5t-0.5 6.5t1 5q-2 0 -2.5 2t-3.5 1q-2 -4 -2.5 -13.5t4.5 -11.5zM201 619q4 -4 8.5 1.5t-1.5 7.5q-2 -3 -4.5 -4t-2.5 -5zM237 619h-7q-4 -4 -2 -10q-4 -2 -6.5 -8t4.5 -8q4 2 3.5 8.5t3.5 8.5q3 1 4 -0.5
t4 -0.5q3 3 0.5 5t-4.5 5zM282 603q1 -3 3.5 -5t1.5 -7q-4 -3 -7.5 -1t-8.5 1q-2 -2 -3 -4t-2 -6q2 -2 4 -4.5t6 -2.5q5 2 7 6t6 6q2 2 6 1.5t3 3.5q2 3 -2 6t-4 7q2 3 4.5 4.5t4.5 4.5q-3 2 -4.5 4t-5.5 2q-2 -5 -5.5 -7.5t-3.5 -8.5zM258 596q2 -2 8.5 -1t8.5 4
q0 5 -3 6.5t-6 1t-5.5 -3.5t-2.5 -7zM32 603q2 0 3 -1t3 -1v5q-5 0 -6 -3zM89 593l3 3q0 7 -6 7q-3 -2 -2.5 -6t5.5 -4zM475 593q3 0 3 -3q3 -1 3.5 1t2.5 2q0 5 -4.5 5t-4.5 -5zM205 584q5 0 5 3.5t-5 3.5q-3 -3 0 -7zM233 580q0 2 3 3q0 3 -3 4t-5 3q-2 -3 -1 -7t6 -3z
M252 584q0 -6 6 -6q0 2 1 3t0 3q-3 4 -7 0zM311 577q4 4 -1 6q-2 -2 -1.5 -4t2.5 -2zM518 569q-1 6 -3 6t-3 -2t0 -4t6 0zM414 549q3 -4 6.5 -4t7.5 2.5t7.5 5t6.5 2.5q11 0 13 -7t9 -16q8 1 13 -1.5t10 -0.5q0 6 -3.5 8t-7.5 3.5t-6.5 5t-1.5 10.5q-8 10 -26 5q-2 2 -2 5
t-1 5q-11 3 -17.5 -4t-7.5 -19zM285 564q2 -3 4.5 -6t7.5 -3q0 2 3 3q0 7 -6.5 10.5t-8.5 -4.5zM44 555q2 2 2.5 5t1.5 7q-2 0 -3 1t-3 0q-1 -4 -2 -7.5t4 -5.5zM54 559q3 -2 3.5 -2.5t3.5 1.5q2 7 -2.5 6.5t-4.5 -5.5zM22 552q0 -5 6 -4q0 6 -4 6q0 -2 -2 -2zM215 552
q-2 2 -7 2q-2 -7 3 -7t4 5zM53 549q-6 -7 -12 -10q-9 0 -14.5 -3.5t-13.5 -5.5q2 -5 3.5 -9.5t2.5 -10.5q8 8 17.5 11t24.5 2q3 -1 4.5 -4t3.5 -5q3 0 5.5 2.5t4.5 -2.5q0 -5 -4.5 -5t-4.5 -5q2 -3 8 -4.5t9 0.5q-1 12 -3 23.5t-9 18.5q-8 -1 -12.5 2t-9.5 5zM278 539
q-5 -2 -10 -3t-5 -6q5 -3 7.5 -6.5t8.5 -4.5q5 1 5.5 5.5t4.5 5.5q14 1 17 15q-8 5 -15.5 0.5t-12.5 -6.5zM436 539q0 -6 7 -4q2 5 -1.5 5.5t-5.5 -1.5zM512 526q3 4 1.5 5t-3.5 0.5t-3 -2t5 -3.5zM226 517q2 -2 5.5 -2t5.5 2q1 8 -6 8t-5 -8zM438 520q2 0 2.5 -1t2.5 0
q2 5 -2 5q-1 -2 -2 -2t-1 -2zM96 513q4 4 -1 6q-2 -2 -1.5 -4t2.5 -2zM48 507q4 -4 8 0q0 4 -5 6q0 -2 -2 -2.5t-1 -3.5zM449 510h3v3h-3v-3zM407 500q4 -5 9 -1.5t6 8.5q-5 5 -9.5 1.5t-5.5 -8.5zM67 490q1 2 2 2t1 2q-2 0 -3 1t-3 0q0 -5 3 -5zM38 487q2 -3 9.5 -3.5
t8.5 4.5q-3 4 -9.5 4t-8.5 -5zM262 468q7 0 7 7q-2 0 -2 1.5t-2 1.5q-2 -1 -4 -4t1 -6zM186 468h3v3h-3v-3zM329 462q4 0 6.5 0.5t1.5 5.5q-2 -2 -5.5 -2t-2.5 -4zM67 453q0 4 -3 5q-2 -2 -1.5 -4t4.5 -1zM12 430q3 -2 3 2t-3 2v-4zM260 427q4 -4 8 0q1 7 -3.5 6t-4.5 -6z
M291 395q15 3 25 2q-1 -5 -6 -5t-7 -4q0 -4 1.5 -5.5l3.5 -3.5q8 0 12 3t7 7q1 4 -0.5 5.5t-0.5 5.5q2 2 5.5 2t5.5 2q2 5 -2 6t-6 4l-15 -5.5t-16 -4.5q0 2 -1.5 3.5t-1.5 3.5q3 3 5 2t7 0q-2 6 1.5 10.5t-0.5 9.5q-10 -3 -16 -15t-1 -23zM226 420q4 0 5 1q1 4 -4 6
q-2 -2 -2.5 -3t1.5 -4zM231 404q2 0 2 -3q3 -2 8.5 -2t5.5 5q-1 2 -2.5 3t-1.5 4q3 2 6 6q-3 2 -4 6t-6 3q0 -8 -2.5 -12t-5.5 -10zM284 421h4q0 5 -4 5v-5zM192 400q0 5 -6 5q-3 -3 0.5 -5.5t5.5 0.5zM230 381q-5 -3 -7 -11.5t3 -12.5q5 4 9 6.5t9 4.5q-2 5 -1 8.5t3 8.5
q-5 2 -8 5t-8 4q-5 -3 -2.5 -5.5t2.5 -7.5zM435 394q-5 -2 -9.5 -3.5t-9.5 -2.5q3 -6 2 -13t-1.5 -14t0.5 -11.5t8 -6.5q4 -2 8 0t9 4q-2 14 -1.5 25.5t-5.5 21.5zM346 385q0 2 -0.5 3t-0.5 3h-6q-2 -5 1.5 -6.5t5.5 0.5zM289 372q-2 -3 -4.5 -4.5t-3.5 -5.5q5 -3 7 -10.5
t10 -4.5q1 6 -0.5 8.5t-3.5 6.5q6 4 7 10q-4 4 -5.5 9.5t-6.5 7.5q-2 -2 -1.5 -8t1.5 -9zM459 389q-4 -4 -4 -13.5t4 -13.5q4 0 6 4.5t2 9.5t-2 9t-6 4zM263 385q-7 3 -8.5 0t0.5 -5.5t5 -2.5t3 8zM221 381h3v3h-3v-3zM311 366q4 -2 7 -1q2 1 2 4t-2 4q-7 1 -7 -7zM340 370
q-1 -4 2.5 -4t5.5 2q1 4 -2.5 4t-5.5 -2zM191 359h3v3h-3v-3zM458 346q0 2 2 2.5t1 3.5q-2 0 -2 1t-2 0q-2 -2 -2 -4.5t3 -2.5zM182 346q2 -3 5 -2.5t5 2.5v3q-2 2 -6.5 2t-3.5 -5zM416 218q4 -2 14 -1.5t12 4.5q-5 2 -14.5 2t-11.5 -5zM221 164q2 2 1.5 4t-2.5 2
q-4 -4 1 -6zM368 142q2 -4 8.5 -5.5t10.5 2.5q0 5 -2.5 7.5t-6 3t-7 -1.5t-3.5 -6zM343 92q2 1 1.5 5.5t0.5 7.5h-5q2 -3 0 -8.5t3 -4.5zM330 84q4 1 5.5 -1t2 -5t2 -5t5.5 -2v16q-2 3 -4 2t-5 1q-1 4 -1.5 7t-5.5 3q-2 -4 -1 -7.5t2 -8.5zM124 44q8 0 9 7q-2 2 -2.5 5
t-5.5 2q-1 -3 -2 -7.5t1 -6.5zM179 55q4 -4 6 2q-4 4 -6 -2zM86 13h3q0 2 0.5 2t0.5 1q-1 0 -1.5 1t-2.5 1v-5zM404 12q0 -3 2 -5q6 0 4 6q-4 0 -6 -1zM166 7h4q2 5 -4 3v-3z" />
    <glyph glyph-name="X" unicode="X" horiz-adv-x="382" 
d="M3 646q6 1 5.5 -4t3.5 -6q5 -1 4.5 4.5t4.5 5.5h80q10 -5 13 -19.5t7 -31.5q5 -21 9.5 -42l9.5 -44q2 -10 3.5 -21t9.5 -16q6 2 6.5 8t2.5 11l12 55.5t14 55.5q3 12 5.5 27t13.5 17q12 3 29 1.5t35 -1.5q16 0 32 0.5t21 -9.5l-32 -134.5l-33 -135.5q-3 -13 -7.5 -24
t-2.5 -28q1 -10 4.5 -19.5t5.5 -20.5l23 -95l25 -98q5 -19 11.5 -38t4.5 -39q-4 -5 -12 -4.5t-16 0.5q-4 3 -1 4.5t0 5.5q-6 0 -4 -4t-1 -6h-82q-10 4 -14 18t-8 30l-9.5 42.5l-9.5 43.5q-2 11 -3.5 21.5t-8.5 18.5q-9 -3 -10.5 -15t-3.5 -22l-9.5 -43l-9.5 -43
q-4 -17 -6.5 -30.5t-13.5 -20.5h-66q-16 0 -31.5 -1t-23.5 10l34.5 136l35.5 138q2 11 5 21t3 18q0 13 -4 26.5t-7 27.5q-6 26 -12.5 51.5l-13.5 51.5q-4 13 -6 25.5t-6 24.5q0 5 5 8.5t1 8.5q1 7 -4.5 4t-7.5 1q-2 9 2 12t10.5 4.5t13.5 2t10 4.5q1 13 -5 19q-12 2 -20 0.5
t-18 -5.5q-2 5 1 6t3 5q-2 3 -6 3t-5 4q-1 5 2.5 6.5t3.5 6.5q-5 3 -8 4.5t-4 6.5q-1 8 5 12.5t15 2.5zM204 620h3v3h-3v-3zM204 344h3v3h-3v-3zM211 187l3 3q0 5 -6 6q-5 -5 3 -9zM45 14v-3q2 0 2 -1h3q0 1 1 1v3q-2 0 -1 1h-3q-1 -1 -2 -1z" />
    <glyph glyph-name="Y" unicode="Y" horiz-adv-x="393" 
d="M158 412q9 2 9 10.5t1 14.5q5 50 16.5 100t21.5 98q2 4 6 6t7 5h64q15 0 30.5 0.5t24.5 -7.5q0 -10 -2.5 -16.5t-3.5 -15.5q-3 0 -3.5 1.5t-1 4t-1.5 4t-4 0.5q-5 -6 -3.5 -17t6.5 -15q-19 -77 -43 -165.5l-46 -169.5q-3 -13 -6.5 -25t-4.5 -23q-4 -33 -2 -72t2 -77
v-28.5t-6 -20.5q-3 -3 -10.5 -3.5t-16 -0.5t-17.5 0.5t-16 0.5q-15 0 -34 -1t-25 4q-4 3 -5.5 10t-1.5 15.5t1.5 17t3.5 12.5q-3 3 -3 6t-1 7q-4 30 -0.5 63t0.5 64q-2 14 -6.5 27.5t-8.5 27.5q-10 42 -21 83l-21 81l-28.5 110t-26.5 111q7 8 27 7.5t43 -0.5q17 0 32.5 1
t23.5 -4q4 -2 6.5 -9t4 -15l3 -16.5l2.5 -14.5l15.5 -72.5t12.5 -74.5q1 -8 1 -15.5t5 -13.5zM260 629q2 4 0 9t-8 4q-2 -5 0.5 -8.5t7.5 -4.5zM248 621q2 2 0.5 5t-5.5 3q-2 -2 -0.5 -5t5.5 -3zM294 614q2 2 1.5 4t-2.5 2q-4 -4 1 -6zM223 601q3 1 4 7t-4 5
q-2 -2 -0.5 -4.5t0.5 -7.5zM273 604q3 -3 3 0.5t-3 -0.5zM261 573v7t-4 2q-2 -2 -1.5 -6t5.5 -3zM172 363q8 0 8 4q-1 3 -8 3q-1 -3 -1 -3.5t1 -3.5zM156 84q3 0 3 -2q6 2 6 6q-2 5 -7 5q-2 -2 -2 -9z" />
    <glyph glyph-name="Z" unicode="Z" 
d="M91 638q-3 -5 -6.5 -9.5t-9.5 -5.5q-7 0 -10.5 6t-7.5 10q-5 -3 -7 -11.5t1 -15.5q3 -2 4.5 0.5t5.5 3.5q5 2 11.5 1.5t11.5 1.5t11 5t11 5q1 7 -5 7t-7 5q11 5 25.5 4t31.5 -1q18 -1 37.5 1.5t33.5 -0.5q7 -2 12 -6t10 -5q3 -14 13 -18q6 -1 5.5 5t3.5 8q4 1 6 -0.5
t5 -0.5q5 2 6 6.5t5 7.5q4 0 5.5 -2t5.5 -2q5 0 6 3t6 4q6 1 12 -2t4 -9q-6 -4 -7.5 -2t-7.5 3q-3 -9 -6.5 -16t3.5 -15q-5 -4 -6.5 0.5t-6.5 2.5q-4 -2 -5 -7t-1.5 -9.5t-2.5 -8.5t-7 -5q-3 1 -4 4l-2 6t-3 4.5t-7 -1.5q-3 -5 -1.5 -13.5t-1.5 -17.5q-1 -2 -3.5 -6t-6 -7
t-7 -4t-6.5 3q3 6 7 11t6 12q-2 5 -5 5t-6 2q1 5 0.5 11t-2.5 11q-4 0 -4 -9q-11 3 -9 -8q2 -5 4.5 -2t5.5 0q-1 -6 1 -9t2 -8q-5 -3 -8.5 -1t-6.5 -2q4 -7 2.5 -15t-3.5 -16q5 -3 12.5 -2.5t13.5 -2.5q4 2 3 8t3 8q6 -2 12 -2h13q2 -5 -1 -4.5t-5 -1.5q0 -3 1.5 -4t4 -1.5
t4 -2t0.5 -5.5q-8 -2 -13 4t-10 9q-5 -2 -3 -10.5t-3 -10.5q-10 -2 -14.5 5t-11.5 5q-3 -5 1.5 -7.5t7.5 -4.5q-1 -4 0 -6t3 -3t3.5 -2.5t0.5 -5.5q2 -4 4.5 -5.5t5.5 -3.5q-1 -5 -2.5 -8t-1.5 -8q2 -5 7.5 -2t8.5 -1q0 -8 -5 -8.5t-8 -3.5q0 -6 7 -10q8 7 13.5 17.5
t-2.5 26.5q0 5 4 5.5t5 4.5q-2 5 -7 6t-4 9q4 0 10 4q8 -8 20.5 -8t22.5 5q0 6 -4 7.5t-4 6.5q3 5 11 3.5t13 1.5q6 3 6 12.5t9 9.5q-3 -11 -7 -21t-12 -16q1 -16 -7.5 -28.5t-12.5 -26.5q-8 -2 -16 -10q0 -4 2.5 -5t4.5 -4l-59.5 -131l-61.5 -135l-6.5 -13t-6 -14t-2 -13
t6.5 -9h171q6 -4 10 -10v-105q-4 -6 -10 -10h-336q-2 2 -5 4.5t-5 5.5q3 18 0 41t2 41q3 11 9 22.5t11 22.5l29.5 66l30.5 66l39.5 88.5t41.5 85.5q0 10 7 15q8 -2 13 -7.5t13 -3.5q7 2 10 7t8 9q6 0 17.5 0.5t12.5 8.5q-1 4 -5 3.5t-8 -2t-8 -1t-6 5.5q-8 -6 -20.5 -5
t-17.5 9q1 10 6.5 15.5t3.5 16.5q-8 8 -21 6.5t-24 -0.5q-28 2 -65 0.5t-69 -0.5q-2 3 -5 4t-3 6q-1 7 4 7.5t4 5.5q1 5 -2.5 5.5t-4.5 3.5v34q2 5 6 8.5t6 9.5q-3 5 -5 2.5t-5 -3.5q-3 6 -2 15.5t0 17.5q2 2 4 4.5t5 4.5h70q2 -2 4 -3.5t4 -3.5zM205 628q5 -1 7 2l4 6
q-4 5 -8.5 2.5t-2.5 -10.5zM234 617q0 2 1.5 3.5t1.5 4.5q-2 2 -3 4t-5 2q-3 -3 -1.5 -8t6.5 -6zM298 625h2v3h-2v-3zM183 617q-5 -3 -7 -8.5t-0.5 -11.5t6 -10t11.5 -3q0 2 1 2t2 1q1 8 -3 14q2 3 6.5 3.5t5.5 5.5q-5 4 -11 3t-11 4zM157 586q8 0 11.5 8.5t-0.5 17.5h-4
q0 -5 -1.5 -8t-3.5 -5.5t-3 -5t1 -7.5zM244 604q3 1 5 2t1 6q-6 1 -8 -2t2 -6zM257 604v-4q2 -2 8 -2t5 5q-2 2 -6.5 2.5t-6.5 -1.5zM32 593q0 2 1 2t2 2q-4 2 -6 2q0 -6 3 -6zM244 593h6q0 6 -6 6v-6zM48 580q1 -5 8 -6t9 4q1 6 -1.5 9t-6 3t-6.5 -2.5t-3 -7.5zM96 583
q-2 3 -5 0q-1 -3 2.5 -3t2.5 3zM158 569q2 -2 4.5 -1t1.5 4q-4 2 -6 -3zM106 554q2 -9 7 -9q2 0 2 1t2 2q2 7 -3.5 9t-7.5 -3zM171 529q6 -2 10.5 5t1.5 14q-2 0 -2 1t-2 0q-2 -5 -4 -9.5t-4 -10.5zM30 526l4 6t4 8q-2 2 -3 4t-5 2q-1 -4 -3 -11t3 -9zM215 495q3 2 1.5 8
t-5.5 7q-2 -3 -1 -8t5 -7zM193 497q8 -1 10 9q-5 3 -9 -0.5t-1 -8.5zM289 474q2 -3 8 -3t5 6q-2 3 -8 2.5t-5 -5.5zM285 453q7 0 8 2q1 7 -5 7l-3.5 -3.5t0.5 -5.5zM232 439q2 2 3.5 7t-3.5 6q-1 -2 -3 -7t3 -6zM286 440q6 0 6 6q-3 4 -6 0.5t0 -6.5zM91 163q3 2 3 5.5
t-4 4.5q-3 -2 -3 -5.5t4 -4.5z" />
    <glyph glyph-name="bracketleft" unicode="[" horiz-adv-x="298" 
d="M184 645q6 -8 5.5 -23t-0.5 -35q0 -14 1 -33t-5 -25q-3 -3 -8.5 -3t-12.5 0.5t-14.5 0t-13.5 -4.5q-5 -3 -7 -12t-2.5 -20t0 -22.5t0.5 -20.5v-244q0 -20 -0.5 -43.5t7.5 -30.5q3 -3 10.5 -3.5l15.5 -1t15 -1t10 -3.5q4 -4 5 -11t0.5 -14.5t-2 -14.5l-2.5 -12q1 -6 2 -15
l2 -18.5t0 -17.5t-5 -12q-6 -6 -25.5 -5t-31.5 1h-46.5t-35.5 8q-17 9 -29.5 25t-14.5 38q-2 16 -1 36.5t1 41.5t-0.5 41t0.5 36q0 6 0.5 11t3.5 10q-4 8 -4 20l-1 15v-2t0.5 0.5t0.5 21.5v136q0 38 -1.5 73t1.5 65q3 27 23 47.5t47 23.5q13 2 27.5 1t30.5 -1q14 0 27.5 0.5
t26.5 -3.5zM99 620q5 -2 13 -1t10 6q-1 2 -5.5 3.5t-9.5 1t-8 -2.5t0 -7zM136 620q0 2 2 2.5t1 3.5q-4 2 -6 2q-2 -5 3 -8zM51 421q5 -3 14 -3t11 5q-1 7 -6 13q-8 -1 -14 -3.5t-5 -11.5zM21 426q0 -3 2.5 -5t6.5 -2.5t7 1t3 4.5q0 5 -9.5 7.5t-9.5 -5.5zM109 423
q-2 2 -2.5 4t-5.5 1q-2 -6 2.5 -7.5t5.5 2.5zM166 47h3v3h-3v-3z" />
    <glyph glyph-name="backslash" unicode="\" horiz-adv-x="356" 
d="M312 8q-2 -2 -5 -4l-6 -4q-5 -1 -7.5 2.5t-4.5 5.5q-1 -5 -3.5 -5.5t-4.5 0t-4.5 0.5t-4.5 -3q-5 1 -6.5 4t-5.5 4q-5 -2 -8 -5.5t-11 -2.5q-5 1 -2 4.5t-2 5.5q-4 2 -7 3t-5 3q-3 -1 -3.5 -2.5t0.5 -4t1 -4.5t-2 -3q-11 5 -13.5 15.5t-5.5 19.5l-48 138l-48 139
l-46.5 138l-47.5 142l-6.5 15t-5 15.5t0.5 13t9 7.5q6 2 18 1t23 -1q15 0 26 1t19 -4q5 -3 8.5 -14.5t7.5 -22.5l47.5 -140l46.5 -138l41.5 -120.5l40.5 -117.5q6 -20 13.5 -40t10.5 -41zM113 462q1 5 -6 5q-1 -5 1.5 -6t4.5 1zM225 228q4 -3 3.5 1t-3.5 -1zM195 209
q0 -5 6.5 -6.5t7.5 5.5q-2 5 -7 4.5t-7 -3.5zM227 196q-2 -1 -3 2t-2 0q2 0 2.5 -3t2.5 1zM192 176q-3 -5 -7 -9l-8 -8q0 -5 7 -3q1 8 6 8h9q-3 2 -3 12h-4zM232 151h5v5h-5v-5zM190 145q-2 -3 -4.5 -1.5t-4.5 -2.5q3 -3 2.5 -9t5.5 -5q0 5 4 10t2 16q-2 0 -2.5 1t-2.5 0
q-2 -2 -0.5 -3t0.5 -6zM198 134q0 -6 6 -6t10 -3q0 6 -5.5 9t-10.5 0zM215 125l6 -4t3 -7q3 -2 4 -0.5t3 2.5q-3 6 -7 12t-9 -3zM245 121q2 5 -2.5 8t-7.5 1q3 -2 4 -6t6 -3zM248 106q2 5 -4 5q0 -5 4 -5zM208 96h6q1 4 -1 4.5t-4 1.5q0 -2 -1 -3t0 -3zM229 95q7 -4 11 2
q-3 2 -5 3t-6 0v-5zM222 66q2 5 -2 10t-2 11h-4q-2 -7 -1 -13t9 -8zM199 80h3v3h-3v-3zM269 71q2 -1 5 -1t3 4h-5t-3 -3zM250 39q4 -1 4 3t-4 3v-6zM218 37q2 -1 8.5 0t5.5 7q-13 0 -14 -7z" />
    <glyph glyph-name="bracketright" unicode="]" horiz-adv-x="298" 
d="M28 0q-6 2 -3.5 4.5t2.5 7.5q-3 2 -4.5 0l-3.5 -4.5t-4 -4.5t-7 -1q-9 8 -8 24t1 31q0 16 -0.5 31.5t1.5 28.5q5 6 13.5 6.5t17.5 0.5t17.5 2t11.5 10q5 12 3 36.5t-2 44.5v27.5v19v18v25.5q-2 5 2.5 5t5.5 4q-1 8 1.5 12t2.5 11q-3 0 -4 -1.5t-2 -4t-2 -4t-4 -0.5v115
q5 2 14.5 0t13.5 3q1 4 -2.5 6.5t-7.5 3.5q-6 1 -10 -2t-8 -1q-3 20 0.5 36t-4.5 27q-5 6 -13 6.5t-16.5 0.5t-16 0.5t-11.5 6.5q-2 25 -1 52.5t0 53.5q5 12 21.5 11.5t42.5 -0.5q14 0 27.5 0.5t24.5 -0.5q26 -3 46 -22t24 -45q2 -22 1 -46.5t-1 -49.5v-322q0 -16 1 -36
t0 -39.5t-5 -35t-14 -21.5q-2 -1 -3.5 -1t-3.5 -2q-3 -3 -4 -7.5t-5 -7.5q-9 -8 -24.5 -10.5t-33 -2.5t-35.5 0.5t-32 -0.5zM102 443q3 2 3.5 7t-4.5 6q-3 -2 -3 -7.5t4 -5.5zM91 406q6 0 6 6q-3 4 -6.5 0.5t0.5 -6.5zM76 497q-2 -5 -1 -13.5t7 -8.5q8 3 6.5 9.5t-4.5 12.5
q-4 -1 -5 0.5t-3 -0.5zM98 363q5 0 7 3t5 5q-2 3 -3 -4.5t-2 -17.5t-3 -18t-5 -7q-3 -3 -3.5 4.5t0.5 17t2.5 16t1.5 1.5zM85 359q4 -1 4.5 2.5t-3.5 3.5q0 -2 -1 -3t0 -3zM165 263q2 3 1.5 8t-5.5 4q-2 -3 -1.5 -7.5t5.5 -4.5zM102 154q4 1 4 6.5t-5 4.5q-4 -1 -3.5 -6
t4.5 -5zM69 93v-3q6 -6 12 0q0 5 -5 5.5t-7 -2.5zM86 93q0 -4 6 -4q0 2 2 4q-4 4 -8 0zM98 86q2 -1 3.5 -2.5t5.5 -0.5q3 4 1.5 7t-4 4t-5 -0.5t-1.5 -7.5zM107 6q2 2 1.5 5.5t-4.5 1.5q-2 -2 -1.5 -5t4.5 -2z" />
    <glyph glyph-name="asciicircum" unicode="^" horiz-adv-x="486" 
d="M352 659q-5 -2 -13 -2t-11 -5q1 -9 0.5 -17.5t2.5 -13.5q5 1 4 3.5t3 4.5q17 -2 30 -0.5t22 -4.5q4 -3 6 -8t6 -9q5 -5 10 -7.5t7 -7.5q-2 -5 -2.5 -9.5t1.5 -11.5q6 -4 9 -0.5t5 8.5q8 -1 8 -9.5t-8 -10.5q-2 9 -12.5 7t-17.5 -3q-1 5 -11 9q-4 -2 -5.5 -5.5t-6.5 -3.5
q-1 -4 2.5 -4.5t2.5 -5.5q-2 -2 -4.5 -0.5t-4.5 -0.5q-1 -5 1.5 -6t4.5 -3q7 1 16.5 3.5t11.5 -7.5q0 -5 -3 -2.5t-5 0.5q0 -5 -1 -10t-6 -7q-3 1 -4 5t-5 0q-4 -2 -2 -4t2 -6l-4.5 -7t-5.5 -7t-6.5 -4t-7.5 3q2 3 5 4t4 5q-2 4 -7.5 2t-3.5 -7q-29 24 -55 50.5t-55 50.5
q-9 -5 -16.5 -12.5l-15.5 -15.5l-27.5 -29l-29.5 -30q-3 -3 -7 -7.5t-8.5 -9t-8.5 -8t-7 -3.5q-6 -1 -11 6t-10 12l-20.5 18.5t-19.5 18.5q-4 4 -11 10t-7 11q0 3 4.5 8t10 10.5l11 10.5t7.5 7l18 17.5t16 16.5q3 0 5.5 0.5t4.5 0.5q2 6 1 10l27.5 27l28.5 28
q13 13 30.5 25.5t42.5 9.5q17 -2 29 -12.5t23 -21.5l23 -21.5t20 -22.5zM287 635q2 2 1 6.5t-5 3.5q-3 -2 -2 -6.5t6 -3.5zM115 627q5 -5 9 0q1 5 -4 5t-5 -5zM129 622q2 -1 3.5 -3t5.5 -1q0 2 1 2t2 1q1 5 -1 6.5t-4 3.5q-3 -2 -4 -4t-3 -5zM328 555q10 -3 17.5 1t16.5 -1
q1 5 4.5 7t7.5 1q1 2 0 6.5t-4 4.5q-5 -2 -7 -5.5t-4 -7.5q-3 1 -4.5 4t0.5 7q-11 5 -17.5 -2t-9.5 -15zM377 571h3v2h-3v-2zM335 535q5 -1 4.5 3.5t-3.5 4.5q-2 -2 -2 -3t1 -5z" />
    <glyph glyph-name="underscore" unicode="_" horiz-adv-x="443" 
d="M89 -151q-6 -1 -3 4q3 -2 3 -4zM238 -154q-2 4 3 9q2 0 2 -1t2 -1q0 -7 -7 -7zM127 -140v3h2v-3h-2zM81 -130q4 2 0 8q-1 0 -3 3h-2q-1 -2 1 -5.5t4 -5.5zM32 -98q0 6 -5 6q-5 -3 -1.5 -7t6.5 1zM443 -79q8 0 14 -6t6 -14v-12q0 -8 -6 -14t-14 -6h-168v19q0 5 0.5 9.5
t-0.5 9.5q0 2 0.5 5.5t-3.5 4.5h-2q0 -2 -1 -2t0 -2q-1 -3 1.5 -3.5t0.5 -4.5v-11t-1 -12q3 -1 3 -6.5t-3 -5.5v-1h-168q0 -1 1 -1q-3 -6 -8 -4q-1 3 1 5h-10q2 -2 1 -5q-4 -3 -8 1q-1 2 0 2.5t1 1.5h-15q2 -1 6 -1q-2 -3 -8 -5.5t-11 1.5q1 2 1.5 2.5t1.5 2.5h-8
q0 -5 -6 -9q2 -3 3.5 -8t-3.5 -7q-5 3 -7.5 7.5t-6.5 8.5l4 4l4 4l-1 1v-1h-24q-4 0 -8 2q-1 1 -3 1q-9 7 -9 17v12q0 8 6 14t14 6h37q1 1 2 1.5t2 1.5q2 0 2 -1t2 -1v-1h388zM299 -67q0 7 5 7t5 -6q-2 0 -2 -3q-4 -1 -5 0t-3 2zM260 -66q3 3 5.5 6t7.5 3q-2 -2 1 -2
q-2 -5 -6.5 -7.5t-7.5 0.5zM285 -48q1 2 1.5 2t1.5 2q2 -2 4 -3q-3 -3 -3 -4q-2 1 -2 2t-2 1zM270 -42q4 1 6 -3q-2 -6 -7.5 -8t-9.5 -6q-3 3 -2 5.5t3.5 4t5.5 3t4 4.5zM295 -43q-2 0 -2.5 1.5t1.5 3.5q6 0 1 -5z" />
    <glyph glyph-name="grave" unicode="`" horiz-adv-x="303" 
d="M170 623q4 -7 7 0q-2 2 -4.5 2.5t-2.5 -2.5zM205 644q-5 2 -9 0t-5 -7q6 -4 11 0q1 -2 2.5 -3.5t1.5 -4.5q-2 -2 -4.5 -3t-4.5 -4q-3 0 -4 2t-3 3q-5 -3 -3.5 -6.5t3.5 -7.5q3 1 4 0t3 -1q4 2 2 5t2 5q3 0 4 -3q-1 -2 -1.5 -5t1.5 -5q5 0 6 1q-2 5 -0.5 8l3.5 7
q-3 5 -5 10t-4 9zM143 662q5 -2 9.5 2.5t4.5 11.5q-4 0 -4 -1q2 -5 -4 -6.5t-6 -6.5zM167 669q3 2 1.5 5t-5.5 3q-2 -2 -0.5 -5t4.5 -3zM180 669q2 -1 5 2t3 7q-5 3 -7.5 -1.5t-0.5 -7.5zM146 675q5 3 1 11h-4q-1 -4 -1.5 -7t4.5 -4zM132 681q1 0 1.5 -1t2.5 -2q2 2 1.5 5
t-4.5 3q0 -2 -0.5 -2.5t-0.5 -2.5zM152 688h2v3h-2v-3zM119 685q-1 -2 -3 -3.5t-2 -5.5q2 -2 3.5 -4t5.5 -1q0 2 2 2q1 6 -1.5 9t0.5 8q-4 0 -6 2t-6 3q-2 -6 3 -5.5t4 -4.5zM146 692q0 7 -4 7q-2 -2 -1.5 -5t5.5 -2zM168 710v-6.5t4 -2.5q2 2 1.5 6t-5.5 3zM170 727
q-2 -1 -1.5 -3t3.5 -2q0 5 -2 5zM139 605l-12 18q4 -1 5 1t4 1q2 -7 9.5 -5t12.5 4q-2 3 -5 4.5t-5 3.5q-3 1 -3 -2t-3 -2q-5 6 -13 4.5t-3 -9.5l-6 11v2l-1 -1l-15 19q-7 8 -14 18.5t-13 18.5l-8.5 15t-8.5 16q-4 9 -8 17q-4 6 -1.5 10.5t10.5 4.5h49q-1 -2 -1.5 -4
t-1.5 -4q-2 1 -3.5 2.5t-3.5 -0.5q0 -6 1 -8q3 -1 4.5 0.5t4.5 0.5q2 -2 2 -5t1 -6q7 0 9 -4t9 -4q3 2 5.5 5t6.5 5q4 0 4.5 -3.5t4.5 -3.5q2 2 1.5 6t-0.5 8q3 3 8 0.5t6 3.5q-2 2 -4.5 0t-3.5 2v9q5 -2 7 -5l5 -7q-2 -4 2.5 -9.5t8.5 -7.5l2 -3h-3v-13q6 0 6 8l24 -37
q-1 -1 -1 -3q1 -1 4 -1l39 -61q4 -6 1.5 -10.5t-10.5 -4.5h-97q-5 0 -8 5zM186 719l1 -1q-1 0 -1 1zM120 740q4 1 5.5 1t2.5 -5q-2 -1 -8 -1v5zM147 754h6q0 -2 0.5 -5t-1.5 -5q-1 4 -5 10zM127 754h5q0 -4 1 -6q3 0 4.5 2t4.5 3q0 -2 1 -2t1 -2q-5 -2 -4.5 -9t-5.5 -8
q-3 3 -1 9q-2 2 -5 3t-4 4q5 2 3 6z" />
    <glyph glyph-name="a" unicode="a" 
d="M127 167q0 -1 -2 -3v-39v-43v-42.5t-1 -37.5q-14 -3 -31.5 -1.5t-31.5 -1.5q-1 -7 4.5 -6.5t4.5 -5.5q-9 -6 -15.5 -2.5t-17.5 1.5q-3 2 -3 6.5t-3 6.5q-8 1 -16 0t-13 1q-1 37 -1.5 83t-0.5 84h127zM301 167q-1 -8 -1 -16.5t8 -12.5q5 6 4 13.5t-1 15.5h44v-51v-59.5
t-2 -56.5q-5 -5 -12 -2t-12 0q-4 -3 -0.5 -5t1.5 -6q-6 1 -8.5 5.5t-7.5 6.5q-20 1 -42 0t-39 0q-2 16 -2 43.5v47.5t1 41.5t-4 35.5h73zM347 -13q1 -4 -3 -5t-7 1q0 4 4 5t6 -1zM291 -13q-8 0 -7 5q2 2 5.5 1t1.5 -6zM278 47v2q-2 4 -3.5 0t3.5 -2zM305 83q5 2 6 11.5
t-1 15.5q-2 0 -3 1t-3 1q-3 -5 -4 -15.5t5 -13.5zM38 119h3v3h-3v-3zM284 137q5 -5 5 1q-2 2 -3.5 1.5t-1.5 -2.5zM124 335q0 -9 0.5 -17t2.5 -13q4 -8 19.5 -7.5t31.5 0.5q12 0 26 -1t20 2q5 3 6.5 13.5t1.5 22.5h123q1 -29 1.5 -56t-1.5 -48q-1 -2 -1 -4.5t-2 -4.5
q2 -11 2.5 -25t0.5 -30h-44v3q1 5 2.5 10.5t2.5 11.5q1 14 -0.5 28t-1.5 28q0 17 1 34t-5 32h-5q0 -2 -0.5 -2.5t-0.5 -2.5q0 -14 -1 -27l-2 -26q-1 -21 -0.5 -42t0.5 -44v-3h-73q0 3 -3 6q-7 -1 -18.5 0t-24.5 2t-25 1.5t-20 -2.5q-4 -1 -10 -7h-127v168h124zM220 180
q2 -2 5 -1.5t6 0.5q2 6 -4.5 6.5t-6.5 -5.5zM42 195h5q0 3 -5 3v-3zM170 225h3v3h-3v-3zM116 237q2 -2 3 -4t6 -1q2 5 -2.5 7.5t-6.5 -2.5zM101 247q0 3 3 1q0 7 -5 6q1 -2 0 -4.5t2 -2.5zM86 263v6h-6q0 -6 6 -6zM67 278h3v2h-3v-2zM125 503v-147v-10.5t-1 -10.5h-124
q0 42 0.5 84t-0.5 84h125zM243 503q0 -3 2 -3.5t4 -1.5q2 4 1 5h104v-15t1 -14q2 -26 1 -58t-1 -64v-17h-123q0 5 -0.5 10.5t-0.5 10.5v106q0 10 0.5 21t0.5 20h11zM298 433q0 8 -4 7q-2 -1 -1 -4.5t5 -2.5zM311 462h3v3h-3v-3zM260 461q4 -1 5 4.5t-3 6.5q-2 -2 -1.5 -5
t-0.5 -6zM329 474h4v4h-4v-4zM287 482q-1 4 -2.5 5t-3.5 3q-3 -8 6 -8zM297 488q3 4 0.5 8t-6.5 5q-3 -4 -1 -8.5t7 -4.5zM74 531q0 -6 6 -9q4 0 2.5 3t-0.5 6h71v-7q-3 -4 -10 -3t-10 3q-3 -9 -8 -12v-9h-125v16q-1 5 2 5t4 3q0 2 -0.5 2.5t-0.5 1.5h69zM221 531v-1
q2 0 2 1h132q0 -8 -0.5 -14.5t-0.5 -13.5h-104q-3 5 -7 1v-1h-11q0 7 -2 11q-4 7 -12 8t-18 0.5t-20 -1.5t-18 2q0 2 0.5 4t0.5 4h58zM102 520h4v4h-4v-4zM16 522h3v2h-3v-2zM119 520q5 8 0 7.5t-6 -2.5q0 -3 6 -5zM12 559q-2 -1 -5 0h5zM41 559q-2 -1 -4 -1q-5 0 -8 1h12z
M74 559l-1 -2q-4 0 -5 2h6zM134 559v-1q-3 0 -4 -1t-3 1v1h7zM146 559q1 -2 3 -2.5t4 1.5v1h103q-1 -5 5 -7.5t8 -0.5q2 -2 2 -5t4 -3q3 4 -2.5 8.5t-10.5 7.5h94v-14t-1 -14h-132q4 1 4 5t-4 5q-1 -3 -3 -3.5t-2 -4.5q1 0 3 -2h-58q2 7 1 13t-7 10h-4q-2 -7 -1 -12t1 -11
h-71q0 2 1 2q4 2 6 1.5l6 -1.5q0 10 9 13q4 0 5 -4t3 -6q10 8 26 10q4 5 1 6.5t-2 5.5v1h9zM5 531q-2 8 -5 15q4 5 10 4t11 1q8 -6 10.5 -12t10.5 -6t12.5 7t11.5 5q5 -2 6 -5.5t2 -8.5h-69zM79 545q3 0 2.5 -3.5t-4.5 -2.5q0 2 2 6zM270 532q4 4 -1 6q-2 -2 -1.5 -4t2.5 -2
zM259 536q4 -1 5.5 3.5t-2.5 5.5q-1 -2 -3 -4.5t0 -4.5zM240 554h3v3h-3v-3zM173 545q5 3 2 7t-6 6q-5 -3 -2 -7t6 -6zM21 587q-1 -3 0 -4q2 0 4 4h10q4 -4 6 -4q2 2 2 4h34v-1h5v1h49l3 -3q1 2 1.5 2t1.5 1h3q2 -1 5 -2t5 1v1h203q1 -3 1 -5.5t1 -4.5q1 -5 1 -9v-9h-94
q-2 0 -4 2l-2 -2h-103q0 3 -2.5 3.5t-4.5 -1.5v-2h-9q1 2 3 3t3 6q0 2 -1.5 4.5t-0.5 5.5q-4 3 -5.5 -2t-5.5 -6q-5 -1 -6 2t-3 5q-1 -8 -5 -12.5t-14 -2.5q-2 3 -1 4t3 2t3.5 2.5t0.5 4.5q-10 -3 -16.5 -2.5t-17.5 -0.5q-2 -2 -0.5 -6t0.5 -7h-6q-2 2 -4 4.5t-7 1.5
q-4 2 -7.5 -1t-8.5 -5h-12q-5 0 -8 6q-3 0 -5 -2l-4 -4h-5h-1q-8 5 -6.5 13t3.5 15h18zM127 559q1 2 2 2.5t2 2.5q3 -1 3 -5h-7zM228 562q3 -2 3.5 -2.5t4.5 1.5q0 5 -3 6q0 -2 -2.5 -2t-2.5 -3zM170 564q12 -3 21 3q-5 -2 -5 4q-6 0 -10.5 -1t-5.5 -6zM214 564q5 0 6.5 3
l3.5 7q-5 4 -9.5 -0.5t-0.5 -9.5zM303 578h2v3h-2v-3zM3 587q1 1 1 1.5t1 1.5q8 23 25.5 38t46.5 19q41 4 87.5 1t84.5 -3q22 0 43 -2.5t37 -16.5q8 -8 14.5 -18t9.5 -21h-203q-4 6 -12 9.5t-4 13.5q-3 1 -4 3.5t-5 2.5q-2 -5 -1.5 -12.5t-4.5 -10.5q3 -2 6.5 -3t5.5 -3h-49
q-2 2 -5 2v-2h-34q1 3 -2 5.5t-7 1.5q-1 -4 1 -7h-10v4.5t3 4.5q-1 0 -4 3q-3 -4 -3 -12h-18zM137 587h3h-3zM130 594q2 1 2 0t2 -1q0 -1 -0.5 -1.5t-0.5 -1.5h-3v4zM323 590h3v3h-3v-3zM311 591h3v3h-3v-3zM243 599q0 2 1 2.5t0 2.5h-4q0 -5 3 -5zM58 604v-3q2 0 2 -1h3
q0 2 1 1v3q-1 0 -1 2h-3q0 -2 -2 -2zM96 607q0 -4 6 -6q3 4 0.5 6t-6.5 0zM42 615h3v3h-3v-3zM308 619q0 -4 2 -6q3 0 6 5q-2 0 -2.5 1t-2.5 1q0 -1 -3 -1zM144 619h3q0 1 2 3q-2 0 -2.5 1t-2.5 0v-4zM284 625q-3 -7 3 -9q2 7 6 3.5t7 -1.5q1 11 -4 9t-12 -2zM210 613
q-3 12 -3 19q-5 0 -6.5 -2.5t-1 -6.5t3.5 -7t7 -3zM244 612q5 -2 10.5 1.5t7.5 8.5q-5 2 -6 7.5t-6 6.5q2 -7 -2.5 -12.5t-3.5 -11.5zM224 628q2 -2 1 -3q3 -1 8 -1.5t7 1.5q0 8 -7.5 11t-8.5 -8zM61 615q2 -1 2.5 0.5t2.5 2.5q0 4 -3.5 4.5t-4.5 5.5q3 2 1.5 5t-3.5 3
q-6 -5 -3 -11.5t8 -9.5zM281 628q8 0 11 7q-3 7 -8.5 2.5t-2.5 -9.5z" />
    <glyph glyph-name="b" unicode="b" 
d="M240 44q2 -5 2 -12t8 -7q5 3 2.5 8.5t0.5 10.5q-5 6 -13 0zM226 34q5 0 4.5 6t1.5 10q-2 0 -2.5 2t-3.5 1q-4 -4 -2 -9t2 -10zM165 46q2 2 1 5.5t-4 4.5q-3 -2 -2.5 -6t5.5 -4zM266 59q-1 -2 -3 -8t-2 -10q-1 -3 -1 -7.5t5 -5.5q11 2 20 9.5l18 15.5q3 3 7 4.5t4 6.5
q-11 5 -25.5 4.5t-22.5 -9.5zM208 83h5v5h-5v-5zM332 172q1 -4 1.5 -7t5.5 -3q6 4 7 13q-4 3 -8 1t-6 -4zM297 173q4 0 4 3h-3.5t-0.5 -3zM338 210q-8 1 -11 5t-8 6q-4 1 -4 -1.5t-3 -1.5q-3 2 -4.5 4.5t-6.5 1.5q-1 -4 1 -7.5t4 -7.5t2.5 -8t-4.5 -9q-5 0 -6 2t-4 -2
q-1 -6 5.5 -6t10.5 2q0 8 4 13t15 3q5 -4 5 -11.5t8 -8.5q5 7 9 17.5t-5 18.5q1 4 3.5 6t-0.5 7h-4q-1 -8 -4 -12t-3 -11zM320 227q5 4 4 9q-3 2 -5 1t-3 -3t-0.5 -4.5t4.5 -2.5zM187 262q-11 0 -24 1.5t-24 -1.5q-13 -4 -12.5 -26t0.5 -45q0 -20 -1 -37.5t5 -23.5
t21.5 -5.5t26.5 0.5t27.5 -0.5t22.5 5.5q3 3 4 11t1 17.5t-0.5 19t-0.5 16.5q0 19 0.5 35.5t-3.5 29.5q-11 4 -22 3.5t-21 -0.5zM202 268q1 4 -2 6q-2 -2 -1.5 -4.5t3.5 -1.5zM274 272q-2 0 -2.5 2t-3.5 1q-4 -5 0.5 -6.5t5.5 3.5zM313 271q0 3 1 3.5t-1 2.5q-5 1 -5 -3
t5 -3zM327 261q1 4 5 11.5t-3 9.5q-1 -4 -3.5 -11.5t1.5 -9.5zM290 278q0 -7 8 -9q6 3 8 12q-4 5 -9 2.5t-7 -5.5zM181 279q5 0 7 5q-2 0 -3 1t-3 0q0 -2 -1 -3t0 -3zM282 429q5 0 6 2q0 3 -4 5l-2.5 -2.5t0.5 -4.5zM288 445q0 -5 6 -4q0 6 -4 6q0 -2 -2 -2zM30 444h3
q0 2 0.5 2t0.5 2h-4v-4zM34 428q4 -2 10.5 -2t9.5 2q0 9 9 7q0 -2 -1 -4t2 -3q0 5 2 6.5t4 6.5q-4 2 -5 0.5t-6 -0.5q-3 1 -3 6t-5 4q-5 -5 -8.5 -11.5t-8.5 -11.5zM96 451q1 -5 4 0.5t-2 0.5q-2 0 -2 -1zM78 449q4 -1 6.5 -0.5t3.5 5.5q-4 0 -6 1t-6 -1q2 0 2 -5zM63 449
q5 0 6 3q-2 1 -2.5 2t-2.5 1q0 -2 -1 -2.5t0 -3.5zM107 448h10q0 8 -9 10q-2 -2 -1.5 -4.5t0.5 -5.5zM290 461h3v3h-3v-3zM44 463q0 1 -6 1q-2 -4 3 -5t3 4zM266 460q5 6 0.5 5.5t-5.5 -2.5q0 -2 5 -3zM34 465q-2 0 -2 1t-2 1q-2 -3 1 -3.5t3 1.5zM81 468q2 0 2 -3
q3 -1 3.5 1t2.5 2q1 4 -0.5 5t-3.5 3l-3.5 -3.5t-0.5 -4.5zM262 474l5 -2.5t5 1.5q2 5 -4 5t-6 -4zM28 477q-1 -3 0.5 -4t1.5 -3q2 -2 7 -0.5t10 0.5q3 -2 2.5 -7t4.5 -5q3 0 3 3.5v6.5q2 2 4 2.5t2 3.5q-5 6 -15.5 4.5t-19.5 -1.5zM281 468q1 3 4 3.5t3 4.5q-1 4 -4 4
t-5 -2t-2 -5t4 -5zM261 476q1 4 -3 4h-8q0 -5 3.5 -4.5t7.5 0.5zM48 486q3 -1 4.5 -3t4.5 -2q4 4 0 8q-2 -2 -4.5 -1.5t-4.5 -1.5zM290 483q5 6 0 5.5t-5 -2.5q-1 -1 5 -3zM47 490q2 2 1.5 4.5t-2.5 2.5q-2 -1 -2 -4t3 -3zM272 505q3 -1 3 -3q3 -1 3.5 1t2.5 2q0 5 -4.5 5
t-4.5 -5zM223 521q-12 -1 -27 -0.5t-29 0.5t-25.5 -1.5t-16.5 -7.5q-2 1 -3.5 2.5l-3.5 3.5q-3 -5 1.5 -10.5t-1.5 -10.5q3 -2 7.5 -4t-0.5 -7q-6 5 -13 5t-13 5q-2 -2 -5.5 -2.5t-4.5 -4.5q1 -5 6 -2t6 -3v-14q6 -5 16 -7q3 0 4.5 2.5t3.5 -0.5q2 -14 2 -33v-38
q4 -6 10 -10h86q10 3 10 15.5v25.5q2 4 6.5 2t6.5 4q-3 4 -7.5 2t-5.5 3q5 6 1 17t-1 25q2 3 6 3.5t4 5.5q-3 1 -6.5 0.5t-3.5 2.5q1 11 -1 19.5t-9 11.5zM149 545h3q0 2 0.5 2t0.5 1q-2 0 -2 1t-2 1v-5zM237 550h5v4h-5v-4zM166 551q2 10 -7 9q-2 -4 0 -7t7 -2zM295 586v-3
q2 0 2 -1h3q0 1 1 1v3q-1 0 -1 1h-3q-1 -1 -2 -1zM278 589h3v3h-3v-3zM310 585q2 0 4 -2q3 2 3 7t-7 3v-8zM40 592q2 -2 3.5 -1t0.5 2q0 3 -4 -1zM37 590q-1 8 -6 9q-2 -3 0 -6t6 -3zM329 596q6 -1 5.5 2.5t-5.5 3.5v-6zM287 598q4 -3 7 0q0 3 -4 5q0 -2 -2 -2t-1 -3z
M285 617v-5q4 1 8.5 0.5t3.5 4.5q-2 2 -6 2t-6 -2zM227 614q0 3 -3 4q-2 -2 -1.5 -4t4.5 0zM41 611q-4 1 -6 4t-7 3q2 -4 6 -8t7 1zM78 622q-2 2 -4 0q-1 -1 -2 -1q-2 -4 3 -2t3 3zM81 625q0 -3 4 -4t8.5 -1t9 1t4.5 4q-5 -2 -11.5 0t-14.5 0zM247 615q3 -1 5 1t2.5 5t0 5.5
t-2.5 3.5l-4.5 -7t-0.5 -8zM141 615q4 -2 2.5 -6t2.5 -7q8 -1 9.5 4t7.5 6q-6 8 -16.5 12t-24.5 6q-2 -8 4 -12.5t15 -2.5zM217 630q5 6 0 5.5t-5 -2.5t5 -3zM56 644q0 -11 -5 -13l8 -6t7 -7q2 4 1 7.5t3 5.5q9 0 15 3t11 6.5t12 5.5t17 0q2 -2 1.5 -4.5t1.5 -4.5
q5 0 8.5 3.5t7.5 5.5q8 2 19 0t22 -2q23 0 48.5 2t48.5 0q8 -1 17 -3t15 -6q2 -1 3 -3t3 -4t4.5 -2t4.5 -1q7 -6 9.5 -11l6.5 -13q-4 -3 -4 -9t-2 -11q2 -3 5.5 -0.5t7.5 0.5q5 -10 4.5 -22.5t-0.5 -25.5q0 -35 2 -76.5t-2 -75.5q-1 -12 -5.5 -20.5t-9.5 -15.5t-10.5 -13.5
t-8.5 -14.5q-1 -5 3.5 -5t6.5 -2q8 -10 14.5 -19.5t8.5 -23.5q-2 -3 -5 -1.5t-8 -1.5q-2 -4 -1 -8.5t2 -8.5q5 -4 6.5 1.5t6.5 1.5v-89q-2 -2 -5.5 -1.5t-4.5 -2.5q1 -6 4.5 -5t5.5 -2q0 -21 0.5 -40t-1 -35.5t-6.5 -30t-16 -24.5q-22 -21 -72 -21h-21.5t-15.5 7q0 5 4 5
t2 6q0 6 -5 6t-7 3q-1 5 -0.5 10t-4.5 6q5 3 4 10q-8 0 -14.5 2.5l-14.5 5.5q-2 -1 -3 -2.5t-3 -2.5q6 -7 4.5 -16t-4.5 -17q2 -5 8 -5.5t4 -9.5q-3 -3 -6.5 -1t-8.5 1q-4 -1 -2 -2.5t1 -4.5q-5 1 -7 0t-6 -1q-3 2 -1.5 9t-1.5 9q-6 0 -4.5 -7t-1.5 -10q-10 -2 -26 -2.5
t-23 5.5q-14 -7 -33.5 -4.5t-36.5 0.5q-3 1 -2.5 5t-1.5 6q-9 -2 -17 -0.5t-14 4.5v96q0 25 -1.5 49.5t1.5 45.5q1 3 1 5t3 4q0 3 -2 4.5t-2 5.5v146q0 20 -0.5 37.5t10.5 25.5q-2 11 -4.5 18.5t4.5 16.5q0 4 -4 3t-6 1q2 27 0.5 57t1.5 58q4 -2 5 -6.5t9 -2.5q4 5 0 7.5
t-6 5.5q-5 0 -6 -2t-4 2v29q0 5 4 6t6 4q-3 8 1.5 11t12.5 3t16.5 -1t13.5 -1zM110 483q7 -2 13.5 -2t0.5 -10q-2 3 -7.5 3t-8.5 2q-1 3 0.5 3.5t1.5 3.5zM346 596q5 2 5 -3h-5v3zM82 643q0 -5 -5 -4.5t-8 -1.5q-2 4 -5 4q2 5 7.5 2.5t10.5 -0.5z" />
    <glyph glyph-name="c" unicode="c" 
d="M231 512q-3 10 -18.5 9.5t-32.5 -0.5q-14 0 -25.5 0.5t-19.5 -1.5q-5 -2 -7 -11t-2.5 -21.5t0 -26t0.5 -23.5v-75q0 -43 2 -82t-2 -69q-1 -5 -1 -9.5t-5 -7.5q4 -2 6 -7.5t-1 -10.5q-8 -4 -10 0.5t-8 6.5q-5 -4 -11 -10.5t-6 -12.5q5 -4 7 2t7 6q5 -2 11 -2t10 -2
q2 -9 1 -17t2 -13q3 -8 15.5 -9.5t27.5 -1t29.5 2.5t22.5 0q9 6 10 16t-0.5 21t-2 21.5t6.5 17.5q3 4 10.5 5t16 1t17 -1t14.5 -1t15 0.5t17 0.5t14.5 -1t9.5 -4q8 -8 6.5 -21.5t-1.5 -26.5q0 -20 0.5 -36.5t-3.5 -33.5q3 -15 -1.5 -29.5t-14 -26t-23 -19t-28.5 -9.5
q-14 -2 -28.5 -1t-29.5 1q-14 0 -27.5 -0.5t-26.5 3.5q-23 -5 -53 -4t-54 2q-5 -1 -5.5 2.5t-3.5 3.5q-5 1 -10 1.5t-9 2.5q-11 5 -19.5 18.5t-13.5 29.5q-4 12 -5 29.5t-1 36t0.5 38t0.5 36.5v347q0 9 -0.5 18.5t2.5 17.5q1 3 1.5 6t8.5 3q0 5 -2.5 8t2.5 5q-1 7 5.5 6.5
t7.5 1.5q3 3 0 5.5t1 7.5q12 11 27.5 15t35 5.5t42 0.5t47.5 -1q27 0 54 1t50 -1q32 -3 51 -24t22 -44q2 -15 2 -26.5t-0.5 -22t-1 -22.5t-0.5 -27q0 -9 0.5 -19.5t-3.5 -15.5q-6 -8 -23 -7t-34 1q-8 0 -17.5 -0.5t-18.5 0t-15.5 2t-9.5 4.5q-4 6 -4 14.5t1 17.5t1.5 18
t-2.5 17zM23 597q7 -1 7 5q-2 5 -5 5q-2 -2 -3 -5t1 -5zM67 581q2 0 2.5 -1t2.5 -1q1 2 1.5 2t1.5 1q-1 4 -1 8.5t-5 6.5q-6 -8 -2 -16zM49 583q1 2 2.5 3t0.5 5q-2 0 -2 1t-2 0q-2 -2 -2 -5.5t3 -3.5zM14 575q-4 -9 9 -9q2 3 -1.5 7t-7.5 2zM39 541h3v3h-3v-3zM64 303
q1 -3 3 -5t4 -5q5 2 8 4.5t8 4.5q0 4 -3 4.5t-3 5.5q2 4 6.5 5t5.5 6q-10 5 -20.5 -1.5t-8.5 -18.5zM93 233q-2 -3 -1.5 -4t2.5 -3q4 1 9 4t0 6q-1 -2 -5 -1.5t-5 -1.5zM7 172q5 1 9.5 1t8.5 2q0 12 -9 13q-4 -2 -7.5 -6.5t-1.5 -9.5zM61 172q-2 -3 0 -4t3 -3q3 2 7.5 2
t5.5 5q-3 6 -6.5 2t-9.5 -2zM10 162q0 -6 5.5 -5.5t6.5 5.5q-2 3 -5.5 2.5t-6.5 -2.5zM174 12h5q0 5 -5 3v-3z" />
    <glyph glyph-name="d" unicode="d" 
d="M6 309q-5 8 -5 18v21v216q0 8 -0.5 20.5t-0.5 25.5t1.5 22.5t5.5 11.5q8 5 29 4t35 -1q42 0 84.5 0.5t83.5 -1.5q6 -4 15.5 0t18.5 -3q2 -2 1.5 -4t4.5 -2q5 6 8 4l6 -4q20 -7 39.5 -29.5t23.5 -50.5q3 -26 1.5 -56t-1.5 -60v-233q0 -38 1 -79t-10 -66q-10 -22 -32 -39.5
t-52 -21.5q-32 -4 -67 -2t-67 2q-8 0 -24 -0.5t-27 0.5q-2 0 -3 1.5t-3 1.5q-1 0 -2 -1l-2 -2q-7 0 -16.5 -0.5t-19 -0.5t-16.5 1t-10 4q-4 4 -5 13t-1 20t0.5 22.5t0.5 19.5v194q0 8 -0.5 17.5t5.5 16.5zM274 621q4 -2 4 2t-4 2v-4zM279 617q1 -6 10 -11t11 1q-6 1 -10 7
t-11 3zM238 595h3v3h-3v-3zM253 592h5q2 6 -4 6q0 -2 -1 -3t0 -3zM302 592h-2q-1 0 -2 -1q-1 -4 2.5 -2t1.5 3zM285 563q0 5 -2 7h-4q-1 -4 1.5 -4.5t4.5 -2.5zM270 544q8 0 7 4q-2 2 -5 1.5t-2 -5.5zM126 505q-2 -23 -1 -46.5t1 -48.5v-188q0 -10 -0.5 -24t-0.5 -27.5
t1 -24.5t5 -15q6 -6 20 -5t29 1q14 0 29 -1t20 7t3 20t0 25q0 5 6.5 4t5.5 5q-4 2 -7 0.5t-5 2.5v248q0 7 0.5 19t0.5 24.5t-1 23t-4 13.5q-7 7 -21.5 5.5t-25.5 -1.5h-48q-2 0 -2 2t-3 1q2 -5 0.5 -9.5t-2.5 -10.5zM93 169q2 -3 7.5 -2.5t9.5 -1.5q2 8 -4 8.5t-9 4.5
l-3.5 -3.5t-0.5 -5.5zM19 171l3 -3q2 -1 3.5 0.5t3.5 2.5q0 5 -5.5 5t-4.5 -5zM68 120v-3q2 0 1 -2h3q0 2 2 2v3q-2 0 -2 1h-3q0 -1 -1 -1zM30 120q-2 -8 2 -7.5t5 2.5q0 4 -7 5zM52 110q1 -5 5.5 -7.5t9.5 -0.5q2 8 -4.5 9t-10.5 -1zM13 107q2 -2 4.5 -3t4.5 1q1 5 -4 5
t-5 -3zM16 89h3q0 2 0.5 2t0.5 1q-2 0 -2 1t-2 1v-5zM119 85q2 -7 9.5 -10t16 -2t15.5 5.5t7 10.5q-11 1 -23.5 -0.5t-24.5 -3.5zM110 71q5 3 2 9.5t-9 5.5q-1 -6 0.5 -10.5t6.5 -4.5z" />
    <glyph glyph-name="e" unicode="e" horiz-adv-x="416" 
d="M134 260q-7 -4 -8.5 -16.5t-1 -28.5t1.5 -31.5t-2 -24.5q-6 2 -6 10t-3 13q-8 -2 -17 -2t-10 -8q5 -4 8 -1t8 1q7 -3 10.5 -11.5t11.5 -9.5q-2 -9 0 -14t7 -9q35 -2 78.5 -1.5t87.5 0.5q6 0 14.5 0.5t16.5 0t14.5 -2t9.5 -4.5q6 -8 4.5 -24.5t-1.5 -30.5v-32t-2 -25
q-9 -8 -25 -7.5t-33 0.5q-21 0 -42 -1t-38 4q-17 -5 -42.5 -4t-54.5 1q-22 0 -44.5 -1.5t-36.5 1.5q-5 1 -7.5 1t-4.5 6q-6 0 -7.5 -4.5t-8.5 -2.5q-9 4 -9.5 13t-0.5 17q-2 149 -0.5 302t0.5 302q5 11 17.5 11h31.5h112q42 0 81 1.5t67 -1.5q5 -1 8 -1t7 -5q8 8 15.5 6.5
t12 -8t5 -15.5t-5.5 -17q6 -13 5.5 -35.5t-2.5 -39.5q0 -5 -3 -4t-5 2q-4 -1 -4 -4.5t-4 -3.5q-51 -1 -103 0t-102 -2q-5 -2 -7 -8.5t-2 -15.5t0.5 -20t0.5 -21q0 -17 -0.5 -33t1.5 -27q3 -9 16.5 -8.5t30.5 0.5h40q9 0 21 0.5t23.5 0.5t20.5 -1.5t12 -5.5q5 -7 4 -25.5
t-1 -31.5q0 -7 0.5 -16t0.5 -18t-1.5 -16t-5.5 -9q-4 -4 -14 -5t-21.5 -0.5t-23 1.5t-18.5 1h-41t-36 -2zM104 545h8t6 2q-1 4 -5 6t-7.5 2t-5 -2.5t3.5 -7.5zM333 609q-2 2 -6.5 3t-6.5 4q-4 -3 -2.5 -5.5t4.5 -4t6.5 -1.5t4.5 4zM53 166h6q0 3 -5 6q0 -2 -1 -3t0 -3z
M66 554q2 2 1.5 4t-4.5 1q0 -5 3 -5zM240 558q0 4 -3 4q-2 -2 -1.5 -3.5t4.5 -0.5zM37 170h3q0 2 0.5 2t0.5 1q-1 0 -1.5 1t-2.5 0v-4zM166 552h3v3h-3v-3z" />
    <glyph glyph-name="f" unicode="f" horiz-adv-x="406" 
d="M143 646q4 -2 3 -9t3 -10q6 -2 13.5 0t9.5 10q-1 3 -2.5 2.5t-3.5 -1.5t-4 -1.5t-3 2.5q0 4 2 5t5.5 1t7 -0.5t4.5 0.5q5 -3 9.5 -6t12.5 -3q3 1 2.5 2t-2 2.5t-2 3t1.5 2.5h114q14 0 26 0.5t16 -7.5q2 -4 2.5 -11.5t0.5 -16t-0.5 -16t-0.5 -11.5q0 -6 0.5 -15t0 -18.5
t-2 -17.5t-5.5 -10q-8 -5 -22.5 -3.5t-30.5 1.5h-107q-21 0 -39.5 1t-24.5 -11v-57q0 -21 -1 -41t11 -27h115q14 0 25.5 0.5t16.5 -7.5q5 -9 3 -26t-2 -29q0 -7 0.5 -17t0.5 -19t-1.5 -16t-6.5 -9q-4 -2 -14 -2.5t-21 -0.5t-22 0.5t-17 0.5h-38q-17 0 -30.5 0.5t-18.5 -10.5
q-2 -16 0 -35.5t0 -34.5q-1 -4 -1.5 -6.5t-3.5 -4.5q3 -4 5 -12q2 -14 1 -33.5t-1 -42.5q0 -9 0.5 -22t0.5 -25t-1.5 -21t-6.5 -12q-7 -3 -23 -2t-33 1q-20 0 -38 -0.5t-23 7.5q-2 5 -2.5 13.5t0 19l1 21.5t0.5 20v130.5v135.5v133.5t1 124.5q5 2 14 1t10 7q-1 4 -4 4
t-6.5 -1l-7 -2t-6.5 2q0 4 4 3.5t5 2.5q0 5 -5.5 4.5t-4.5 4.5q2 12 11 14q11 3 22 -3t19 -4q5 -1 3.5 3.5t2.5 3.5h83zM176 597l12 -2.5t12 0.5q-2 7 -12 6.5t-12 -4.5zM38 603q6 -1 8 5q-2 4 -8 5q1 -4 -0.5 -6t0.5 -4zM335 576q1 -3 3.5 -6t6.5 -1q0 5 -4 7t-6 0z
M218 594v-3q2 0 2 -2h3q0 2 1 2v3q-2 0 -1 1h-3q0 -1 -2 -1zM192 607h5q0 5 -3 6q-2 -4 -2 -6zM24 637q2 0 2 -1t2 -1q2 2 1 5q-5 2 -5 -3zM185 299h4v4h-4v-4zM162 591q-1 2 -0.5 4.5t-2.5 1.5q-1 -6 3 -6zM255 594h3q0 2 0.5 2t0.5 2h-4v-4zM106 168h3v3h-3v-3z" />
    <glyph glyph-name="g" unicode="g" 
d="M136 520q-10 -3 -9.5 -19t0.5 -34v-48q1 -5 -3.5 -5.5t-6.5 -2.5q0 -4 5 -3t5 -4q1 -66 0 -134.5t1 -134.5q3 -8 16 -8h31q11 0 22.5 -1t19.5 1t13 6t12 1q2 6 -4 5t-7 4q-1 27 0 55.5t-1 54.5q-2 6 -7.5 7.5t-12.5 1.5h-14t-11 3t-5.5 9.5t-1.5 15t0.5 17.5t0.5 16
q0 15 -1 34t5 25q3 3 13.5 4.5t23 1.5t25.5 -0.5t21 -0.5h44h26.5t17.5 -6q3 -4 3.5 -14t0.5 -21.5t-1 -22.5t-1 -18v-154q0 -20 1 -39t-1 -38q-2 -21 -16.5 -41.5t-38.5 -27.5q-23 -7 -57 -5t-68 2q-29 0 -56 -1t-47 1q-26 2 -47 20.5t-24 49.5q-3 29 -1.5 62.5t1.5 67.5
v66q0 16 -1 32.5t1 32.5q0 7 1 10q1 1 3.5 2.5t2.5 2.5q0 2 -2 2.5t-4 2.5q-4 8 -2.5 26.5t1.5 31.5v147q2 2 4.5 3t4.5 4q3 1 5.5 -0.5t2.5 3.5q-1 8 -6.5 3.5t-10.5 -0.5q3 32 22.5 52.5t48.5 23.5q20 2 47.5 1t57.5 -1q23 0 46 1t43.5 -0.5t37.5 -6.5t28 -17
q8 -9 14.5 -21.5t8.5 -26.5q2 -18 1 -38.5t-1 -40.5q0 -6 1 -13t1 -14.5t-1 -14t-5 -10.5q-7 -7 -27 -6t-33 1q-7 0 -16 -0.5t-17.5 0t-15 2t-9.5 4.5q-3 5 -2.5 16l1 22.5t-0.5 22t-8 13.5q-8 5 -21 3.5t-24 -1.5h-20.5t-22.5 -2zM63 561q2 -3 8 -2.5t11 -0.5q1 5 5 7.5
t6 5.5q-8 4 -14.5 2t-14.5 3q5 -8 -1 -15zM307 561q4 -2 8 -3t9 -3q5 4 3 15q8 2 8 10h-5q0 -10 -9 -11.5t-14 -7.5zM329 460q-2 3 -8.5 4.5t-10.5 -1.5q3 -2 9.5 -5.5t9.5 2.5zM253 478q0 -9 6 -9q6 5 1 10q-3 1 -7 -1zM114 570q2 -4 7.5 -2t5.5 8q-10 0 -13 -6zM297 466
q0 4 -3.5 3.5t-6.5 -0.5q-4 -4 2.5 -6t7.5 3zM298 595q6 -2 9 2t-3 6q-2 -2 -5 -2.5t-1 -5.5zM297 573q5 -4 9 0v4q-3 2 -6.5 1t-2.5 -5zM301 313q3 -4 5 -2t4 5q-2 3 -5.5 2.5t-3.5 -5.5zM9 401q-1 -4 3 -4.5t6 1.5q1 5 -3 5t-6 -2zM220 361q-1 -5 3 -4.5t3 5.5q-5 0 -6 -1
zM295 503v-3q2 0 2 -2h3q0 2 1 2v3q-2 0 -1 1h-3q0 -2 -2 -1zM154 57q6 4 -1 7q-2 -2 -1.5 -4.5t2.5 -2.5zM279 502q7 -2 6 4q-2 0 -2 1t-2 0q-1 -2 -1.5 -2.5t-0.5 -2.5zM290 589q4 -1 4 2t-3 4q0 -2 -1 -3t0 -3zM320 488q3 -2 3 2t-3 2v-4zM324 535q6 0 6 1q-2 1 -1.5 2
t-1.5 1q1 -2 -0.5 -2t-2.5 -2zM310 624q0 1 1 1q0 4 -3 3q1 -2 0.5 -3t1.5 -1zM335 526h2v3h-2v-3z" />
    <glyph glyph-name="h" unicode="h" 
d="M233 397v199q0 7 -0.5 15t0 15.5t4 13t11.5 6.5q6 -2 1 -4t-4 -6q2 -2 4 -5t7 -2q5 5 0.5 10t-3.5 6q10 2 22.5 1.5t27.5 -0.5q14 0 32 0.5t22 -7.5q2 -4 2.5 -14t0 -21.5l-1 -23t-0.5 -19.5v-237q0 -88 0.5 -165.5t-1.5 -149.5q-8 -8 -24 -8h-33q-6 0 -16 -0.5t-20.5 0
t-18.5 2.5t-11 6q-2 4 -2.5 11.5t0 16.5l1 17.5t0.5 15.5v45.5v49.5v47.5t-1 40.5q-4 6 -13.5 8t-20.5 1.5t-23 -1.5t-22 0q-5 2 -4 8.5t-3 8.5q-3 -8 -9 -14q-1 -5 -5 -7t-5 -7q-1 -14 -0.5 -29.5t1.5 -31.5t1 -31.5t-2 -28.5l-1.5 -7.5t-4.5 -5.5q8 -8 7 -24.5t-1 -36.5
q0 -15 0.5 -31t-7.5 -21t-25.5 -3.5t-29.5 1.5q-16 0 -36.5 -0.5t-24.5 8.5q-3 6 -3.5 17.5t0.5 24.5l2 25.5t1 19.5q0 24 -2 45.5t3 38.5q2 6 4 1.5t6 -2.5q4 5 7 14t-1 15q-7 -5 -8 -11.5t-1 -13.5q-12 2 -11 15t1 21q0 32 -1 68.5t1 68.5q0 5 1.5 9t1.5 8t-1 7l-2 6
q-3 30 -1.5 62t1.5 63v125q6 12 24.5 11t41.5 -1q8 0 17 0.5t17.5 0.5t14.5 -1.5t9 -6.5q2 -4 2.5 -13.5t0 -20l-1 -21t-0.5 -16.5q0 -41 -0.5 -88t1.5 -85q5 -8 16 -9t24 0t25 1t18 -6q5 4 12 6.5t10 9.5zM262 590v6q-5 2 -5 -2.5t5 -3.5zM333 414h5v4h-3q0 -1 -1 -1.5
t-1 -2.5zM348 410h3q0 2 1 2t0 2h-4v-4zM20 298q1 -2 7.5 -2.5t5.5 3.5q-1 2 -7.5 2.5t-5.5 -3.5zM332 288q4 -4 6 1q-2 2 -4 1.5t-2 -2.5zM38 225h3v3h-3v-3z" />
    <glyph glyph-name="i" unicode="i" horiz-adv-x="195" 
d="M122 708q-5 -4 -22 -4t-29 1q2 2 3 6q-2 0 -2.5 1t-2.5 2q-5 -4 -4 -9q-5 0 -13 -0.5l-16.5 -1t-16 0.5t-10.5 4q-2 3 -3 10.5t-1 16.5t0.5 17.5t0.5 12.5t-0.5 12t-0.5 16.5t0.5 16t3.5 10.5q6 0 6 3q6 3 17 1q-2 -2 -0.5 -5.5t5.5 -3.5q0 3 3 3q0 4 -5 6h13h26
q-3 -3 -3 -7q2 -2 3.5 -4.5t6.5 -2.5q5 2 7 5.5t6 5.5q2 2 4 1.5t4 1.5q19 2 23 -9q2 -5 1 -12.5t-1 -14.5v-28q0 -4 0.5 -12t0.5 -16t-1 -14.5t-3 -9.5zM124 71q0 -4 -1.5 -4t-3 1t-3 1.5t-2.5 -2.5q2 -8 5 -9t5 -7q3 -11 1.5 -26t-5.5 -19q-3 -3 -10.5 -4.5t-16 -1.5
t-17 0.5t-14.5 0.5q-14 0 -33 -0.5t-24 5.5q-3 3 -4 11.5t-1 20t0.5 24t0.5 21.5v527v23.5t11 12.5q10 3 25.5 1.5t31.5 -1.5q13 0 29.5 0.5t21.5 -4.5q3 -3 4 -11t1 -18.5t-0.5 -20.5t-0.5 -18v-503z" />
    <glyph glyph-name="j" unicode="j" 
d="M347 578q-1 -6 4.5 -6t4.5 -5v-395q0 -24 1 -48.5t-1 -48.5q-2 -29 -22 -49.5t-50 -23.5q-21 -2 -48 -1t-56 1q-33 0 -68 -2t-59 6q-21 8 -35 27t-16 40q-3 26 -1.5 44t1.5 50q0 12 -0.5 24t7.5 16q3 2 18.5 3t34.5 1t35.5 -1t20.5 -3q7 -4 8 -12t0 -18l-2 -21t3 -20
q1 -5 6 -6.5t11.5 -2l13 -1t9.5 -3.5q0 -6 -5.5 -6.5t-5.5 -6.5q5 -7 15 -7.5t19 4.5q1 9 -6.5 10.5t-10.5 6.5q5 3 13 3t16.5 -0.5t16.5 0.5t11 7q2 6 1.5 21t-0.5 26v82.5v87.5v85.5t-1 76.5q-2 3 -4 4.5t-4 4.5q-12 1 -25 0t-20 6q-3 -3 -11.5 -5t-19 -2t-19 2t-11.5 7
q-1 2 -1.5 7.5t0 11.5t2 11.5t4.5 6.5q-5 5 -6 16t4 16q-5 6 -4.5 16.5t0.5 21.5q5 12 25 11t42 -1q13 0 26 -0.5t26 -0.5q23 0 43.5 1.5t35.5 -0.5q3 0 5.5 -0.5t5.5 -3.5q15 6 23 3t9 -22q1 -13 0 -27t-9 -19zM254 628q3 4 0.5 7.5t-7.5 2.5q-2 -3 0 -6.5t7 -3.5zM302 631
q-4 -1 -7 1t-6 -1q-1 -10 8 -10.5t16 0.5q3 -2 5.5 -4.5t7.5 -2.5q5 2 7 8t4 11q-7 2 -15.5 0t-10.5 -8q-2 2 -4 2.5t-3 2.5q1 2 2 3.5t1 4.5h-6q-3 -2 -0.5 -2.5t1.5 -4.5zM199 631q0 -5 5 -5.5t7 4.5q-1 3 -5.5 3t-6.5 -2zM172 618q1 2 1 4t-3 2q-2 -2 -1.5 -4t3.5 -2z
M132 617q3 -5 2 -8t3 -5q1 3 0.5 6.5t3.5 6.5q-4 5 -9 0zM188 605q4 2 5 7q-4 6 -8 5t-5.5 -4t0.5 -6t8 -2zM237 607q-3 2 -7 0t-5 -6q5 -2 7 -6t6 -6q4 2 3.5 7.5t1.5 7.5q8 -4 13.5 0t6.5 11q-10 2 -15.5 -1t-10.5 -7zM267 585q3 6 0.5 7t-4.5 0t-2.5 -3.5t6.5 -3.5z
M142 573q-4 2 -8 -0.5t-4 -8.5q9 -2 12.5 -9t13.5 -8q2 5 -2.5 10t-3.5 13q2 3 5.5 3.5t5.5 2.5q-2 8 -8.5 3.5t-10.5 -6.5zM160 560q4 4 -1 6q-2 -2 -1.5 -4t2.5 -2zM218 543q2 -1 3 -3t4 0q0 2 1 2.5t1 2.5q-4 2 -5.5 1t-3.5 -3zM265 484q-2 3 -3 7t-6 4q0 -5 2.5 -7
t6.5 -4zM265 470q5 -1 8.5 0.5t8.5 -3.5q1 6 7 12q2 -2 2.5 -3.5t3.5 -1.5q0 5 -4 6t-6 3q-1 -4 -4 -5t-6.5 -1.5t-6.5 -1t-3 -5.5zM249 470q0 -4 5 -3.5t3 4.5q-1 3 -5 3t-3 -4zM330 460q0 -8 3 -9q2 5 6.5 6t9.5 3q0 6 -8 5t-11 -2q-2 1 -3.5 3t-5.5 1q0 -7 3 -6t6 -1z
M263 455q2 -3 6 -3.5t7.5 1t5.5 4.5t0 7q-5 -2 -11 -2.5t-8 -6.5zM241 432q5 -2 10 2.5t9 7.5q-2 1 -2.5 2.5t-4.5 0.5q-1 -5 -5.5 -6.5t-6.5 -6.5zM320 438h3v3h-3v-3zM328 428q5 -9 15 -12l-2.5 7.5t-3 7t-4 2.5t-5.5 -5zM251 426q-3 -4 -1 -5.5t4 -1t2.5 2t-5.5 4.5z
M236 358h2v3h-2v-3zM38 169q10 -9 25 -10q5 4 2 10t-5 9q-7 -1 -14 -1t-8 -8zM106 165q3 -2 8.5 -1.5t6.5 4.5q-3 3 -9.5 4t-5.5 -7zM22 153q6 0 6 6q-4 3 -7.5 -0.5t1.5 -5.5zM86 126h3v2h-3v-2zM323 121q3 0 5 2q1 3 -4 5l-2.5 -2.5t1.5 -4.5zM66 98q-4 7 -10.5 11
t-10.5 -7q4 -5 4 -9.5t-1 -11.5q5 -5 12.5 -5.5t9.5 7.5q-3 2 -2.5 6.5t-1.5 8.5zM161 82q5 2 5 6q-2 5 -5 4.5t-5 -2.5t-1 -5t6 -3zM201 82q1 -5 2.5 -5t2.5 2t0.5 3.5t-5.5 -0.5zM170 39q8 -2 10 8q-5 5 -10.5 0.5t0.5 -8.5zM186 17h3q0 2 1 2t0 2h-4v-4z" />
    <glyph glyph-name="k" unicode="k" horiz-adv-x="440" 
d="M379 9q-2 -2 -3.5 -4.5t-3.5 -4.5q-31 1 -63 0t-59 4q-20 42 -40.5 95l-40.5 102l-6.5 15.5t-8.5 8.5q-6 1 -8.5 -4.5t-7.5 -5.5q1 16 -0.5 32t-2.5 32q0 7 1 14t-4 12q-7 -8 -4.5 -21t0.5 -24q0 -2 -1.5 -5t-1.5 -5q0 -6 1.5 -12t1.5 -11q1 -9 -0.5 -17.5t-2.5 -17.5
q-2 -47 0 -91t0 -91q-4 -6 -10 -10h-104q-8 6 -11 10q2 49 0.5 104.5t1.5 106.5q6 -1 9.5 -6t10.5 -1q3 4 -0.5 7.5t-3.5 8.5q-1 5 1.5 8.5t-0.5 8.5q-4 0 -5.5 -2.5t-2 -6t-0.5 -7t-3 -4.5q-9 -1 -7.5 8t-0.5 16q0 5 4.5 6t6.5 4q-2 5 -5.5 2.5t-5.5 0.5q1 41 1 83t-1 80
q2 3 4 4.5t4 4.5l-1.5 15t-6.5 10q1 35 0 71.5t2 70.5q2 0 8 -1t11 -2q2 -3 0.5 -5t-4 -3.5t-4 -3.5t-1.5 -5q1 -4 4 -5t6 -3l-5 -12t2 -12q8 2 12.5 7.5t8.5 13.5q-2 4 -6 1t-6 1q-1 5 3 10.5t13 3.5q2 2 0 5.5t1 5.5q5 1 5.5 -1.5t3.5 -1.5q-2 3 -3.5 7t-3.5 7
q-7 1 -8.5 -5t-7.5 -6q-2 6 -7.5 7t-10.5 4q2 11 -2.5 15.5t-10.5 8.5q2 6 7 8.5t12.5 3t16 0t15.5 -0.5q5 0 3.5 -2.5t0.5 -4.5q4 10 30 7q2 0 4 -1.5t4 -1.5q5 0 7.5 2t4.5 1q7 -2 11 -6.5t9 -4.5q2 -20 0 -36t0 -30q1 -3 -0.5 -4.5t-3 -2.5l-3 -2t-0.5 -4q-1 -6 2.5 -3.5
t4.5 -2.5q1 -11 0.5 -25.5t-0.5 -29.5t1 -28.5t5 -22.5q5 -1 4.5 5t1.5 8l42 71.5l42 73.5l13.5 24t18.5 20h124q2 -2 3.5 -4.5t3.5 -4.5q-3 -10 -9 -14q-3 -3 -3 -8.5t-7 -4.5q-4 4 -1 8t1 6t-5 3t-5 2q-5 -3 -0.5 -5t3.5 -6q-3 -4 -3 -10t-2 -11q4 0 5.5 1.5t3.5 2.5
q-1 -1 -2.5 -6t-4.5 -10t-6.5 -10t-8.5 -6q2 -8 -4 -19t-16 -13q1 -4 -1 -7t-3 -7q-3 -11 -8.5 -20.5t-12.5 -20.5l-19.5 -34l-19.5 -34q-5 -9 -10.5 -17.5t-8.5 -16.5q-4 -10 3.5 -25t12.5 -28l64.5 -159.5zM288 638h3v3h-3v-3zM90 628h3v3h-3v-3zM80 626h3v3h-3v-3z
M74 615h5v4h-3q0 -2 -1 -2t-1 -2zM311 609q1 3 0 5.5t-4 1.5q-2 -2 -1 -5.5t5 -1.5zM115 613q-2 0 -2 1t-2 1q-2 -3 1.5 -3.5t2.5 1.5zM66 601q3 0 5 5q-2 0 -2.5 1t-2.5 0v-6zM118 594q2 5 -2.5 8.5t-10.5 3.5q1 -6 4.5 -8t8.5 -4zM77 604q-1 -6 2 -3.5t-2 3.5zM83 594
q1 -4 1.5 -7.5t5.5 -3.5q2 3 2 9t-4 7zM111 580q5 -1 4 5.5t-6 4.5q2 -3 1 -5.5t1 -4.5zM231 578q6 0 6 6q-4 0 -6 -6zM339 575h3v3h-3v-3zM220 569q3 0 7 2q0 4 -2 4q-1 -2 -3 -2.5t-2 -3.5zM67 572q0 -18 6 -33q-4 -4 -8.5 -13.5t2.5 -14.5q9 7 10.5 17.5t5.5 20.5h-9
q1 4 -0.5 5t-0.5 5q1 5 4.5 6.5t2.5 6.5q-4 2 -6 1t-7 -1zM324 565q5 3 6 7q-4 5 -7.5 0t1.5 -7zM44 562q9 3 14 -1q0 9 -16 7q0 -2 2 -6zM276 548q-3 0 -6.5 -2t-9.5 -4q-2 -1 -4.5 0t-3.5 0q-5 -2 -6.5 -6.5t-4.5 -5.5q-3 0 -5 2.5t-5 -0.5q2 -7 10 -6t11 -7q2 2 1 8.5
t4 5.5l9.5 -7.5t9.5 -6.5q1 3 3.5 4.5t2.5 5.5q0 3 -3 2.5t-1 4.5q5 2 7 0t4 0q-2 4 -5 7.5t-8 4.5zM300 540q-1 -5 2.5 -10t8.5 -3q-4 3 -6 9q4 2 6 1.5l6 -1.5q-2 7 -7 7.5t-10 -3.5zM102 536q5 0 6 3q-2 0 -2.5 1t-2.5 2q0 -2 -1 -3t0 -3zM189 527q5 -1 6 3t3 6
q-5 1 -6.5 -1.5t-2.5 -7.5zM209 503q1 8 -2 13q1 2 3 3t2 4q-5 0 -5 3t3 2.5t1 4.5q-6 0 -8.5 -4t-2.5 -9.5t2.5 -10.5t6.5 -6zM292 524q1 2 2 2.5t1 2.5q-2 4 -5 0.5t2 -5.5zM247 503q1 2 2 2t1 2q-2 4 -5 0.5t2 -4.5zM259 501q3 -2 3 2.5t-3 2.5v-5zM69 500q-1 -5 5 -5v6
q-4 0 -5 -1zM67 472q2 -2 5 0.5t2 6.5q-2 0 -2 1t-2 1q-1 -2 -2.5 -3.5t-0.5 -5.5zM15 463q2 4 1 8h-5q-2 -8 4 -8zM40 468q-7 -5 -10.5 -13t-7.5 -16q4 -2 15 -2q1 5 -1.5 8.5t2.5 4.5q5 -1 6.5 -4t8.5 -1q1 2 1 4.5t1 5.5q-5 2 -7 7t-8 6zM67 450q2 2 5 4.5t-2 4.5
q-1 -2 -4 -4.5t1 -4.5zM32 227q6 -2 7.5 1.5t2.5 8.5q-4 5 -9 0t-1 -10zM15 38q0 8 -4 7q-2 -2 -1.5 -5t5.5 -2zM35 32v-3q2 0 2 -1h3q0 1 1 1v3q-2 0 -1 1h-3q-1 -1 -2 -1zM32 4q5 0 5.5 4.5t-5.5 3.5q-4 -4 0 -8z" />
    <glyph glyph-name="l" unicode="l" 
d="M36 641q-2 -8 -5 -3.5t-8 3.5q-2 -3 -0.5 -7t0.5 -9q6 0 15.5 3t19.5 0q7 4 12.5 4t10.5 5q1 -3 -0.5 -3.5t0.5 -2.5q5 1 7 4t7 3q-1 -5 -3 -7.5t3 -5.5q5 0 6.5 3t3.5 6q6 -3 8 -0.5t8 3.5q4 -7 3.5 -17.5t-0.5 -21.5q0 -15 0.5 -30t-6.5 -21q1 -2 2.5 -4t3.5 -5v-353
q0 -20 -1 -36.5t11 -23.5h210q8 -6 11 -10v-104q-3 -5 -7.5 -5t-6.5 -3q-5 -1 -5.5 3t-4.5 5q-3 1 -3.5 -0.5t-0.5 -3t-0.5 -3t-2.5 -1.5q-2 9 0 12.5t7 8.5q-2 6 -9 5.5t-10 -2.5q0 -7 2.5 -13.5t0.5 -11.5q-3 -2 -5 -1.5t-4.5 2t-5 2t-5.5 -1.5q-3 2 -5 4.5t-5 4.5
q-8 -4 -16.5 -5t-12.5 6q-13 -2 -31 -2.5t-30 4.5q-5 0 -6.5 -2.5t-5.5 -3.5q-4 -2 -2.5 -6t-6.5 -3q-5 1 -2 5t0 6q-10 -2 -15.5 -2.5t-6.5 -8.5q-15 0 -29.5 0.5t-24.5 5.5q-3 -5 -9 -5.5t-14 -0.5q-4 2 -1 4.5t-1 4.5q-7 1 -6 -3t-4 -6q-8 1 -17.5 0.5t-18.5 -0.5
t-15.5 2.5t-9.5 8.5v496q0 5 2.5 6t4.5 3q0 4 -3.5 3.5t-3.5 2.5q2 17 0.5 34t0.5 30q3 6 10 7.5t11 6.5q3 -2 8 -2.5t9 1.5q3 3 3.5 7t2.5 9q-5 2 -8.5 -2.5t-8.5 -4.5q-3 1 -2.5 2.5t1 3.5t0.5 3.5t-4 1.5q-6 -1 -3.5 -6t-0.5 -10q-9 -4 -18 0q-1 11 11 14q2 7 0.5 16
t6.5 13q3 1 10 0t7 -5zM99 615h4v4h-3q0 -1 -1 -1.5t0 -2.5zM10 611v-3q3 -2 3.5 1.5t-1.5 2.5q0 -3 -2 -1zM81 590q3 -2 4.5 -6t6.5 -4q0 3 2.5 3.5t1.5 5.5q-2 2 -7.5 4t-7.5 -3zM61 523q0 8 -4 8q-2 -2 -1.5 -5.5t5.5 -2.5zM55 377q0 -6 6 -6q0 2 1 1q0 6 -5 6
q0 -2 -2 -1zM296 73h3v3h-3v-3zM35 61q0 -6 4.5 -6t5.5 5q-2 2 -5 3t-5 -2zM68 53q0 4 -3 4q-2 -2 -1.5 -4t4.5 0zM333 43q1 -6 3 -6t3.5 2t0.5 4t-7 0z" />
    <glyph glyph-name="m" unicode="m" horiz-adv-x="567" 
d="M23 646q6 -2 12 -0.5t14 0.5q4 -3 2 -7.5t2 -7.5q6 2 4 6t1 7q2 2 7 2t7 -2q0 -3 -2 -4t-4 -3q2 -3 3.5 -6t6.5 -3q6 3 2.5 8.5t0.5 9.5q5 -1 7.5 -4t5.5 -5q6 5 13.5 8t15.5 -2q11 4 25 3t28 0q11 -5 12.5 -20.5t6.5 -27.5q-1 -3 -1.5 -5t-1.5 -4q5 -5 6.5 -13.5
t1.5 -18.5q-8 2 -13 7t-11 9q-4 -2 -4 -6.5t-3 -6.5q7 -6 16 -6.5t17 -2.5q2 -5 3 -12t3 -12q0 -5 -3.5 -5.5t-5.5 -2.5q-1 -3 1.5 -3.5t1.5 -3.5q0 -1 -2 -3q-1 -1 -2 -1q0 -4 3.5 -7.5t0.5 -11.5q5 -4 6 1t6 3q3 -20 6.5 -39l7.5 -39t8.5 -39t6.5 -38q1 -11 0 -23t5 -21
q11 4 10.5 19t0.5 25q2 20 6.5 42l9.5 45l7.5 45t8.5 41q0 5 4 8q-2 15 2.5 29.5t6.5 30.5q0 4 2.5 5.5t4.5 3.5q-6 7 -2.5 17t3.5 20q4 5 5 2.5t6 -0.5q0 4 -1 4.5t-3 0.5t-3 0.5t-1 4.5q4 3 6 0t4 -4q5 2 6 5.5t6 -1.5q4 2 1 4.5t1 4.5q24 1 49 -0.5t51 -1.5q18 0 34 1.5
t25 -9.5q-4 -8 -0.5 -17t-2.5 -17q5 -23 3.5 -52.5t-0.5 -56.5q1 -4 -1.5 -4.5t-3.5 -2.5q6 -2 5.5 -9.5t-0.5 -15.5q-3 -3 -7 0q0 -3 1 -4t2.5 -2t2 -2t-1.5 -3q-8 1 -12.5 0t-10.5 -2q-2 -2 1 -4.5t1 -7.5q2 6 7.5 5.5t11.5 -2.5q3 -12 -3 -21.5t-12 -15.5q1 -5 8.5 -3.5
t10.5 -1.5q2 -93 1 -188t0 -189q1 -5 -2.5 -5.5t-5.5 -2.5q0 -3 2 -5t-1 -5q-12 0 -28.5 -2t-25.5 6q-2 -2 -7 -4t-10 -2t-9 2t-4 7q-4 1 -4.5 -1.5t-4.5 -1.5q0 5 -3 8q-7 0 -9.5 -3t-9.5 0q-4 9 -3.5 19.5t0.5 20.5q0 71 -1.5 148.5t1.5 148.5l2.5 13t-5.5 12
q-7 -2 -7 -8.5t-1 -10.5q-14 -75 -26.5 -152.5t-26.5 -152.5q-2 -11 -2.5 -22.5t-7.5 -21.5q-5 -1 -5.5 2.5t-5.5 1.5q-4 -1 -1.5 -3.5t1.5 -4.5q-11 -2 -16 1.5t-10 6.5l-10 -2t-9 -3q-3 1 -5.5 2.5t-5.5 2.5q-12 -2 -19 0t-15 3q-16 85 -29.5 171t-28.5 171q-2 5 -2 11
t-6 8q-8 -2 -6.5 -11t2.5 -14q4 -81 0.5 -167.5t-0.5 -169.5q-5 -5 -10 -4.5t-9 -5.5q-10 0 -20 -0.5t-16 3.5q-12 -5 -28.5 -3.5t-31.5 0.5q-2 3 -5 5.5t-5 5.5q1 125 0 253t0 256q0 2 -0.5 6t0 8t2.5 7t7 3q4 -2 1.5 -7t-4.5 -7q4 -9 0 -15q1 -8 6.5 -10.5t6.5 -10.5
q5 -1 6.5 2t3.5 6q-2 5 -3.5 3.5t-6.5 -1.5q3 6 -0.5 6.5t-4.5 6.5q6 4 10 -1t9 1q0 5 -2.5 8t-4.5 8q2 6 8.5 7t1.5 10q2 2 6 1.5t6 1.5q1 4 -1.5 3.5t-4.5 -0.5q2 5 6.5 7t6.5 8q-4 5 -6.5 0.5t-5.5 -6.5q-7 2 -8 -2t-7 -3q-5 2 -3 12t-3 12q-5 -4 -10.5 -10t-10.5 -5
q-4 5 0.5 7.5t8.5 4.5q2 5 -2 4t-5 2q2 5 10.5 4t15.5 0q2 -4 2 -7.5t1 -8.5q8 2 14.5 4.5t12.5 -2.5q0 9 -3.5 18t2.5 16q-2 2 -6 2t-6 -2q-5 2 -6.5 6.5t-7.5 3.5q0 -4 3 -6.5t6 -5.5t4 -6.5t-3 -8.5q-11 -1 -13.5 6t-9.5 10q3 6 1.5 10.5t-4.5 9.5l3.5 7t2.5 8zM428 636
q5 -4 9 0v4q-3 2 -6 1t-3 -5zM123 634q4 -1 4.5 2.5t-3.5 3.5q0 -2 -1 -3t0 -3zM31 634h3v3h-3v-3zM358 627q-1 1 -6 3q-4 -4 1.5 -7t4.5 4zM117 624q1 0 4 -3q1 2 2 2.5t1 1.5q-2 1 -2 2t-2 1q0 -2 -1 -2t-2 -2zM429 609q5 -2 12 -6.5t13 1.5q2 7 -3 13t-10.5 8t-10 -1
t-1.5 -15zM318 611q2 2 4 2t4 -1t3.5 -1t2.5 3q-1 1 -4.5 2t-6.5 1t-4.5 -1t1.5 -5zM400 598q-3 -5 -10.5 -4.5t-9.5 -5.5q5 -5 13 -2.5t15 3.5q1 17 17 22q-1 5 -6 6.5t-10 -1t-8 -7t-1 -11.5zM40 604q0 3 -3 4q-2 -2 -1.5 -4t4.5 0zM328 595q3 1 6.5 2t3.5 5q-1 4 -3.5 4
t-5 -1.5t-3 -4t1.5 -5.5zM110 582q0 2 3 3q0 5 -3.5 5.5t-3.5 4.5q4 8 -5 9q-5 -6 -0.5 -13t9.5 -9zM78 593q0 -4 6 -4q0 6 -5 6q0 -2 -1 -2zM329 592q-1 -4 -0.5 -4.5l2.5 -2.5q5 3 7.5 2t8.5 -2q1 4 0 6t-3 4q-9 -3 -15 -3zM422 589q2 -2 5 -1t5 2q1 6 -5 5t-5 -6z
M480 580q2 4 -1.5 6.5t-8.5 2.5q1 -7 10 -9zM360 580q3 4 1.5 5.5t-3.5 0.5t-3 -2.5t5 -3.5zM88 582h3v3h-3v-3zM422 576q3 -2 5 -3.5t4 3.5q-2 2 -5 3t-4 -3zM143 572q2 0 2.5 -2t3.5 -1q4 2 2 4.5t-5 4.5q0 -2 -2 -2.5t-1 -3.5zM111 569q1 4 -5 4q-2 -4 0.5 -5t4.5 1z
M476 564q0 2 0.5 3t0.5 2q-2 0 -2.5 1t-2.5 0q-1 -6 4 -6zM418 563q4 4 -2 6q-1 -2 -1 -4t3 -2zM482 563h4q0 6 -4 6v-6zM68 561q2 0 2 -1t2 -1q2 1 1.5 4t-2.5 3q-1 -2 -2 -2.5t-1 -2.5zM425 563q2 -2 4 -1.5t2 2.5q-4 4 -6 -1zM461 553q-2 11 -13 11q-3 -5 2.5 -10
t10.5 -1zM361 559v2q-2 4 -3.5 0t3.5 -2zM91 553q-2 9 -10 8q-2 -2 1.5 -7.5t8.5 -0.5zM65 553q2 -1 2 -2t2 -1q0 2 1.5 2t1.5 2q-2 1 -2 2t-2 1q-1 -2 -2 -2t-1 -2zM175 537q-3 1 -4 3.5t-4 3.5q2 -9 -6.5 -13.5t-12.5 3.5q2 2 4.5 3t2.5 6q-8 -1 -16 -3t-18 0
q-2 -2 0.5 -7.5t-2.5 -7.5q-5 2 -9 5t-10 4q-3 -2 -4.5 -4t-4.5 -3q-8 -2 -10.5 0.5t-6.5 -0.5q-4 0 -4 3t-4 2q-5 0 -5.5 -3.5t-5.5 -3.5q-3 2 -7 3t-8 3q-2 -2 -2.5 -4.5t-1.5 -4.5q8 -6 16 -4.5t16 0.5q3 -5 7 -8t7 -8q7 -2 10.5 0t6.5 4.5t6.5 4.5t10.5 1q5 -7 5 -13.5
t8 -9.5q2 2 0 4.5t-3 4.5q6 6 16 2q-2 8 2.5 10.5t8.5 4.5q2 -3 3 -6.5t5 -5.5q2 8 12.5 8t13.5 7q-4 1 -4 7q5 2 6 10t-4 12q-2 -2 -3.5 -6t-6.5 -4zM194 524q8 -1 6 6q-3 3 -6 0t0 -6zM302 524q6 -2 11.5 -8t11.5 -4q-2 2 -5 5.5t-6 6t-6 3.5t-6 -3zM312 511
q-2 0 -2.5 0.5t-2.5 0.5q-5 -6 -0.5 -7.5t5.5 6.5zM46 506q-1 -4 3 -4t3 4q-3 0 -3.5 1t-2.5 -1zM318 499q0 2 1 3t0 3h-4q-2 -6 3 -6zM53 498q-1 1 -2.5 0t-1.5 -2q-2 -4 2 -2t2 4zM167 487q3 3 1.5 5.5t-6.5 3.5q-3 -2 -1.5 -5t6.5 -4zM148 492v-3q1 0 1 -2h3q0 2 1 2v3
q-1 0 -1 1h-3q0 -2 -1 -1zM63 489h3v3h-3v-3zM384 483h3v3h-3v-3zM290 471q0 -4 6 -6q0 2 1 3t0 3q-3 4 -7 0zM344 455q2 5 0 9.5t-7 3.5q-3 -4 -0.5 -8t7.5 -5zM486 464h3v3h-3v-3zM429 458h3v3h-3v-3zM332 448q2 2 0.5 5t-4.5 2q-2 -2 -0.5 -4.5t4.5 -2.5zM427 402
q7 -4 14.5 -3t12.5 6q-1 11 -4 19t4 18q-4 2 -10.5 2.5t-11.5 5.5q-3 -12 -3 -24.5t-2 -23.5zM379 441q2 5 -2 6q-2 -2 -1.5 -4t3.5 -2zM409 416q4 3 4 12t-2 14q-2 0 -2.5 1t-2.5 1q-1 -2 -2 -6.5t-1 -9.5t1.5 -8.5t4.5 -3.5zM307 428q4 0 4.5 6.5t-4.5 4.5q-2 -2 0 -4.5
t0 -6.5zM357 431q4 -4 3.5 0t-3.5 0zM475 416q0 2 -3 5q-4 -6 3 -5zM345 400v7t-4 2q-2 -2 -1.5 -6.5t5.5 -2.5zM414 400q0 8 -5 7q-2 -2 -1 -5t6 -2zM75 6q5 -1 5 3t-5 3v-6zM453 9q-2 5 -5 0q-1 -2 2.5 -2t2.5 2z" />
    <glyph glyph-name="n" unicode="n" horiz-adv-x="454" 
d="M7 9q2 0 2.5 -1t2.5 -1v-3q-3 0 -3 -1q-2 0 -1.5 2t-0.5 4zM299 645q0 -5 -3.5 -4.5t-7.5 0.5v4q2 2 5.5 2t5.5 -2zM296 104q2 4 2 6h-5q0 -4 3 -6zM19 149q8 -1 8.5 7.5t-7.5 7.5q-1 -4 -2 -7.5t1 -7.5zM124 354q-1 3 1 5q-2 0 -2 1t-2 0q-1 -4 3 -6zM187 407q5 5 -1 5
q-2 -1 -1.5 -3t2.5 -2zM42 561h3v3h-3v-3zM372 582q3 -2 3 2.5t-3 2.5v-5zM341 591q2 -2 4 -1.5t2 3.5q-5 2 -6 -2zM312 584q0 4 -6.5 4.5t-10.5 2.5l-14.5 7.5t-10.5 -1.5q2 -8 7 -10.5t12 -4.5q1 -3 -0.5 -3.5t-0.5 -3.5q3 -1 5 -2.5t6 -1.5q2 5 8 6.5t5 6.5zM360 604
q0 -7 6 -7q1 2 2.5 3t0.5 4q-4 5 -9 0zM278 606q5 1 8 4t5 7q-2 4 -5 4t-5.5 -2.5t-3.5 -6t1 -6.5zM321 630q5 6 0.5 6t-5.5 -2q0 -1 5 -4zM340 635q2 -1 2 -1.5t1 -1.5q3 -1 3.5 1t2.5 2q0 5 -4.5 5t-4.5 -5zM169 577q-11 1 -17.5 -4.5t-6.5 -19.5q9 2 13.5 7.5t14.5 5.5
q20 -58 37.5 -116l36.5 -117q2 -8 5 -16t8 -15q9 5 6.5 14t-3.5 17q-2 17 -3.5 36.5t-0.5 41.5q-2 5 1.5 5.5t3.5 3.5q1 4 -2.5 4.5t-2.5 5.5q1 51 0 102t1 100q3 -1 4.5 -3t4.5 1q1 6 -3.5 4t-5.5 1q2 11 10.5 9t14.5 -5q5 -3 8.5 -8.5t8.5 -4.5q8 4 6.5 8.5t-3.5 11.5
q16 1 31 0t29 0q2 -2 0 -5.5t3 -4.5q7 0 3 3.5t-1 5.5q12 1 13 -11t1 -25q0 -17 0.5 -34t-5.5 -26q6 -12 5.5 -35t-0.5 -43v-232.5t-2 -229.5q-2 -2 -5 -3t-5 -3q-6 2 -17 -1t-19 2q-12 -5 -30.5 -3t-29.5 2q-2 2 -0.5 5.5t-0.5 5.5q-6 1 -8.5 -5t-7.5 -8q-10 -3 -16.5 0.5
t-10 11t-5.5 16.5t-5 17l-41 130.5l-42 128.5l-6 22t-11 17q-7 -6 -5 -14l4 -16q5 -32 5.5 -69.5t-0.5 -77t-1.5 -79.5t0.5 -77q-4 -2 -10 -10h-90q-5 3 -3 7t-2 6q-5 -1 -11 -0.5t-9 2.5v620q7 12 29.5 11t48.5 -1q18 0 38.5 1t28.5 -4q7 -4 9 -15t4 -17q3 -9 6.5 -17
t4.5 -17z" />
    <glyph glyph-name="o" unicode="o" 
d="M142 646q0 -5 -1.5 -7.5t3.5 -4.5q4 0 4.5 2t0 4t-0.5 3.5t3 2.5h9q2 -5 -2 -4.5t-3 -4.5q2 -2 4.5 0t4.5 -1q-1 -4 -2.5 -6t-3.5 -6q5 -4 9 0q5 -1 5 -5.5t5 -4.5q5 6 2 12.5t-7 10.5q1 8 9.5 8.5t17.5 0.5q15 0 30.5 0.5t26.5 -4.5q7 3 16.5 2t12.5 -8q3 -1 4 0.5
t4 0.5q24 -14 41.5 -33t21.5 -51q3 -29 1.5 -58t-1.5 -57v-228q0 -29 1 -57.5t-1 -55.5q-3 -38 -30.5 -65.5t-66.5 -30.5q-18 -2 -39 -1t-41 1t-40.5 -1t-38.5 1q-22 2 -39.5 11t-28.5 19q-11 12 -20 29.5t-11 37.5q-2 27 -1 56t1 58v223q0 22 -0.5 45t0 44t4.5 40t13 33
q6 1 9.5 4.5t8.5 6.5q5 0 2.5 -2.5t0.5 -4.5q3 2 3 6t5 6q-2 4 -5 2t-6 0q2 5 6.5 6.5t6.5 5.5q5 -2 8 -5t7 2q0 6 -4 4t-3 3q6 6 16 8t19 -3q6 -1 8.5 5t8.5 2q1 -7 -2 -9.5t-5 -6.5q2 -5 8 -7q0 -5 -4 -9t2 -9q6 2 7.5 8t6.5 8q0 5 -4 5t-5 4q-2 13 6 17t23 2zM182 636
q0 2 1 3t0 3q-4 1 -4.5 -2.5t3.5 -3.5zM243 633q3 4 1.5 5t-4 0.5t-3 -2t5.5 -3.5zM266 634h3v3h-3v-3zM83 621h10q0 8 -9 10q-2 -2 -1.5 -4.5t0.5 -5.5zM73 624q0 -2 1.5 -1t2 2.5t0.5 2t-3 -1.5q0 -1 -1 -0.5t0 -1.5zM186 621h3v3h-3v-3zM208 614q6 0 6 4q-2 0 -2.5 1
t-2.5 1q0 -2 -1 -3t0 -3zM264 618q0 -4 6 -4q2 6 -4 6q0 -2 -2 -2zM301 608q1 5 -5 7v-5.5t5 -1.5zM259 602q3 0 5 2q1 2 -4 6q-2 -3 -2.5 -3.5t1.5 -4.5zM211 602q2 -2 5.5 -2t5.5 2q1 3 -1 3.5t-2 2.5q-4 1 -5 -1.5t-3 -4.5zM304 594q0 5 -1 8.5t-5 4.5q-2 -5 -1.5 -10
t7.5 -3zM126 499q-1 -17 -0.5 -38.5t0.5 -35.5v-199q0 -6 -0.5 -20.5t-0.5 -30t1.5 -29t4.5 -16.5t17.5 -4.5t31 -1.5t31 1.5t17.5 4.5q4 4 5 15.5t1 26t-1 29t-1 24.5v197q0 10 1 25t1 29t-1 25.5t-5 15.5q-3 3 -16.5 4.5t-29 1.5t-29 -1t-16.5 -2q-8 -3 -9 -7t-2 -14z" />
    <glyph glyph-name="p" unicode="p" horiz-adv-x="416" 
d="M261 646q2 -3 0 -7t0 -9q5 1 3.5 7t0.5 8q9 -2 17.5 -4.5t14.5 -7.5v-14.5t-4 -10.5q0 -4 3 -7t4 -9q0 -5 -1 -11l-2 -12t0 -11.5t7 -8.5q7 15 5 35t0 40q5 1 9 -2.5t8 -7.5q9 -9 18 -25.5t11 -33.5q4 -33 2 -71t-2 -75q0 -38 1.5 -74t-1.5 -70q-2 -20 -10 -35.5
t-19 -26.5q-16 -16 -36 -22.5t-44 -8.5t-52 -1t-60 -1q-9 -3 -9 -15v-27v-109q-3 -3 -3.5 -8t-3.5 -8q-10 -2 -24.5 -2h-31.5q-14 0 -31 -1t-25 4q-3 3 -4.5 11t-1.5 19.5t0.5 23.5t0.5 22v521v29.5t11 15.5t30 1.5t33 -1.5h186zM139 606q-2 -4 0 -5t2 -3q11 0 11 10
q-5 1 -8 0t-5 -2zM63 550h4q1 5 -4 5v-5zM125 462v-111v-30t5 -21q5 -4 21.5 -4h26.5q11 0 27 -1t22 5t5.5 20.5t-0.5 30.5v114v29.5t-5 22.5q-3 3 -16.5 4.5t-28.5 1.5t-28.5 -0.5t-17.5 -2.5q-11 -4 -11 -22.5v-35.5zM262 335q1 -6 7 -7q2 2 -1 6.5t-6 0.5zM86 144
q1 -2 4 -4t6.5 -2.5t6 1.5t2.5 6q-2 5 -10 5.5t-9 -6.5zM38 23h5v4h-5v-4z" />
    <glyph glyph-name="q" unicode="q" 
d="M300 133q5 -6 12 -6.5t14 0t14 0.5t12 -5q7 -7 5.5 -26t-1.5 -32q0 -16 1 -34t-5 -24q-3 -3 -10.5 -4t-16.5 -1t-18 0.5t-16 0.5h-64q-33 0 -64.5 -1.5t-64.5 1.5q-31 3 -53 20t-33 38q-12 25 -11 66t1 84v231q0 29 -1.5 58.5t1.5 55.5q4 38 32.5 63t63.5 29q23 2 48.5 1
t50.5 -1q6 0 14 0.5t13 -4.5q24 6 47 1.5t41 -17.5t30 -32.5t14 -43.5q2 -18 1.5 -39.5t-1.5 -44.5q-1 -38 -0.5 -80.5t0.5 -83.5q0 -35 -0.5 -69t-12.5 -55q-4 -7 -9.5 -13.5t-10.5 -11.5q-6 -5 -13.5 -9t-9.5 -12zM72 580q2 3 -3 6q-2 -2 -1.5 -4.5t4.5 -1.5zM88 582h2v3
h-2v-3zM125 500q-2 -17 -1 -38.5t1 -35.5v-199q0 -6 -0.5 -20.5t-0.5 -30t1.5 -29t4.5 -16.5t17.5 -4.5t31 -1.5t31 1.5t17.5 4.5q4 4 5 15.5t1 26t-1 29t-1 24.5v197q0 10 1 25t1 29t-1 25.5t-5 15.5q-3 3 -16.5 4.5t-29.5 1.5t-29.5 -1t-16.5 -3q-8 -3 -8.5 -6.5
t-1.5 -13.5zM35 478h3v3h-3v-3zM349 455h3v3h-3v-3zM50 380q3 -2 4.5 3t-3.5 4q-2 -4 -1 -7zM240 265q4 -2 5 -0.5t5 1.5q3 -2 6.5 -4t9.5 -2q4 8 5 15q-4 0 -9.5 0.5t-10.5 0t-8.5 -3t-2.5 -7.5zM241 249q5 -1 5 3t-5 3v-6zM320 252q4 -4 6 1q-2 2 -4 1.5t-2 -2.5zM249 239
q0 6 -5 5q-2 -2 0 -3.5t5 -1.5zM253 215h3v3h-3v-3zM246 13q2 -4 11 -4t11 6q-2 4 -11.5 5t-10.5 -7z" />
    <glyph glyph-name="r" unicode="r" 
d="M12 647q4 -1 7.5 -3.5t5.5 -2.5q3 0 5.5 2t6.5 2t9 -2t12 -2q15 0 29 4t34 4q17 0 27.5 -4t19.5 -4q4 0 7.5 2.5t6.5 2.5q1 0 1 -0.5t1 -0.5q16 0 30.5 1.5t29.5 1.5q58 0 85.5 -37.5t27.5 -103.5q0 -23 -1 -47.5t-1 -49.5q0 -24 1 -48.5t1 -47.5q0 -72 -27 -105
q-8 -9 -20 -16.5t-17 -18.5q11 -32 23 -61.5l26 -62.5l8.5 -19t5.5 -20q0 -7 -7 -9t-18 -2q-10 0 -19.5 1t-15.5 1q-11 0 -22 -1t-22 -1q-22 0 -29 13.5t-15 33.5q-6 15 -13 36.5t-15.5 41.5t-17.5 34t-19 14q-13 0 -16.5 -11t-3.5 -29q0 -11 0.5 -19.5t1 -18.5t1 -22.5
t0.5 -30.5q0 -26 -4 -33.5t-27 -7.5q-9 0 -17.5 0.5t-15.5 0.5t-16 -0.5t-17 -0.5q-18 0 -23.5 5.5t-5.5 34.5q0 144 0.5 283.5t0.5 285.5v16q0 8 1.5 13.5t9.5 7.5zM82 546q5 0 7 5q-1 0 -2 0.5t-2 0.5q-3 0 -3 -4v-2zM124 462v-134q0 -25 7.5 -28.5t26.5 -3.5h18
q6 0 12.5 -0.5t13.5 -0.5q15 0 22 4.5t7 23.5v41t-0.5 34.5t-0.5 32.5v34v24q0 14 -2 21t-8 10t-16 3.5t-26 0.5q-20 0 -31 -1t-16.5 -5t-6.5 -10t-1 -17q0 -8 0.5 -15t0.5 -14zM108 302q0 8 -4 8q-2 -2 -2 -4q0 -4 6 -4zM155 254h1q2 0 2 3q0 2 -2 2q-1 0 -1 -5zM88 248
q1 0 2 -0.5t2 -0.5q7 0 7 6q-2 2 -4 2q-7 0 -7 -7zM134 244q3 0 5 -1q1 1 1 3q0 4 -4 4q-2 -4 -2 -6zM59 225v-2q0 -5 5 -5q3 2 3 4q0 4 -5 4q-2 0 -3 -1zM53 202q3 0 3 3q-3 0 -3 -3zM296 193q0 -1 3 -1q1 0 1.5 0.5t1.5 0.5h2q0 4 -3 5q0 -2 -2.5 -1.5t-2.5 -1.5v-2z
M200 188q1 -1 4 -1q4 0 4 3q0 5 -6 5q0 -2 -1 -2.5t-1 -2.5v-2zM226 176q3 0 3 3q-3 0 -3 -3zM246 134q1 -1 2 -1q5 0 5 7q-7 -2 -7 -6zM278 137q-2 0 -3 1.5t-3 1.5q-1 0 -1 -3q0 -4 3 -4q4 0 4 4zM48 122h5q0 5 -5 5v-5zM107 42q1 1 1 4q0 4 -4 4q-1 -1 -1 -3q0 -3 4 -5z
" />
    <glyph glyph-name="s" unicode="s" 
d="M231 513q-3 9 -18.5 9h-32.5h-25.5t-19.5 -2q-9 -2 -9 -16.5v-31.5q1 -14 -0.5 -25.5t0.5 -18.5q3 -11 21 -19.5l30 -14.5l57 -29.5l57 -29.5q13 -7 28.5 -14.5t23.5 -17.5q9 -12 11.5 -28.5t2.5 -35t-1.5 -40t0.5 -44.5q-1 -3 -6 -2.5t-7 -1.5q0 -5 6 -3.5t7 -2.5
q2 -48 -2.5 -81t-33.5 -51q-11 -7 -26.5 -10t-34 -3.5t-39 0.5t-41.5 1h-68t-57 5q-4 2 -2 8q-3 5 -6.5 0.5t-6.5 -0.5q-15 7 -23 20t-11 31t-3 40v46q0 17 -2 31t6 22q6 6 25 5t33 -1q13 0 32 1.5t26 -5.5q5 -5 5 -16t-1 -23t0 -22.5t8 -14.5q8 -5 21 -3.5t24 1.5h22.5
t22.5 2q9 2 9 16.5v31.5q0 14 1 25.5t-1 17.5q-3 11 -19.5 18.5t-28.5 13.5l-52.5 27.5l-52.5 27.5q-20 11 -40.5 19.5t-30.5 28.5q-6 12 -7.5 26t-0.5 29.5t2 33.5t-1 38l11.5 -5.5t12.5 2.5q1 6 -2 8t-7 2.5l-8 1t-7 2.5q1 23 -0.5 43t0.5 37q2 31 22 51t50 23
q28 3 58 1.5t54 -2.5q2 0 4 -1.5t3 -1.5q4 1 6 2.5t6 1.5q8 1 17.5 0.5t20.5 -0.5q23 2 40 0q30 -2 50 -22t23 -46q2 -15 2 -26.5t-0.5 -22t-1 -22.5t-0.5 -28q0 -8 0.5 -19t-4.5 -16q-8 -8 -25.5 -6t-34.5 2q-14 0 -32.5 -1t-24.5 7q-5 7 -3.5 19.5t1.5 23.5v7.5v4t-0.5 4
t-1.5 8.5zM71 484q3 -3 7.5 -3.5t7.5 -2.5q3 3 1 7q-5 1 -10 4t-6 -5zM129 113h6q2 7 -4 6q-2 -4 -2 -6zM161 110q-2 -3 1 -7t8 -3q4 5 0 10t-9 0zM128 78q0 4 -3 5q-2 -2 -1.5 -4t4.5 -1zM139 54q2 -1 3 0t3 1q1 6 -7 4q0 -4 1 -5zM150 42q-1 -4 2 -4.5t5 1.5q1 4 -2 4.5
t-5 -1.5zM116 14v-2l2 -2h3q0 2 1 2v2l-1 2h-3q0 -2 -2 -2zM304 10q0 2 1 3t0 3h-6q0 -6 5 -6z" />
    <glyph glyph-name="t" unicode="t" horiz-adv-x="386" 
d="M206 203q1 -3 2.5 -3.5t3.5 0l4 1t3 -2.5q0 -50 -0.5 -92.5t0.5 -90.5q-3 -4 -4.5 -1.5t-3.5 0.5q-2 -5 2.5 -3t2.5 -3q-8 -9 -24 -8t-31 1q-16 0 -31.5 -0.5t-27.5 1.5q-2 2 -3.5 4.5t-4.5 4.5q4 58 -0.5 118t0.5 116q1 4 1 6.5t2 6.5q-4 33 -3.5 74.5t0.5 82.5v48
q0 11 0.5 21t-0.5 18t-4.5 13.5t-11.5 8.5l-2 11.5t-5 8.5q-9 -2 -13 -2.5t-10 2.5q-5 2 -4.5 -3t-1.5 -7h-7.5t-5.5 -3q-2 -6 3 -5.5t7 -1.5q-5 -5 -15 -3t-10 9q-5 -5 -10.5 -8t-13.5 -1q-9 3 -11 17.5t-1 32.5t2.5 36.5t-0.5 28.5q5 11 19 10.5t34 -0.5h211q9 0 21 1
t24 1.5t22.5 0t15.5 -3.5q4 -2 5.5 -9t2 -16t0 -19t-0.5 -18q0 -7 0.5 -16.5t0 -18.5t-2 -16t-5.5 -9q-8 -4 -24.5 -3.5t-34 2t-31.5 0t-18 -10.5v-298q0 -6 -5.5 -5.5t-7.5 -4.5zM9 597q1 5 1 9t2 11q-5 3 -8.5 0t-4.5 -7.5t1.5 -8.5t8.5 -4zM83 586q5 -4 16 -6.5t16 1.5
q-1 6 -5.5 11t-10 7t-10.5 -1t-6 -12zM62 594q1 -5 7 -4.5t5 5.5q-2 4 -7 4t-5 -5zM52 579q2 6 -0.5 10.5t-7 6t-9.5 -0.5t-7 -7q-7 1 -15.5 2t-14.5 -1q-2 -6 -2 -16t2 -16q13 -5 19.5 2t13.5 12q6 -2 16 -5t13 6q1 5 -3.5 4.5t-4.5 2.5zM103 559q6 -2 6 3q-2 2 -4.5 1
t-1.5 -4zM26 553q3 -2 3 2t-3 2v-4zM97 524q3 -4 10 -2.5t6 8.5q-4 2 -9 -0.5t-7 -5.5zM187 523v-3q2 0 2 -2h3q0 2 1 2v3q-1 0 -1 1h-3q0 -2 -2 -1zM195 499v-4q4 -3 6 -1.5t2 3.5t-2 3.5t-6 -1.5zM179 361v6q-5 1 -5 -3t5 -3zM186 350q0 -7 9 -6q-3 8 -9 6zM180 322
q6 -2 11.5 2.5t5.5 12.5q-5 1 -11.5 -2.5t-5.5 -12.5zM122 180q-1 1 -2.5 0t-1.5 -2q-2 -4 2 -2t2 4zM196 11h3v3h-3v-3z" />
    <glyph glyph-name="u" unicode="u" 
d="M224 127q6 0 7 5t1.5 10.5t1.5 10.5t6 5q-4 4 -5 5.5t-2 7.5q-2 12 -1 27t1 30q0 48 -1 99t1 100q0 4 -0.5 7t0.5 7q0 2 1.5 2.5t1.5 2.5q0 1 -1.5 1.5t-1.5 1.5q-1 35 -1.5 70.5t1.5 71.5q0 5 -0.5 11.5t6.5 10.5q-2 5 -5.5 11.5t0.5 14.5q9 8 26 7.5t34 -0.5t33 0.5
t26 -6.5q5 -17 4 -33.5t-1 -33.5v-209q0 -36 -1.5 -78t0.5 -74q1 -26 3 -59t-2 -62q-2 -16 -9.5 -31t-20 -27.5t-29 -21t-35.5 -10.5q-18 -2 -39.5 -1t-43.5 1q-42 0 -75 0.5t-56 17.5q-17 11 -30.5 32t-15.5 49q-3 34 -1.5 68.5t1.5 69.5q0 91 -1 186.5t1 191.5
q0 15 1 21.5t10 8.5q7 2 15 0.5t15 -1.5h26q5 0 13 0.5l16 1t14.5 -0.5t9.5 -4t4 -9.5t1.5 -15.5t0 -18.5t-0.5 -17.5v-391q0 -14 -1 -33.5t5 -26.5q6 -6 20.5 -5t24.5 1q14 0 25.5 -0.5t22.5 1.5zM351 620q2 2 1.5 5t-4.5 2q-2 -2 -0.5 -4t3.5 -3zM337 613q0 -8 5 -7
q1 3 2 4.5t-4 3.5q0 -1 -3 -1zM342 555q3 2 0.5 2.5t-3.5 -1.5q1 0 1.5 -0.5t1.5 -0.5zM263 183q0 -5 4 -6t7 1q0 4 -4 5.5t-7 -0.5zM348 155q0 3 1 4q-2 1 -3 2t-3 0q0 -4 5 -6zM337 101q2 2 3 6t-1 6h-6q-3 -3 -1.5 -7t5.5 -5zM244 11q6 -1 19 -2t15 5q-5 4 -18.5 4.5
t-15.5 -7.5zM214 16q-5 0 -10 1.5t-9 -1.5q-1 -7 6.5 -6.5t13.5 0.5q7 0 14.5 -0.5t9.5 3.5q-4 6 -11 4.5t-14 -1.5z" />
    <glyph glyph-name="v" unicode="v" horiz-adv-x="423" 
d="M89 646q2 -2 1.5 -5t-0.5 -6q6 -2 5.5 3t3.5 5q11 -5 11 -15.5t2 -19.5l26 -141t24 -143q-1 -5 -5.5 -6.5t-6.5 -4.5q1 -5 6 -4.5t7 -3.5q4 -11 3 -27t6 -24q11 4 10.5 18.5t0.5 27.5q5 37 11 74.5t13 74.5q6 36 12.5 71l13.5 74q2 16 5 32.5t14 19.5q13 4 29 2t33 -2h35
t19 -8q1 -3 0 -10.5t-3 -16t-3.5 -16t-2.5 -11.5q-7 -35 -12.5 -66l-11.5 -67q-3 -12 -4.5 -21t-9.5 -15q7 -8 3.5 -20t-6.5 -26l-22.5 -127.5t-23.5 -125.5q0 -5 -3.5 -5t-3.5 -4t2 -5.5t2 -5.5l-5 -20.5t-5 -26.5q-1 -7 -2 -15t-2.5 -15t-4.5 -12t-9 -6q-8 -2 -21 -1
t-19 5q-4 -3 -11 -4t-14.5 -1t-15 1.5t-11.5 2.5q-4 -1 -12 -2t-16 -1t-14 1t-6 5q2 5 11 2.5t13 1.5q-1 5 -4.5 5.5t-8 0.5t-9 -0.5t-7.5 2.5q-2 3 -1.5 7t0.5 8q-3 7 -8 12q-20 121 -42.5 237.5t-42.5 237.5q3 2 8 1.5t6 4.5q0 5 -4.5 4.5t-2.5 5.5q-4 2 -6 -1.5t-4 0.5
q-1 5 0.5 6.5t4 2t4.5 1t2 3.5q-1 6 -8 6.5t-9 5.5q-2 20 -6 38t-7 37q4 11 19.5 10t32.5 -1q16 0 30 1.5t27 -0.5zM42 636h5v4h-3q0 -1 -1 -1.5t-1 -2.5zM241 613q4 -4 13 -3.5t14 1.5q1 3 2.5 5t1.5 5q-2 5 -7.5 7.5t-11.5 1.5t-10 -5t-2 -12zM105 614q-10 2 -16.5 3
t-6.5 -9q2 -2 5.5 -1t7.5 1q2 -2 3.5 -4.5t6.5 -2.5q3 2 3 6.5t-3 6.5zM86 595q4 -4 6 2q-2 2 -4 1.5t-2 -3.5zM332 587q3 -1 3 1t2 2q0 4 -2 4.5t-3.5 -0.5t-2 -3t2.5 -4zM5 587h5q2 7 -4 5q0 -2 -1 -2.5t0 -2.5zM87 582q2 2 1.5 4t-2.5 2q-4 -4 1 -6zM303 491q-2 1 -3.5 0
t-1.5 -2q-1 -2 2.5 -0.5t2.5 2.5zM292 482q2 -2 4 -0.5t2 4.5q-6 2 -6 -4zM284 469q-2 -9 5 -9q2 3 3 3q1 7 -5 7q-1 -1 -3 -1zM112 327h5q0 3 -5 3v-3zM287 299q2 2 2 6.5t-5 3.5q-2 -2 -2 -6.5t5 -3.5zM191 276h3q0 1 0.5 1t0.5 2q-2 0 -2 1t-2 0v-4zM83 248q2 3 3.5 9
t-0.5 10h-4q-1 -5 -3 -11t4 -8zM208 212q6 -1 6 6q-2 0 -3 1t-3 0q-1 -3 -1 -3.5t1 -3.5zM163 193q1 5 -1.5 6.5t-7.5 2.5q-2 -3 1 -7t8 -2zM212 199h5q0 3 -5 3v-3zM207 154q2 2 1 4t-4 1q-2 -5 3 -5zM173 42q5 0 8.5 0.5t3.5 5.5q-5 0 -8.5 -1t-3.5 -5zM241 33q2 0 2 -0.5
t1 -0.5v3.5t-3 0.5v-3z" />
    <glyph glyph-name="w" unicode="w" horiz-adv-x="592" 
d="M89 645q2 -5 -0.5 -9t3.5 -7q6 -1 5.5 4.5t4.5 5.5q4 -3 6 -10t2.5 -15.5t-0.5 -16.5t-4 -13q0 -4 3.5 -4t4.5 -3q-3 -6 -2 -13t3 -15t3.5 -16t-0.5 -16q-2 -5 -4.5 -6.5t-4.5 -6.5q1 -3 5 -2.5t5 -1.5l10 -100t9 -101q2 -11 1.5 -22.5t6.5 -20.5q8 1 8 7.5v15.5
q2 26 6 54.5t6 54.5q2 2 9 6q1 5 -3 4.5t-3 4.5q5 38 9.5 82t10.5 84q2 15 3 29t3 28q1 5 4 9.5t8 9.5q5 1 5 -3t2 -6t6.5 -1t6.5 -1q4 0 3.5 -5t3.5 -4q5 -2 12 -2.5t12 -3.5q5 2 11 4t13 3q4 1 4 5t2 7q5 -1 9.5 0t9 1.5t8 0.5t5.5 -4q-1 -6 -8.5 -4.5t-10.5 -2.5
q3 -6 8.5 -6t11.5 2q4 -5 3 -11t0 -13q2 -8 5 -16.5t-5 -15.5q2 -5 4.5 -10t4.5 -11q0 -7 -4.5 -5.5t-7.5 -0.5q0 -6 6 -4.5t8 -2.5q5 -62 14.5 -124t14.5 -123q0 -8 -0.5 -17t5.5 -14q9 0 8.5 7t0.5 12q2 14 3.5 30.5t2.5 30.5q0 5 3 6t4 4q-6 6 -4.5 16.5t1.5 20.5
q2 3 5 0t5 1q5 8 -0.5 9t-7.5 6q6 59 10.5 119.5t12.5 118.5q10 8 29.5 7t38.5 -1q16 0 28 1t25 -3q2 -3 3.5 -7t0.5 -10q-2 -5 -6.5 -1t-9.5 -1q0 -7 6.5 -4t8.5 -2q-1 -7 -2.5 -13.5t-6.5 -9.5q0 -3 3 -2.5t1 -4.5q-3 -12 -3.5 -27t-6.5 -24q2 -11 1 -22.5t-5 -19.5
q-2 -29 -6 -59.5t-9 -61.5l-23 -163l-23 -166q-2 -16 -3 -27t-12 -17h-102q-1 9 -8.5 11t-8.5 11q5 4 8 0t9 -3q0 8 -6.5 8t-12.5 2q-3 5 -9.5 7.5t-11.5 5.5q-7 65 -16.5 130.5t-15.5 132.5q-2 9 -2.5 19.5t-5.5 15.5q-8 -2 -8 -8v-15q-2 -32 -8 -71.5t-11 -81.5
q-5 -33 -8.5 -66.5t-7.5 -67.5q-2 -13 -3 -18.5t-10 -11.5h-128q-12 7 -13.5 27t-4.5 38q-8 63 -17 127t-17 128l-9.5 56.5t-4.5 55.5q-4 10 -7 27.5t3 27.5q-1 4 -4 6.5t-4 7.5q-1 3 0 7.5t1 8.5t-2 8.5t3 6.5q-2 3 -4.5 6t3.5 5q-2 2 -4 2.5t-3 2.5q-2 13 -3.5 25.5
t-4.5 25.5q0 5 5 5t4 5q1 5 -4 3.5t-6 0.5q-1 6 -1.5 11t-1.5 11q2 9 15.5 10.5t22.5 -3.5q14 5 34 3.5t37 -0.5zM497 626q-2 4 -9 6t-8 -6q3 0 1 -3q7 0 15 -4q7 2 11.5 5t12.5 4q2 4 -2 7q-4 -4 -10.5 -4.5t-10.5 -4.5zM429 631q-11 -14 -10.5 -30.5t20.5 -20.5q0 13 1 27
t-7 24h-4zM70 625q3 -2 3 2t-3 2v-4zM461 604q3 1 3.5 4t0 6.5t-0.5 6.5t1 5q-2 0 -2.5 2t-3.5 1q-2 -4 -2.5 -13.5t4.5 -11.5zM201 619q4 -4 8.5 1.5t-1.5 7.5q-2 -3 -4.5 -4t-2.5 -5zM237 619h-7q-4 -4 -2 -10q-4 -2 -6.5 -8t4.5 -8q4 2 3.5 8.5t3.5 8.5q3 1 4 -0.5
t4 -0.5q3 3 0.5 5t-4.5 5zM282 603q1 -3 3.5 -5t1.5 -7q-4 -3 -7.5 -1t-8.5 1q-2 -2 -3 -4t-2 -6q2 -2 4 -4.5t6 -2.5q5 2 7 6t6 6q2 2 6 1.5t3 3.5q2 3 -2 6t-4 7q2 3 4.5 4.5t4.5 4.5q-3 2 -4.5 4t-5.5 2q-2 -5 -5.5 -7.5t-3.5 -8.5zM258 596q2 -2 8.5 -1t8.5 4
q0 5 -3 6.5t-6 1t-5.5 -3.5t-2.5 -7zM32 603q2 0 3 -1t3 -1v5q-5 0 -6 -3zM89 593l3 3q0 7 -6 7q-3 -2 -2.5 -6t5.5 -4zM475 593q3 0 3 -3q3 -1 3.5 1t2.5 2q0 5 -4.5 5t-4.5 -5zM205 584q5 0 5 3.5t-5 3.5q-3 -3 0 -7zM233 580q0 2 3 3q0 3 -3 4t-5 3q-2 -3 -1 -7t6 -3z
M252 584q0 -6 6 -6q0 2 1 3t0 3q-3 4 -7 0zM311 577q4 4 -1 6q-2 -2 -1.5 -4t2.5 -2zM518 569q-1 6 -3 6t-3 -2t0 -4t6 0zM414 549q3 -4 6.5 -4t7.5 2.5t7.5 5t6.5 2.5q11 0 13 -7t9 -16q8 1 13 -1.5t10 -0.5q0 6 -3.5 8t-7.5 3.5t-6.5 5t-1.5 10.5q-8 10 -26 5q-2 2 -2 5
t-1 5q-11 3 -17.5 -4t-7.5 -19zM285 564q2 -3 4.5 -6t7.5 -3q0 2 3 3q0 7 -6.5 10.5t-8.5 -4.5zM44 555q2 2 2.5 5t1.5 7q-2 0 -3 1t-3 0q-1 -4 -2 -7.5t4 -5.5zM54 559q3 -2 3.5 -2.5t3.5 1.5q2 7 -2.5 6.5t-4.5 -5.5zM22 552q0 -5 6 -4q0 6 -4 6q0 -2 -2 -2zM215 552
q-2 2 -7 2q-2 -7 3 -7t4 5zM53 549q-6 -7 -12 -10q-9 0 -14.5 -3.5t-13.5 -5.5q2 -5 3.5 -9.5t2.5 -10.5q8 8 17.5 11t24.5 2q3 -1 4.5 -4t3.5 -5q3 0 5.5 2.5t4.5 -2.5q0 -5 -4.5 -5t-4.5 -5q2 -3 8 -4.5t9 0.5q-1 12 -3 23.5t-9 18.5q-8 -1 -12.5 2t-9.5 5zM278 539
q-5 -2 -10 -3t-5 -6q5 -3 7.5 -6.5t8.5 -4.5q5 1 5.5 5.5t4.5 5.5q14 1 17 15q-8 5 -15.5 0.5t-12.5 -6.5zM436 539q0 -6 7 -4q2 5 -1.5 5.5t-5.5 -1.5zM512 526q3 4 1.5 5t-3.5 0.5t-3 -2t5 -3.5zM226 517q2 -2 5.5 -2t5.5 2q1 8 -6 8t-5 -8zM438 520q2 0 2.5 -1t2.5 0
q2 5 -2 5q-1 -2 -2 -2t-1 -2zM96 513q4 4 -1 6q-2 -2 -1.5 -4t2.5 -2zM48 507q4 -4 8 0q0 4 -5 6q0 -2 -2 -2.5t-1 -3.5zM449 510h3v3h-3v-3zM407 500q4 -5 9 -1.5t6 8.5q-5 5 -9.5 1.5t-5.5 -8.5zM67 490q1 2 2 2t1 2q-2 0 -3 1t-3 0q0 -5 3 -5zM38 487q2 -3 9.5 -3.5
t8.5 4.5q-3 4 -9.5 4t-8.5 -5zM262 468q7 0 7 7q-2 0 -2 1.5t-2 1.5q-2 -1 -4 -4t1 -6zM186 468h3v3h-3v-3zM329 462q4 0 6.5 0.5t1.5 5.5q-2 -2 -5.5 -2t-2.5 -4zM67 453q0 4 -3 5q-2 -2 -1.5 -4t4.5 -1zM12 430q3 -2 3 2t-3 2v-4zM260 427q4 -4 8 0q1 7 -3.5 6t-4.5 -6z
M291 395q15 3 25 2q-1 -5 -6 -5t-7 -4q0 -4 1.5 -5.5l3.5 -3.5q8 0 12 3t7 7q1 4 -0.5 5.5t-0.5 5.5q2 2 5.5 2t5.5 2q2 5 -2 6t-6 4l-15 -5.5t-16 -4.5q0 2 -1.5 3.5t-1.5 3.5q3 3 5 2t7 0q-2 6 1.5 10.5t-0.5 9.5q-10 -3 -16 -15t-1 -23zM226 420q4 0 5 1q1 4 -4 6
q-2 -2 -2.5 -3t1.5 -4zM231 404q2 0 2 -3q3 -2 8.5 -2t5.5 5q-1 2 -2.5 3t-1.5 4q3 2 6 6q-3 2 -4 6t-6 3q0 -8 -2.5 -12t-5.5 -10zM284 421h4q0 5 -4 5v-5zM192 400q0 5 -6 5q-3 -3 0.5 -5.5t5.5 0.5zM230 381q-5 -3 -7 -11.5t3 -12.5q5 4 9 6.5t9 4.5q-2 5 -1 8.5t3 8.5
q-5 2 -8 5t-8 4q-5 -3 -2.5 -5.5t2.5 -7.5zM435 394q-5 -2 -9.5 -3.5t-9.5 -2.5q3 -6 2 -13t-1.5 -14t0.5 -11.5t8 -6.5q4 -2 8 0t9 4q-2 14 -1.5 25.5t-5.5 21.5zM346 385q0 2 -0.5 3t-0.5 3h-6q-2 -5 1.5 -6.5t5.5 0.5zM289 372q-2 -3 -4.5 -4.5t-3.5 -5.5q5 -3 7 -10.5
t10 -4.5q1 6 -0.5 8.5t-3.5 6.5q6 4 7 10q-4 4 -5.5 9.5t-6.5 7.5q-2 -2 -1.5 -8t1.5 -9zM459 389q-4 -4 -4 -13.5t4 -13.5q4 0 6 4.5t2 9.5t-2 9t-6 4zM263 385q-7 3 -8.5 0t0.5 -5.5t5 -2.5t3 8zM221 381h3v3h-3v-3zM311 366q4 -2 7 -1q2 1 2 4t-2 4q-7 1 -7 -7zM340 370
q-1 -4 2.5 -4t5.5 2q1 4 -2.5 4t-5.5 -2zM191 359h3v3h-3v-3zM458 346q0 2 2 2.5t1 3.5q-2 0 -2 1t-2 0q-2 -2 -2 -4.5t3 -2.5zM182 346q2 -3 5 -2.5t5 2.5v3q-2 2 -6.5 2t-3.5 -5zM416 218q4 -2 14 -1.5t12 4.5q-5 2 -14.5 2t-11.5 -5zM221 164q2 2 1.5 4t-2.5 2
q-4 -4 1 -6zM368 142q2 -4 8.5 -5.5t10.5 2.5q0 5 -2.5 7.5t-6 3t-7 -1.5t-3.5 -6zM343 92q2 1 1.5 5.5t0.5 7.5h-5q2 -3 0 -8.5t3 -4.5zM330 84q4 1 5.5 -1t2 -5t2 -5t5.5 -2v16q-2 3 -4 2t-5 1q-1 4 -1.5 7t-5.5 3q-2 -4 -1 -7.5t2 -8.5zM124 44q8 0 9 7q-2 2 -2.5 5
t-5.5 2q-1 -3 -2 -7.5t1 -6.5zM179 55q4 -4 6 2q-4 4 -6 -2zM86 13h3q0 2 0.5 2t0.5 1q-1 0 -1.5 1t-2.5 1v-5zM404 12q0 -3 2 -5q6 0 4 6q-4 0 -6 -1zM166 7h4q2 5 -4 3v-3z" />
    <glyph glyph-name="x" unicode="x" horiz-adv-x="382" 
d="M3 646q6 1 5.5 -4t3.5 -6q5 -1 4.5 4.5t4.5 5.5h80q10 -5 13 -19.5t7 -31.5q5 -21 9.5 -42l9.5 -44q2 -10 3.5 -21t9.5 -16q6 2 6.5 8t2.5 11l12 55.5t14 55.5q3 12 5.5 27t13.5 17q12 3 29 1.5t35 -1.5q16 0 32 0.5t21 -9.5l-32 -134.5l-33 -135.5q-3 -13 -7.5 -24
t-2.5 -28q1 -10 4.5 -19.5t5.5 -20.5l23 -95l25 -98q5 -19 11.5 -38t4.5 -39q-4 -5 -12 -4.5t-16 0.5q-4 3 -1 4.5t0 5.5q-6 0 -4 -4t-1 -6h-82q-10 4 -14 18t-8 30l-9.5 42.5l-9.5 43.5q-2 11 -3.5 21.5t-8.5 18.5q-9 -3 -10.5 -15t-3.5 -22l-9.5 -43l-9.5 -43
q-4 -17 -6.5 -30.5t-13.5 -20.5h-66q-16 0 -31.5 -1t-23.5 10l34.5 136l35.5 138q2 11 5 21t3 18q0 13 -4 26.5t-7 27.5q-6 26 -12.5 51.5l-13.5 51.5q-4 13 -6 25.5t-6 24.5q0 5 5 8.5t1 8.5q1 7 -4.5 4t-7.5 1q-2 9 2 12t10.5 4.5t13.5 2t10 4.5q1 13 -5 19q-12 2 -20 0.5
t-18 -5.5q-2 5 1 6t3 5q-2 3 -6 3t-5 4q-1 5 2.5 6.5t3.5 6.5q-5 3 -8 4.5t-4 6.5q-1 8 5 12.5t15 2.5zM204 620h3v3h-3v-3zM204 344h3v3h-3v-3zM211 187l3 3q0 5 -6 6q-5 -5 3 -9zM45 14v-3q2 0 2 -1h3q0 1 1 1v3q-2 0 -1 1h-3q-1 -1 -2 -1z" />
    <glyph glyph-name="y" unicode="y" horiz-adv-x="393" 
d="M158 412q9 2 9 10.5t1 14.5q5 50 16.5 100t21.5 98q2 4 6 6t7 5h64q15 0 30.5 0.5t24.5 -7.5q0 -10 -2.5 -16.5t-3.5 -15.5q-3 0 -3.5 1.5t-1 4t-1.5 4t-4 0.5q-5 -6 -3.5 -17t6.5 -15q-19 -77 -43 -165.5l-46 -169.5q-3 -13 -6.5 -25t-4.5 -23q-4 -33 -2 -72t2 -77
v-28.5t-6 -20.5q-3 -3 -10.5 -3.5t-16 -0.5t-17.5 0.5t-16 0.5q-15 0 -34 -1t-25 4q-4 3 -5.5 10t-1.5 15.5t1.5 17t3.5 12.5q-3 3 -3 6t-1 7q-4 30 -0.5 63t0.5 64q-2 14 -6.5 27.5t-8.5 27.5q-10 42 -21 83l-21 81l-28.5 110t-26.5 111q7 8 27 7.5t43 -0.5q17 0 32.5 1
t23.5 -4q4 -2 6.5 -9t4 -15l3 -16.5l2.5 -14.5l15.5 -72.5t12.5 -74.5q1 -8 1 -15.5t5 -13.5zM260 629q2 4 0 9t-8 4q-2 -5 0.5 -8.5t7.5 -4.5zM248 621q2 2 0.5 5t-5.5 3q-2 -2 -0.5 -5t5.5 -3zM294 614q2 2 1.5 4t-2.5 2q-4 -4 1 -6zM223 601q3 1 4 7t-4 5
q-2 -2 -0.5 -4.5t0.5 -7.5zM273 604q3 -3 3 0.5t-3 -0.5zM261 573v7t-4 2q-2 -2 -1.5 -6t5.5 -3zM172 363q8 0 8 4q-1 3 -8 3q-1 -3 -1 -3.5t1 -3.5zM156 84q3 0 3 -2q6 2 6 6q-2 5 -7 5q-2 -2 -2 -9z" />
    <glyph glyph-name="z" unicode="z" 
d="M91 638q-3 -5 -6.5 -9.5t-9.5 -5.5q-7 0 -10.5 6t-7.5 10q-5 -3 -7 -11.5t1 -15.5q3 -2 4.5 0.5t5.5 3.5q5 2 11.5 1.5t11.5 1.5t11 5t11 5q1 7 -5 7t-7 5q11 5 25.5 4t31.5 -1q18 -1 37.5 1.5t33.5 -0.5q7 -2 12 -6t10 -5q3 -14 13 -18q6 -1 5.5 5t3.5 8q4 1 6 -0.5
t5 -0.5q5 2 6 6.5t5 7.5q4 0 5.5 -2t5.5 -2q5 0 6 3t6 4q6 1 12 -2t4 -9q-6 -4 -7.5 -2t-7.5 3q-3 -9 -6.5 -16t3.5 -15q-5 -4 -6.5 0.5t-6.5 2.5q-4 -2 -5 -7t-1.5 -9.5t-2.5 -8.5t-7 -5q-3 1 -4 4l-2 6t-3 4.5t-7 -1.5q-3 -5 -1.5 -13.5t-1.5 -17.5q-1 -2 -3.5 -6t-6 -7
t-7 -4t-6.5 3q3 6 7 11t6 12q-2 5 -5 5t-6 2q1 5 0.5 11t-2.5 11q-4 0 -4 -9q-11 3 -9 -8q2 -5 4.5 -2t5.5 0q-1 -6 1 -9t2 -8q-5 -3 -8.5 -1t-6.5 -2q4 -7 2.5 -15t-3.5 -16q5 -3 12.5 -2.5t13.5 -2.5q4 2 3 8t3 8q6 -2 12 -2h13q2 -5 -1 -4.5t-5 -1.5q0 -3 1.5 -4t4 -1.5
t4 -2t0.5 -5.5q-8 -2 -13 4t-10 9q-5 -2 -3 -10.5t-3 -10.5q-10 -2 -14.5 5t-11.5 5q-3 -5 1.5 -7.5t7.5 -4.5q-1 -4 0 -6t3 -3t3.5 -2.5t0.5 -5.5q2 -4 4.5 -5.5t5.5 -3.5q-1 -5 -2.5 -8t-1.5 -8q2 -5 7.5 -2t8.5 -1q0 -8 -5 -8.5t-8 -3.5q0 -6 7 -10q8 7 13.5 17.5
t-2.5 26.5q0 5 4 5.5t5 4.5q-2 5 -7 6t-4 9q4 0 10 4q8 -8 20.5 -8t22.5 5q0 6 -4 7.5t-4 6.5q3 5 11 3.5t13 1.5q6 3 6 12.5t9 9.5q-3 -11 -7 -21t-12 -16q1 -16 -7.5 -28.5t-12.5 -26.5q-8 -2 -16 -10q0 -4 2.5 -5t4.5 -4l-59.5 -131l-61.5 -135l-6.5 -13t-6 -14t-2 -13
t6.5 -9h171q6 -4 10 -10v-105q-4 -6 -10 -10h-336q-2 2 -5 4.5t-5 5.5q3 18 0 41t2 41q3 11 9 22.5t11 22.5l29.5 66l30.5 66l39.5 88.5t41.5 85.5q0 10 7 15q8 -2 13 -7.5t13 -3.5q7 2 10 7t8 9q6 0 17.5 0.5t12.5 8.5q-1 4 -5 3.5t-8 -2t-8 -1t-6 5.5q-8 -6 -20.5 -5
t-17.5 9q1 10 6.5 15.5t3.5 16.5q-8 8 -21 6.5t-24 -0.5q-28 2 -65 0.5t-69 -0.5q-2 3 -5 4t-3 6q-1 7 4 7.5t4 5.5q1 5 -2.5 5.5t-4.5 3.5v34q2 5 6 8.5t6 9.5q-3 5 -5 2.5t-5 -3.5q-3 6 -2 15.5t0 17.5q2 2 4 4.5t5 4.5h70q2 -2 4 -3.5t4 -3.5zM205 628q5 -1 7 2l4 6
q-4 5 -8.5 2.5t-2.5 -10.5zM234 617q0 2 1.5 3.5t1.5 4.5q-2 2 -3 4t-5 2q-3 -3 -1.5 -8t6.5 -6zM298 625h2v3h-2v-3zM183 617q-5 -3 -7 -8.5t-0.5 -11.5t6 -10t11.5 -3q0 2 1 2t2 1q1 8 -3 14q2 3 6.5 3.5t5.5 5.5q-5 4 -11 3t-11 4zM157 586q8 0 11.5 8.5t-0.5 17.5h-4
q0 -5 -1.5 -8t-3.5 -5.5t-3 -5t1 -7.5zM244 604q3 1 5 2t1 6q-6 1 -8 -2t2 -6zM257 604v-4q2 -2 8 -2t5 5q-2 2 -6.5 2.5t-6.5 -1.5zM32 593q0 2 1 2t2 2q-4 2 -6 2q0 -6 3 -6zM244 593h6q0 6 -6 6v-6zM48 580q1 -5 8 -6t9 4q1 6 -1.5 9t-6 3t-6.5 -2.5t-3 -7.5zM96 583
q-2 3 -5 0q-1 -3 2.5 -3t2.5 3zM158 569q2 -2 4.5 -1t1.5 4q-4 2 -6 -3zM106 554q2 -9 7 -9q2 0 2 1t2 2q2 7 -3.5 9t-7.5 -3zM171 529q6 -2 10.5 5t1.5 14q-2 0 -2 1t-2 0q-2 -5 -4 -9.5t-4 -10.5zM30 526l4 6t4 8q-2 2 -3 4t-5 2q-1 -4 -3 -11t3 -9zM215 495q3 2 1.5 8
t-5.5 7q-2 -3 -1 -8t5 -7zM193 497q8 -1 10 9q-5 3 -9 -0.5t-1 -8.5zM289 474q2 -3 8 -3t5 6q-2 3 -8 2.5t-5 -5.5zM285 453q7 0 8 2q1 7 -5 7l-3.5 -3.5t0.5 -5.5zM232 439q2 2 3.5 7t-3.5 6q-1 -2 -3 -7t3 -6zM286 440q6 0 6 6q-3 4 -6 0.5t0 -6.5zM91 163q3 2 3 5.5
t-4 4.5q-3 -2 -3 -5.5t4 -4.5z" />
    <glyph glyph-name="braceleft" unicode="{" horiz-adv-x="237" 
d="M184 768q6 -8 5.5 -23t-0.5 -35q0 -14 1 -33t-5 -25q-3 -3 -8.5 -3t-12.5 0.5t-14.5 0t-13.5 -4.5q-5 -3 -7 -12t-2.5 -20t0 -22.5t0.5 -20.5v-489q0 -20 -0.5 -43.5t7.5 -30.5q3 -3 10.5 -3.5l15.5 -1t15 -1t10 -3.5q4 -4 5 -11t0.5 -14.5t-2 -15t-2.5 -11.5q1 -6 2 -15
l2 -18.5t0 -17.5t-5 -12q-6 -6 -25.5 -5t-31.5 1h-46.5t-35.5 8q-17 9 -29.5 25t-14.5 38q-2 16 -1 36.5t1 41.5t-0.5 41t0.5 36q0 6 0.5 11t3.5 10q-4 8 -4 20q-2 30 -1 65.5t1 74.5v276q0 38 -1.5 73t1.5 65q3 27 23 47.5t47 23.5q13 2 27.5 1t30.5 -1q14 0 27.5 0.5
t26.5 -3.5zM99 743q5 -2 13 -1t10 6q-1 2 -5.5 3.5t-9.5 1t-8 -2.5t0 -7zM136 743q0 2 2 2.5t1 3.5q-4 2 -6 2q-2 -5 3 -8zM30 697q-4 -1 -5 -5v-46q0 -13 -0.5 -25.5t3.5 -21.5q8 -4 22.5 -3.5t24.5 2.5q4 9 3.5 22.5t-0.5 26.5q0 14 0.5 26.5t-3.5 20.5q-8 5 -21 3t-24 0z
M51 544q5 -3 14 -3t11 5q-1 7 -6 13q-8 -1 -14 -3.5t-5 -11.5zM21 549q0 -3 2.5 -5t6.5 -2.5t7 1t3 4.5q0 5 -9.5 7.5t-9.5 -5.5zM109 406q-2 2 -2.5 4t-5.5 1q-2 -6 2.5 -7.5t5.5 2.5zM166 -75h3v3h-3v-3z" />
    <glyph glyph-name="bar" unicode="|" horiz-adv-x="356" 
d="M312 8q-2 -2 -5 -4l-6 -4q-5 -1 -7.5 2.5t-4.5 5.5q-1 -5 -3.5 -5.5t-4.5 0t-4.5 0.5t-4.5 -3q-5 1 -6.5 4t-5.5 4q-5 -2 -8 -5.5t-11 -2.5q-5 1 -2 4.5t-2 5.5q-4 2 -7 3t-5 3q-3 -1 -3.5 -2.5t0.5 -4t1 -4.5t-2 -3q-11 5 -13.5 15.5t-5.5 19.5l-48 138l-48 139
l-46.5 138l-47.5 142l-6.5 15t-5 15.5t0.5 13t9 7.5q6 2 18 1t23 -1q15 0 26 1t19 -4q5 -3 8.5 -14.5t7.5 -22.5l47.5 -140l46.5 -138l41.5 -120.5l40.5 -117.5q6 -20 13.5 -40t10.5 -41zM113 462q1 5 -6 5q-1 -5 1.5 -6t4.5 1zM225 228q4 -3 3.5 1t-3.5 -1zM195 209
q0 -5 6.5 -6.5t7.5 5.5q-2 5 -7 4.5t-7 -3.5zM227 196q-2 -1 -3 2t-2 0q2 0 2.5 -3t2.5 1zM192 176q-3 -5 -7 -9l-8 -8q0 -5 7 -3q1 8 6 8h9q-3 2 -3 12h-4zM232 151h5v5h-5v-5zM190 145q-2 -3 -4.5 -1.5t-4.5 -2.5q3 -3 2.5 -9t5.5 -5q0 5 4 10t2 16q-2 0 -2.5 1t-2.5 0
q-2 -2 -0.5 -3t0.5 -6zM198 134q0 -6 6 -6t10 -3q0 6 -5.5 9t-10.5 0zM215 125l6 -4t3 -7q3 -2 4 -0.5t3 2.5q-3 6 -7 12t-9 -3zM245 121q2 5 -2.5 8t-7.5 1q3 -2 4 -6t6 -3zM248 106q2 5 -4 5q0 -5 4 -5zM208 96h6q1 4 -1 4.5t-4 1.5q0 -2 -1 -3t0 -3zM229 95q7 -4 11 2
q-3 2 -5 3t-6 0v-5zM222 66q2 5 -2 10t-2 11h-4q-2 -7 -1 -13t9 -8zM199 80h3v3h-3v-3zM269 71q2 -1 5 -1t3 4h-5t-3 -3zM250 39q4 -1 4 3t-4 3v-6zM218 37q2 -1 8.5 0t5.5 7q-13 0 -14 -7z" />
    <glyph glyph-name="braceright" unicode="}" horiz-adv-x="237" 
d="M8 -123q-6 2 -3.5 4.5t2.5 7.5q-3 1 -4.5 -0.5t-3.5 -4t-4.5 -4.5t-6.5 -1q-9 8 -8 24t1 31q0 16 -0.5 31.5t1.5 28.5q4 6 13 6.5t18 0.5t17.5 2t11.5 10q5 12 3 36.5t-2 44.5q0 35 0.5 64t-0.5 61q-2 5 2.5 5t5.5 4q-1 8 1.5 12t2.5 11q-3 0 -4 -1.5t-2 -4t-2 -4
t-4 -0.5v325q5 2 14.5 0t13.5 3q1 4 -2.5 6.5t-7.5 3.5q-6 2 -10 -1.5t-8 -1.5q-3 20 0.5 36t-4.5 27q-5 6 -13 6.5t-16.5 0.5t-16 0.5t-11.5 6.5q-2 25 -1 52.5t0 53.5q5 12 21.5 11.5t42.5 -0.5q14 0 27.5 0.5t24.5 -0.5q26 -3 46 -22t24 -45q2 -22 1 -46.5t-1 -49.5v-567
q0 -16 1 -36t0 -39.5t-5 -35t-14 -21.5q-2 -1 -3.5 -1t-3.5 -2q-3 -3 -4 -7.5t-5 -7.5q-9 -8 -24.5 -10.5t-33 -2.5t-35.5 0.5t-32 -0.5zM82 565q3 2 3.5 7t-4.5 6q-3 -2 -3 -7.5t4 -5.5zM71 528q6 0 6 6q-3 4 -6.5 0.5t0.5 -6.5zM56 479q-2 -5 -1 -13.5t7 -8.5q8 3 6.5 9.5
t-4.5 12.5q-4 -1 -5 0.5t-3 -0.5zM97 434q-3 7 -10 6.5t-12 -5.5q0 -5 0.5 -8.5t1.5 -7.5q-2 -3 -5.5 -5t-6.5 -5q1 -4 0.5 -8.5t0 -8.5t3 -6t9.5 -2q4 1 4 4.5t3 4.5q7 -2 11 0.5t7 6.5q-3 8 -5.5 15.5t-0.5 18.5zM78 275q5 0 7 3t5 5q-5 5 -5.5 13t-7.5 10q-7 -6 -3 -13.5
t4 -17.5zM65 271q4 -1 4.5 2.5t-3.5 3.5q0 -2 -1 -3t0 -3zM145 175q2 3 1.5 8t-5.5 4q-2 -3 -1.5 -7.5t5.5 -4.5zM82 31q4 1 4 6.5t-5 4.5q-4 -1 -3.5 -6t4.5 -5zM49 -30v-3q6 -6 12 0q0 5 -5 5.5t-7 -2.5zM66 -30q0 -4 6 -4q0 2 2 4q-4 4 -8 0zM78 -37q2 -1 3.5 -2.5
t5.5 -0.5q3 4 1.5 7t-4 4t-5 -0.5t-1.5 -7.5zM87 -117q2 2 1.5 5.5t-4.5 1.5q-2 -2 -1.5 -5t4.5 -2z" />
    <glyph glyph-name="Euro" unicode="&#x20ac;" 
d="M108 727q3 4 -0.5 3.5t-3.5 0.5q0 6 3.5 8.5t9 3t12 0t12.5 0.5q3 -2 5.5 -4.5t6.5 -4.5h16q5 -2 7.5 -6.5t12.5 -2.5q5 0 5.5 4t5.5 5q5 0 8 -3q5 3 8 3t7 2q3 2 5 5.5l4 7t4.5 6t6.5 1.5q3 -5 0.5 -6t-3.5 -6q7 -1 11.5 -3t6.5 -8q4 2 8.5 3t7.5 4q3 0 3.5 -3t3.5 -3
h20q10 -21 0.5 -41t-29.5 -23q-17 -2 -39.5 -1t-46.5 1q-23 0 -45 -1t-39 1q-21 3 -29.5 19t-3.5 36q5 2 12 0.5t15 -0.5q2 0 4 3.5t4 -0.5q1 -1 4 -1zM301 718q-2 0 -2.5 2t-3.5 1q-4 -5 0.5 -6.5t5.5 3.5zM136 520q-10 -3 -9.5 -19t0.5 -34v-48q1 -5 -3.5 -5.5t-6.5 -2.5
q0 -4 5 -3t5 -4q1 -66 0 -134.5t1 -134.5q3 -8 16 -8h31q11 0 22.5 -1t19.5 1t13 6t12 1q2 6 -4 5t-7 4q-1 27 0 55.5t-1 54.5q-2 6 -7.5 7.5t-12.5 1.5h-14t-11 3t-5.5 9.5t-1.5 15t0.5 17.5t0.5 16q0 15 -1 34t5 25q3 3 13.5 4.5t23 1.5t25.5 -0.5t21 -0.5h44h26.5
t17.5 -6q3 -4 3.5 -14t0.5 -21.5t-1 -22.5t-1 -18v-154q0 -20 1 -39t-1 -38q-2 -21 -16.5 -41.5t-38.5 -27.5q-23 -7 -57 -5t-68 2q-29 0 -56 -1t-47 1q-26 2 -47 20.5t-24 49.5q-3 29 -1.5 62.5t1.5 67.5v66q0 16 -1 32.5t1 32.5q0 7 1 10q1 1 3.5 2.5t2.5 2.5q0 2 -2 2.5
t-4 2.5q-4 8 -2.5 26.5t1.5 31.5v147q2 2 4.5 3t4.5 4q3 1 5.5 -0.5t2.5 3.5q-1 8 -6.5 3.5t-10.5 -0.5q3 32 22.5 52.5t48.5 23.5q20 2 47.5 1t57.5 -1q23 0 46 1t43.5 -0.5t37.5 -6.5t28 -17q8 -9 14.5 -21.5t8.5 -26.5q2 -18 1 -38.5t-1 -40.5q0 -6 1 -13t1 -14.5t-1 -14
t-5 -10.5q-7 -7 -27 -6t-33 1q-7 0 -16 -0.5t-17.5 0t-15 2t-9.5 4.5q-3 5 -2.5 16l1 22.5t-0.5 22t-8 13.5q-8 5 -21 3.5t-24 -1.5h-20.5t-22.5 -2zM310 624q0 1 1 1q0 4 -3 3q1 -2 0.5 -3t1.5 -1zM298 595q6 -2 9 2t-3 6q-2 -2 -5 -2.5t-1 -5.5zM290 589q4 -1 4 2t-3 4
q0 -2 -1 -3t0 -3zM307 561q4 -2 8 -3t9 -3q5 4 3 15q8 2 8 10h-5q0 -10 -9 -11.5t-14 -7.5zM297 573q5 -4 9 0v4q-3 2 -6.5 1t-2.5 -5zM63 561q2 -3 8 -2.5t11 -0.5q1 5 5 7.5t6 5.5q-8 4 -14.5 2t-14.5 3q5 -8 -1 -15zM114 570q2 -4 7.5 -2t5.5 8q-10 0 -13 -6zM324 535
q6 0 6 1q-2 1 -1.5 2t-1.5 1q1 -2 -0.5 -2t-2.5 -2zM335 526h2v3h-2v-3zM269 523q-1 -6 2 -3.5t-2 3.5zM279 502q7 -2 6 4q-2 0 -2 1t-2 0q-1 -2 -1.5 -2.5t-0.5 -2.5zM295 503v-3q2 0 2 -2h3q0 2 1 2v3q-2 0 -1 1h-3q0 -2 -2 -1zM320 488q3 -2 3 2t-3 2v-4zM253 478
q0 -9 6 -9q6 5 1 10q-3 1 -7 -1zM297 466q0 4 -3.5 3.5t-6.5 -0.5q-4 -4 2.5 -6t7.5 3zM329 460q-2 3 -8.5 4.5t-10.5 -1.5q3 -2 9.5 -5.5t9.5 2.5zM9 401q-1 -4 3 -4.5t6 1.5q1 5 -3 5t-6 -2zM220 361q-1 -5 3 -4.5t3 5.5q-5 0 -6 -1zM301 313q3 -4 5 -2t4 5q-2 3 -5.5 2.5
t-3.5 -5.5zM154 57q6 4 -1 7q-2 -2 -1.5 -4.5t2.5 -2.5z" />
    <glyph glyph-name="guilsinglleft" unicode="&#x2039;" horiz-adv-x="195" 
d="M122 708q-5 -4 -22 -4t-29 1q2 2 3 6q-2 0 -2.5 1t-2.5 2q-5 -4 -4 -9q-5 0 -13 -0.5l-16.5 -1t-16 0.5t-10.5 4q-2 3 -3 10.5t-1 16.5t0.5 17.5t0.5 12.5t-0.5 12t-0.5 16.5t0.5 16t3.5 10.5q6 0 6 3q6 3 17 1q-2 -2 -0.5 -5.5t5.5 -3.5q0 3 3 3q0 4 -5 6h13h26
q-3 -3 -3 -7q2 -2 3.5 -4.5t6.5 -2.5q5 2 7 5.5t6 5.5q2 2 4 1.5t4 1.5q19 2 23 -9q2 -5 1 -12.5t-1 -14.5v-28q0 -4 0.5 -12t0.5 -16t-1 -14.5t-3 -9.5zM124 71q0 -4 -1.5 -4t-3 1t-3 1.5t-2.5 -2.5q2 -8 5 -9t5 -7q3 -11 1.5 -26t-5.5 -19q-3 -3 -10.5 -4.5t-16 -1.5
t-17 0.5t-14.5 0.5q-14 0 -33 -0.5t-24 5.5q-3 3 -4 11.5t-1 20t0.5 24t0.5 21.5v527v23.5t11 12.5q10 3 25.5 1.5t31.5 -1.5q13 0 29.5 0.5t21.5 -4.5q3 -3 4 -11t1 -18.5t-0.5 -20.5t-0.5 -18v-503z" />
    <glyph glyph-name="quoteleft" unicode="&#x2018;" horiz-adv-x="176" 
d="M2 637q8 4 24.5 3t33.5 -1q13 0 30 0.5t22 -4.5q4 -4 5.5 -18t1.5 -31.5t-1 -35.5t-1 -29v-121v-32t-5 -22q-8 -8 -25 -6t-33 2q-14 0 -33 -1t-25 5q-4 4 -5 20t-1 35t1 36t1 24v63q0 17 -0.5 42.5t0.5 46.5q0 11 1 16t9 8z" />
    <glyph glyph-name="quoteright" unicode="&#x2019;" horiz-adv-x="176" 
d="M2 637q8 4 24.5 3t33.5 -1q13 0 30 0.5t22 -4.5q4 -4 5.5 -18t1.5 -31.5t-1 -35.5t-1 -29v-121v-32t-5 -22q-8 -8 -25 -6t-33 2q-14 0 -33 -1t-25 5q-4 4 -5 20t-1 35t1 36t1 24v63q0 17 -0.5 42.5t0.5 46.5q0 11 1 16t9 8z" />
    <glyph glyph-name="quotedblleft" unicode="&#x201c;" horiz-adv-x="380" 
d="M2 637q8 4 24.5 3t33.5 -1q13 0 30 0.5t22 -4.5q4 -4 5.5 -18t1.5 -31.5t-1 -35.5t-1 -29v-121v-32t-5 -22q-8 -8 -25 -6t-33 2q-14 0 -33 -1t-25 5q-4 4 -5 20t-1 35t1 36t1 24v63q0 17 -0.5 42.5t0.5 46.5q0 11 1 16t9 8zM187 363q-1 13 -0.5 30t0.5 30v177v-237z
M187 363v237v18q1 7 3 11.5t9 6.5q10 3 25 1.5t32 -1.5q13 0 29 0.5t21 -4.5q3 -2 5 -14v-54v-153q0 -4 -1.5 -4t-3 1t-3.5 1.5t-2 -2.5q2 -8 5 -9t5 -7v-34q-2 -9 -5 -11q-3 -3 -10 -4.5t-16 -1.5t-17.5 0.5t-14.5 0.5q-7 0 -15.5 -0.5t-16.5 0t-14.5 1.5t-9.5 4
q-3 2 -5 17z" />
    <glyph glyph-name="quotedblright" unicode="&#x201d;" horiz-adv-x="380" 
d="M2 637q8 4 24.5 3t33.5 -1q13 0 30 0.5t22 -4.5q4 -4 5.5 -18t1.5 -31.5t-1 -35.5t-1 -29v-121v-32t-5 -22q-8 -8 -25 -6t-33 2q-14 0 -33 -1t-25 5q-4 4 -5 20t-1 35t1 36t1 24v63q0 17 -0.5 42.5t0.5 46.5q0 11 1 16t9 8zM187 363q-1 13 -0.5 30t0.5 30v177v-237z
M187 363v237v18q1 7 3 11.5t9 6.5q10 3 25 1.5t32 -1.5q13 0 29 0.5t21 -4.5q3 -2 5 -14v-54v-153q0 -4 -1.5 -4t-3 1t-3.5 1.5t-2 -2.5q2 -8 5 -9t5 -7v-34q-2 -9 -5 -11q-3 -3 -10 -4.5t-16 -1.5t-17.5 0.5t-14.5 0.5q-7 0 -15.5 -0.5t-16.5 0t-14.5 1.5t-9.5 4
q-3 2 -5 17z" />
    <glyph glyph-name="trademark" unicode="&#x2122;" horiz-adv-x="407" 
d="M215 588q8 -5 12 -14.5t7 -20.5t5 -21.5t10 -16.5q9 5 11 16t5 22t6.5 20.5t11.5 14.5q8 -1 17.5 -0.5l19 1t17.5 -0.5t11 -7q4 -8 2.5 -24t-1.5 -27v-102q0 -11 0.5 -27.5t-1.5 -21.5q-3 -5 -10 -7t-15 -2t-14.5 2.5t-8.5 6.5q-4 8 -3.5 17.5t2 19t1.5 18.5t-6 15
q-8 -3 -11 -16l-5 -22q-2 -11 -3.5 -22t-11.5 -16q-5 -2 -12.5 -1.5t-13.5 0.5q-10 5 -12.5 16.5t-4.5 23.5q-2 6 -3.5 12t-2.5 12q-2 5 -2 11.5t-7 8.5q-8 -5 -7 -15t1 -21t1 -22.5t-2 -18.5q-2 -4 -9 -6.5t-14.5 -2.5t-14 2.5t-9.5 6.5q-4 7 -2.5 21t1.5 28v150
q3 6 10 8.5t16.5 2.5t20 -1t18.5 0zM86 378q-2 -5 -4.5 -3.5t-7.5 0.5l-3 -3q-9 -2 -18.5 -0.5t-13.5 7.5q-5 10 -3 32.5t2 43.5q0 23 0.5 43t-1.5 32q-2 6 -7 7.5t-10.5 1.5t-11 -0.5t-9.5 1.5q-5 3 -7 10t-1.5 15t3.5 15t9 8q12 4 28.5 2t34.5 -2q16 0 34 2t27 -3
q3 -2 5.5 -8.5t2.5 -14t-1.5 -14.5t-6.5 -10q-4 -2 -9.5 -2h-11t-9.5 -0.5t-7 -5.5q-2 -5 -2.5 -15t0 -22l1 -23.5t0.5 -18.5q0 -22 0.5 -41t-3.5 -34z" />
    <glyph glyph-name="guilsinglright" unicode="&#x203a;" horiz-adv-x="195" 
d="M124 71q0 -4 -1.5 -4t-3 1t-3 1.5t-2.5 -2.5q2 -8 5 -9t5 -7q3 -11 1.5 -26t-5.5 -19q-3 -3 -10.5 -4.5t-16 -1.5t-17 0.5t-14.5 0.5q-14 0 -33 -0.5t-24 5.5q-3 3 -4 11.5t-1 20t0.5 24t0.5 21.5v527v23.5t11 12.5q10 3 25.5 1.5t31.5 -1.5q13 0 29.5 0.5t21.5 -4.5
q3 -3 4 -11t1 -18.5t-0.5 -20.5t-0.5 -18v-503zM83 578h3v3h-3v-3zM85 558q4 13 -2 18q-3 -3 -3 -9.5t5 -8.5z" />
    <glyph glyph-name="copyright" unicode="&#xa9;" horiz-adv-x="427" 
d="M192 388q-2 -6 0 -8t5 2t-5 6zM160 404q6 0 4 6q-3 0 -4.5 -2t0.5 -4zM209 509q5 0 5 4t1 7h-4q0 -3 -2 -5.5t0 -5.5zM135 374q-3 4 -0.5 8.5t-0.5 8.5q-4 3 -7.5 2t-9.5 0q-1 -4 1.5 -5t5 -1.5t4.5 -2t0 -6.5q-7 -3 -13 5t-7 15q-2 16 -1 38t1 44q0 15 -1 32.5t0.5 32.5
t6 26t16.5 15q5 2 18 2.5t27 0.5t27.5 -0.5t20.5 -1.5t16 -9t11 -20q1 -3 1.5 -11t0.5 -17t-0.5 -16.5t-2.5 -10.5q-2 -4 -9 -6t-15 -2t-15 2t-9 6q-2 3 -1 9.5t-1 12.5q-1 5 -7 8t-12.5 3.5t-13 -2t-9.5 -8.5q2 -8 1.5 -20t-1.5 -25.5t-1.5 -26t1.5 -21.5q2 -6 7.5 -9
t12.5 -3t13 2.5t9 8.5q1 8 0 13t2 10q3 6 10.5 7.5t15 1t14.5 -3t8 -5.5q2 -3 2.5 -10.5t0.5 -16t-0.5 -16.5t-1.5 -12q-3 -16 -16 -22.5t-30.5 -7.5t-36 1t-32.5 3zM80 337q7 2 9.5 -0.5t6.5 -0.5q1 6 -4 7t-7 3q-1 -2 -3.5 -3t-1.5 -6zM51 371q8 3 5 13t-12 9
q-2 -5 -0.5 -13t7.5 -9zM21 410q-1 -4 2 -4.5t5 1.5q1 4 -2 4.5t-5 -1.5zM16 560v-3q2 0 2 -2h3q0 2 1 2v3q-2 0 -1 1h-3q0 -3 -2 -1zM53 583q2 0 2 5.5t-4 3.5q-1 -2 -2 -6t4 -3zM109 356q8 -3 13.5 -9t11.5 -8q5 -2 9.5 -0.5t9.5 1.5q11 0 20 -2t19 -1q28 2 52.5 15.5
t42 34.5t27 48t6.5 56q-2 25 -13 47.5t-27.5 40t-38.5 28.5t-46 14q-20 2 -34 -1t-31 -5q-8 -7 -16 -10.5t-16 -8.5t-14 -12.5t-17 -9.5q-1 -11 -7 -19.5t-10 -18.5q-5 -10 -8 -20.5t-4 -22.5q-3 -40 9 -66t29 -45l10 -10t7 -13q8 1 16 -3zM64 622q2 0 2.5 -1t2.5 -2
q0 2 1 2.5t1 2.5q-2 0 -2 1t-2 2q0 -2 -1 -2.5t-2 -2.5zM211 639q0 2 1 2.5t2 2.5q-2 0 -3 1t-3 0q0 -5 3 -6zM195 641q5 0 6.5 4.5t-5.5 4.5q-6 -6 -1 -9zM199 657q5 0 6 3.5t6 3.5q7 -1 9.5 -6.5t10.5 -4.5q2 -3 1 -5.5t1 -5.5q5 1 6.5 5.5t3.5 8.5q6 -1 14.5 -5t13.5 -10
q2 -2 3.5 -1t4.5 -1q41 -29 66.5 -72t20.5 -108q-2 -33 -16.5 -62t-37 -52t-51 -37t-59.5 -17q-22 -2 -46 0q-14 1 -29.5 5.5t-23.5 13.5h-11q-41 23 -70.5 64t-31.5 99q-1 19 2 38.5t10 35.5q1 3 3 5.5t4 5.5q18 41 53 70.5t86 35.5q3 -10 4.5 -18.5t3.5 -16.5q4 2 5 7.5
t1 11.5t1 12t4 9l18 -4t14 -8z" />
    <glyph glyph-name="registered" unicode="&#xae;" horiz-adv-x="427" 
d="M143 387q2 2 1.5 7t-5.5 3q0 -4 -0.5 -7.5t4.5 -2.5zM157 526v-26q2 -5 8.5 -7.5t13.5 -2.5t13.5 2.5t7.5 7.5q0 12 -1 22.5t-9 13.5q-5 -1 -12 0t-10 -1q-5 -1 -6.5 -4t-4.5 -5zM120 512q11 2 12 14.5t-2 21.5q-10 -1 -10.5 -14.5t0.5 -21.5zM146 549q3 1 4 2.5t3 3.5
q-1 4 -4 4t-5 -1.5t-2 -4t4 -4.5zM152 567h3v3h-3v-3zM184 586q3 -5 0.5 -9.5t-0.5 -9.5q6 -3 10 3t11 4q3 4 0 6.5t0 6.5q16 -2 27 -8t16 -19q3 -9 2 -22t-1 -26q0 -8 1 -14.5t1 -12.5q-1 -5 -3.5 -9t0.5 -9q-4 -11 -12 -15.5t-9 -15.5q0 -5 4.5 -14.5t7.5 -17.5t7 -15.5
t-1 -15.5q-4 -2 -6 -1.5l-6 1.5q-5 -3 -12.5 -2.5t-15.5 0.5q-10 8 -16 21t1 28q-3 4 -5 0.5t-6 -1.5l-4 10.5t-9 5.5q-6 0 -7.5 -6t-1.5 -14.5t0.5 -17.5t-0.5 -16q-1 -6 -8.5 -8.5t-16 -2.5t-15.5 2.5t-9 8.5q1 50 0 100.5t2 98.5q5 4 13.5 5.5t19 2t21.5 0t20 -1.5z
M335 400l3 -3q3 -1 3.5 1t2.5 2q0 5 -5 7q-1 -2 -3 -3t-1 -4zM323 574q4 4 -1 6q-4 -4 1 -6zM306 573q2 2 1.5 5t-4.5 2q-2 -2 -1.5 -5t4.5 -2zM306 592q0 6 -2 6q-3 1 -4.5 -3.5t6.5 -2.5zM101 607q3 8 -1 7t-4 -3q0 -3 5 -4zM245 629h3v3h-3v-3zM187 626q4 -1 4 4t-3 5
q-3 -3 -1 -9zM107 629q2 0 3 -3q6 2 5 8q-2 2 -5.5 0.5t-2.5 -5.5zM222 638v-4q7 -2 7 4q-5 5 -7 0zM248 604l-20.5 7.5l-19.5 7.5q2 5 -1 10t-7 3t-1 -6t-2 -5q-51 3 -83 -17h-12q-2 -2 -2 -4.5t-2 -5.5q-27 -19 -45 -50t-16 -73q1 -29 14 -55t35 -44.5t51.5 -27.5t62.5 -5
q2 -6 5 -11t11 -5q3 4 -2 6t-4 7q5 7 13.5 9t15.5 5q7 4 14.5 7.5t13.5 8.5q11 10 19.5 22.5t20.5 21.5q-2 7 1 9t5 7q-2 0 -1.5 2t-0.5 4q8 15 9 39.5t-4 43.5q1 2 4 2.5t5 2.5q-4 12 -15 12q-7 16 -16 28.5l-19 25.5q5 3 9.5 7t2.5 14q2 3 6 3t6 5q-8 9 -18.5 3t-19.5 -8
q-2 2 -4.5 5t-0.5 6q2 2 5.5 -0.5t6.5 0.5q-2 7 0.5 10t2.5 8q-11 2 -16 -10.5t-7 -24.5zM339 574q-5 -2 -10 -5t-10 -5q0 -6 2.5 -7.5t5.5 -1.5t6 -0.5t5 -3.5h14q7 -15 12.5 -37t-0.5 -42q5 -10 2 -22t-5 -23q-2 -3 -5 -4.5t-5 -5.5q-1 -5 0 -7.5t1 -6.5q-8 -12 -14 -25.5
t-16 -22.5q-2 -2 -5 -4.5t-7 -1.5q1 -5 -1.5 -7.5l-4.5 -4.5q-16 -17 -40 -27t-50 -18q-6 0 -10 4q-5 -5 -20 -5.5t-27 0.5q-37 2 -65.5 18t-48.5 38q-24 26 -40 60.5t-12 80.5q2 38 17 70t38.5 55t53.5 37t63 17q35 3 64 -5.5t53 -23.5q18 -12 33 -27.5t26 -36.5z" />
    <glyph glyph-name="cedilla" unicode="&#xb8;" horiz-adv-x="427" 
d="M139 1q6 0 19 1t27 1.5t25.5 -0.5t15.5 -6q3 -3 3.5 -12t0.5 -19t-1 -19t-3 -12q-2 -5 -7.5 -12t-10.5 -10q-8 -5 -20 -7.5t-24 -2.5t-21 2t-12 5q-4 6 -4 16.5t1 22l2 23.5t-1 21q2 2 3.5 5t6.5 3z" />
    <glyph glyph-name="Ccedilla" unicode="&#xc7;" 
d="M231 512q-3 10 -18.5 9.5t-32.5 -0.5q-14 0 -25.5 0.5t-19.5 -1.5q-5 -2 -7 -11t-2.5 -21.5t0 -26t0.5 -23.5v-75q0 -43 2 -82t-2 -69q-1 -5 -1 -9.5t-5 -7.5q4 -2 6 -7.5t-1 -10.5q-8 -4 -10 0.5t-8 6.5q-5 -4 -11 -10.5t-6 -12.5q5 -4 7 2t7 6q5 -2 11 -2t10 -2
q2 -9 1 -17t2 -13q3 -8 15.5 -9.5t27.5 -1t29.5 2.5t22.5 0q9 6 10 16t-0.5 21t-2 21.5t6.5 17.5q3 4 10.5 5t16 1t17 -1t14.5 -1t15 0.5t17 0.5t14.5 -1t9.5 -4q8 -8 6.5 -21.5t-1.5 -26.5q0 -20 0.5 -36.5t-3.5 -33.5q3 -15 -1.5 -29.5t-14 -26t-23 -19t-28.5 -9.5
q-14 -2 -28.5 -1t-29.5 1h-8q4 -2 6 -4q3 -3 3.5 -12t0.5 -19t-1 -19t-3 -12q-2 -5 -7.5 -12t-10.5 -10q-8 -5 -20 -7.5t-24 -2.5t-21 2t-12 5q-4 6 -4 16.5t1 22l2 23.5t-1 21q2 2 3 4t4 3q-18 0 -36 0.5t-33 1.5q-5 -1 -5.5 2.5t-3.5 3.5q-5 1 -10 1.5t-9 2.5
q-11 5 -19.5 18.5t-13.5 29.5q-4 12 -5 29.5t-1 36t0.5 38t0.5 36.5v347q0 9 -0.5 18.5t2.5 17.5q1 3 1.5 6t8.5 3q0 5 -2.5 8t2.5 5q-1 7 5.5 6.5t7.5 1.5q3 3 0 5.5t1 7.5q12 11 27.5 15t35 5.5t42 0.5t47.5 -1q27 0 54 1t50 -1q32 -3 51 -24t22 -44q2 -15 2 -26.5
t-0.5 -22t-1 -22.5t-0.5 -27q0 -9 0.5 -19.5t-3.5 -15.5q-6 -8 -23 -7t-34 1q-8 0 -17.5 -0.5t-18.5 0t-15.5 2t-9.5 4.5q-4 6 -4 14.5t1 17.5t1.5 18t-2.5 17zM64 303q1 -3 3 -5t4 -5q5 2 8 4.5t8 4.5q0 4 -3 4.5t-3 5.5q2 4 6.5 5t5.5 6q-10 5 -20.5 -1.5t-8.5 -18.5z
M7 172q5 1 9.5 1t8.5 2q0 12 -9 13q-4 -2 -7.5 -6.5t-1.5 -9.5zM67 581q2 0 2.5 -1t2.5 -1q1 2 1.5 2t1.5 1q-1 4 -1 8.5t-5 6.5q-6 -8 -2 -16zM61 172q-2 -3 0 -4t3 -3q3 2 7.5 2t5.5 5q-3 6 -6.5 2t-9.5 -2zM93 233q-2 -3 -1.5 -4t2.5 -3q4 1 9 4t0 6q-1 -2 -5 -1.5
t-5 -1.5zM14 575q-4 -9 9 -9q2 3 -1.5 7t-7.5 2zM10 162q0 -6 5.5 -5.5t6.5 5.5q-2 3 -5.5 2.5t-6.5 -2.5zM23 597q7 -1 7 5q-2 5 -5 5q-2 -2 -3 -5t1 -5zM49 583q1 2 2.5 3t0.5 5q-2 0 -2 1t-2 0q-2 -2 -2 -5.5t3 -3.5zM174 12h5q0 5 -5 3v-3zM39 541h3v3h-3v-3zM171 3h4
l-1 1q-1 0 -1.5 -0.5t-1.5 -0.5z" />
    <glyph glyph-name="Odieresis" unicode="&#xd6;" 
d="M43 34q5 6 0 5.5t-5 -2.5t5 -3zM49 77q-1 6 -3 6t-3 -4.5t6 -1.5zM7 101q2 -2 2 -3q3 -1 3.5 0.5t2.5 2.5q1 5 -4 5t-4 -5zM28 134q-2 4 -9 6t-8 -6q3 0 1 -3q7 0 15 -4q7 2 12 4.5t13 3.5q1 6 -3 8q-4 -5 -10.5 -5t-10.5 -4zM142 646q0 -5 -1.5 -7.5t3.5 -4.5q4 0 4.5 2
t0 4t-0.5 3.5t3 2.5h9q2 -5 -2 -4.5t-3 -4.5q2 -2 4.5 0t4.5 -1q-1 -4 -2.5 -6t-3.5 -6q5 -4 9 0q5 -1 5 -5.5t5 -4.5q5 6 2 12.5t-7 10.5q1 8 9.5 8.5t17.5 0.5q15 0 30.5 0.5t26.5 -4.5q7 3 16.5 2t12.5 -8q3 -1 4 0.5t4 0.5q24 -14 41.5 -33t21.5 -51q3 -29 1.5 -58
t-1.5 -57v-228q0 -29 1 -57.5t-1 -55.5q-3 -38 -30.5 -65.5t-66.5 -30.5q-18 -2 -39 -1t-41 1t-40.5 -1t-38.5 1q-22 2 -39.5 11t-28.5 19q-11 12 -20 29.5t-11 37.5q-2 27 -1 56t1 58v223q0 22 -0.5 45t0 44t4.5 40t13 33q6 1 9.5 4.5t8.5 6.5q5 0 2.5 -2.5t0.5 -4.5
q3 2 3 6t5 6q-2 4 -5 2t-6 0q2 5 6.5 6.5t6.5 5.5q5 -2 8 -5t7 2q0 6 -4 4t-3 3q6 6 16 8t19 -3q6 -1 8.5 5t8.5 2q1 -7 -2 -9.5t-5 -6.5q2 -5 8 -7q0 -5 -4 -9t2 -9q6 2 7.5 8t6.5 8q0 5 -4 5t-5 4q-2 13 6 17t23 2zM182 636q0 2 1 3t0 3q-4 1 -4.5 -2.5t3.5 -3.5zM243 633
q5 6 0 5.5t-5 -2.5q-1 -1 5 -3zM266 634h3v3h-3v-3zM83 621h10q0 8 -9 10q-2 -2 -1.5 -4.5t0.5 -5.5zM73 624q0 -2 1.5 -1t2 2.5t0.5 2t-3 -1.5q0 -1 -1 -0.5t0 -1.5zM186 621h3v3h-3v-3zM208 614q6 0 6 4q-2 0 -2.5 1t-2.5 1q0 -2 -1 -3t0 -3zM264 618q0 -4 6 -4q2 6 -4 6
q0 -2 -2 -2zM301 608q1 5 -5 7v-5.5t5 -1.5zM259 602q3 0 5 2q1 2 -4 6q-2 -3 -2.5 -3.5t1.5 -4.5zM211 602q2 -2 5.5 -2t5.5 2q1 3 -1 3.5t-2 2.5q-4 1 -5 -1.5t-3 -4.5zM304 594q0 5 -1 8.5t-5 4.5q-2 -5 -1.5 -10t7.5 -3zM126 499q-1 -17 -0.5 -38.5t0.5 -35.5v-199
q0 -6 -0.5 -20.5t-0.5 -30t1.5 -29t4.5 -16.5t17.5 -4.5t31 -1.5t31 1.5t17.5 4.5q4 4 5 15.5t1 26t-1 29t-1 24.5v197q0 10 1 25t1 29t-1 25.5t-5 15.5q-3 3 -16.5 4.5t-29 1.5t-29 -1t-16.5 -2q-8 -3 -9 -7t-2 -14zM257 813q0 -6 6 -6q2 4 2 6q-4 4 -8 0zM317 806
q2 1 1.5 3t-3.5 2q-2 -5 2 -5zM291 793l4 -6t7 -3l3 3q0 6 -6 10t-8 -4zM221 781q-4 2 -7 1q-2 -6 2.5 -6t4.5 5zM284 768q-5 -2 -10 -3t-5 -6q4 -3 7 -6.5t9 -5.5q5 2 5.5 6t4.5 6q14 0 16 15q-8 5 -15 0.5t-12 -6.5zM231 746q6 -8 12 0q1 8 -6 8t-6 -8zM323 702
q-5 -5 -22 -4.5t-29 0.5q3 2 3 6q-2 0 -2.5 1t-2.5 2q-2 -1 -3.5 -3.5t-0.5 -5.5q-5 0 -13 -0.5t-16.5 -0.5t-15.5 1t-10 4q-3 2 -4 9.5t-1 16.5t0.5 17.5t0.5 12.5q0 5 -0.5 13t-0.5 16.5t0.5 16t3.5 10.5l1 -1q5 0 5 4q4 1 8 1h9q-2 -3 0 -6.5t5 -2.5q2 2 3 2q0 4 -5 7
q5 -1 13 -1q7 0 13.5 0.5t12.5 -0.5q-1 -2 -2 -3.5t-1 -3.5q2 -2 3.5 -4.5t6.5 -2.5q5 2 7 5.5t6 5.5q2 2 4 2t4 1q8 1 14.5 -1t8.5 -8q2 -5 1 -12.5t-1 -14.5v-28q0 -4 0.5 -12t0.5 -16t-1 -14.5t-3 -8.5zM276 709q2 -2 6 -0.5t5 5.5v2q-4 2 -7.5 0t-3.5 -7zM50 784
q2 2 2.5 5t1.5 6q-4 2 -6 2q-1 -4 -2 -7.5t4 -5.5zM60 788q2 -2 3 -2.5t4 1.5q2 6 -3 6t-4 -5zM102 742q5 5 -1 5q-2 -1 -1.5 -3t2.5 -2zM54 736q4 -3 7 0q0 2 -4 6q0 -2 -2 -2.5t-1 -3.5zM73 718q0 2 1 2.5t2 2.5q-2 0 -3 1t-3 0q0 -5 3 -6zM44 716q2 -4 9 -4t8 5
q-3 4 -9 4t-8 -5zM39 814q14 4 38 3.5t46 -0.5h21.5t11.5 -9q2 -4 2 -11t-0.5 -15l-1 -16t-0.5 -13q0 -4 0.5 -11.5t0.5 -15.5t-0.5 -14.5t-3.5 -9.5t-10 -4t-15.5 -1t-17 0.5t-14.5 0.5t-14.5 -0.5t-17 -0.5t-15.5 1t-10 4q-5 5 -4.5 19t1.5 26q10 6 31 5q3 -2 4 -4.5
t3 -4.5q3 0 6 2.5t4 -2.5t-3.5 -5t-4.5 -5q2 -4 8 -5t9 1q-2 12 -3.5 23.5t-9.5 18.5q-8 -1 -12.5 2t-9.5 5q-6 -8 -11 -10q-5 0 -11 -2v22q0 7 -0.5 14t3.5 12z" />
    <glyph glyph-name="Udieresis" unicode="&#xdc;" 
d="M-5 729v3h3v-3h-3zM322 702q-4 -5 -21 -5q0 -5 -3 -5.5t-7 -1.5q-2 2 0 7q-5 0 -10 0.5t-9 0.5q2 2 2 6q-2 0 -2 1t-2 2q-7 -2 -4 -9q-5 0 -13 -0.5t-16.5 -0.5t-16 1t-10.5 4q-3 2 -3.5 9.5t-0.5 16.5t0.5 17.5t0.5 12.5q0 5 -0.5 13t-0.5 16.5t0.5 16t3.5 10.5v-1
q6 0 6 4q3 1 7.5 1h9.5q-2 -3 -0.5 -6.5t5.5 -2.5q0 2 3 2q0 3 -1.5 4t-3.5 3q3 -1 6.5 -1h6.5q7 0 13.5 0.5t11.5 -0.5q-2 -4 -2 -7q2 -2 3.5 -4.5t6.5 -2.5q5 2 6.5 5.5t6.5 5.5q2 2 4 2t4 1q8 1 14.5 -1t8.5 -8q2 -5 1 -12.5t-1 -14.5v-28q0 -4 0.5 -12t0.5 -16t-1 -14.5
t-4 -8.5zM58 778q4 -3 13 -3t11 4q-1 5 -2 8t-3 6q-8 -1 -14 -3.5t-5 -11.5zM43 716q2 -4 9.5 -4t8.5 5q-3 4 -9.5 4t-8.5 -5zM39 814q14 4 38 3.5t46 -0.5h20.5t12.5 -9q2 -8 1 -26t-1 -29q0 -4 0.5 -11.5t0.5 -15.5t-0.5 -14.5t-3.5 -9.5t-10.5 -4t-16 -1t-17 0.5
t-14.5 0.5q-5 0 -12 -0.5t-14 -0.5q4 -2 0 -7q1 -5 4.5 -5.5t2.5 -4.5l-3 -3q-5 2 -9 8.5t0 11.5q-8 0 -15 1t-10 4q-1 2 -2 9t-1.5 17.5t-0.5 22.5v24q4 -1 7.5 0.5t3.5 5.5q0 7 -11 7q2 21 4 26zM69 697q-1 1 -4 1q-1 0 -1 -1h5zM87 729q3 -1 3.5 2t-2.5 4q0 -2 -1 -3
t0 -3zM81 719q2 -1 2 -2t2 -1q0 2 1 2t2 2q-2 0 -2.5 1.5t-1.5 1.5q-1 -2 -2 -2t-1 -2zM4 698q-4 -1 -4.5 1t1.5 4q3 -1 3 -5zM42 688q1 0 1 2q6 0 4 -6q-6 -2 -5 4zM293 687q5 0 14 3q2 -2 3 -4t0 -6q-5 1 -8 1.5t-8 -1.5l-2.5 2.5t1.5 4.5zM323 675q-5 1 -5 4q1 2 5.5 2
t-0.5 -6zM52 677v3h2v-3h-2zM107 666q-1 3 1 3.5t2 2.5q8 -4 3 -9q-3 -1 -3.5 1t-2.5 2zM75 663q-2 -2 -4.5 -0.5t-1.5 5.5q6 0 6 -5zM31 656q1 2 2 2.5t1 2.5q3 -1 3.5 -3.5t-1.5 -4.5q-2 1 -2.5 2t-2.5 1zM325 653q-5 -1 -3.5 3t3.5 0v-3zM54 648q-5 -5 -8.5 0.5t-1.5 7.5
q10 0 10 -8zM158 618q-4 3 -0.5 6.5t6.5 -0.5q0 -6 -6 -6zM225 127q6 0 7 5t1.5 10.5t1.5 10.5t6 5q-4 4 -4.5 5.5l-2.5 7.5q-2 12 -1 27t1 30q0 48 -1 99t1 100v14q0 2 2 2.5t1 2.5q0 1 -1.5 1.5t-1.5 1.5q-1 35 -1.5 70.5t1.5 71.5v11.5t6 10.5q-2 5 -5 11.5t1 14.5
q9 8 25.5 7.5t33.5 -0.5t33.5 0.5t26.5 -6.5q4 -17 3.5 -33.5t-0.5 -33.5v-209q0 -36 -1.5 -78t-0.5 -74q1 -26 3 -59t-1 -62q-2 -16 -10 -31t-20.5 -27.5t-29 -21t-35.5 -10.5q-17 -2 -38.5 -1t-44.5 1q-42 0 -74.5 0.5t-55.5 17.5q-17 11 -31 32t-16 49q-3 34 -1.5 68.5
t1.5 69.5q0 91 -0.5 186.5t0.5 190.5l-4 2q2 2 2 4t2 4q0 10 2 14.5t10 6.5q5 2 16 0q-1 1 -1.5 1t-1.5 1q3 3 3 4q2 -1 2.5 -2t2.5 -1l-3 -3q4 -1 11 -1h26q11 0 29 1.5t25 -4.5q2 -2 4 -13q4 4 2 10q4 -1 5 -3.5t4 -3.5q5 0 6 4t4 6q5 -5 4 -12.5t-7 -9.5q2 -6 4 -7
q-2 -6 -9 -6.5t-12 -3.5q0 -3 -0.5 -6.5t-0.5 -6.5q3 -1 4 -3.5t-2 -4.5h-2v-1v-391q0 -14 -1 -33.5t5 -26.5q6 -6 21 -5t25 1q14 0 25 -0.5t22 1.5zM135 575q-1 9 5 11.5t14 3.5q2 -3 3 -6t2 -8q-2 -4 -11 -4t-13 3z" />
    <glyph glyph-name="ccedilla" unicode="&#xe7;" 
d="M231 512q-3 10 -18.5 9.5t-32.5 -0.5q-14 0 -25.5 0.5t-19.5 -1.5q-5 -2 -7 -11t-2.5 -21.5t0 -26t0.5 -23.5v-75q0 -43 2 -82t-2 -69q-1 -5 -1 -9.5t-5 -7.5q4 -2 6 -7.5t-1 -10.5q-8 -4 -10 0.5t-8 6.5q-5 -4 -11 -10.5t-6 -12.5q5 -4 7 2t7 6q5 -2 11 -2t10 -2
q2 -9 1 -17t2 -13q3 -8 15.5 -9.5t27.5 -1t29.5 2.5t22.5 0q9 6 10 16t-0.5 21t-2 21.5t6.5 17.5q3 4 10.5 5t16 1t17 -1t14.5 -1t15 0.5t17 0.5t14.5 -1t9.5 -4q8 -8 6.5 -21.5t-1.5 -26.5q0 -20 0.5 -36.5t-3.5 -33.5q3 -15 -1.5 -29.5t-14 -26t-23 -19t-28.5 -9.5
q-14 -2 -28.5 -1t-29.5 1h-8q4 -2 6 -4q3 -3 3.5 -12t0.5 -19t-1 -19t-3 -12q-2 -5 -7.5 -12t-10.5 -10q-8 -5 -20 -7.5t-24 -2.5t-21 2t-12 5q-4 6 -4 16.5t1 22l2 23.5t-1 21q2 2 3 4t4 3q-18 0 -36 0.5t-33 1.5q-5 -1 -5.5 2.5t-3.5 3.5q-5 1 -10 1.5t-9 2.5
q-11 5 -19.5 18.5t-13.5 29.5q-4 12 -5 29.5t-1 36t0.5 38t0.5 36.5v347q0 9 -0.5 18.5t2.5 17.5q1 3 1.5 6t8.5 3q0 5 -2.5 8t2.5 5q-1 7 5.5 6.5t7.5 1.5q3 3 0 5.5t1 7.5q12 11 27.5 15t35 5.5t42 0.5t47.5 -1q27 0 54 1t50 -1q32 -3 51 -24t22 -44q2 -15 2 -26.5
t-0.5 -22t-1 -22.5t-0.5 -27q0 -9 0.5 -19.5t-3.5 -15.5q-6 -8 -23 -7t-34 1q-8 0 -17.5 -0.5t-18.5 0t-15.5 2t-9.5 4.5q-4 6 -4 14.5t1 17.5t1.5 18t-2.5 17zM64 303q1 -3 3 -5t4 -5q5 2 8 4.5t8 4.5q0 4 -3 4.5t-3 5.5q2 4 6.5 5t5.5 6q-10 5 -20.5 -1.5t-8.5 -18.5z
M7 172q5 1 9.5 1t8.5 2q0 12 -9 13q-4 -2 -7.5 -6.5t-1.5 -9.5zM67 581q2 0 2.5 -1t2.5 -1q1 2 1.5 2t1.5 1q-1 4 -1 8.5t-5 6.5q-6 -8 -2 -16zM61 172q-2 -3 0 -4t3 -3q3 2 7.5 2t5.5 5q-3 6 -6.5 2t-9.5 -2zM93 233q-2 -3 -1.5 -4t2.5 -3q4 1 9 4t0 6q-1 -2 -5 -1.5
t-5 -1.5zM14 575q-4 -9 9 -9q2 3 -1.5 7t-7.5 2zM10 162q0 -6 5.5 -5.5t6.5 5.5q-2 3 -5.5 2.5t-6.5 -2.5zM23 597q7 -1 7 5q-2 5 -5 5q-2 -2 -3 -5t1 -5zM49 583q1 2 2.5 3t0.5 5q-2 0 -2 1t-2 0q-2 -2 -2 -5.5t3 -3.5zM174 12h5q0 5 -5 3v-3zM39 541h3v3h-3v-3zM171 3h4
l-1 1q-1 0 -1.5 -0.5t-1.5 -0.5z" />
    <glyph glyph-name="odieresis" unicode="&#xf6;" 
d="M43 34q5 6 0 5.5t-5 -2.5t5 -3zM49 77q-1 6 -3 6t-3 -4.5t6 -1.5zM7 101q2 -2 2 -3q3 -1 3.5 0.5t2.5 2.5q1 5 -4 5t-4 -5zM28 134q-2 4 -9 6t-8 -6q3 0 1 -3q7 0 15 -4q7 2 12 4.5t13 3.5q1 6 -3 8q-4 -5 -10.5 -5t-10.5 -4zM142 646q0 -5 -1.5 -7.5t3.5 -4.5q4 0 4.5 2
t0 4t-0.5 3.5t3 2.5h9q2 -5 -2 -4.5t-3 -4.5q2 -2 4.5 0t4.5 -1q-1 -4 -2.5 -6t-3.5 -6q5 -4 9 0q5 -1 5 -5.5t5 -4.5q5 6 2 12.5t-7 10.5q1 8 9.5 8.5t17.5 0.5q15 0 30.5 0.5t26.5 -4.5q7 3 16.5 2t12.5 -8q3 -1 4 0.5t4 0.5q24 -14 41.5 -33t21.5 -51q3 -29 1.5 -58
t-1.5 -57v-228q0 -29 1 -57.5t-1 -55.5q-3 -38 -30.5 -65.5t-66.5 -30.5q-18 -2 -39 -1t-41 1t-40.5 -1t-38.5 1q-22 2 -39.5 11t-28.5 19q-11 12 -20 29.5t-11 37.5q-2 27 -1 56t1 58v223q0 22 -0.5 45t0 44t4.5 40t13 33q6 1 9.5 4.5t8.5 6.5q5 0 2.5 -2.5t0.5 -4.5
q3 2 3 6t5 6q-2 4 -5 2t-6 0q2 5 6.5 6.5t6.5 5.5q5 -2 8 -5t7 2q0 6 -4 4t-3 3q6 6 16 8t19 -3q6 -1 8.5 5t8.5 2q1 -7 -2 -9.5t-5 -6.5q2 -5 8 -7q0 -5 -4 -9t2 -9q6 2 7.5 8t6.5 8q0 5 -4 5t-5 4q-2 13 6 17t23 2zM182 636q0 2 1 3t0 3q-4 1 -4.5 -2.5t3.5 -3.5zM243 633
q5 6 0 5.5t-5 -2.5q-1 -1 5 -3zM266 634h3v3h-3v-3zM83 621h10q0 8 -9 10q-2 -2 -1.5 -4.5t0.5 -5.5zM73 624q0 -2 1.5 -1t2 2.5t0.5 2t-3 -1.5q0 -1 -1 -0.5t0 -1.5zM186 621h3v3h-3v-3zM208 614q6 0 6 4q-2 0 -2.5 1t-2.5 1q0 -2 -1 -3t0 -3zM264 618q0 -4 6 -4q2 6 -4 6
q0 -2 -2 -2zM301 608q1 5 -5 7v-5.5t5 -1.5zM259 602q3 0 5 2q1 2 -4 6q-2 -3 -2.5 -3.5t1.5 -4.5zM211 602q2 -2 5.5 -2t5.5 2q1 3 -1 3.5t-2 2.5q-4 1 -5 -1.5t-3 -4.5zM304 594q0 5 -1 8.5t-5 4.5q-2 -5 -1.5 -10t7.5 -3zM126 499q-1 -17 -0.5 -38.5t0.5 -35.5v-199
q0 -6 -0.5 -20.5t-0.5 -30t1.5 -29t4.5 -16.5t17.5 -4.5t31 -1.5t31 1.5t17.5 4.5q4 4 5 15.5t1 26t-1 29t-1 24.5v197q0 10 1 25t1 29t-1 25.5t-5 15.5q-3 3 -16.5 4.5t-29 1.5t-29 -1t-16.5 -2q-8 -3 -9 -7t-2 -14zM257 813q0 -6 6 -6q2 4 2 6q-4 4 -8 0zM317 806
q2 1 1.5 3t-3.5 2q-2 -5 2 -5zM291 793l4 -6t7 -3l3 3q0 6 -6 10t-8 -4zM221 781q-4 2 -7 1q-2 -6 2.5 -6t4.5 5zM284 768q-5 -2 -10 -3t-5 -6q4 -3 7 -6.5t9 -5.5q5 2 5.5 6t4.5 6q14 0 16 15q-8 5 -15 0.5t-12 -6.5zM231 746q6 -8 12 0q1 8 -6 8t-6 -8zM323 702
q-5 -5 -22 -4.5t-29 0.5q3 2 3 6q-2 0 -2.5 1t-2.5 2q-2 -1 -3.5 -3.5t-0.5 -5.5q-5 0 -13 -0.5t-16.5 -0.5t-15.5 1t-10 4q-3 2 -4 9.5t-1 16.5t0.5 17.5t0.5 12.5q0 5 -0.5 13t-0.5 16.5t0.5 16t3.5 10.5l1 -1q5 0 5 4q4 1 8 1h9q-2 -3 0 -6.5t5 -2.5q2 2 3 2q0 4 -5 7
q5 -1 13 -1q7 0 13.5 0.5t12.5 -0.5q-1 -2 -2 -3.5t-1 -3.5q2 -2 3.5 -4.5t6.5 -2.5q5 2 7 5.5t6 5.5q2 2 4 2t4 1q8 1 14.5 -1t8.5 -8q2 -5 1 -12.5t-1 -14.5v-28q0 -4 0.5 -12t0.5 -16t-1 -14.5t-3 -8.5zM276 709q2 -2 6 -0.5t5 5.5v2q-4 2 -7.5 0t-3.5 -7zM50 784
q2 2 2.5 5t1.5 6q-4 2 -6 2q-1 -4 -2 -7.5t4 -5.5zM60 788q2 -2 3 -2.5t4 1.5q2 6 -3 6t-4 -5zM102 742q5 5 -1 5q-2 -1 -1.5 -3t2.5 -2zM54 736q4 -3 7 0q0 2 -4 6q0 -2 -2 -2.5t-1 -3.5zM73 718q0 2 1 2.5t2 2.5q-2 0 -3 1t-3 0q0 -5 3 -6zM44 716q2 -4 9 -4t8 5
q-3 4 -9 4t-8 -5zM39 814q14 4 38 3.5t46 -0.5h21.5t11.5 -9q2 -4 2 -11t-0.5 -15l-1 -16t-0.5 -13q0 -4 0.5 -11.5t0.5 -15.5t-0.5 -14.5t-3.5 -9.5t-10 -4t-15.5 -1t-17 0.5t-14.5 0.5t-14.5 -0.5t-17 -0.5t-15.5 1t-10 4q-5 5 -4.5 19t1.5 26q10 6 31 5q3 -2 4 -4.5
t3 -4.5q3 0 6 2.5t4 -2.5t-3.5 -5t-4.5 -5q2 -4 8 -5t9 1q-2 12 -3.5 23.5t-9.5 18.5q-8 -1 -12.5 2t-9.5 5q-6 -8 -11 -10q-5 0 -11 -2v22q0 7 -0.5 14t3.5 12z" />
    <glyph glyph-name="udieresis" unicode="&#xfc;" 
d="M-5 729v3h3v-3h-3zM322 702q-4 -5 -21 -5q0 -5 -3 -5.5t-7 -1.5q-2 2 0 7q-5 0 -10 0.5t-9 0.5q2 2 2 6q-2 0 -2 1t-2 2q-7 -2 -4 -9q-5 0 -13 -0.5t-16.5 -0.5t-16 1t-10.5 4q-3 2 -3.5 9.5t-0.5 16.5t0.5 17.5t0.5 12.5q0 5 -0.5 13t-0.5 16.5t0.5 16t3.5 10.5v-1
q6 0 6 4q3 1 7.5 1h9.5q-2 -3 -0.5 -6.5t5.5 -2.5q0 2 3 2q0 3 -1.5 4t-3.5 3q3 -1 6.5 -1h6.5q7 0 13.5 0.5t11.5 -0.5q-2 -4 -2 -7q2 -2 3.5 -4.5t6.5 -2.5q5 2 6.5 5.5t6.5 5.5q2 2 4 2t4 1q8 1 14.5 -1t8.5 -8q2 -5 1 -12.5t-1 -14.5v-28q0 -4 0.5 -12t0.5 -16t-1 -14.5
t-4 -8.5zM58 778q4 -3 13 -3t11 4q-1 5 -2 8t-3 6q-8 -1 -14 -3.5t-5 -11.5zM43 716q2 -4 9.5 -4t8.5 5q-3 4 -9.5 4t-8.5 -5zM39 814q14 4 38 3.5t46 -0.5h20.5t12.5 -9q2 -8 1 -26t-1 -29q0 -4 0.5 -11.5t0.5 -15.5t-0.5 -14.5t-3.5 -9.5t-10.5 -4t-16 -1t-17 0.5
t-14.5 0.5q-5 0 -12 -0.5t-14 -0.5q4 -2 0 -7q1 -5 4.5 -5.5t2.5 -4.5l-3 -3q-5 2 -9 8.5t0 11.5q-8 0 -15 1t-10 4q-1 2 -2 9t-1.5 17.5t-0.5 22.5v24q4 -1 7.5 0.5t3.5 5.5q0 7 -11 7q2 21 4 26zM69 697q-1 1 -4 1q-1 0 -1 -1h5zM87 729q3 -1 3.5 2t-2.5 4q0 -2 -1 -3
t0 -3zM81 719q2 -1 2 -2t2 -1q0 2 1 2t2 2q-2 0 -2.5 1.5t-1.5 1.5q-1 -2 -2 -2t-1 -2zM4 698q-4 -1 -4.5 1t1.5 4q3 -1 3 -5zM42 688q1 0 1 2q6 0 4 -6q-6 -2 -5 4zM293 687q5 0 14 3q2 -2 3 -4t0 -6q-5 1 -8 1.5t-8 -1.5l-2.5 2.5t1.5 4.5zM323 675q-5 1 -5 4q1 2 5.5 2
t-0.5 -6zM52 677v3h2v-3h-2zM107 666q-1 3 1 3.5t2 2.5q8 -4 3 -9q-3 -1 -3.5 1t-2.5 2zM75 663q-2 -2 -4.5 -0.5t-1.5 5.5q6 0 6 -5zM31 656q1 2 2 2.5t1 2.5q3 -1 3.5 -3.5t-1.5 -4.5q-2 1 -2.5 2t-2.5 1zM325 653q-5 -1 -3.5 3t3.5 0v-3zM54 648q-5 -5 -8.5 0.5t-1.5 7.5
q10 0 10 -8zM158 618q-4 3 -0.5 6.5t6.5 -0.5q0 -6 -6 -6zM225 127q6 0 7 5t1.5 10.5t1.5 10.5t6 5q-4 4 -4.5 5.5l-2.5 7.5q-2 12 -1 27t1 30q0 48 -1 99t1 100v14q0 2 2 2.5t1 2.5q0 1 -1.5 1.5t-1.5 1.5q-1 35 -1.5 70.5t1.5 71.5v11.5t6 10.5q-2 5 -5 11.5t1 14.5
q9 8 25.5 7.5t33.5 -0.5t33.5 0.5t26.5 -6.5q4 -17 3.5 -33.5t-0.5 -33.5v-209q0 -36 -1.5 -78t-0.5 -74q1 -26 3 -59t-1 -62q-2 -16 -10 -31t-20.5 -27.5t-29 -21t-35.5 -10.5q-17 -2 -38.5 -1t-44.5 1q-42 0 -74.5 0.5t-55.5 17.5q-17 11 -31 32t-16 49q-3 34 -1.5 68.5
t1.5 69.5q0 91 -0.5 186.5t0.5 190.5l-4 2q2 2 2 4t2 4q0 10 2 14.5t10 6.5q5 2 16 0q-1 1 -1.5 1t-1.5 1q3 3 3 4q2 -1 2.5 -2t2.5 -1l-3 -3q4 -1 11 -1h26q11 0 29 1.5t25 -4.5q2 -2 4 -13q4 4 2 10q4 -1 5 -3.5t4 -3.5q5 0 6 4t4 6q5 -5 4 -12.5t-7 -9.5q2 -6 4 -7
q-2 -6 -9 -6.5t-12 -3.5q0 -3 -0.5 -6.5t-0.5 -6.5q3 -1 4 -3.5t-2 -4.5h-2v-1v-391q0 -14 -1 -33.5t5 -26.5q6 -6 21 -5t25 1q14 0 25 -0.5t22 1.5zM135 575q-1 9 5 11.5t14 3.5q2 -3 3 -6t2 -8q-2 -4 -11 -4t-13 3z" />
    <glyph glyph-name="Gbreve" unicode="&#x11e;" 
d="M108 727q3 4 -0.5 3.5t-3.5 0.5q0 6 3.5 8.5t9 3t12 0t12.5 0.5q3 -2 5.5 -4.5t6.5 -4.5h16q5 -2 7.5 -6.5t12.5 -2.5q5 0 5.5 4t5.5 5q5 0 8 -3q5 3 8 3t7 2q3 2 5 5.5l4 7t4.5 6t6.5 1.5q3 -5 0.5 -6t-3.5 -6q7 -1 11.5 -3t6.5 -8q4 2 8.5 3t7.5 4q3 0 3.5 -3t3.5 -3
h20q10 -21 0.5 -41t-29.5 -23q-17 -2 -39.5 -1t-46.5 1q-23 0 -45 -1t-39 1q-21 3 -29.5 19t-3.5 36q5 2 12 0.5t15 -0.5q2 0 4 3.5t4 -0.5q1 -1 4 -1zM301 718q-2 0 -2.5 2t-3.5 1q-4 -5 0.5 -6.5t5.5 3.5zM136 520q-10 -3 -9.5 -19t0.5 -34v-48q1 -5 -3.5 -5.5t-6.5 -2.5
q0 -4 5 -3t5 -4q1 -66 0 -134.5t1 -134.5q3 -8 16 -8h31q11 0 22.5 -1t19.5 1t13 6t12 1q2 6 -4 5t-7 4q-1 27 0 55.5t-1 54.5q-2 6 -7.5 7.5t-12.5 1.5h-14t-11 3t-5.5 9.5t-1.5 15t0.5 17.5t0.5 16q0 15 -1 34t5 25q3 3 13.5 4.5t23 1.5t25.5 -0.5t21 -0.5h44h26.5
t17.5 -6q3 -4 3.5 -14t0.5 -21.5t-1 -22.5t-1 -18v-154q0 -20 1 -39t-1 -38q-2 -21 -16.5 -41.5t-38.5 -27.5q-23 -7 -57 -5t-68 2q-29 0 -56 -1t-47 1q-26 2 -47 20.5t-24 49.5q-3 29 -1.5 62.5t1.5 67.5v66q0 16 -1 32.5t1 32.5q0 7 1 10q1 1 3.5 2.5t2.5 2.5q0 2 -2 2.5
t-4 2.5q-4 8 -2.5 26.5t1.5 31.5v147q2 2 4.5 3t4.5 4q3 1 5.5 -0.5t2.5 3.5q-1 8 -6.5 3.5t-10.5 -0.5q3 32 22.5 52.5t48.5 23.5q20 2 47.5 1t57.5 -1q23 0 46 1t43.5 -0.5t37.5 -6.5t28 -17q8 -9 14.5 -21.5t8.5 -26.5q2 -18 1 -38.5t-1 -40.5q0 -6 1 -13t1 -14.5t-1 -14
t-5 -10.5q-7 -7 -27 -6t-33 1q-7 0 -16 -0.5t-17.5 0t-15 2t-9.5 4.5q-3 5 -2.5 16l1 22.5t-0.5 22t-8 13.5q-8 5 -21 3.5t-24 -1.5h-20.5t-22.5 -2zM310 624q0 1 1 1q0 4 -3 3q1 -2 0.5 -3t1.5 -1zM298 595q6 -2 9 2t-3 6q-2 -2 -5 -2.5t-1 -5.5zM290 589q4 -1 4 2t-3 4
q0 -2 -1 -3t0 -3zM307 561q4 -2 8 -3t9 -3q5 4 3 15q8 2 8 10h-5q0 -10 -9 -11.5t-14 -7.5zM297 573q5 -4 9 0v4q-3 2 -6.5 1t-2.5 -5zM63 561q2 -3 8 -2.5t11 -0.5q1 5 5 7.5t6 5.5q-8 4 -14.5 2t-14.5 3q5 -8 -1 -15zM114 570q2 -4 7.5 -2t5.5 8q-10 0 -13 -6zM324 535
q6 0 6 1q-2 1 -1.5 2t-1.5 1q1 -2 -0.5 -2t-2.5 -2zM335 526h2v3h-2v-3zM269 523q-1 -6 2 -3.5t-2 3.5zM279 502q7 -2 6 4q-2 0 -2 1t-2 0q-1 -2 -1.5 -2.5t-0.5 -2.5zM295 503v-3q2 0 2 -2h3q0 2 1 2v3q-2 0 -1 1h-3q0 -2 -2 -1zM320 488q3 -2 3 2t-3 2v-4zM253 478
q0 -9 6 -9q6 5 1 10q-3 1 -7 -1zM297 466q0 4 -3.5 3.5t-6.5 -0.5q-4 -4 2.5 -6t7.5 3zM329 460q-2 3 -8.5 4.5t-10.5 -1.5q3 -2 9.5 -5.5t9.5 2.5zM9 401q-1 -4 3 -4.5t6 1.5q1 5 -3 5t-6 -2zM220 361q-1 -5 3 -4.5t3 5.5q-5 0 -6 -1zM301 313q3 -4 5 -2t4 5q-2 3 -5.5 2.5
t-3.5 -5.5zM154 57q6 4 -1 7q-2 -2 -1.5 -4.5t2.5 -2.5z" />
    <glyph glyph-name="Idotaccent" unicode="&#x130;" horiz-adv-x="195" 
d="M122 708q-5 -4 -22 -4t-29 1q2 2 3 6q-2 0 -2.5 1t-2.5 2q-5 -4 -4 -9q-5 0 -13 -0.5l-16.5 -1t-16 0.5t-10.5 4q-2 3 -3 10.5t-1 16.5t0.5 17.5t0.5 12.5t-0.5 12t-0.5 16.5t0.5 16t3.5 10.5q6 0 6 3q6 3 17 1q-2 -2 -0.5 -5.5t5.5 -3.5q0 3 3 3q0 4 -5 6h13h26
q-3 -3 -3 -7q2 -2 3.5 -4.5t6.5 -2.5q5 2 7 5.5t6 5.5q2 2 4 1.5t4 1.5q19 2 23 -9q2 -5 1 -12.5t-1 -14.5v-28q0 -4 0.5 -12t0.5 -16t-1 -14.5t-3 -9.5zM124 71q0 -4 -1.5 -4t-3 1t-3 1.5t-2.5 -2.5q2 -8 5 -9t5 -7q3 -11 1.5 -26t-5.5 -19q-3 -3 -10.5 -4.5t-16 -1.5
t-17 0.5t-14.5 0.5q-14 0 -33 -0.5t-24 5.5q-3 3 -4 11.5t-1 20t0.5 24t0.5 21.5v527v23.5t11 12.5q10 3 25.5 1.5t31.5 -1.5q13 0 29.5 0.5t21.5 -4.5q3 -3 4 -11t1 -18.5t-0.5 -20.5t-0.5 -18v-503z" />
    <glyph glyph-name="Scedilla" unicode="&#x15e;" 
d="M231 513q-3 9 -18.5 9h-32.5h-25.5t-19.5 -2q-9 -2 -9 -16.5v-31.5q1 -14 -0.5 -25.5t0.5 -18.5q3 -11 21 -19.5l30 -14.5l57 -29.5l57 -29.5q13 -7 28.5 -14.5t23.5 -17.5q9 -12 11.5 -28.5t2.5 -35t-1.5 -40t0.5 -44.5q-1 -3 -6 -2.5t-7 -1.5q0 -5 6 -3.5t7 -2.5
q2 -48 -2.5 -81t-33.5 -51q-17 -11 -42.5 -12.5t-55.5 -0.5q2 -1 4 -3q3 -3 3.5 -12t0.5 -19t-1 -19t-3 -12q-2 -5 -7.5 -12t-10.5 -10q-8 -5 -20 -7.5t-24 -2.5t-21 2t-12 5q-4 6 -4 16.5t1 22l2 23.5t-1 21q2 2 3 4t4 3q-23 0 -44 1t-38 5q-4 2 -2 8q-3 5 -6.5 0.5
t-6.5 -0.5q-15 7 -23 20t-11 31t-3 40v46q0 17 -2 31t6 22q6 6 25 5t33 -1q13 0 32 1.5t26 -5.5q5 -5 5 -16t-1 -23t0 -22.5t8 -14.5q8 -5 21 -3.5t24 1.5h22.5t22.5 2q9 2 9 16.5v31.5q0 14 1 25.5t-1 17.5q-3 11 -19.5 18.5t-28.5 13.5l-52.5 27.5l-52.5 27.5
q-20 11 -40.5 19.5t-30.5 28.5q-6 12 -7.5 26t-0.5 29.5t2 33.5t-1 38l11.5 -5.5t12.5 2.5q1 6 -2 8t-7 2.5l-8 1t-7 2.5q1 23 -0.5 43t0.5 37q2 31 22 51t50 23q28 3 58 1.5t54 -2.5q2 0 4 -1.5t3 -1.5q4 1 6 2.5t6 1.5q8 1 17.5 0.5t20.5 -0.5q23 2 40 0q30 -2 50 -22
t23 -46q2 -15 2 -26.5t-0.5 -22t-1 -22.5t-0.5 -28q0 -8 0.5 -19t-4.5 -16q-8 -8 -25.5 -6t-34.5 2q-14 0 -32.5 -1t-24.5 7q-5 7 -3.5 19.5t1.5 23.5v7.5v4t-0.5 4t-1.5 8.5zM71 484q3 -3 7.5 -3.5t7.5 -2.5q3 3 1 7q-5 1 -10 4t-6 -5zM161 110q-2 -3 1 -7t8 -3q4 5 0 10
t-9 0zM139 54q2 -1 3 0t3 1q1 6 -7 4q0 -4 1 -5zM129 113h6q2 7 -4 6q-2 -4 -2 -6zM150 42q-1 -4 2 -4.5t5 1.5q1 4 -2 4.5t-5 -1.5zM304 10q0 2 1 3t0 3h-6q0 -6 5 -6zM116 14v-2l2 -2h3q0 2 1 2v2l-1 2h-3q0 -2 -2 -2zM128 78q0 4 -3 5q-2 -2 -1.5 -4t4.5 -1z" />
    <glyph glyph-name="dotlessi" unicode="&#x131;" horiz-adv-x="195" 
d="M124 71q0 -4 -1.5 -4t-3 1t-3 1.5t-2.5 -2.5q2 -8 5 -9t5 -7q3 -11 1.5 -26t-5.5 -19q-3 -3 -10.5 -4.5t-16 -1.5t-17 0.5t-14.5 0.5q-14 0 -33 -0.5t-24 5.5q-3 3 -4 11.5t-1 20t0.5 24t0.5 21.5v527v23.5t11 12.5q10 3 25.5 1.5t31.5 -1.5q13 0 29.5 0.5t21.5 -4.5
q3 -3 4 -11t1 -18.5t-0.5 -20.5t-0.5 -18v-503zM83 578h3v3h-3v-3zM85 558q4 13 -2 18q-3 -3 -3 -9.5t5 -8.5z" />
    <glyph glyph-name="fraction" unicode="&#x2044;" 
d="M108 727q3 4 -0.5 3.5t-3.5 0.5q0 6 3.5 8.5t9 3t12 0t12.5 0.5q3 -2 5.5 -4.5t6.5 -4.5h16q5 -2 7.5 -6.5t12.5 -2.5q5 0 5.5 4t5.5 5q5 0 8 -3q5 3 8 3t7 2q3 2 5 5.5l4 7t4.5 6t6.5 1.5q3 -5 0.5 -6t-3.5 -6q7 -1 11.5 -3t6.5 -8q4 2 8.5 3t7.5 4q3 0 3.5 -3t3.5 -3
h20q10 -21 0.5 -41t-29.5 -23q-17 -2 -39.5 -1t-46.5 1q-23 0 -45 -1t-39 1q-21 3 -29.5 19t-3.5 36q5 2 12 0.5t15 -0.5q2 0 4 3.5t4 -0.5q1 -1 4 -1zM301 718q-2 0 -2.5 2t-3.5 1q-4 -5 0.5 -6.5t5.5 3.5zM136 520q-10 -3 -9.5 -19t0.5 -34v-48q1 -5 -3.5 -5.5t-6.5 -2.5
q0 -4 5 -3t5 -4q1 -66 0 -134.5t1 -134.5q3 -8 16 -8h31q11 0 22.5 -1t19.5 1t13 6t12 1q2 6 -4 5t-7 4q-1 27 0 55.5t-1 54.5q-2 6 -7.5 7.5t-12.5 1.5h-14t-11 3t-5.5 9.5t-1.5 15t0.5 17.5t0.5 16q0 15 -1 34t5 25q3 3 13.5 4.5t23 1.5t25.5 -0.5t21 -0.5h44h26.5
t17.5 -6q3 -4 3.5 -14t0.5 -21.5t-1 -22.5t-1 -18v-154q0 -20 1 -39t-1 -38q-2 -21 -16.5 -41.5t-38.5 -27.5q-23 -7 -57 -5t-68 2q-29 0 -56 -1t-47 1q-26 2 -47 20.5t-24 49.5q-3 29 -1.5 62.5t1.5 67.5v66q0 16 -1 32.5t1 32.5q0 7 1 10q1 1 3.5 2.5t2.5 2.5q0 2 -2 2.5
t-4 2.5q-4 8 -2.5 26.5t1.5 31.5v147q2 2 4.5 3t4.5 4q3 1 5.5 -0.5t2.5 3.5q-1 8 -6.5 3.5t-10.5 -0.5q3 32 22.5 52.5t48.5 23.5q20 2 47.5 1t57.5 -1q23 0 46 1t43.5 -0.5t37.5 -6.5t28 -17q8 -9 14.5 -21.5t8.5 -26.5q2 -18 1 -38.5t-1 -40.5q0 -6 1 -13t1 -14.5t-1 -14
t-5 -10.5q-7 -7 -27 -6t-33 1q-7 0 -16 -0.5t-17.5 0t-15 2t-9.5 4.5q-3 5 -2.5 16l1 22.5t-0.5 22t-8 13.5q-8 5 -21 3.5t-24 -1.5h-20.5t-22.5 -2zM310 624q0 1 1 1q0 4 -3 3q1 -2 0.5 -3t1.5 -1zM298 595q6 -2 9 2t-3 6q-2 -2 -5 -2.5t-1 -5.5zM290 589q4 -1 4 2t-3 4
q0 -2 -1 -3t0 -3zM307 561q4 -2 8 -3t9 -3q5 4 3 15q8 2 8 10h-5q0 -10 -9 -11.5t-14 -7.5zM297 573q5 -4 9 0v4q-3 2 -6.5 1t-2.5 -5zM63 561q2 -3 8 -2.5t11 -0.5q1 5 5 7.5t6 5.5q-8 4 -14.5 2t-14.5 3q5 -8 -1 -15zM114 570q2 -4 7.5 -2t5.5 8q-10 0 -13 -6zM324 535
q6 0 6 1q-2 1 -1.5 2t-1.5 1q1 -2 -0.5 -2t-2.5 -2zM335 526h2v3h-2v-3zM269 523q-1 -6 2 -3.5t-2 3.5zM279 502q7 -2 6 4q-2 0 -2 1t-2 0q-1 -2 -1.5 -2.5t-0.5 -2.5zM295 503v-3q2 0 2 -2h3q0 2 1 2v3q-2 0 -1 1h-3q0 -2 -2 -1zM320 488q3 -2 3 2t-3 2v-4zM253 478
q0 -9 6 -9q6 5 1 10q-3 1 -7 -1zM297 466q0 4 -3.5 3.5t-6.5 -0.5q-4 -4 2.5 -6t7.5 3zM329 460q-2 3 -8.5 4.5t-10.5 -1.5q3 -2 9.5 -5.5t9.5 2.5zM9 401q-1 -4 3 -4.5t6 1.5q1 5 -3 5t-6 -2zM220 361q-1 -5 3 -4.5t3 5.5q-5 0 -6 -1zM301 313q3 -4 5 -2t4 5q-2 3 -5.5 2.5
t-3.5 -5.5zM154 57q6 4 -1 7q-2 -2 -1.5 -4.5t2.5 -2.5z" />
    <glyph glyph-name="gbreve" unicode="&#x11f;" 
d="M108 727q3 4 -0.5 3.5t-3.5 0.5q0 6 3.5 8.5t9 3t12 0t12.5 0.5q3 -2 5.5 -4.5t6.5 -4.5h16q5 -2 7.5 -6.5t12.5 -2.5q5 0 5.5 4t5.5 5q5 0 8 -3q5 3 8 3t7 2q3 2 5 5.5l4 7t4.5 6t6.5 1.5q3 -5 0.5 -6t-3.5 -6q7 -1 11.5 -3t6.5 -8q4 2 8.5 3t7.5 4q3 0 3.5 -3t3.5 -3
h20q10 -21 0.5 -41t-29.5 -23q-17 -2 -39.5 -1t-46.5 1q-23 0 -45 -1t-39 1q-21 3 -29.5 19t-3.5 36q5 2 12 0.5t15 -0.5q2 0 4 3.5t4 -0.5q1 -1 4 -1zM301 718q-2 0 -2.5 2t-3.5 1q-4 -5 0.5 -6.5t5.5 3.5zM136 520q-10 -3 -9.5 -19t0.5 -34v-48q1 -5 -3.5 -5.5t-6.5 -2.5
q0 -4 5 -3t5 -4q1 -66 0 -134.5t1 -134.5q3 -8 16 -8h31q11 0 22.5 -1t19.5 1t13 6t12 1q2 6 -4 5t-7 4q-1 27 0 55.5t-1 54.5q-2 6 -7.5 7.5t-12.5 1.5h-14t-11 3t-5.5 9.5t-1.5 15t0.5 17.5t0.5 16q0 15 -1 34t5 25q3 3 13.5 4.5t23 1.5t25.5 -0.5t21 -0.5h44h26.5
t17.5 -6q3 -4 3.5 -14t0.5 -21.5t-1 -22.5t-1 -18v-154q0 -20 1 -39t-1 -38q-2 -21 -16.5 -41.5t-38.5 -27.5q-23 -7 -57 -5t-68 2q-29 0 -56 -1t-47 1q-26 2 -47 20.5t-24 49.5q-3 29 -1.5 62.5t1.5 67.5v66q0 16 -1 32.5t1 32.5q0 7 1 10q1 1 3.5 2.5t2.5 2.5q0 2 -2 2.5
t-4 2.5q-4 8 -2.5 26.5t1.5 31.5v147q2 2 4.5 3t4.5 4q3 1 5.5 -0.5t2.5 3.5q-1 8 -6.5 3.5t-10.5 -0.5q3 32 22.5 52.5t48.5 23.5q20 2 47.5 1t57.5 -1q23 0 46 1t43.5 -0.5t37.5 -6.5t28 -17q8 -9 14.5 -21.5t8.5 -26.5q2 -18 1 -38.5t-1 -40.5q0 -6 1 -13t1 -14.5t-1 -14
t-5 -10.5q-7 -7 -27 -6t-33 1q-7 0 -16 -0.5t-17.5 0t-15 2t-9.5 4.5q-3 5 -2.5 16l1 22.5t-0.5 22t-8 13.5q-8 5 -21 3.5t-24 -1.5h-20.5t-22.5 -2zM310 624q0 1 1 1q0 4 -3 3q1 -2 0.5 -3t1.5 -1zM298 595q6 -2 9 2t-3 6q-2 -2 -5 -2.5t-1 -5.5zM290 589q4 -1 4 2t-3 4
q0 -2 -1 -3t0 -3zM307 561q4 -2 8 -3t9 -3q5 4 3 15q8 2 8 10h-5q0 -10 -9 -11.5t-14 -7.5zM297 573q5 -4 9 0v4q-3 2 -6.5 1t-2.5 -5zM63 561q2 -3 8 -2.5t11 -0.5q1 5 5 7.5t6 5.5q-8 4 -14.5 2t-14.5 3q5 -8 -1 -15zM114 570q2 -4 7.5 -2t5.5 8q-10 0 -13 -6zM324 535
q6 0 6 1q-2 1 -1.5 2t-1.5 1q1 -2 -0.5 -2t-2.5 -2zM335 526h2v3h-2v-3zM269 523q-1 -6 2 -3.5t-2 3.5zM279 502q7 -2 6 4q-2 0 -2 1t-2 0q-1 -2 -1.5 -2.5t-0.5 -2.5zM295 503v-3q2 0 2 -2h3q0 2 1 2v3q-2 0 -1 1h-3q0 -2 -2 -1zM320 488q3 -2 3 2t-3 2v-4zM253 478
q0 -9 6 -9q6 5 1 10q-3 1 -7 -1zM297 466q0 4 -3.5 3.5t-6.5 -0.5q-4 -4 2.5 -6t7.5 3zM329 460q-2 3 -8.5 4.5t-10.5 -1.5q3 -2 9.5 -5.5t9.5 2.5zM9 401q-1 -4 3 -4.5t6 1.5q1 5 -3 5t-6 -2zM220 361q-1 -5 3 -4.5t3 5.5q-5 0 -6 -1zM301 313q3 -4 5 -2t4 5q-2 3 -5.5 2.5
t-3.5 -5.5zM154 57q6 4 -1 7q-2 -2 -1.5 -4.5t2.5 -2.5z" />
    <glyph glyph-name="scedilla" unicode="&#x15f;" 
d="M231 513q-3 9 -18.5 9h-32.5h-25.5t-19.5 -2q-9 -2 -9 -16.5v-31.5q1 -14 -0.5 -25.5t0.5 -18.5q3 -11 21 -19.5l30 -14.5l57 -29.5l57 -29.5q13 -7 28.5 -14.5t23.5 -17.5q9 -12 11.5 -28.5t2.5 -35t-1.5 -40t0.5 -44.5q-1 -3 -6 -2.5t-7 -1.5q0 -5 6 -3.5t7 -2.5
q2 -48 -2.5 -81t-33.5 -51q-17 -11 -42.5 -12.5t-55.5 -0.5q2 -1 4 -3q3 -3 3.5 -12t0.5 -19t-1 -19t-3 -12q-2 -5 -7.5 -12t-10.5 -10q-8 -5 -20 -7.5t-24 -2.5t-21 2t-12 5q-4 6 -4 16.5t1 22l2 23.5t-1 21q2 2 3 4t4 3q-23 0 -44 1t-38 5q-4 2 -2 8q-3 5 -6.5 0.5
t-6.5 -0.5q-15 7 -23 20t-11 31t-3 40v46q0 17 -2 31t6 22q6 6 25 5t33 -1q13 0 32 1.5t26 -5.5q5 -5 5 -16t-1 -23t0 -22.5t8 -14.5q8 -5 21 -3.5t24 1.5h22.5t22.5 2q9 2 9 16.5v31.5q0 14 1 25.5t-1 17.5q-3 11 -19.5 18.5t-28.5 13.5l-52.5 27.5l-52.5 27.5
q-20 11 -40.5 19.5t-30.5 28.5q-6 12 -7.5 26t-0.5 29.5t2 33.5t-1 38l11.5 -5.5t12.5 2.5q1 6 -2 8t-7 2.5l-8 1t-7 2.5q1 23 -0.5 43t0.5 37q2 31 22 51t50 23q28 3 58 1.5t54 -2.5q2 0 4 -1.5t3 -1.5q4 1 6 2.5t6 1.5q8 1 17.5 0.5t20.5 -0.5q23 2 40 0q30 -2 50 -22
t23 -46q2 -15 2 -26.5t-0.5 -22t-1 -22.5t-0.5 -28q0 -8 0.5 -19t-4.5 -16q-8 -8 -25.5 -6t-34.5 2q-14 0 -32.5 -1t-24.5 7q-5 7 -3.5 19.5t1.5 23.5v7.5v4t-0.5 4t-1.5 8.5zM71 484q3 -3 7.5 -3.5t7.5 -2.5q3 3 1 7q-5 1 -10 4t-6 -5zM161 110q-2 -3 1 -7t8 -3q4 5 0 10
t-9 0zM139 54q2 -1 3 0t3 1q1 6 -7 4q0 -4 1 -5zM129 113h6q2 7 -4 6q-2 -4 -2 -6zM150 42q-1 -4 2 -4.5t5 1.5q1 4 -2 4.5t-5 -1.5zM304 10q0 2 1 3t0 3h-6q0 -6 5 -6zM116 14v-2l2 -2h3q0 2 1 2v2l-1 2h-3q0 -2 -2 -2zM128 78q0 4 -3 5q-2 -2 -1.5 -4t4.5 -1z" />
    <glyph glyph-name="uniFB01" unicode="&#xfb01;" 
d="M231 513q-3 9 -18.5 9h-32.5h-25.5t-19.5 -2q-9 -2 -9 -16.5v-31.5q1 -14 -0.5 -25.5t0.5 -18.5q3 -11 21 -19.5l30 -14.5l57 -29.5l57 -29.5q13 -7 28.5 -14.5t23.5 -17.5q9 -12 11.5 -28.5t2.5 -35t-1.5 -40t0.5 -44.5q-1 -3 -6 -2.5t-7 -1.5q0 -5 6 -3.5t7 -2.5
q2 -48 -2.5 -81t-33.5 -51q-17 -11 -42.5 -12.5t-55.5 -0.5q2 -1 4 -3q3 -3 3.5 -12t0.5 -19t-1 -19t-3 -12q-2 -5 -7.5 -12t-10.5 -10q-8 -5 -20 -7.5t-24 -2.5t-21 2t-12 5q-4 6 -4 16.5t1 22l2 23.5t-1 21q2 2 3 4t4 3q-23 0 -44 1t-38 5q-4 2 -2 8q-3 5 -6.5 0.5
t-6.5 -0.5q-15 7 -23 20t-11 31t-3 40v46q0 17 -2 31t6 22q6 6 25 5t33 -1q13 0 32 1.5t26 -5.5q5 -5 5 -16t-1 -23t0 -22.5t8 -14.5q8 -5 21 -3.5t24 1.5h22.5t22.5 2q9 2 9 16.5v31.5q0 14 1 25.5t-1 17.5q-3 11 -19.5 18.5t-28.5 13.5l-52.5 27.5l-52.5 27.5
q-20 11 -40.5 19.5t-30.5 28.5q-6 12 -7.5 26t-0.5 29.5t2 33.5t-1 38l11.5 -5.5t12.5 2.5q1 6 -2 8t-7 2.5l-8 1t-7 2.5q1 23 -0.5 43t0.5 37q2 31 22 51t50 23q28 3 58 1.5t54 -2.5q2 0 4 -1.5t3 -1.5q4 1 6 2.5t6 1.5q8 1 17.5 0.5t20.5 -0.5q23 2 40 0q30 -2 50 -22
t23 -46q2 -15 2 -26.5t-0.5 -22t-1 -22.5t-0.5 -28q0 -8 0.5 -19t-4.5 -16q-8 -8 -25.5 -6t-34.5 2q-14 0 -32.5 -1t-24.5 7q-5 7 -3.5 19.5t1.5 23.5v7.5v4t-0.5 4t-1.5 8.5zM71 484q3 -3 7.5 -3.5t7.5 -2.5q3 3 1 7q-5 1 -10 4t-6 -5zM161 110q-2 -3 1 -7t8 -3q4 5 0 10
t-9 0zM139 54q2 -1 3 0t3 1q1 6 -7 4q0 -4 1 -5zM129 113h6q2 7 -4 6q-2 -4 -2 -6zM150 42q-1 -4 2 -4.5t5 1.5q1 4 -2 4.5t-5 -1.5zM304 10q0 2 1 3t0 3h-6q0 -6 5 -6zM116 14v-2l2 -2h3q0 2 1 2v2l-1 2h-3q0 -2 -2 -2zM128 78q0 4 -3 5q-2 -2 -1.5 -4t4.5 -1z" />
    <glyph glyph-name="uniFB02" unicode="&#xfb02;" 
d="M231 513q-3 9 -18.5 9h-32.5h-25.5t-19.5 -2q-9 -2 -9 -16.5v-31.5q1 -14 -0.5 -25.5t0.5 -18.5q3 -11 21 -19.5l30 -14.5l57 -29.5l57 -29.5q13 -7 28.5 -14.5t23.5 -17.5q9 -12 11.5 -28.5t2.5 -35t-1.5 -40t0.5 -44.5q-1 -3 -6 -2.5t-7 -1.5q0 -5 6 -3.5t7 -2.5
q2 -48 -2.5 -81t-33.5 -51q-17 -11 -42.5 -12.5t-55.5 -0.5q2 -1 4 -3q3 -3 3.5 -12t0.5 -19t-1 -19t-3 -12q-2 -5 -7.5 -12t-10.5 -10q-8 -5 -20 -7.5t-24 -2.5t-21 2t-12 5q-4 6 -4 16.5t1 22l2 23.5t-1 21q2 2 3 4t4 3q-23 0 -44 1t-38 5q-4 2 -2 8q-3 5 -6.5 0.5
t-6.5 -0.5q-15 7 -23 20t-11 31t-3 40v46q0 17 -2 31t6 22q6 6 25 5t33 -1q13 0 32 1.5t26 -5.5q5 -5 5 -16t-1 -23t0 -22.5t8 -14.5q8 -5 21 -3.5t24 1.5h22.5t22.5 2q9 2 9 16.5v31.5q0 14 1 25.5t-1 17.5q-3 11 -19.5 18.5t-28.5 13.5l-52.5 27.5l-52.5 27.5
q-20 11 -40.5 19.5t-30.5 28.5q-6 12 -7.5 26t-0.5 29.5t2 33.5t-1 38l11.5 -5.5t12.5 2.5q1 6 -2 8t-7 2.5l-8 1t-7 2.5q1 23 -0.5 43t0.5 37q2 31 22 51t50 23q28 3 58 1.5t54 -2.5q2 0 4 -1.5t3 -1.5q4 1 6 2.5t6 1.5q8 1 17.5 0.5t20.5 -0.5q23 2 40 0q30 -2 50 -22
t23 -46q2 -15 2 -26.5t-0.5 -22t-1 -22.5t-0.5 -28q0 -8 0.5 -19t-4.5 -16q-8 -8 -25.5 -6t-34.5 2q-14 0 -32.5 -1t-24.5 7q-5 7 -3.5 19.5t1.5 23.5v7.5v4t-0.5 4t-1.5 8.5zM71 484q3 -3 7.5 -3.5t7.5 -2.5q3 3 1 7q-5 1 -10 4t-6 -5zM161 110q-2 -3 1 -7t8 -3q4 5 0 10
t-9 0zM139 54q2 -1 3 0t3 1q1 6 -7 4q0 -4 1 -5zM129 113h6q2 7 -4 6q-2 -4 -2 -6zM150 42q-1 -4 2 -4.5t5 1.5q1 4 -2 4.5t-5 -1.5zM304 10q0 2 1 3t0 3h-6q0 -6 5 -6zM116 14v-2l2 -2h3q0 2 1 2v2l-1 2h-3q0 -2 -2 -2zM128 78q0 4 -3 5q-2 -2 -1.5 -4t4.5 -1z" />
  </font>
</defs>
</svg>
